<?xml version="1.0" standalone="no"?>
<!DOCTYPE svg PUBLIC "-//W3C//DTD SVG 20010904//EN"
 "http://www.w3.org/TR/2001/REC-SVG-20010904/DTD/svg10.dtd">
<svg version="1.0" xmlns="http://www.w3.org/2000/svg"
 width="82.000000pt" height="82.000000pt" viewBox="0 0 82.000000 82.000000"
 preserveAspectRatio="xMidYMid meet">
<metadata>
Created by potrace 1.11, written by Peter Selinger 2001-2013
</metadata>
<g transform="translate(0.000000,82.000000) scale(0.100000,-0.100000)"
fill="#000000" stroke="none">
<path d="M459 762 c-9 -4 -31 -24 -49 -46 -34 -38 -35 -38 -87 -32 -32 4 -62
2 -74 -5 -29 -15 -52 -74 -43 -113 4 -17 8 -40 10 -51 4 -32 23 -75 40 -93 15
-15 16 -13 10 15 -9 41 9 106 38 140 20 23 30 27 66 25 35 -3 47 2 80 32 40
36 91 52 135 44 24 -5 24 -5 8 22 -26 45 -96 77 -134 62z"/>
<path d="M521 621 c-9 -6 -4 -13 14 -25 36 -24 55 -71 44 -110 -10 -34 -8 -39
14 -31 26 11 46 64 35 95 -16 46 -79 88 -107 71z"/>
<path d="M653 606 c25 -19 46 -82 41 -120 -7 -49 -34 -114 -49 -120 -29 -11
-16 -29 15 -22 38 7 90 46 111 83 40 69 -17 170 -106 188 -28 6 -29 5 -12 -9z"/>
<path d="M413 579 c-13 -5 -23 -13 -23 -18 0 -18 43 -51 66 -51 15 0 24 -7 26
-21 8 -54 68 -45 68 10 0 32 -7 41 -45 65 -34 22 -61 27 -92 15z"/>
<path d="M133 535 c-24 -50 -7 -125 52 -228 25 -43 39 -74 31 -68 -8 6 -19 25
-26 41 -7 17 -16 30 -21 30 -4 0 -27 19 -50 43 -45 45 -44 42 8 -40 18 -29 34
-62 36 -73 2 -19 -4 -22 -48 -25 -28 -2 -55 -5 -60 -6 -6 -2 -20 3 -33 10 -22
12 -23 11 -13 -7 11 -21 47 -37 104 -47 36 -6 52 -24 22 -26 -8 -1 -19 -3 -25
-4 -5 -1 -20 -3 -32 -4 -22 -2 -22 -3 -3 -10 11 -5 31 -7 43 -6 22 2 23 -1 18
-29 -4 -22 -3 -27 4 -16 5 8 10 23 10 32 0 18 33 42 43 31 4 -3 -1 -19 -9 -36
-15 -28 -15 -30 2 -22 50 20 55 19 48 -9 -6 -25 -5 -26 22 -16 69 27 73 67 13
123 -30 29 -38 42 -29 51 30 37 11 162 -39 249 -17 30 -31 64 -31 76 0 32 -18
25 -37 -14z"/>
<path d="M314 505 c-32 -32 -31 -77 2 -144 35 -69 57 -79 116 -52 27 12 56 18
73 15 38 -7 58 2 84 37 27 37 22 66 -9 49 -28 -15 -104 -15 -140 0 -21 9 -37
27 -52 61 -28 59 -42 66 -74 34z"/>
<path d="M789 374 c-13 -15 -43 -35 -66 -46 -34 -15 -47 -28 -63 -66 -19 -43
-72 -92 -99 -92 -27 0 -17 -22 18 -40 94 -47 161 -4 161 104 0 35 5 48 20 56
22 12 38 38 50 81 10 35 10 36 -21 3z"/>
<path d="M285 330 c-14 -23 30 -85 80 -113 43 -24 58 -27 107 -23 60 4 107 26
127 58 29 47 -43 58 -114 18 -62 -34 -92 -28 -152 30 -24 22 -45 35 -48 30z"/>
<path d="M265 198 c14 -36 142 -122 198 -132 50 -9 127 2 127 19 0 25 -108 76
-173 81 -66 6 -124 20 -145 37 -9 7 -11 6 -7 -5z"/>
</g>
</svg>
