<svg width="13" height="7" viewBox="0 0 13 7" fill="none" xmlns="http://www.w3.org/2000/svg">
<path d="M6.52801 6.99935C6.74994 6.99428 6.96206 6.90901 7.12331 6.76003L12.7262 1.50843C12.8972 1.34684 12.9956 1.12566 12.9999 0.893356C13.0041 0.661056 12.9138 0.436594 12.7488 0.26917C12.5838 0.101746 12.3576 0.00501817 12.1197 0.000189728C11.8818 -0.00463824 11.6516 0.0828266 11.4796 0.243412L6.49999 4.91375L1.52037 0.243413C1.3484 0.082827 1.11823 -0.00463777 0.880319 0.00019022C0.642405 0.00501868 0.416157 0.101747 0.251166 0.269171C0.0861752 0.436595 -0.00409082 0.661057 0.000142164 0.893357C0.00437515 1.12566 0.102764 1.34684 0.27375 1.50843L5.87668 6.76003C5.96343 6.84029 6.06574 6.90281 6.17759 6.94391C6.28945 6.985 6.40858 7.00385 6.52801 6.99935Z" fill="#444041"/>
</svg>
