<svg xmlns="http://www.w3.org/2000/svg" width="13" height="7" viewBox="0 0 13 7"><defs><linearGradient id="shy3a" x1="6.5" x2="6.5" y1="-3" y2="10" gradientUnits="userSpaceOnUse"><stop offset="0" stop-color="#fafd69"/><stop offset="1" stop-color="#efd063"/></linearGradient></defs><g><g transform="rotate(90 6.5 3.5)"><path fill="#fff" d="M3 3.528c.006.222.091.434.24.595l5.252 5.603c.161.171.382.27.615.274a.867.867 0 0 0 .624-.251.911.911 0 0 0 .026-1.27L5.087 3.5l4.67-4.98a.911.911 0 0 0-.026-1.269.867.867 0 0 0-1.24.023L3.24 2.877a.9.9 0 0 0-.24.651z"/><path fill="url(#shy3a)" d="M3 3.528c.006.222.091.434.24.595l5.252 5.603c.161.171.382.27.615.274a.867.867 0 0 0 .624-.251.911.911 0 0 0 .026-1.27L5.087 3.5l4.67-4.98a.911.911 0 0 0-.026-1.269.867.867 0 0 0-1.24.023L3.24 2.877a.9.9 0 0 0-.24.651z"/></g></g></svg>