<svg width="13" height="13" viewBox="0 0 13 13" fill="none" xmlns="http://www.w3.org/2000/svg">
<path fill-rule="evenodd" clip-rule="evenodd" d="M4.5712 3.92725L12.8223 7.60268C13.0873 7.77156 13.0439 8.06572 12.7709 8.15731L9.39319 8.96201L8.42749 12.4868C8.35217 12.7487 7.98991 12.7868 7.87561 12.5298L4.18326 4.31632C4.06814 4.07921 4.32313 3.83786 4.5712 3.92725Z" fill="white"/>
<path fill-rule="evenodd" clip-rule="evenodd" d="M4.89345 0C7.59257 0 9.78121 2.18411 9.78121 4.87262C9.78201 4.91174 9.77501 4.95064 9.7606 4.98701C9.74618 5.02339 9.72466 5.05653 9.69728 5.08449C9.66989 5.11244 9.63721 5.13464 9.60114 5.1498C9.56506 5.16496 9.52633 5.17278 9.4872 5.17278C9.44806 5.17278 9.40933 5.16496 9.37325 5.1498C9.33718 5.13464 9.3045 5.11244 9.27711 5.08449C9.24973 5.05653 9.22821 5.02339 9.21379 4.98701C9.19938 4.95064 9.19238 4.91174 9.19318 4.87262C9.19318 2.50226 7.27643 0.588186 4.89345 0.588186C2.51047 0.588186 0.588015 2.50271 0.588015 4.87262C0.588015 7.23638 2.51047 9.1512 4.89345 9.1512C4.93259 9.15036 4.97149 9.15736 5.00789 9.17176C5.04429 9.18616 5.07744 9.20769 5.10541 9.23507C5.13338 9.26245 5.15561 9.29515 5.17078 9.33123C5.18595 9.36731 5.19376 9.40606 5.19376 9.4452C5.19376 9.48435 5.18595 9.52309 5.17078 9.55918C5.15561 9.59526 5.13338 9.62795 5.10541 9.65534C5.07744 9.68272 5.04429 9.70425 5.00789 9.71865C4.97149 9.73306 4.93259 9.74003 4.89345 9.7392C2.19433 9.7392 0 7.55615 0 4.87262C0 2.18365 2.19433 0 4.89345 0Z" fill="white"/>
</svg>
