<svg width="30" height="29" viewBox="0 0 30 29" fill="none" xmlns="http://www.w3.org/2000/svg">
<path d="M29.1533 10.2623H24.8934C24.7438 9.58768 24.598 8.91278 24.449 8.23787C24.2271 7.20348 24.0267 6.16528 23.8149 5.1293L23.658 4.35168C23.6105 4.06447 23.5043 3.72464 23.38 3.44377C23.1318 2.85921 22.7508 2.31682 22.2505 1.90249C21.7557 1.48435 21.161 1.19715 20.5644 1.0491C20.267 0.961611 19.9652 0.925472 19.6672 0.887114C19.3769 0.871898 19.0567 0.847488 18.8072 0.853511C18.2784 0.847805 17.75 0.861436 17.2212 0.839563C16.6928 0.807862 16.164 0.616073 15.6352 0.554574C15.1065 0.491489 14.578 0.547917 14.0492 0.661722C13.5205 0.779332 12.992 0.868411 12.4633 0.850975L11.6704 0.85256L11.472 0.852877L11.3341 0.856681L11.2352 0.862071L10.8392 0.883627C10.5609 0.915011 10.2027 0.96066 9.9142 1.04498C9.76521 1.09 9.61558 1.12899 9.46849 1.18193L9.03292 1.37055C8.46199 1.65332 7.94527 2.08033 7.56423 2.5999C7.38227 2.86429 7.2133 3.13818 7.09347 3.43331C6.96794 3.73922 6.86998 3.99949 6.80658 4.39353L6.81673 4.32981L6.04355 7.83147C5.84922 8.64142 5.65965 9.45232 5.46406 10.262H0.52002V13.724C0.52002 13.724 0.650943 13.7728 0.902013 13.8549C0.997749 15.9938 1.17242 19.0269 1.48277 22.2118C1.52747 22.6712 1.59372 23.0906 1.67392 23.4821C2.13675 25.7433 3.13342 26.9207 4.04387 27.5357C4.04387 27.5357 4.2569 27.6913 4.84146 27.9012L4.84811 27.9525C4.90391 27.9563 4.96477 27.9598 5.02215 27.9636C6.32061 28.3957 9.13278 28.9999 14.7191 28.9999C20.1881 28.9999 23.0415 28.4207 24.4071 27.9906C24.501 27.9855 24.6033 27.9807 24.694 27.9757L24.41 27.9896C25.2126 27.7366 25.5005 27.5353 25.5005 27.5353C26.4109 26.9204 27.4073 25.743 27.8704 23.4818C27.9506 23.0906 28.0166 22.6709 28.0616 22.2115C28.3703 19.0446 28.5447 16.0277 28.6407 13.8904C28.9755 13.7871 29.154 13.7237 29.154 13.7237V10.2623H29.1533ZM7.63524 8.15291L8.28098 4.62558L8.28764 4.58975L8.29112 4.56186C8.30698 4.43252 8.36879 4.1843 8.44741 4.00361C8.52286 3.80611 8.63413 3.62859 8.74635 3.45455C8.98886 3.11884 9.30459 2.85002 9.67771 2.65696L9.96936 2.52921C10.0708 2.4937 10.1786 2.46866 10.2822 2.43601C10.3875 2.39797 10.4893 2.38941 10.5913 2.37134C10.702 2.35834 10.7749 2.32664 10.9163 2.32411L11.3122 2.30445L11.4111 2.29938L11.4346 2.29843H11.471L11.6695 2.29875L12.4623 2.30033C12.9911 2.2829 13.5195 2.37197 14.0483 2.48958C14.5767 2.60339 15.1055 2.65982 15.6343 2.59705C16.1627 2.53555 16.6915 2.34376 17.2203 2.31206C17.749 2.28987 18.2775 2.30382 18.8062 2.29811C19.0858 2.29145 19.2928 2.3146 19.5306 2.32157C19.7544 2.35169 19.9836 2.37483 20.1919 2.43791C20.6224 2.53935 20.9977 2.74255 21.3087 3.00789C21.6216 3.27227 21.8625 3.62098 22.021 4.01153C22.0993 4.21759 22.1507 4.38687 22.1817 4.62272L22.3111 5.40541C22.4804 6.449 22.6617 7.491 22.8214 8.53681C22.9055 9.11217 22.9933 9.68722 23.0785 10.2626H7.28336C7.40002 9.55915 7.51953 8.85635 7.63524 8.15291ZM2.35961 14.2813C2.54284 14.3301 2.7416 14.3805 2.95019 14.4319V18.9305L2.35961 14.2813ZM3.89392 22.8728V14.6525C4.14911 14.7086 4.41952 14.765 4.70102 14.8218V22.8728H3.89392ZM5.64507 22.8728V14.9999C5.90597 15.0465 6.17352 15.0925 6.45217 15.1372V22.8731H5.64507V22.8728ZM7.39653 22.8728V15.278C7.65965 15.3147 7.9272 15.3506 8.20363 15.3851V22.8728H7.39653ZM9.14736 22.8728V15.4916C9.41143 15.5192 9.68057 15.5452 9.95478 15.5699V22.8731H9.14736V22.8728ZM10.8988 22.8728V15.6457C11.1632 15.6647 11.433 15.6812 11.7059 15.6961V22.8728H10.8988ZM12.65 22.8728V15.7395C12.9153 15.7497 13.1844 15.7579 13.4571 15.7639V22.8728H12.65ZM14.4008 22.8728V15.7776C14.507 15.7779 14.6116 15.7798 14.7184 15.7798C14.8836 15.7798 15.0453 15.7776 15.2079 15.776V22.8725H14.4008V22.8728ZM16.1519 22.8728V15.7604C16.4243 15.7535 16.6934 15.7446 16.959 15.7338V22.8731H16.1519V22.8728ZM17.9031 22.8728V15.6872C18.1763 15.6714 18.4449 15.6533 18.7102 15.634V22.8728H17.9031ZM19.6542 22.8728V15.5563C19.9281 15.5316 20.1976 15.5053 20.4613 15.4774V22.8728H19.6542ZM21.4054 22.8728V15.3689C21.6812 15.3347 21.9494 15.2989 22.2125 15.2621V22.8728H21.4054ZM23.1565 22.8728V15.121C23.4349 15.077 23.7027 15.0313 23.9639 14.9854V22.8728H23.1565ZM24.9077 22.8728V14.8094C25.1889 14.7539 25.4589 14.6982 25.7148 14.643V22.8728H24.9077ZM26.6588 18.4173V14.4277C26.8424 14.3837 27.018 14.3406 27.1822 14.2984L26.6588 18.4173Z" fill="white"/>
</svg>
