<svg width="26" height="22" viewBox="0 0 26 22" fill="none" xmlns="http://www.w3.org/2000/svg">
<path d="M2.62923 10.9257L2.08652 12.0111H3.30005C3.87405 12.0111 4.34381 12.4439 4.75743 13.478L4.76902 13.507L4.78297 13.5349C5.483 14.9349 5.98365 16.3015 6.50047 17.7123C6.76682 18.4393 7.03747 19.1781 7.34192 19.9392L7.39909 20.0821L7.50795 20.191C7.69738 20.3804 7.98458 20.5722 8.36134 20.5722C8.73809 20.5722 9.02529 20.3804 9.21473 20.191L9.28575 20.12L9.33558 20.0328C13.5932 12.5819 18.9042 6.85415 24.4029 3.04739L24.4585 3.0089L24.5063 2.96108C24.6139 2.85343 24.7619 2.69751 24.852 2.51713C24.8992 2.42284 24.975 2.23618 24.9421 2.00118C24.9037 1.72686 24.7409 1.53679 24.5804 1.42981C24.4438 1.33874 24.3068 1.30396 24.231 1.28827C24.1458 1.27066 24.0624 1.2627 23.9939 1.25829C23.8651 1.24997 23.7097 1.24999 23.5628 1.25L23.5452 1.25H23.4529L23.3633 1.27239C18.2189 2.5585 13.9525 6.47134 9.12505 11.8233C8.49011 10.5353 7.61846 9.46908 6.33708 9.04195L6.32162 9.0368L6.30595 9.03232C5.32362 8.75165 4.49791 8.96223 3.86364 9.40995C3.26268 9.83417 2.871 10.4421 2.62923 10.9257Z" fill="black"/>
<path d="M2.62923 10.9257L2.08652 12.0111H3.30005C3.87405 12.0111 4.34381 12.4439 4.75743 13.478L4.76902 13.507L4.78297 13.5349C5.483 14.9349 5.98365 16.3015 6.50047 17.7123C6.76682 18.4393 7.03747 19.1781 7.34192 19.9392L7.39909 20.0821L7.50795 20.191C7.69738 20.3804 7.98458 20.5722 8.36134 20.5722C8.73809 20.5722 9.02529 20.3804 9.21473 20.191L9.28575 20.12L9.33558 20.0328C13.5932 12.5819 18.9042 6.85415 24.4029 3.04739L24.4585 3.0089L24.5063 2.96108C24.6139 2.85343 24.7619 2.69751 24.852 2.51713C24.8992 2.42284 24.975 2.23618 24.9421 2.00118C24.9037 1.72686 24.7409 1.53679 24.5804 1.42981C24.4438 1.33874 24.3068 1.30396 24.231 1.28827C24.1458 1.27066 24.0624 1.2627 23.9939 1.25829C23.8651 1.24997 23.7097 1.24999 23.5628 1.25L23.5452 1.25H23.4529L23.3633 1.27239C18.2189 2.5585 13.9525 6.47134 9.12505 11.8233C8.49011 10.5353 7.61846 9.46908 6.33708 9.04195L6.32162 9.0368L6.30595 9.03232C5.32362 8.75165 4.49791 8.96223 3.86364 9.40995C3.26268 9.83417 2.871 10.4421 2.62923 10.9257Z" fill="url(#paint0_linear)"/>
<path d="M2.62923 10.9257L2.08652 12.0111H3.30005C3.87405 12.0111 4.34381 12.4439 4.75743 13.478L4.76902 13.507L4.78297 13.5349C5.483 14.9349 5.98365 16.3015 6.50047 17.7123C6.76682 18.4393 7.03747 19.1781 7.34192 19.9392L7.39909 20.0821L7.50795 20.191C7.69738 20.3804 7.98458 20.5722 8.36134 20.5722C8.73809 20.5722 9.02529 20.3804 9.21473 20.191L9.28575 20.12L9.33558 20.0328C13.5932 12.5819 18.9042 6.85415 24.4029 3.04739L24.4585 3.0089L24.5063 2.96108C24.6139 2.85343 24.7619 2.69751 24.852 2.51713C24.8992 2.42284 24.975 2.23618 24.9421 2.00118C24.9037 1.72686 24.7409 1.53679 24.5804 1.42981C24.4438 1.33874 24.3068 1.30396 24.231 1.28827C24.1458 1.27066 24.0624 1.2627 23.9939 1.25829C23.8651 1.24997 23.7097 1.24999 23.5628 1.25L23.5452 1.25H23.4529L23.3633 1.27239C18.2189 2.5585 13.9525 6.47134 9.12505 11.8233C8.49011 10.5353 7.61846 9.46908 6.33708 9.04195L6.32162 9.0368L6.30595 9.03232C5.32362 8.75165 4.49791 8.96223 3.86364 9.40995C3.26268 9.83417 2.871 10.4421 2.62923 10.9257Z" stroke="#F9F3E5" stroke-width="1.5"/>
<defs>
<linearGradient id="paint0_linear" x1="13.75" y1="2" x2="13.75" y2="19.8222" gradientUnits="userSpaceOnUse">
<stop stop-color="#9043FA"/>
<stop offset="1" stop-color="#6828C1"/>
</linearGradient>
</defs>
</svg>
