<svg xmlns="http://www.w3.org/2000/svg" width="24" height="24" viewBox="0 0 24 24"><defs><linearGradient id="hlhna" x1="1" x2="23" y1="11.8" y2="11.8" gradientUnits="userSpaceOnUse"><stop offset="0" stop-color="#fe5b3a"/><stop offset="1" stop-color="#8f43fe"/></linearGradient><clipPath id="hlhnb"><path fill="#fff" d="M-.25 24.5v-25h24.5v25zM23 12c0-6.065-4.935-11-11-11C5.934 1 1 5.935 1 12c0 6.066 4.934 11 11 11 6.065 0 11-4.934 11-11zm-1.258 0c0 5.372-4.37 9.743-9.742 9.743-5.372 0-9.743-4.37-9.743-9.743 0-5.372 4.37-9.743 9.743-9.743 5.372 0 9.743 4.37 9.742 9.743z"/></clipPath><clipPath id="hlhnc"><path fill="#fff" d="M-.25 24.5v-25h24.5v25zM23 12c0-6.065-4.935-11-11-11C5.934 1 1 5.935 1 12c0 6.066 4.934 11 11 11 6.065 0 11-4.934 11-11zm-1.258 0c0 5.372-4.37 9.743-9.742 9.743-5.372 0-9.743-4.37-9.743-9.743 0-5.372 4.37-9.743 9.743-9.743 5.372 0 9.743 4.37 9.742 9.743z"/></clipPath><linearGradient id="hlhnd" x1="11.37" x2="16" y1="10.01" y2="10.01" gradientUnits="userSpaceOnUse"><stop offset="0" stop-color="#fe5b3a"/><stop offset="1" stop-color="#8f43fe"/></linearGradient><clipPath id="hlhne"><path fill="#fff" d="M9.5 17.5v-15h8v15zm6.316-1.687a.628.628 0 0 0 0-.89l-3.189-3.188V4.858a.628.628 0 1 0-1.257 0v7.137c0 .167.066.326.184.445l3.373 3.373a.625.625 0 0 0 .89 0z"/></clipPath><clipPath id="hlhnf"><path fill="#fff" d="M9.5 17.5v-15h8v15zm6.316-1.687a.628.628 0 0 0 0-.89l-3.189-3.188V4.858a.628.628 0 1 0-1.257 0v7.137c0 .167.066.326.184.445l3.373 3.373a.625.625 0 0 0 .89 0z"/></clipPath></defs><g><g><g><g><path fill="#010002" d="M12 23C5.934 23 1 18.066 1 12 1 5.935 5.934 1 12 1c6.065 0 11 4.935 11 11 0 6.066-4.935 11-11 11zm0-20.743c-5.372 0-9.743 4.37-9.743 9.743 0 5.372 4.37 9.743 9.743 9.743 5.372 0 9.742-4.37 9.742-9.743 0-5.372-4.37-9.743-9.742-9.743z"/><path fill="url(#hlhna)" d="M12 23C5.934 23 1 18.066 1 12 1 5.935 5.934 1 12 1c6.065 0 11 4.935 11 11 0 6.066-4.935 11-11 11zm0-20.743c-5.372 0-9.743 4.37-9.743 9.743 0 5.372 4.37 9.743 9.743 9.743 5.372 0 9.742-4.37 9.742-9.743 0-5.372-4.37-9.743-9.742-9.743z"/><path fill="none" stroke="#000" stroke-miterlimit="50" d="M12 23C5.934 23 1 18.066 1 12 1 5.935 5.934 1 12 1c6.065 0 11 4.935 11 11 0 6.066-4.935 11-11 11zm0-20.743c-5.372 0-9.743 4.37-9.743 9.743 0 5.372 4.37 9.743 9.743 9.743 5.372 0 9.742-4.37 9.742-9.743 0-5.372-4.37-9.743-9.742-9.743z" clip-path="url(&quot;#hlhnb&quot;)"/><path fill="none" stroke="#000" stroke-miterlimit="50" d="M12 23C5.934 23 1 18.066 1 12 1 5.935 5.934 1 12 1c6.065 0 11 4.935 11 11 0 6.066-4.935 11-11 11zm0-20.743c-5.372 0-9.743 4.37-9.743 9.743 0 5.372 4.37 9.743 9.743 9.743 5.372 0 9.742-4.37 9.742-9.743 0-5.372-4.37-9.743-9.742-9.743z" clip-path="url(&quot;#hlhnc&quot;)"/></g></g><g><g><path fill="#010002" d="M15.372 15.997a.625.625 0 0 1-.445-.184l-3.373-3.373a.628.628 0 0 1-.184-.445V4.858a.628.628 0 0 1 1.257 0v6.877l3.19 3.189a.628.628 0 0 1-.445 1.073z"/><path fill="url(#hlhnd)" d="M15.372 15.997a.625.625 0 0 1-.445-.184l-3.373-3.373a.628.628 0 0 1-.184-.445V4.858a.628.628 0 0 1 1.257 0v6.877l3.19 3.189a.628.628 0 0 1-.445 1.073z"/><path fill="none" stroke="#000" stroke-miterlimit="50" d="M15.372 15.997a.625.625 0 0 1-.445-.184l-3.373-3.373a.628.628 0 0 1-.184-.445V4.858a.628.628 0 0 1 1.257 0v6.877l3.19 3.189a.628.628 0 0 1-.445 1.073z" clip-path="url(&quot;#hlhne&quot;)"/><path fill="none" stroke="#000" stroke-miterlimit="50" d="M15.372 15.997a.625.625 0 0 1-.445-.184l-3.373-3.373a.628.628 0 0 1-.184-.445V4.858a.628.628 0 0 1 1.257 0v6.877l3.19 3.189a.628.628 0 0 1-.445 1.073z" clip-path="url(&quot;#hlhnf&quot;)"/></g></g></g></g></svg>