<svg xmlns="http://www.w3.org/2000/svg" width="19" height="19" viewBox="0 0 19 19"><g><g><path fill="#b7b7b7" d="M.72 16.05l6.315-6.338L.706 3.455a.668.668 0 0 1 0-.943l1.8-1.81A.662.662 0 0 1 2.978.51c.178 0 .346.072.471.193l6.3 6.237 6.31-6.233a.662.662 0 0 1 .47-.192c.179 0 .347.072.472.192l1.796 1.81c.26.26.26.683 0 .943l-6.329 6.257 6.31 6.333a.667.667 0 0 1 .197.472.647.647 0 0 1-.198.471l-1.8 1.81a.663.663 0 0 1-.943 0L9.75 12.489l-6.29 6.309a.663.663 0 0 1-.943 0l-1.8-1.81a.667.667 0 0 1-.198-.471.69.69 0 0 1 .203-.467z"/></g></g></svg>