<svg width="25" height="25" viewBox="0 0 25 25" fill="none" xmlns="http://www.w3.org/2000/svg">
<path d="M14.711 12.4998L24.542 2.66881C25.1528 2.05854 25.1528 1.06836 24.542 0.45809C23.9312 -0.152697 22.942 -0.152697 22.3313 0.45809L12.5003 10.2891L2.66881 0.45809C2.05802 -0.152697 1.06888 -0.152697 0.45809 0.45809C-0.152697 1.06836 -0.152697 2.05854 0.45809 2.66881L10.2896 12.4998L0.45809 22.3307C-0.152697 22.941 -0.152697 23.9312 0.45809 24.5415C0.763484 24.8463 1.16373 24.999 1.56345 24.999C1.96317 24.999 2.36341 24.8463 2.66881 24.5409L12.5003 14.71L22.3313 24.5409C22.6367 24.8463 23.0369 24.999 23.4366 24.999C23.8363 24.999 24.2366 24.8463 24.542 24.5409C25.1528 23.9307 25.1528 22.9405 24.542 22.3302L14.711 12.4998Z" fill="white"/>
</svg>
