<svg xmlns="http://www.w3.org/2000/svg" width="24" height="23" viewBox="0 0 24 23"><defs><linearGradient id="wpufa" x1="0" x2="24" y1="10.93" y2="10.93" gradientUnits="userSpaceOnUse"><stop offset="0" stop-color="#fe5b3a"/><stop offset="1" stop-color="#8f43fe"/></linearGradient><linearGradient id="wpufb" x1="5.07" x2="18.92" y1="11.59" y2="11.59" gradientUnits="userSpaceOnUse"><stop offset="0" stop-color="#fe5b3a"/><stop offset="1" stop-color="#8f43fe"/></linearGradient><linearGradient id="wpufc" x1="5.07" x2="18.92" y1="8.39" y2="8.39" gradientUnits="userSpaceOnUse"><stop offset="0" stop-color="#fe5b3a"/><stop offset="1" stop-color="#8f43fe"/></linearGradient><linearGradient id="wpufd" x1="5.07" x2="11.38" y1="5.13" y2="5.13" gradientUnits="userSpaceOnUse"><stop offset="0" stop-color="#fe5b3a"/><stop offset="1" stop-color="#8f43fe"/></linearGradient></defs><g><g><g><path d="M21.231 0A2.758 2.758 0 0 1 24 2.754v11.842a2.749 2.749 0 0 1-2.764 2.745H9.758l-5.173 4.697a.86.86 0 0 1-.553.223.826.826 0 0 1-.826-.826v-4.094h-.442A2.746 2.746 0 0 1 0 14.596V2.754A2.75 2.75 0 0 1 2.764 0zm1.117 14.596V2.754a1.1 1.1 0 0 0-1.112-1.103H2.764A1.1 1.1 0 0 0 1.65 2.754v11.842c0 .617.496 1.093 1.113 1.093h1.268c.456 0 .825.394.825.85v3.036l4.027-3.662a.84.84 0 0 1 .554-.224H21.23c.617 0 1.113-.476 1.113-1.093z"/><path fill="url(#wpufa)" d="M21.231 0A2.758 2.758 0 0 1 24 2.754v11.842a2.749 2.749 0 0 1-2.764 2.745H9.758l-5.173 4.697a.86.86 0 0 1-.553.223.826.826 0 0 1-.826-.826v-4.094h-.442A2.746 2.746 0 0 1 0 14.596V2.754A2.75 2.75 0 0 1 2.764 0zm1.117 14.596V2.754a1.1 1.1 0 0 0-1.112-1.103H2.764A1.1 1.1 0 0 0 1.65 2.754v11.842c0 .617.496 1.093 1.113 1.093h1.268c.456 0 .825.394.825.85v3.036l4.027-3.662a.84.84 0 0 1 .554-.224H21.23c.617 0 1.113-.476 1.113-1.093z"/></g><g><path d="M18.097 10.78H5.896a.825.825 0 1 0 0 1.651h12.197c.456 0 .825-.369.825-.825a.82.82 0 0 0-.82-.826z"/><path fill="url(#wpufb)" d="M18.097 10.78H5.896a.825.825 0 1 0 0 1.651h12.197c.456 0 .825-.369.825-.825a.82.82 0 0 0-.82-.826z"/></g><g><path d="M18.097 7.58H5.896a.825.825 0 1 0 0 1.651h12.197c.456 0 .825-.369.825-.825a.82.82 0 0 0-.82-.826z"/><path fill="url(#wpufc)" d="M18.097 7.58H5.896a.825.825 0 1 0 0 1.651h12.197c.456 0 .825-.369.825-.825a.82.82 0 0 0-.82-.826z"/></g><g><path d="M5.896 5.971h4.658a.825.825 0 1 0 0-1.651H5.896a.825.825 0 1 0 0 1.651z"/><path fill="url(#wpufd)" d="M5.896 5.971h4.658a.825.825 0 1 0 0-1.651H5.896a.825.825 0 1 0 0 1.651z"/></g></g></g></svg>