<svg width="32" height="30" viewBox="0 0 32 30" fill="none" xmlns="http://www.w3.org/2000/svg">
<path d="M21.3084 17.3306H31.7502C31.8876 17.3306 32.0001 17.443 32.0001 17.5805C32.0001 18.999 31.419 20.2862 30.4879 21.2173C29.5568 22.1484 28.2696 22.7295 26.8511 22.7295H26.2012C24.7828 22.7295 23.4955 22.1484 22.5645 21.2173C21.6334 20.2862 21.0522 18.999 21.0522 17.5805C21.0522 17.443 21.1647 17.3306 21.3022 17.3306H21.3084Z" fill="white"/>
<path fill-rule="evenodd" clip-rule="evenodd" d="M26.5322 8.25739L22.7142 17.768C22.6142 18.0242 22.3205 18.1492 22.0643 18.043C21.8081 17.943 21.6832 17.6493 21.7894 17.3931L26.0698 6.72644C26.1698 6.47024 26.4635 6.34526 26.7197 6.45149C26.8446 6.50148 26.9446 6.60146 26.9946 6.72644L31.275 17.3931C31.375 17.6493 31.25 17.943 31.0001 18.043C30.7439 18.143 30.4502 18.018 30.3502 17.768L26.5322 8.25739Z" fill="white"/>
<path d="M0.2562 17.3306H10.6979C10.8354 17.3306 10.9479 17.443 10.9479 17.5805C10.9479 18.999 10.3667 20.2862 9.43566 21.2173C8.50459 22.1484 7.21734 22.7295 5.79887 22.7295H5.14899C3.73052 22.7295 2.44327 22.1484 1.5122 21.2173C0.581137 20.2862 0 18.999 0 17.5805C0 17.443 0.112478 17.3306 0.249951 17.3306H0.2562Z" fill="white"/>
<path fill-rule="evenodd" clip-rule="evenodd" d="M5.47996 8.25739L1.66196 17.768C1.56198 18.0242 1.26828 18.1492 1.01208 18.043C0.755884 17.943 0.630908 17.6493 0.737137 17.3931L5.01755 6.72644C5.11753 6.47024 5.41123 6.34526 5.66743 6.45149C5.7924 6.50148 5.89238 6.60146 5.94237 6.72644L10.2228 17.3931C10.3228 17.6493 10.1978 17.943 9.94784 18.043C9.69164 18.143 9.39795 18.018 9.29797 17.768L5.47996 8.25739Z" fill="white"/>
<path fill-rule="evenodd" clip-rule="evenodd" d="M5.74254 7.33885C5.51134 7.48257 5.1989 7.41383 5.05517 7.17638C4.91145 6.94517 4.98019 6.63273 5.21764 6.48901C10.954 2.92721 20.9333 2.84597 26.7947 6.48901C27.0259 6.63273 27.1009 6.94517 26.9572 7.17638C26.8134 7.40758 26.501 7.48257 26.2698 7.33885C20.8646 3.98325 11.2852 3.90202 5.74879 7.33885H5.74254Z" fill="white"/>
<path d="M17.4717 5.33905V24.7165H14.541V5.33905C15.5158 5.28282 16.4969 5.28282 17.4717 5.33905Z" fill="white"/>
<path d="M11.2791 25.21H20.7398C21.5334 25.21 22.2582 25.6599 22.7831 26.3847C23.308 27.1096 23.633 28.1094 23.633 29.2029C23.633 29.3404 23.5517 29.4529 23.4517 29.4529H8.57965C8.47967 29.4529 8.39844 29.3404 8.39844 29.2029C8.39844 28.1031 8.72337 27.1033 9.24827 26.3847C9.77317 25.6599 10.4918 25.21 11.2916 25.21H11.2791Z" fill="white"/>
<path fill-rule="evenodd" clip-rule="evenodd" d="M17.4716 3.33314H14.5347V2.46456C14.5347 1.65846 15.197 0.996094 16.0031 0.996094C16.8092 0.996094 17.4716 1.65846 17.4716 2.46456V3.33314Z" fill="white"/>
</svg>
