<svg width="22" height="22" viewBox="0 0 22 22" fill="none" xmlns="http://www.w3.org/2000/svg">
<path d="M18.313 2.313H16.875V0.875V0.625H16.625H15.5H15.25V0.875V2.313H6.75V0.875V0.625H6.5H5.375H5.125V0.875V2.313H3.688C1.99893 2.313 0.625 3.68693 0.625 5.376V18.314C0.625 20.0031 1.99893 21.377 3.688 21.377H18.313C20.0021 21.377 21.376 20.0031 21.376 18.314V8.188V7.063V5.375V5.37484C21.3749 3.68587 20.001 2.313 18.313 2.313ZM16.875 4.813V3.938H18.313C19.105 3.938 19.75 4.58217 19.75 5.375V6.813H2.25V5.375C2.25 4.58207 2.89507 3.937 3.688 3.937H5.126V4.812V5.062H5.376H6.5H6.75V4.812V3.938H15.25V4.813V5.063H15.5H16.625H16.875V4.813ZM19.75 18.313C19.75 19.1049 19.1049 19.75 18.313 19.75H3.688C2.89497 19.75 2.25 19.1048 2.25 18.313V8.438H19.75V18.313Z" fill="black"/>
<path d="M18.313 2.313H16.875V0.875V0.625H16.625H15.5H15.25V0.875V2.313H6.75V0.875V0.625H6.5H5.375H5.125V0.875V2.313H3.688C1.99893 2.313 0.625 3.68693 0.625 5.376V18.314C0.625 20.0031 1.99893 21.377 3.688 21.377H18.313C20.0021 21.377 21.376 20.0031 21.376 18.314V8.188V7.063V5.375V5.37484C21.3749 3.68587 20.001 2.313 18.313 2.313ZM16.875 4.813V3.938H18.313C19.105 3.938 19.75 4.58217 19.75 5.375V6.813H2.25V5.375C2.25 4.58207 2.89507 3.937 3.688 3.937H5.126V4.812V5.062H5.376H6.5H6.75V4.812V3.938H15.25V4.813V5.063H15.5H16.625H16.875V4.813ZM19.75 18.313C19.75 19.1049 19.1049 19.75 18.313 19.75H3.688C2.89497 19.75 2.25 19.1048 2.25 18.313V8.438H19.75V18.313Z" fill="url(#paint0_linear)"/>
<path d="M18.313 2.313H16.875V0.875V0.625H16.625H15.5H15.25V0.875V2.313H6.75V0.875V0.625H6.5H5.375H5.125V0.875V2.313H3.688C1.99893 2.313 0.625 3.68693 0.625 5.376V18.314C0.625 20.0031 1.99893 21.377 3.688 21.377H18.313C20.0021 21.377 21.376 20.0031 21.376 18.314V8.188V7.063V5.375V5.37484C21.3749 3.68587 20.001 2.313 18.313 2.313ZM16.875 4.813V3.938H18.313C19.105 3.938 19.75 4.58217 19.75 5.375V6.813H2.25V5.375C2.25 4.58207 2.89507 3.937 3.688 3.937H5.126V4.812V5.062H5.376H6.5H6.75V4.812V3.938H15.25V4.813V5.063H15.5H16.625H16.875V4.813ZM19.75 18.313C19.75 19.1049 19.1049 19.75 18.313 19.75H3.688C2.89497 19.75 2.25 19.1048 2.25 18.313V8.438H19.75V18.313Z" stroke="url(#paint1_linear)" stroke-width="0.5"/>
<defs>
<linearGradient id="paint0_linear" x1="0.875" y1="10.817" x2="21.126" y2="10.817" gradientUnits="userSpaceOnUse">
<stop stop-color="#FE5B3A"/>
<stop offset="1" stop-color="#8F43FE"/>
</linearGradient>
<linearGradient id="paint1_linear" x1="0.875" y1="11.001" x2="21.126" y2="11.001" gradientUnits="userSpaceOnUse">
<stop stop-color="#FC5A3C"/>
<stop offset="1" stop-color="#8F43FC"/>
</linearGradient>
</defs>
</svg>
