<svg width="26" height="22" viewBox="0 0 26 22" fill="none" xmlns="http://www.w3.org/2000/svg">
<path d="M25.3181 1.46704C24.8635 1.01236 24.3169 0.785156 23.6786 0.785156H2.32148C1.6831 0.785156 1.1365 1.01236 0.68188 1.46704C0.227209 1.92161 0 2.46816 0 3.10664V18.8925C0 19.5311 0.227209 20.0771 0.68188 20.5317C1.13645 20.9867 1.68305 21.2138 2.32148 21.2138H23.6787C24.317 21.2138 24.8635 20.9867 25.3181 20.5317C25.7729 20.0771 26 19.5307 26 18.8925V3.10664C26 2.46816 25.7729 1.92161 25.3181 1.46704ZM24.1427 18.8921C24.1427 19.0179 24.0968 19.1267 24.0047 19.2186C23.9128 19.3106 23.8041 19.3561 23.6785 19.3561H2.32133C2.19561 19.3561 2.08675 19.3106 1.99492 19.2186C1.90299 19.1267 1.8571 19.0179 1.8571 18.8921V7.74934C2.16659 8.09755 2.50031 8.41679 2.85823 8.70691C5.45057 10.6994 7.5108 12.334 9.03911 13.6109C9.5324 14.0269 9.93386 14.3508 10.2433 14.583C10.5528 14.8153 10.9712 15.0498 11.4983 15.2867C12.0254 15.5239 12.5212 15.6419 12.9855 15.6419H13H13.0145C13.4786 15.6419 13.9746 15.5239 14.5016 15.2867C15.0289 15.0498 15.4475 14.8154 15.7568 14.583C16.0663 14.3508 16.4678 14.0269 16.9611 13.6109C18.4894 12.334 20.5494 10.6994 23.1419 8.70691C23.4998 8.41684 23.8336 8.09755 24.1427 7.74934V18.8921ZM24.1427 3.48376V3.64333C24.1427 4.21397 23.918 4.85001 23.4683 5.5512C23.0185 6.25239 22.5322 6.81109 22.0102 7.22688C20.1432 8.69736 18.2041 10.2303 16.1918 11.8262C16.1339 11.8746 15.9644 12.0172 15.6838 12.254C15.4036 12.4912 15.181 12.6728 15.0165 12.7984C14.8518 12.9243 14.6368 13.0766 14.371 13.2554C14.1049 13.4342 13.8607 13.5674 13.6383 13.6544C13.4158 13.7411 13.2078 13.7846 13.0145 13.7846H13H12.9855C12.792 13.7846 12.5842 13.7411 12.3617 13.6544C12.1392 13.5674 11.8949 13.4342 11.629 13.2554C11.3632 13.0766 11.1479 12.9243 10.9835 12.7984C10.8191 12.6728 10.5965 12.4912 10.3161 12.254C10.0356 12.0172 9.86618 11.8746 9.80819 11.8262C7.79634 10.2302 5.85707 8.69736 3.99015 7.22688C2.56821 6.10502 1.85736 4.7314 1.85736 3.10638C1.85736 2.98076 1.90325 2.87186 1.99518 2.78008C2.08711 2.68815 2.19586 2.64216 2.32158 2.64216H23.6788C23.756 2.68561 23.8238 2.6977 23.8819 2.67849C23.94 2.65893 23.9835 2.69531 24.0123 2.78714C24.0413 2.87907 24.068 2.92252 24.0921 2.91775C24.1163 2.91287 24.1309 2.97329 24.1358 3.09922C24.1403 3.22489 24.1427 3.28816 24.1427 3.28816V3.48376H24.1427Z" fill="black"/>
<path d="M25.3181 1.46704C24.8635 1.01236 24.3169 0.785156 23.6786 0.785156H2.32148C1.6831 0.785156 1.1365 1.01236 0.68188 1.46704C0.227209 1.92161 0 2.46816 0 3.10664V18.8925C0 19.5311 0.227209 20.0771 0.68188 20.5317C1.13645 20.9867 1.68305 21.2138 2.32148 21.2138H23.6787C24.317 21.2138 24.8635 20.9867 25.3181 20.5317C25.7729 20.0771 26 19.5307 26 18.8925V3.10664C26 2.46816 25.7729 1.92161 25.3181 1.46704ZM24.1427 18.8921C24.1427 19.0179 24.0968 19.1267 24.0047 19.2186C23.9128 19.3106 23.8041 19.3561 23.6785 19.3561H2.32133C2.19561 19.3561 2.08675 19.3106 1.99492 19.2186C1.90299 19.1267 1.8571 19.0179 1.8571 18.8921V7.74934C2.16659 8.09755 2.50031 8.41679 2.85823 8.70691C5.45057 10.6994 7.5108 12.334 9.03911 13.6109C9.5324 14.0269 9.93386 14.3508 10.2433 14.583C10.5528 14.8153 10.9712 15.0498 11.4983 15.2867C12.0254 15.5239 12.5212 15.6419 12.9855 15.6419H13H13.0145C13.4786 15.6419 13.9746 15.5239 14.5016 15.2867C15.0289 15.0498 15.4475 14.8154 15.7568 14.583C16.0663 14.3508 16.4678 14.0269 16.9611 13.6109C18.4894 12.334 20.5494 10.6994 23.1419 8.70691C23.4998 8.41684 23.8336 8.09755 24.1427 7.74934V18.8921ZM24.1427 3.48376V3.64333C24.1427 4.21397 23.918 4.85001 23.4683 5.5512C23.0185 6.25239 22.5322 6.81109 22.0102 7.22688C20.1432 8.69736 18.2041 10.2303 16.1918 11.8262C16.1339 11.8746 15.9644 12.0172 15.6838 12.254C15.4036 12.4912 15.181 12.6728 15.0165 12.7984C14.8518 12.9243 14.6368 13.0766 14.371 13.2554C14.1049 13.4342 13.8607 13.5674 13.6383 13.6544C13.4158 13.7411 13.2078 13.7846 13.0145 13.7846H13H12.9855C12.792 13.7846 12.5842 13.7411 12.3617 13.6544C12.1392 13.5674 11.8949 13.4342 11.629 13.2554C11.3632 13.0766 11.1479 12.9243 10.9835 12.7984C10.8191 12.6728 10.5965 12.4912 10.3161 12.254C10.0356 12.0172 9.86618 11.8746 9.80819 11.8262C7.79634 10.2302 5.85707 8.69736 3.99015 7.22688C2.56821 6.10502 1.85736 4.7314 1.85736 3.10638C1.85736 2.98076 1.90325 2.87186 1.99518 2.78008C2.08711 2.68815 2.19586 2.64216 2.32158 2.64216H23.6788C23.756 2.68561 23.8238 2.6977 23.8819 2.67849C23.94 2.65893 23.9835 2.69531 24.0123 2.78714C24.0413 2.87907 24.068 2.92252 24.0921 2.91775C24.1163 2.91287 24.1309 2.97329 24.1358 3.09922C24.1403 3.22489 24.1427 3.28816 24.1427 3.28816V3.48376H24.1427Z" fill="url(#paint0_linear)"/>
<defs>
<linearGradient id="paint0_linear" x1="-1.49176e-07" y1="10.8139" x2="26" y2="10.8139" gradientUnits="userSpaceOnUse">
<stop stop-color="#FE5B3A"/>
<stop offset="1" stop-color="#8F43FE"/>
</linearGradient>
</defs>
</svg>
