<svg xmlns="http://www.w3.org/2000/svg" width="17" height="12" viewBox="0 0 17 12"><g><g><path fill="#654a83" d="M8.5 11.59A9.104 9.104 0 0 1 0 5.796 9.104 9.104 0 0 1 8.5 0 9.104 9.104 0 0 1 17 5.795a9.104 9.104 0 0 1-8.5 5.796zm0-9.658a3.826 3.826 0 0 0-3.864 3.863c0 2.164 1.7 3.864 3.864 3.864 2.164 0 3.864-1.7 3.864-3.864 0-2.163-1.7-3.863-3.864-3.863zm0 6.182c-1.314 0-2.318-1.005-2.318-2.319 0-1.313 1.004-2.318 2.318-2.318s2.318 1.005 2.318 2.318c0 1.314-1.004 2.319-2.318 2.319z"/></g></g></svg>