<svg width="16" height="15" viewBox="0 0 16 15" fill="none" xmlns="http://www.w3.org/2000/svg">
<path d="M4.69897 0C3.75918 0 2.96035 0.634361 2.70191 1.50367H0.563877C0.234949 1.50367 0 1.76211 0 2.09104C0 2.41997 0.258443 2.67841 0.587372 2.67841H2.7254C2.96035 3.54772 3.78267 4.18209 4.72247 4.18209C5.68576 4.18209 6.48458 3.54772 6.74303 2.67841H15.4126C15.7416 2.67841 16 2.41997 16 2.09104C16 1.76211 15.7416 1.50367 15.4126 1.50367H6.74303C6.46109 0.634361 5.66226 0 4.69897 0ZM4.72247 1.17474C5.21586 1.17474 5.63877 1.57416 5.63877 2.09104C5.63877 2.60793 5.21586 3.00734 4.72247 3.00734C4.22907 3.00734 3.80617 2.60793 3.80617 2.09104C3.80617 1.57416 4.22907 1.17474 4.72247 1.17474Z" fill="#654A83"/>
<path d="M11.7709 4.69922C10.8311 4.69922 10.0323 5.33358 9.77386 6.20289H0.587372C0.234949 6.20289 0 6.46133 0 6.79026C0 7.11919 0.258443 7.37763 0.587372 7.37763H9.77386C10.0088 8.24694 10.8311 8.8813 11.7709 8.8813C12.7342 8.8813 13.533 8.24694 13.7915 7.37763H15.4126C15.7416 7.37763 16 7.11919 16 6.79026C16 6.46133 15.7416 6.20289 15.4126 6.20289H13.7915C13.533 5.33358 12.7342 4.69922 11.7709 4.69922ZM11.7944 5.87396C12.2878 5.87396 12.7107 6.27337 12.7107 6.79026C12.7107 7.30715 12.2878 7.70656 11.7944 7.70656C11.301 7.70656 10.8781 7.30715 10.8781 6.79026C10.8781 6.27337 11.2775 5.87396 11.7944 5.87396Z" fill="#654A83"/>
<path d="M7.51836 9.86816C6.57856 9.86816 5.77974 10.5025 5.52129 11.3718H0.587372C0.234949 11.3718 0 11.6303 0 11.9592C0 12.2881 0.258443 12.5466 0.587372 12.5466H5.54479C5.77974 13.4159 6.60206 14.0503 7.54185 14.0503C8.50514 14.0503 9.30396 13.4159 9.56241 12.5466H15.4126C15.7416 12.5466 16 12.2881 16 11.9592C16 11.6303 15.7416 11.3718 15.4126 11.3718H9.53891C9.28047 10.5025 8.48164 9.86816 7.51836 9.86816ZM7.54185 11.0429C8.03524 11.0429 8.45815 11.4423 8.45815 11.9592C8.45815 12.4761 8.03524 12.8755 7.54185 12.8755C7.04846 12.8755 6.62555 12.4761 6.62555 11.9592C6.64905 11.4423 7.04846 11.0429 7.54185 11.0429Z" fill="#654A83"/>
</svg>
