<svg width="30" height="31" viewBox="0 0 30 31" fill="none" xmlns="http://www.w3.org/2000/svg">
<path d="M21.1163 0.588379H9.063C4.16445 0.588379 0.179199 4.57363 0.179199 9.47218V21.5255C0.179199 26.424 4.16445 30.4093 9.063 30.4093H21.1163C26.0148 30.4093 30.0001 26.424 30.0001 21.5255V9.47218C30 4.57363 26.0148 0.588379 21.1163 0.588379ZM27.0001 21.5255C27.0001 24.775 24.3658 27.4093 21.1163 27.4093H9.063C5.81348 27.4093 3.17918 24.775 3.17918 21.5255V9.47218C3.17918 6.22261 5.81348 3.58836 9.063 3.58836H21.1163C24.3658 3.58836 27.0001 6.22261 27.0001 9.47218V21.5255Z" fill="url(#paint0_linear)"/>
<path d="M15.0897 7.78564C10.8369 7.78564 7.37695 11.2456 7.37695 15.4983C7.37695 19.7511 10.8369 23.2111 15.0897 23.2111C19.3425 23.2111 22.8024 19.7511 22.8024 15.4983C22.8024 11.2455 19.3425 7.78564 15.0897 7.78564ZM15.0897 20.2111C12.4869 20.2111 10.3769 18.1012 10.3769 15.4984C10.3769 12.8956 12.4869 10.7856 15.0897 10.7856C17.6925 10.7856 19.8024 12.8956 19.8024 15.4984C19.8024 18.1011 17.6924 20.2111 15.0897 20.2111Z" fill="url(#paint1_linear)"/>
<path d="M22.8174 9.69187C23.8381 9.69187 24.6655 8.86443 24.6655 7.84374C24.6655 6.82304 23.8381 5.99561 22.8174 5.99561C21.7967 5.99561 20.9692 6.82304 20.9692 7.84374C20.9692 8.86443 21.7967 9.69187 22.8174 9.69187Z" fill="url(#paint2_linear)"/>
<defs>
<linearGradient id="paint0_linear" x1="15.0896" y1="30.3224" x2="15.0896" y2="0.820003" gradientUnits="userSpaceOnUse">
<stop stop-color="#E09B3D"/>
<stop offset="0.3" stop-color="#C74C4D"/>
<stop offset="0.6" stop-color="#C21975"/>
<stop offset="1" stop-color="#7024C4"/>
</linearGradient>
<linearGradient id="paint1_linear" x1="15.0897" y1="30.322" x2="15.0897" y2="0.819574" gradientUnits="userSpaceOnUse">
<stop stop-color="#E09B3D"/>
<stop offset="0.3" stop-color="#C74C4D"/>
<stop offset="0.6" stop-color="#C21975"/>
<stop offset="1" stop-color="#7024C4"/>
</linearGradient>
<linearGradient id="paint2_linear" x1="22.8174" y1="30.3222" x2="22.8174" y2="0.819753" gradientUnits="userSpaceOnUse">
<stop stop-color="#E09B3D"/>
<stop offset="0.3" stop-color="#C74C4D"/>
<stop offset="0.6" stop-color="#C21975"/>
<stop offset="1" stop-color="#7024C4"/>
</linearGradient>
</defs>
</svg>
