<svg xmlns="http://www.w3.org/2000/svg" width="30" height="30" viewBox="0 0 30 30"><g><g><g><path fill="#fff" d="M21.117.13c4.899 0 8.884 3.985 8.884 8.884v12.053c0 4.899-3.985 8.884-8.884 8.884H9.064C4.165 29.95.18 25.966.18 21.067V9.014C.18 4.115 4.165.13 9.064.13zm5.884 8.884a5.884 5.884 0 0 0-5.884-5.884H9.064A5.884 5.884 0 0 0 3.18 9.014v12.053a5.884 5.884 0 0 0 5.884 5.884h12.053a5.884 5.884 0 0 0 5.884-5.884z"/></g><g><path fill="#fff" d="M22.805 15.043c0 4.253-3.46 7.712-7.712 7.712-4.253 0-7.713-3.46-7.713-7.712 0-4.253 3.46-7.713 7.713-7.713 4.252 0 7.712 3.46 7.712 7.713zm-3 0a4.713 4.713 0 1 0-9.425 0 4.713 4.713 0 0 0 9.425 0z"/></g><g><path fill="#fff" d="M22.818 9.236a1.848 1.848 0 1 0 0-3.696 1.848 1.848 0 0 0 0 3.696z"/></g></g></g></svg>