<svg width="18" height="18" viewBox="0 0 18 18" fill="none" xmlns="http://www.w3.org/2000/svg">
<path d="M17.5075 7.93367C17.4491 7.568 17.1054 7.31889 16.7397 7.37723C16.374 7.43557 16.1249 7.77932 16.1833 8.14499C16.1839 8.14899 16.1846 8.15296 16.1853 8.15693C16.8681 12.1762 14.1633 15.988 10.1439 16.6708C6.12461 17.3536 2.31284 14.6488 1.63006 10.6295C0.947277 6.61015 3.65211 2.79837 7.6714 2.11559C10.1432 1.69571 12.6591 2.55912 14.3522 4.40832L11.3821 5.39792C11.0307 5.51483 10.8407 5.89441 10.9575 6.24578C10.9576 6.24586 10.9576 6.24597 10.9577 6.24605C11.0746 6.59742 11.4541 6.78744 11.8055 6.67057C11.8056 6.67053 11.8057 6.67049 11.8058 6.67049L15.8286 5.32956C16.1025 5.23834 16.2873 4.98201 16.2872 4.6933V0.670483C16.2872 0.300179 15.987 0 15.6167 0C15.2464 0 14.9463 0.300179 14.9463 0.670483V3.11969C11.4934 -0.164409 6.03198 -0.0275781 2.74788 3.42529C-0.536216 6.87815 -0.399425 12.3396 3.05348 15.6237C6.50639 18.9078 11.9678 18.771 15.2519 15.3181C17.1246 13.3491 17.9604 10.613 17.5075 7.93367Z" fill="white"/>
</svg>
