<svg width="223" height="97" viewBox="0 0 223 97" fill="none" xmlns="http://www.w3.org/2000/svg">
<path fill-rule="evenodd" clip-rule="evenodd" d="M174.856 79.4001C172.267 78.9516 170.934 81.4888 167.309 80.8471C165.718 80.5646 164.222 81.0379 163.367 80.0245C164.757 79.0929 164.128 80.5002 165.552 78.4412C166.387 77.2346 167.306 77.3981 167.207 76.407C165.28 76.7118 166.038 78.7311 162.854 78.3322L163.072 77.0735C163.092 77.0212 163.102 76.9659 163.102 76.91C161.144 76.7564 162.304 78.1885 159.437 78.1489L160.691 76.9373L159.868 76.0849C161.192 75.1509 161.343 73.855 159.403 74.1028C159.745 74.4398 160.02 74.1647 160.54 74.8065C160.138 75.9016 160.176 75.3515 159.274 76.241C159.769 77.2321 159.294 76.355 159.745 76.6821L160.287 77.0141L158.801 78.2653C160.468 78.7881 160.651 78.5131 161.895 77.75C162.079 78.4685 161.833 78.4933 162.18 79.3258C162.465 80.0171 162.634 79.8213 162.899 80.743C162.354 80.8545 161.66 80.3491 161.164 80.4432C161.618 82.0636 162.591 82.6508 160.951 84.2663C160.703 83.3 160.894 82.8466 159.799 82.1578C157.966 81.0081 159.011 81.7614 157.78 80.354C156.925 81.3897 156.873 82.0438 155.5 81.9125C157.235 79.3035 156.03 79.3679 156.754 76.9422C157.064 75.8991 157.297 75.2747 158.201 74.7346C159.727 73.8253 158.315 74.2068 159.145 73.5354C160.664 72.2965 164.192 73.0176 165.649 72.4279C164.209 72.029 162.363 72.3511 160.892 72.6608C161.41 71.0998 163.473 70.3144 164.955 69.9155C175.728 67.0215 173.587 74.078 176.219 78.2331C175.634 78.5329 175.575 77.8094 175.121 77.3808C172.708 75.1087 169.244 71.8753 165.651 72.4254C170 74.1746 168.984 72.6732 173.436 76.4219C175.347 78.0527 177.347 79.5755 179.427 80.9833C181.61 82.4873 185.052 80.6315 186.843 79.1697C189.759 76.7936 191.246 74.0062 193.981 75.3639C194.896 75.9685 195.874 76.355 195.964 76.6399C195.25 76.412 194.417 76.2658 193.696 76.0379C193.449 75.9611 192.745 76.1221 192.334 76.6053C192.024 76.9695 191.03 78.6345 191.392 79.1895C191.563 79.4521 191.722 79.7916 191.665 79.9848C191.484 80.5943 191.068 81.0403 190.961 81.0552C190.753 81.0849 190.693 80.2772 190.649 79.4001C190.636 79.2342 190.647 79.0674 190.681 78.9046C190.711 78.7708 190.817 78.8228 190.845 78.6221C190.914 78.0869 191.625 77.0215 192.061 76.412C192.267 76.1271 192.557 75.9536 192.557 75.8743C192.557 75.7951 192.225 75.8421 192.083 75.8942C191.681 76.0915 191.299 76.3281 190.944 76.6003C190.394 76.972 189.863 77.4576 189.318 77.9135C187.584 79.3629 185.81 81.1345 183.798 81.8927C181.9 82.6112 180.158 82.7301 177.207 80.8C175.996 79.9824 175.104 79.4447 174.856 79.4001Z" fill="#EB3A5F"/>
<path fill-rule="evenodd" clip-rule="evenodd" d="M218.78 64.8887C218.759 65.8071 218.738 66.7255 218.716 67.6439C218.88 67.4308 218.964 67.0839 219.212 67.0021C219.459 66.9204 219.645 67.1682 219.861 67.2499L218.78 64.8887Z" fill="#EB3A5F"/>
<path fill-rule="evenodd" clip-rule="evenodd" d="M169.09 63.7092L167.108 61.7964C167.155 62.0615 167.356 62.3638 167.247 62.5942C167.138 62.8246 166.831 62.7999 166.625 62.9014L169.09 63.7092Z" fill="#EB3A5F"/>
<path fill-rule="evenodd" clip-rule="evenodd" d="M184.876 72.1159L182.128 71.9004C182.359 71.7591 182.71 71.7021 182.817 71.4742C182.924 71.2462 182.696 71.0257 182.634 70.8027L184.876 72.1159Z" fill="#EB3A5F"/>
<path fill-rule="evenodd" clip-rule="evenodd" d="M212.027 80.1268L209.477 81.1773C209.618 80.9469 209.908 80.7363 209.898 80.4861C209.888 80.2358 209.588 80.1417 209.432 79.9707L212.027 80.1268Z" fill="#EB3A5F"/>
<path fill-rule="evenodd" clip-rule="evenodd" d="M144.038 63.1841L142.876 64.6484C142.876 64.4651 142.985 64.247 142.899 64.1008C142.812 63.9546 142.601 63.9992 142.453 63.9497L144.038 63.1841Z" fill="#EB3A5F"/>
<path fill-rule="evenodd" clip-rule="evenodd" d="M54.5291 50.8671L53.8923 49.1079C54.0435 49.2095 54.1773 49.4127 54.3482 49.4127C54.5192 49.4127 54.596 49.212 54.7125 49.1129L54.5291 50.8671Z" fill="#EB3A5F"/>
<path fill-rule="evenodd" clip-rule="evenodd" d="M48.8256 38.6503C48.6574 39.064 48.45 39.4606 48.2062 39.8346C47.4975 40.9471 46.3504 42.5601 45.1239 44.3094C43.6373 46.4303 37.4728 52.8351 37.3142 55.2831C37.2201 56.74 39.4178 59.1087 39.953 59.8916C40.4881 60.6746 42.3093 63.0507 42.6784 62.0844C41.1769 60.0378 41.1918 57.8079 41.229 56.4724C41.2661 55.1369 43.3648 50.4664 46.1348 46.5864C48.9049 42.7063 50.3469 41.5913 51.338 37.2207C51.6303 35.9224 51.4767 35.5086 51.1274 35.6052C50.5104 35.7687 49.3063 37.4139 48.8256 38.6503Z" fill="#EB3A5F"/>
<path fill-rule="evenodd" clip-rule="evenodd" d="M67.2446 37.2524C67.4003 37.0959 67.5467 36.9305 67.6831 36.7569L68.253 34.9184C66.7193 34.5171 66.3724 35.6617 64.8264 35.9541C64.9428 34.4675 66.6128 33.1419 65.8497 32.0666C63.1242 33.3922 63.7684 34.1528 63.0994 36.4868C62.5543 35.7435 62.9235 34.8317 63.3174 33.2088C61.7912 34.1999 59.4745 33.1419 57.9978 32.5919C59.4448 32.8867 61.9622 32.5919 62.641 32.2946L64.3606 31.5512C61.1024 30.2034 56.4319 31.1994 56.0454 27.4581C57.7798 28.7093 57.6782 29.3263 60.0097 28.6746C63.2927 27.7529 61.6029 28.3377 64.5092 28.4269C65.3566 25.9492 60.364 21.7247 59.8982 18.3848C62.0191 22.7257 65.1014 23.1618 65.8447 25.1216C68.3224 30.1117 70.0989 30.9492 71.7614 32.3515C72.3933 32.8842 71.6648 34.8466 71.3204 35.689C71.033 36.3803 68.0102 37.1855 67.2446 37.2524Z" fill="#EB3A5F"/>
<path fill-rule="evenodd" clip-rule="evenodd" d="M76.9897 38.392C77.059 38.6943 77.8321 40.0447 77.9015 40.3519C78.3177 42.173 77.9436 42.9262 76.9822 43.1864C75.1041 43.6993 76.67 44.0238 75.1983 43.2136C76.6106 43.0352 75.3222 43.3202 76.7791 42.4455L75.1339 37.6017C74.9356 37.9188 75.1735 39.9109 74.9183 40.7458C74.5888 41.8212 73.7364 41.7667 73.2359 42.0219C73.2359 40.7582 72.3118 39.7721 71.5016 39.9654C71.2984 40.0125 70.949 40.8648 70.1661 41.5164C69.7944 41.8261 66.623 43.8033 63.4936 44.1849C61.7593 44.3955 54.9753 44.564 49.2766 42.2027C44.6854 40.3098 42.0913 36.4247 41.8088 33.5308C42.6046 33.7569 43.3857 34.0316 44.1478 34.3534C45.4808 37.3688 47.5125 39.9852 51.8435 41.172C54.5318 41.9153 59.7721 42.78 63.6819 42.5199C66.4669 42.3341 70.5848 40.067 70.0818 38.8355C69.8167 38.1864 68.9817 38.174 68.397 38.2359C66.8658 38.3995 65.8425 39.3435 63.957 38.7315C63.1839 38.4837 61.8336 37.9064 61.0358 36.8732C61.4924 37.1684 61.9947 37.386 62.5224 37.5174C63.3574 37.7503 64.1552 37.8544 64.6012 37.7652C65.9466 37.5174 65.897 35.8871 66.9971 33.4664C65.6368 32.9981 65.8673 33.3177 64.5194 33.7959C64.9728 31.3925 66.7964 29.5838 68.5655 29.1279C69.0982 33.1319 69.6928 35.5551 68.9991 37.0863C71.0011 36.8237 71.9129 35.5997 72.0194 35.2132C72.2491 34.4287 72.347 33.6115 72.3093 32.7949C74.4104 34.2642 75.892 35.5204 76.8583 35.7682C77.1804 36.4 76.6453 36.9029 76.9897 38.392Z" fill="#EB3A5F"/>
<path fill-rule="evenodd" clip-rule="evenodd" d="M139.001 64.3633C130.453 69.7919 124.076 66.6552 117.619 76.3875C117.034 77.2456 116.262 77.9593 115.36 78.4745C114.459 78.9896 113.452 79.2927 112.416 79.3608C111.055 79.4673 110.607 79.4425 110.654 81.0332C112.659 81.0332 114.916 79.9604 116.333 78.7537L116.62 79.1105C116.62 79.1254 114.945 81.836 114.284 82.1556C110.624 83.9718 109.888 80.0174 106.046 82.3192C104.717 83.1145 104.202 81.9747 102.483 83.4316C103.169 84.1626 103.402 83.5159 104.673 84.8836C106.37 84.5714 104.782 84.1972 105.832 84.4723C105.733 84.9951 105.617 84.6036 104.841 85.2627L106.957 85.9292L106.744 86.7964L106.271 87.2919L106.355 86.7964C104.621 86.4247 104.621 84.7225 101.895 85.5253C101.769 86.5659 102.537 85.5476 102.611 87.0119C100.426 87.9113 100.976 85.4658 98.501 86.7468L100.057 87.7627C99.6085 88.4539 99.7596 88.226 98.9321 88.4242C99.8216 89.3038 99.5664 88.4093 100.208 89.5119L98.6719 88.7686C99.0039 87.837 98.8627 88.3672 99.554 87.671C98.7413 87.2052 98.33 87.2968 98.0426 86.5263C99.6828 85.5872 99.8513 86.1844 101.288 86.6601C100.647 84.8414 101.536 84.4301 101.868 83.0674L99.886 84.1526C100.334 81.997 100.907 81.3529 99.108 79.8439C99.1452 81.1794 99.4995 81.3306 98.3473 82.3216C96.7195 83.6918 97.604 83.0253 96.6377 84.5516C95.0594 84.118 96.3602 83.5332 93.6521 83.2879C94.2542 84.5268 94.8761 83.8851 95.2849 85.5947C95.4831 86.4247 95.6144 90.1115 97.9955 90.617C99.4673 90.9316 99.881 90.3023 100.555 89.4772C100.448 89.9257 100.647 89.6754 100.364 90.1487C99.8909 90.9415 99.658 90.6442 98.9346 90.9391L98.4638 91.2141C100.23 92.3365 103.419 91.6675 105.233 91.2141C107.723 90.5798 108.37 89.6754 110.302 88.6298C109.98 88.0154 110.798 88.449 110.002 88.1343C108.972 88.7364 110.017 88.3821 108.709 88.4886L110.572 88.2086L111.529 87.5347C111.9 86.8162 112.272 86.2091 113.015 85.8722C112.661 86.665 111.851 87.6809 111.425 88.2954L110.842 88.5431C108.769 90.9192 104.046 92.2745 100.657 92.0119C101.601 93.5406 103.925 93.9643 105.612 94.0956C108.915 94.3434 113.808 92.2547 114.653 89.8712C114.975 88.9619 115.243 84.668 115.478 83.1244C114.319 83.9148 114.044 85.1066 113.025 85.8647C113.414 84.6408 115.674 82.0268 116.539 80.778C117.505 79.3806 118.07 77.8766 118.746 76.504C121.402 71.1274 129.48 69.2691 133.86 68.2359C134.217 68.1517 134.276 68.3995 133.412 70.28C134.276 69.7374 134.799 68.8529 134.921 68.7463C135.198 68.4911 138.632 64.393 139.001 64.3633ZM108.622 89.1105C108.622 89.0808 108.575 89.1923 108.555 89.17L108.622 89.1105ZM107.505 88.7389C107.505 88.7042 107.448 88.8429 107.428 88.8132L107.505 88.7389ZM108.707 87.7007C108.707 87.6586 108.642 87.8221 108.617 87.7899L108.707 87.7007ZM107.879 87.3662C107.879 87.3315 107.822 87.4604 107.8 87.4331L107.879 87.3662ZM107.668 86.4891C107.668 86.4569 107.619 86.5783 107.599 86.5535L107.668 86.4891ZM108.843 85.7458C108.843 85.7037 108.776 85.8647 108.749 85.8301L108.843 85.7458ZM108.013 85.6789C108.013 85.6467 107.958 85.7681 107.936 85.7433L108.013 85.6789ZM107.19 85.2057L108.362 84.9579C108.677 85.7012 107.991 85.1685 107.986 85.0744C107.904 83.7314 107.812 85.0149 108.233 84.9158C108.284 84.9187 108.333 84.9358 108.375 84.9653L107.19 85.2057ZM105.183 84.9579C105.183 84.9183 105.116 85.062 105.087 85.0322L105.183 84.9579ZM106.37 84.4624C106.37 84.4277 106.313 84.5565 106.291 84.5293L106.37 84.4624ZM105.53 84.4078C105.3 84.1006 105.815 84.3707 105.82 84.3707C107.659 84.1031 107.022 84.5887 106.707 84.1675L105.53 84.4078ZM104.693 84.0833C104.693 84.0411 104.626 84.1997 104.599 84.1675L104.693 84.0833ZM105.315 83.5184C105.315 83.4787 105.258 83.6398 105.235 83.6076L105.315 83.5184ZM103.072 83.3623C103.072 83.3325 103.025 83.444 103.008 83.4217L103.072 83.3623Z" fill="#EB3A5F"/>
<path fill-rule="evenodd" clip-rule="evenodd" d="M86.8528 9.17506H86.8801C86.9296 9.57397 87.6085 9.87625 87.6482 10.3445L87.9108 10.5923L87.8588 10.5774L88.0743 10.9169L88.1858 11.2638C88.1041 11.3777 88.1016 11.3307 88.2428 11.3951C88.1536 11.514 88.1512 11.4669 88.2924 11.5264C88.1958 11.6404 88.1883 11.5933 88.3246 11.6627C88.2106 11.7717 88.1982 11.7271 88.3246 11.8014C88.2255 11.9129 88.2181 11.8683 88.3494 11.9377C88.2428 12.0566 88.228 12.0071 88.3494 12.0938C88.3494 12.2871 88.2156 12.7256 88.3494 12.7479C88.332 12.899 88.1982 13.0898 88.2973 13.1567L88.1561 13.9L88.1016 13.9347L88.0644 14.2023H88.0099C87.5689 14.8713 87.2963 15.5031 86.6224 15.9094V15.9565L86.0575 16.2712V16.2167L85.2349 16.3406L85.0838 16.2092C85.1085 15.5403 85.7156 14.844 85.6635 14.2271L85.7577 13.7489C85.9014 13.6077 85.9311 13.6671 85.7899 13.568C86.0848 12.9659 85.5744 11.9798 85.2721 11.4075C85.3662 11.2712 85.3563 11.3381 85.168 11.2563C85.3068 11.073 85.1061 11.0408 85.0342 10.8896C85.1432 10.7335 85.0342 10.7434 84.893 10.6939C85.3514 10.0398 82.0709 8.20133 81.615 7.92383L81.895 7.65376C82.0189 7.74048 81.9693 7.75039 82.0486 7.62403C82.17 7.72809 82.118 7.74048 82.2047 7.62403L82.8068 7.55713C82.943 7.68845 82.8885 7.71322 82.9802 7.57943V7.56456L83.9118 7.63642L83.9391 7.70331H84.2364C84.39 7.86684 84.3256 7.89905 84.4321 7.74296V7.76773C84.8533 8.04524 84.5684 7.87427 84.7344 7.84454H84.7171C84.8682 7.91639 84.9896 8.07497 85.0838 7.93622V7.96843C85.7304 8.26823 86.4118 8.61263 86.8528 9.17506Z" fill="#EB3A5F"/>
<path fill-rule="evenodd" clip-rule="evenodd" d="M83.0474 11.3734L83.2952 11.6633L83.6916 12.3C83.6321 12.3892 83.8204 12.5206 83.865 12.6766C83.7684 12.8179 83.8403 12.7931 83.9518 12.8773C83.8626 13.0062 83.8502 12.9566 83.984 13.0285C83.8873 13.14 83.8824 13.0954 84.0211 13.1573C83.9295 13.2738 83.9344 13.2242 84.0905 13.2787C84.0038 13.4026 83.9988 13.3531 84.15 13.4175C84.0335 13.5339 84.0236 13.4869 84.1673 13.5587C84.0409 13.6752 84.031 13.6231 84.1673 13.7173C84.1673 13.8907 84.0608 14.1311 84.1673 14.2128C84.1425 14.3962 83.9939 14.5597 84.1128 14.6415L83.9765 15.2163L83.5182 15.9001C83.4491 15.8914 83.3794 15.9093 83.3232 15.9503C83.267 15.9913 83.2286 16.0523 83.2159 16.1206C83.0945 16.0364 83.0375 16.1206 83.04 16.2668L82.0489 16.4452C81.9919 16.2817 81.9052 16.1727 81.8011 16.3263L81.8185 16.3412L80.5177 15.4492H80.4879L80.2823 14.2103L80.2402 14.2326L80.3541 13.5513H80.1411C80.0221 13.4125 80.0766 13.3927 79.98 13.5314C79.7744 13.5537 79.4845 13.3803 79.4052 13.4968C78.201 13.3382 77.5221 12.7683 76.4617 12.3199C76.3477 11.9011 76.0033 11.5419 75.9067 11.081L75.8447 11.1256C76.0157 10.3823 76.4196 10.08 77.0638 9.7604C77.1777 9.83968 77.1331 9.84959 77.1976 9.72571C77.3115 9.82234 77.262 9.81738 77.3239 9.66872L78.7288 9.49033L78.7164 9.45068H78.8898C79.0112 9.56961 78.9592 9.58943 79.0484 9.45068L79.4101 9.48042C79.5563 9.54731 79.596 9.68854 79.7025 9.53493C79.8685 9.59439 79.7991 9.7158 79.9106 9.55475C80.0246 9.68111 80.0543 9.77031 80.1584 9.62412L80.1857 9.66129H80.4334C80.872 10.2881 82.3586 10.8085 83.0474 11.3734Z" fill="#EB3A5F"/>
<path fill-rule="evenodd" clip-rule="evenodd" d="M85.2847 33.9539C85.3689 34.1323 86.028 34.8236 86.2758 34.831L86.4319 35.1011L86.0751 35.4331C85.9314 35.334 85.9437 35.4034 85.8769 35.5248C85.7747 35.5304 85.6754 35.5602 85.587 35.6115C85.369 35.6447 85.1575 35.7116 84.9601 35.8097L84.9873 35.7701C84.6132 35.8791 83.4487 36.055 83.3 36.2408L81.7044 36.3449C81.5706 36.2384 81.6251 36.2185 81.5384 36.3449C81.3823 36.3127 81.2559 36.1863 81.1717 36.3077C81.0528 36.1938 81.0404 36.1492 80.9537 36.273L80.1112 36.2037L80.0766 36.1269L79.3481 35.9832V35.9534L78.9195 35.9088V35.8865L78.5701 35.7998V35.78L77.5221 35.4405C75.8886 34.6188 74.3103 33.6919 72.7971 32.6655C72.7748 32.3682 71.2312 31.2359 70.9314 31.0129L69.5612 29.385H69.5463L69.3159 28.8325C69.6826 28.8325 70.7753 29.7071 70.8694 29.5758C71.246 29.7815 71.692 30.1061 72.1256 30.059C72.2322 30.2076 72.2867 30.3067 72.3734 30.1606L73.0027 30.339C73.0994 30.4331 73.1365 30.5198 73.2282 30.386C73.3372 30.4777 73.362 30.5595 73.4512 30.4282C73.5726 30.4951 73.6469 30.5917 73.7337 30.4678L73.7708 30.5223C73.9666 30.557 74.7074 30.7701 74.8065 30.6189C74.9452 30.7329 74.9205 30.7701 75.0121 30.6363C75.198 30.78 75.8843 30.7602 76.0032 30.718V30.7354C76.5691 30.8809 77.155 30.9328 77.7376 30.889V30.8642C77.8912 30.9658 77.8491 31.0079 77.8962 30.8642C78.0399 30.9881 77.9829 31.0154 78.0746 30.8841C78.1613 31.0129 78.2133 31.0501 78.2951 30.9311C78.4215 31.0401 78.4239 31.0947 78.5107 30.9658C78.6915 30.9906 78.5875 31.1343 78.7064 30.9658C78.8253 31.0352 78.8179 31.1021 78.9071 30.9658C79.0161 31.0699 79.0458 31.1789 79.1549 31.0352C79.2911 31.1269 79.2688 31.1789 79.3605 31.0476C79.4646 31.1492 79.4943 31.2185 79.5835 31.0897L79.8684 31.1516C79.9675 31.2805 80.0121 31.3771 80.1162 31.2285C80.2624 31.4762 80.4011 31.2929 80.4011 31.2929V31.3077L80.971 31.4242L80.9884 31.4762L81.5706 31.6298C81.9249 32.3087 84.5884 33.4485 85.2847 33.9539Z" fill="#EB3A5F"/>
<path fill-rule="evenodd" clip-rule="evenodd" d="M64.549 10.4433C64.3929 10.592 64.3681 10.5276 64.5292 10.6391L64.554 10.6267C64.5143 10.81 64.3582 10.8745 64.5069 10.9835C64.5713 11.365 64.492 11.4443 64.6357 11.7045C64.549 11.8185 64.544 11.7714 64.6803 11.8383C64.5837 11.9523 64.5812 11.9052 64.7249 11.9721C64.6283 12.0885 64.6258 12.0414 64.767 12.1059C64.6655 12.2273 64.6655 12.1777 64.824 12.2372C64.7373 12.3338 64.9628 12.8591 65.0099 13.0697L65.4088 13.7882C65.3072 13.9344 65.3642 13.9072 65.5128 13.9864L65.7606 14.3779C65.6615 14.5241 65.7234 14.4671 65.8498 14.5662C65.7532 14.705 65.8002 14.6728 65.9439 14.7545C65.8498 14.8908 65.9068 14.8883 66.0678 14.9478C65.9885 15.0642 66.0282 15.0841 66.1942 15.1386L66.3478 15.3863L66.997 16.536C66.8954 16.6847 66.9301 16.5855 67.0862 16.7268C67.0242 16.816 66.9871 16.8531 67.1977 16.9176L67.7155 17.9681C67.6189 18.1093 67.6932 18.0846 67.8121 18.1638C67.713 18.3075 67.7923 18.2629 67.8964 18.3571C67.8072 18.4884 67.7997 18.4339 67.9509 18.5058L68.1144 18.8427L69.0262 23.813C68.9221 23.9369 68.9122 23.8848 69.0411 23.974C68.9866 24.1376 68.8775 24.0682 69.0411 24.1846C69.0411 24.3432 68.932 24.4324 69.0782 24.4869L69.0336 24.8635L68.9667 25.6663C68.8726 25.7753 68.7834 25.7902 68.9296 25.8893C68.828 26.0008 68.7363 26.0132 68.8875 26.1148C68.8082 26.2411 68.7338 26.2188 68.8875 26.3204C68.8552 26.479 68.7239 26.6673 68.8429 26.7268C68.7512 26.8358 68.6372 26.8878 68.7784 26.9745C68.6372 27.091 68.6099 27.1158 68.7314 27.1975C68.5331 27.3858 68.4266 28.2059 68.3077 28.5355L67.8765 28.1267C67.9781 27.978 67.8765 27.9929 67.7551 27.9284C67.8468 27.7971 67.775 27.8244 67.6709 27.7426C67.775 27.5915 67.6709 27.594 67.5247 27.5518L67.4504 27.3264L67.1283 26.7837H67.1159L66.9202 26.3576L66.8632 26.3427L66.774 26.1618H66.8161L66.6154 25.7753H66.5906C66.3924 25.307 65.9464 24.2218 65.5574 24.0409C65.6565 23.8972 65.5277 23.8824 65.4112 23.7932H65.3988C65.4955 23.6519 65.4831 23.7287 65.3022 23.59L65.3394 23.6049L64.8909 22.8393C64.9876 22.7005 64.9157 22.6955 64.7646 22.6361L64.4548 22.0613C64.554 21.9175 64.4995 21.9398 64.3582 21.8705L64.1105 21.308L64.0262 21.2932C63.9872 21.0315 63.8756 20.786 63.7041 20.5845C63.7784 20.4755 63.7933 20.4879 63.6 20.3913C63.5737 20.1251 63.4585 19.8755 63.273 19.6827H63.2804L63.0772 19.3482C63.0772 18.9418 63.1268 19.1648 62.8989 18.8353L62.7576 18.5181L62.6932 18.1812L62.9063 17.812L62.7601 17.7823C62.1729 16.3353 62.3984 15.1311 62.0366 13.8725C62.1531 13.7857 62.2497 13.7387 62.1085 13.642C62.2175 13.533 62.3067 13.5157 62.158 13.4116C62.2274 13.2828 62.3538 13.2283 62.215 13.1341C62.3166 13.0078 62.4999 12.9136 62.3488 12.8095C62.8666 12.0538 63.4762 10.6539 64.2542 10.1782V10.2055L64.5614 10.317L64.549 10.4433Z" fill="#EB3A5F"/>
<path fill-rule="evenodd" clip-rule="evenodd" d="M97.5665 19.4544C97.455 19.5782 97.45 19.5237 97.5912 19.6105C97.4996 19.712 97.4525 19.7393 97.5912 19.8211C97.512 19.9301 97.4128 19.9623 97.5714 20.0292C97.5095 20.1382 97.4178 20.1902 97.5714 20.2373C97.4872 20.3562 97.393 20.4083 97.5392 20.4851C97.1403 20.8815 96.288 22.8513 96.1864 23.3196C95.8519 23.4261 95.6908 23.7705 95.4282 24.0852C95.3241 24.0232 95.2572 24.0257 95.2424 24.2264C95.1309 24.1595 95.012 24.2883 94.9946 24.432C94.8559 24.3478 94.8682 24.4147 94.8014 24.551C94.6552 24.4618 94.6651 24.551 94.6081 24.6972C94.4669 24.6104 94.4916 24.6972 94.4198 24.8161C94.2761 24.7294 94.2885 24.8161 94.2315 24.935C94.0878 24.8458 93.5303 25.7056 93.6938 25.8047C93.6121 25.9088 93.5328 25.9335 93.6938 25.9955C93.5922 26.1441 93.565 26.0921 93.6938 26.1714C93.5947 26.2829 93.56 26.3077 93.6938 26.387C93.7781 26.9444 93.6517 27.3161 93.8103 27.9033L93.7483 28.7532L93.7929 28.7135C93.6864 28.8993 93.6467 28.8374 93.7929 28.9241L93.726 28.9662L93.7458 29.214C93.6269 29.3379 93.5823 29.3602 93.7136 29.442C93.5873 29.5584 93.5377 29.5956 93.669 29.6773L93.6021 30.0341C93.4882 30.1233 93.3891 30.2819 93.5129 30.3587C92.8217 31.1862 92.4178 32.2294 91.6225 33.0297C91.4936 32.9504 91.511 32.9702 91.4366 33.1635C91.2929 33.0743 91.3425 33.0718 91.2533 33.2551C91.0947 33.1585 91.1344 33.213 91.0526 33.384C90.9337 33.3121 90.7776 33.5153 90.6041 33.6094V33.5624L88.4461 33.9786C88.3346 33.8721 88.3024 33.8126 88.2132 33.9588C87.8712 33.8597 87.6904 33.7606 87.398 33.8671C86.6819 33.1858 84.9203 32.658 84.0308 32.103C84.1349 31.932 83.8276 31.8825 83.6591 31.8007C83.56 31.3597 83.4857 31.6471 83.3445 31.211C83.6666 31.045 85.2251 30.884 85.4034 30.4677L86.1245 30.0886L86.1096 30.1332L86.4862 29.8855C86.6148 29.8673 86.7377 29.8204 86.8457 29.7484C86.9538 29.6763 87.0443 29.5809 87.1106 29.4692L87.5392 29.0703L87.8341 28.8225C88.1785 28.7928 89.4074 27.1699 89.2315 26.8602L90.6933 23.716L90.9287 23.6268V23.5723L91.7042 23.2031L92.1725 23.0569V23.0966L92.9802 22.6952L93.6839 22.3111V22.3557L94.0233 22.108L94.2711 21.999V22.0188C94.4396 22.1204 94.4619 21.8726 94.6527 21.7413V21.6991C94.8063 21.7933 94.8187 21.6496 94.9005 21.5232C95.0442 21.61 95.0541 21.5232 95.0937 21.3448C95.2027 21.4117 95.3415 21.2779 95.3415 21.1367L95.6884 20.7948C95.8296 20.8815 95.8222 20.7948 95.8866 20.6461C96.0328 20.7353 96.1344 20.4454 96.226 20.3141C96.3821 20.4107 96.4738 20.0663 96.5704 19.9053C96.9421 19.883 96.9223 19.2314 97.2667 19.0703L97.5541 19.2933C97.4327 19.4544 97.4203 19.3998 97.5665 19.4544Z" fill="#EB3A5F"/>
<path fill-rule="evenodd" clip-rule="evenodd" d="M87.0464 25.1167C87.1455 26.2168 86.3279 26.7817 85.7183 27.5944C85.6192 27.4705 85.0841 28.0205 85.0494 28.1395C84.7099 28.2188 84.3333 28.5755 84.0063 28.7762C83.8898 28.6969 83.8824 28.7985 83.7957 28.8853V28.8704L83.2406 29.0983V29.0711C82.9062 29.2371 79.1054 29.7202 79.1054 29.7202L78.8576 29.6781H78.6098C78.5058 29.6137 78.5157 29.5468 78.4314 29.6781C78.3125 29.6112 78.3249 29.5319 78.2407 29.6558C78.1515 29.5567 78.1192 29.4972 78.0424 29.6087L78.0078 29.5666C77.5122 29.5319 77.1629 29.3486 76.7689 29.3659L76.7516 29.3288L76.5038 29.2842L76.3204 29.2643C76.2392 29.1807 76.1373 29.12 76.0251 29.0882C75.9129 29.0565 75.7942 29.0548 75.6812 29.0835C75.3764 28.2287 72.6237 27.686 71.9646 26.6528H71.9201L71.4245 25.9616H71.3873C70.9488 25.0721 70.7654 24.2668 70.4879 23.3303H70.4607C70.54 23.0329 70.54 23.1494 70.4855 22.8892H70.4681V22.4185C70.5771 22.302 70.6267 22.2995 70.5152 22.2227L70.54 22.0443L70.7109 21.918C71.0999 22.2351 75.1708 26.7743 75.763 26.2614L75.7407 26.2762C76.6153 26.9427 78.4265 27.0418 79.2392 26.524C79.2962 26.5636 79.3779 26.6553 79.3928 26.4745C79.5092 26.5562 79.5315 26.5067 79.5662 26.353L79.7719 26.2812V26.2316C79.8883 26.3134 79.9081 26.2093 79.9428 26.083C80.317 25.9294 80.6638 25.5329 80.9463 25.2554C81.0429 25.3223 81.142 25.1538 81.2684 25.0746C81.3898 25.1563 81.3873 25.1167 81.4344 24.9779C81.5533 25.0597 81.4964 25.0547 81.5905 24.911C81.707 25.0126 81.7169 24.9531 81.7689 24.8144C81.8853 24.8962 81.8259 24.8887 81.9299 24.745V24.7624C82.0588 24.8516 82.0092 24.8639 82.0786 24.7202L82.4552 24.5196C82.6064 24.5716 82.6163 24.6831 82.703 24.4898L82.8145 24.4576C82.9111 24.5443 82.8715 24.5518 82.9334 24.4353C83.0053 24.4948 83.1118 24.3436 83.2778 24.3362C83.3744 24.4353 83.3348 24.4502 83.4017 24.3362C83.4983 24.4304 83.4612 24.4403 83.5231 24.3362C83.6173 24.418 83.5801 24.4304 83.642 24.3362L84.2119 24.2693L85.1559 24.3089C85.2872 24.4452 85.2327 24.4725 85.3219 24.3461C85.4161 24.5022 85.4458 24.47 85.5102 24.3783C85.6143 24.5196 85.6267 24.5146 85.6985 24.4105C85.81 24.5245 85.8051 24.5394 85.8744 24.4353C86.2213 24.6583 86.8705 24.6583 87.0464 25.1167Z" fill="#EB3A5F"/>
<path fill-rule="evenodd" clip-rule="evenodd" d="M93.9739 10.1638C94.0285 10.3967 93.8922 10.2183 94.1746 10.4437C94.2093 10.5503 94.249 10.6915 94.467 10.7138C94.467 10.803 94.4992 11.0309 94.7148 11.0161C94.7148 11.0161 94.6727 11.2193 94.9155 11.2341L95.0815 11.4968C95.0146 11.5934 95.0666 11.638 95.2153 11.6677C95.1286 11.7916 95.1434 11.7247 95.3094 11.8412C95.2252 11.9626 95.2921 11.9551 95.4259 12.0121C95.3416 12.1335 95.4036 12.1137 95.5126 12.1806C95.4308 12.2995 95.4928 12.2896 95.6018 12.3466C95.5225 12.4606 95.6489 12.5126 95.7232 12.6291C95.6191 12.7827 96.1989 15.4066 96.0825 16.1276C96.0156 16.2391 95.9016 16.3084 96.0205 16.3902C95.9313 16.4918 95.7901 16.5587 95.9214 16.638L95.7059 17.1509L93.8501 19.6533L93.3545 20.025V20.0572C93.1637 20.1291 91.8481 20.9194 91.7762 21.1672L90.7257 21.6627V21.6429C89.8486 22.0641 89.0508 22.1509 88.0745 22.1682L87.6855 21.9576L87.859 21.6404C88.077 21.5438 88.1365 21.3778 88.2554 21.1697C88.4883 21.1226 88.4363 21.1697 88.5924 20.8724C89.4001 20.8302 90.748 17.8174 90.8793 16.9229L90.9759 16.8511L91.1667 16.1077C91.2534 15.964 91.2807 16.0161 91.1667 15.9368C91.2199 15.876 91.2574 15.8031 91.2759 15.7245C91.2945 15.6459 91.2936 15.564 91.2733 15.4858L91.3302 15.4536L91.2782 15.243H91.3055C91.7762 13.7391 91.3302 11.861 90.743 10.4561C90.9016 10.2257 90.743 10.5106 90.6687 10.2876C90.7529 10.1638 90.7257 10.2232 90.5919 10.1216C90.6637 10.0151 90.463 9.9036 90.3664 9.78467C90.4457 9.67069 90.3961 9.67317 90.2723 9.61866C90.3615 9.48734 90.1732 9.45018 90.0542 9.37089C90.0542 9.23462 89.6628 8.67218 89.4224 8.62758C89.4224 8.4591 88.8253 7.9586 88.7386 8.03046L88.4908 7.83968C88.4735 7.71331 88.5453 7.85702 88.4586 7.64889L88.8848 7.58447C88.964 7.6811 88.9913 7.76534 89.083 7.63403C89.2019 7.73809 89.2118 7.81985 89.2985 7.69349C89.4992 7.85702 89.7742 7.76287 89.9948 7.95613L90.0963 7.89914L90.2475 8.03046L90.3466 7.95613C90.5721 8.08001 91.4715 8.61519 91.6226 8.48883L93.9739 10.1638Z" fill="#EB3A5F"/>
<path fill-rule="evenodd" clip-rule="evenodd" d="M87.3263 18.5755L87.361 18.7043C87.2545 18.8208 87.2446 18.7712 87.361 18.8555C87.257 18.9645 87.1727 18.9818 87.314 19.0785C87.2049 19.2123 87.148 19.2073 87.2793 19.2965C86.9448 19.7053 85.2773 21.5834 85.2822 22.0765C85.0816 22.0765 84.9403 22.3862 84.6975 22.4803L84.6777 22.5547L84.2986 22.7752V22.7405C84.1425 22.634 84.1921 22.7009 84.0979 22.8421L82.76 23.0428C82.6559 22.904 82.6212 22.8396 82.5122 22.9858C82.3809 22.8173 82.3809 22.8545 82.3041 22.9684V22.9808C82.1257 22.857 82.1876 22.8173 82.0935 22.9536C81.972 22.8223 81.9621 22.8297 81.8878 22.9387C81.7788 22.8396 81.7639 22.7628 81.6673 22.9015C81.5533 22.7851 81.5285 22.7009 81.4344 22.8347C81.2733 22.7975 81.085 22.6587 81.0057 22.7752C80.2798 22.5126 79.2837 23.023 78.642 23.3748C78.4958 23.2757 78.5578 23.3525 78.4463 23.4863C78.3422 23.4144 78.2233 23.5903 78.0771 23.6548L77.8814 23.7712L77.1381 24.1974V24.1404L75.8596 24.5294L75.8769 24.5814L75.2971 24.5418C75.1485 24.4402 75.2055 24.4154 75.1163 24.5418L73.6296 23.4962C73.7362 23.3401 73.5454 23.3277 73.4042 23.2484L72.4131 21.7023C72.26 21.2369 72.0269 20.8017 71.7243 20.4164H71.707C71.5368 19.76 71.3028 19.1219 71.0082 18.5111H71.0355C71.09 17.6612 70.8026 16.6255 70.7456 15.736C70.8497 15.6369 70.9141 15.6122 70.7803 15.5205C70.8249 15.3545 71.0281 15.0795 70.9141 15.0002C71.0553 14.8664 71.0776 14.854 70.9612 14.7747C71.0504 14.6211 71.308 14.3882 71.1742 14.2544C71.422 13.9149 72.0786 13.3872 72.1505 13.0155L72.3809 12.9387L72.3958 12.8817C72.537 12.9784 72.5593 12.8545 72.589 12.7033L72.9706 12.5547C73.2035 12.7157 73.9096 12.4432 74.4944 12.8743L74.5117 12.857C74.7358 13.4052 74.9906 13.9404 75.2748 14.46H75.255L75.4755 14.9209H75.4062L75.6688 15.3916C75.5895 15.5081 75.6192 15.5279 75.753 15.575C75.6614 15.7063 75.6713 15.6394 75.8199 15.7633H75.7778L75.9934 16.2192C75.9166 16.3332 75.9166 16.3604 76.1148 16.4174C76.1841 16.6924 76.1519 16.5983 76.3848 16.851C76.5385 17.2673 77.5048 18.0899 77.9334 18.1468C78.0152 18.3302 79.814 19.0686 79.9156 18.9348C80.0667 19.133 80.1633 19.0017 80.1955 18.9843C80.3368 19.0611 80.3715 19.1974 80.483 19.0388C80.6415 19.0809 80.8323 19.2321 80.8843 19.0983C81.0231 19.2073 80.9686 19.2321 81.0578 19.0983C81.2188 19.1503 81.4022 19.299 81.4914 19.1677L81.8903 19.237V19.2593L84.3531 18.9372C84.477 19.0215 84.4299 19.0363 84.4968 18.9025C84.6158 18.9893 84.5712 18.9992 84.6281 18.8604C84.7372 18.9521 84.6876 18.9571 84.7694 18.8356C84.8561 18.9422 85.0171 18.7167 85.2352 18.6498C85.3293 18.7861 85.2847 18.7737 85.3615 18.6201L85.7084 18.5036V18.5185L86.0503 18.3153C86.1841 18.407 86.1172 18.4021 86.2362 18.2484C86.6995 18.2162 87.0662 18.127 87.3263 18.5755Z" fill="#EB3A5F"/>
<path fill-rule="evenodd" clip-rule="evenodd" d="M85.2923 2.44084H85.332L86.0282 3.25353C86.0282 3.29565 85.996 3.45422 86.2462 3.5013L86.328 3.72181L86.3949 3.7342C86.2983 3.87295 86.4321 3.89029 86.546 3.98197L86.5237 3.96462C86.4222 4.11329 86.5386 4.11329 86.6922 4.16532C86.5956 4.30655 86.665 4.24213 86.7591 4.34619C86.6575 4.49237 86.7591 4.48246 86.883 4.53945C86.7938 4.66829 86.8632 4.62369 86.9697 4.71289C86.8681 4.85907 86.9697 4.86898 87.111 4.88385C87.0218 5.01517 87.0118 4.96066 87.1556 5.04242L86.9772 5.1564C86.6997 5.0449 85.7383 4.6782 85.6813 4.77483C85.5351 4.62121 85.4113 4.68811 85.2725 4.74262C84.9157 4.19753 82.7626 4.77483 82.1952 5.07711V5.04986L81.8855 5.16631C81.8186 5.16631 81.6377 5.19604 81.5683 5.32736C81.4544 5.24807 81.5064 5.24807 81.4197 5.37196L80.7557 5.67919C80.6417 5.59991 80.6095 5.65937 80.5748 5.81051C80.218 5.81051 80.2601 5.8898 79.9777 6.14252V6.12765C78.9866 6.80407 78.3895 7.86204 77.4504 8.47651V8.49881C77.3067 8.3997 77.2844 8.49881 77.2596 8.6549L75.9167 8.93241V8.96709L74.9802 8.91011C74.886 8.79118 74.8439 8.71189 74.7547 8.84073C74.6184 8.78374 74.5837 8.6549 74.4871 8.79613C74.2765 8.70446 73.9916 8.51368 73.8503 8.60287C73.496 8.21883 73.3548 8.62517 72.9534 8.7218C72.8369 8.64252 72.8345 8.67968 72.7725 8.82834C72.6536 8.74658 72.6288 8.81348 72.5916 8.95471C72.2497 9.00921 72.0243 9.29663 71.774 9.59395C71.1323 9.86154 69.6457 12.4656 69.7696 13.1693L69.6234 13.5384C69.5144 13.6376 69.4623 13.6623 69.5812 13.7441L69.4995 14.2248C69.4177 14.3288 69.3583 14.3363 69.4995 14.4255C69.388 14.5295 69.2889 14.5543 69.4351 14.6559C69.331 14.7699 69.274 14.7649 69.4128 14.8615H69.4301L69.3682 15.2208H69.3806L69.4053 16.2119H69.4276C69.3672 17.0832 69.5381 17.9551 69.9232 18.7391L69.8934 18.7912C69.5193 18.6029 69.554 18.5706 69.2938 18.2733H69.2691C69.217 18.1172 68.9891 17.6861 68.7735 17.6068L68.2929 16.8189H68.2706C68.221 16.5414 68.2978 16.7025 68.0649 16.4423C68.1442 16.3259 68.1417 16.3333 67.9534 16.2565C68.107 16.0335 67.9757 16.2689 67.9063 16.0781C68.0104 15.9269 67.9237 15.9319 67.7701 15.8823C67.8394 15.7808 67.837 15.7436 67.6858 15.7015C67.7775 15.5677 67.7626 15.642 67.5941 15.5107H67.6313C67.6313 15.4859 67.6313 15.4264 67.6115 15.4339L67.4752 15.1861C67.5322 15.0424 67.4182 15.0226 67.3315 14.864C67.4157 14.7401 67.4232 14.7922 67.2894 14.7129C67.4083 14.6039 67.2894 14.5915 67.1779 14.527C67.1881 14.271 67.1142 14.0186 66.9673 13.8085C67.1754 13.2114 66.499 10.4339 66.3008 9.54935C66.3627 9.47998 66.5485 9.32636 66.3305 9.32636C66.4247 9.1777 66.447 9.23469 66.3305 9.14549L66.3776 9.10585L66.5461 7.867C66.8137 7.71586 66.6303 7.57711 66.6303 7.57711L66.6823 7.55976C66.7393 7.20793 67.0317 6.81645 67.0144 6.50426L68.1838 4.96809L68.5976 4.74262V4.69802C68.7364 4.79465 68.7537 4.66829 68.8033 4.53945C69.051 4.55679 68.885 4.60387 69.1452 4.43291L70.3642 4.1455C70.6599 4.20024 70.9606 4.22267 71.2611 4.21239C71.4222 4.39822 72.438 4.63608 72.6883 4.6336L72.7081 4.67077L73.2557 4.77979C73.3944 4.89624 73.3746 4.91854 73.4539 4.80456C73.4955 4.85487 73.5552 4.88674 73.6202 4.89323C73.6851 4.89973 73.75 4.88033 73.8008 4.83925L73.7859 4.79465L74.2245 4.93588C74.4398 4.79882 74.6722 4.69053 74.9157 4.61378V4.62865L75.2824 4.41061C75.4286 4.50972 75.4187 4.36353 75.5153 4.23965C75.6367 4.32389 75.6615 4.23965 75.7061 4.08355C75.8374 4.17523 75.9266 3.96958 76.0332 3.85561C76.5857 3.57563 78.1912 1.59595 78.5406 0.865026L78.9692 0.62469L79.1154 0.570181C79.222 0.671766 79.1724 0.666811 79.2418 0.523104L79.5664 0.461162C79.668 0.545404 79.6234 0.542926 79.6903 0.414086C79.7943 0.498327 79.7497 0.503283 79.8191 0.381876C79.9256 0.468595 79.881 0.476028 79.9479 0.354621C80.0495 0.438863 80.0074 0.448773 80.0768 0.354621L80.7061 0.3125C80.8622 0.327366 80.9539 0.44134 81.0356 0.3125C81.1719 0.37692 81.1422 0.463639 81.2388 0.3125C81.3454 0.446296 81.385 0.525582 81.4866 0.386831C81.5733 0.572658 81.6377 0.483461 81.6898 0.40913C81.8087 0.694065 81.9673 0.476028 81.9673 0.476028V0.49585L82.8245 0.743619H82.8097C83.2185 0.991389 82.9509 0.855116 83.107 0.812995C83.2011 0.979001 83.2705 1.07811 83.3795 0.922014L85.2923 2.44084Z" fill="#EB3A5F"/>
<path d="M64.3655 31.542C64.9056 31.6882 65.3194 31.9459 65.9884 31.9805C66.8892 32.0531 67.7956 31.9496 68.6569 31.6758C68.5454 32.875 67.3387 33.0881 66.8481 33.7595L66.2832 35.3353" stroke="#EB3A5F" stroke-width="0.233789" stroke-miterlimit="10"/>
<path fill-rule="evenodd" clip-rule="evenodd" d="M67.2446 38.6196C67.9557 38.4313 68.4983 38.124 69.3259 37.8936C70.1534 37.6632 71.4344 37.7598 72.2099 37.2965C73.0152 36.8009 73.7139 35.52 74.6232 35.7925C74.7519 36.7815 75.0016 37.7509 75.3665 38.679" fill="#EB3A5F"/>
<path d="M67.2446 38.6196C67.9557 38.4313 68.4983 38.124 69.3259 37.8936C70.1534 37.6632 71.4344 37.7598 72.2099 37.2965C73.0152 36.8009 73.7139 35.52 74.6232 35.7925C74.7519 36.7815 75.0016 37.7509 75.3665 38.679" stroke="white" stroke-width="0.233789" stroke-miterlimit="10"/>
<path fill-rule="evenodd" clip-rule="evenodd" d="M26.6328 48.179H26.5956L24.8612 51.5362C24.4648 52.2622 24.3409 52.9064 24.4896 53.4763C24.6382 54.0462 25.047 54.336 25.7284 54.336L25.3568 55.1165C23.2823 54.8954 21.2224 54.5546 19.1873 54.0957C17.4529 53.6795 16.1893 53.0055 15.3964 52.059C15.1982 52.6091 15.218 53.0303 15.4534 53.3301C15.6888 53.6299 16.0926 53.781 16.6625 53.781L16.2537 54.5243C15.2951 54.5108 14.3387 54.428 13.392 54.2766C12.3018 54.1114 11.3933 53.9462 10.6665 53.781C9.92318 53.9462 9.0502 54.1114 8.04756 54.2766C7.09595 54.4354 6.13322 54.5182 5.16848 54.5243L4.79682 53.781C5.4658 53.781 5.8994 53.5828 6.09761 53.1864C6.29583 52.79 6.18433 52.2325 5.76312 51.5139L3.86768 48.1319C3.4887 47.4316 2.91346 46.8572 2.21258 46.4793C1.6668 46.1439 1.04789 45.9458 0.40882 45.902L0 45.1587C0.727227 45.1704 1.45335 45.2201 2.17542 45.3073C3.09449 45.4078 4.00527 45.5734 4.90088 45.8029C5.77878 46.0242 6.63149 46.3356 7.44548 46.732C8.22678 47.1169 8.76609 47.5818 9.06342 48.1269L10.6615 50.9887L12.1481 48.1269L12.2596 47.9039C12.3559 47.694 12.4066 47.466 12.4083 47.235C12.0039 46.8252 11.5244 46.4972 10.996 46.2687C10.5765 46.0698 10.1218 45.9561 9.65806 45.9342L9.24924 45.1909C9.98229 45.2014 10.7142 45.2511 11.442 45.3395C12.3569 45.4408 13.2635 45.6064 14.1551 45.8351C15.0309 46.0587 15.8831 46.3665 16.6997 46.7543C17.3792 47.035 17.9476 47.5312 18.3176 48.1666L19.9157 51.0283L21.4023 48.1666L21.5138 47.9436C21.7864 47.3242 21.774 46.841 21.4767 46.4941C21.3365 46.3259 21.16 46.1916 20.9604 46.1015C20.7609 46.0114 20.5434 45.9677 20.3245 45.9738L20.7334 45.1933C21.4548 45.2032 22.1748 45.2595 22.889 45.3618C23.6775 45.4594 24.4513 45.6524 25.1932 45.9366C26.1426 45.6679 27.112 45.4757 28.0921 45.3618C28.8689 45.2628 29.6506 45.2066 30.4335 45.1933L30.0619 45.9366C29.4285 45.9813 28.8158 46.1813 28.278 46.5189C27.58 46.9008 27.0084 47.4776 26.6328 48.179ZM31.9103 45.9738C31.9103 41.3157 32.7898 37.7289 34.549 35.2132C36.219 32.7625 38.7105 30.9899 41.5733 30.2157C41.6927 28.9871 42.1914 27.8262 43.0003 26.8938C43.8092 25.9615 44.8882 25.304 46.0876 25.0125C46.6046 24.8793 47.1348 24.8045 47.6684 24.7895C49.3657 24.7706 51.0272 25.2769 52.4256 26.239C53.8379 27.2053 55.033 28.7101 56.0108 30.7533C56.9887 32.7966 57.7386 35.4172 58.2606 38.6151C58.7809 41.8113 59.041 45.6393 59.041 50.0992C59.0463 51.8707 58.8053 53.6343 58.325 55.3395C57.8949 56.9157 57.184 58.4013 56.2264 59.725C55.3143 60.9743 54.1275 61.9974 52.7576 62.7156C51.2493 63.472 49.5783 63.8464 47.8914 63.8058C45.6456 63.8367 43.4179 63.3996 41.3503 62.5224C39.4286 61.6941 37.7099 60.4581 36.3131 58.9C34.8638 57.261 33.7554 55.3499 33.0525 53.2781C32.2611 50.9229 31.8749 48.4507 31.9103 45.9664V45.9738ZM41.821 33.9396C41.7029 33.3864 41.6283 32.8247 41.5981 32.2598C40.1114 33.5812 38.9965 35.442 38.2532 37.842C37.4763 40.4883 37.1005 43.236 37.1382 45.9936C37.147 47.8655 37.2653 49.7352 37.4925 51.5932C37.706 53.5074 38.2141 55.377 38.9989 57.1358C39.735 58.7912 40.8564 60.2465 42.2695 61.3801C43.6818 62.5083 45.5525 63.0716 47.8815 63.0699C48.6091 63.0529 49.3273 62.9017 49.9999 62.6239C50.768 62.3266 51.4865 61.7237 52.1555 60.8152C52.8245 59.9067 53.382 58.6101 53.828 56.9252C54.274 55.2354 54.4969 53.0055 54.4969 50.2355C54.4969 46.8592 54.3912 43.6753 54.1798 40.6839C54.0191 38.0386 53.6463 35.4104 53.0648 32.8247C52.5313 30.5815 51.8128 28.8083 50.9092 27.5051C50.0057 26.2018 48.8726 25.5493 47.5098 25.5477C47.1767 25.5537 46.8449 25.591 46.5188 25.6592C46.104 25.7502 45.7163 25.9369 45.3865 26.2043C44.9645 26.5529 44.6223 26.9881 44.383 27.4803C44.0451 28.2034 43.8556 28.9869 43.8255 29.7845C44.8218 29.6336 45.8282 29.5591 46.8359 29.5615C47.6208 29.5351 48.3983 29.7218 49.0857 30.1017C49.6775 30.4462 50.1753 30.9313 50.5351 31.514C50.9046 32.1241 51.1622 32.7954 51.2958 33.4961C51.4429 34.212 51.5176 34.9408 51.5188 35.6716C51.5264 36.2125 51.4512 36.7515 51.2958 37.2697L48.8181 38.682C49.0608 38.0428 49.2474 37.3837 49.3755 36.7122C49.5233 35.9781 49.598 35.2311 49.5985 34.4823C49.6182 33.4819 49.4089 32.4903 48.9865 31.5834C48.5769 30.7409 47.8518 30.3197 46.8111 30.3197C45.7665 30.3205 44.7318 30.5224 43.7636 30.9144C43.7679 31.5784 43.8234 32.2411 43.9296 32.8965C44.0411 33.62 44.1773 34.4154 44.3582 35.2826L41.821 33.9396ZM87.1629 48.179H87.1257L85.379 51.5362C84.9825 52.2622 84.8586 52.9064 85.0073 53.4763C85.156 54.0462 85.5648 54.336 86.2338 54.336L85.8621 55.1165C83.7877 54.8954 81.7277 54.5546 79.6926 54.0957C77.9583 53.6795 76.6946 53.0055 75.9018 52.059C75.7036 52.6091 75.7209 53.0303 75.9563 53.3301C76.1917 53.6299 76.5955 53.781 77.1654 53.781L76.7566 54.5243C75.7979 54.5108 74.8415 54.428 73.8948 54.2766C72.8046 54.1114 71.9003 53.9462 71.1818 53.781C70.4384 53.9462 69.5655 54.1114 68.5628 54.2766C67.6112 54.4354 66.6485 54.5182 65.6837 54.5243L65.3121 53.781C65.9811 53.781 66.4147 53.5828 66.6129 53.1864C66.8111 52.79 66.6996 52.2325 66.2784 51.5139L64.383 48.1319C64.004 47.4316 63.4287 46.8572 62.7279 46.4793C62.1828 46.1443 61.5648 45.9462 60.9266 45.902L60.5177 45.1587C61.245 45.1704 61.9711 45.2201 62.6932 45.3073C63.6122 45.4078 64.523 45.5734 65.4186 45.8029C66.3052 46.0242 67.1663 46.3372 67.988 46.7369C68.7693 47.1218 69.3086 47.5868 69.6059 48.1319L71.2041 50.9936L72.6907 48.1319L72.8022 47.9089C72.8984 47.6989 72.9491 47.4709 72.9508 47.2399C72.5464 46.8302 72.0669 46.5021 71.5385 46.2736C71.1191 46.0748 70.6643 45.9611 70.2006 45.9391L69.7918 45.1958C70.5248 45.2064 71.2568 45.256 71.9845 45.3445C72.9036 45.4452 73.8143 45.6108 74.71 45.84C75.5856 46.0612 76.4378 46.3666 77.2546 46.7518C77.9332 47.033 78.5007 47.5292 78.87 48.1641L80.4682 51.0258L81.9548 48.1641L82.0663 47.9411C82.3388 47.3217 82.3264 46.8385 82.0291 46.4917C81.889 46.3234 81.7124 46.1891 81.5129 46.099C81.3133 46.0089 81.0959 45.9652 80.877 45.9713L81.2858 45.1909C82.0072 45.2007 82.7272 45.257 83.4414 45.3593C84.2299 45.4569 85.0037 45.6499 85.7457 45.9342C86.695 45.6654 87.6645 45.4732 88.6446 45.3593C89.4214 45.2603 90.203 45.2041 90.986 45.1909L90.6143 45.9342C89.9809 45.9789 89.3682 46.1788 88.8304 46.5164C88.1285 46.8975 87.5532 47.4753 87.1753 48.179H87.1629ZM110.317 51.4743C110.317 53.6547 110.609 55.4717 111.192 56.9252C111.713 58.2912 112.585 59.496 113.719 60.4188C114.9 61.3369 116.262 61.9954 117.715 62.3514C119.444 62.7844 121.212 63.0393 122.993 63.112C124.257 63.112 125.235 62.7718 125.929 62.0912C126.606 61.4351 127.127 60.6348 127.453 59.7498C127.764 58.9211 127.952 58.0513 128.01 57.168C128.06 56.3256 128.085 55.7434 128.085 55.4213C128.085 54.1576 128.042 52.9626 127.956 51.836C127.874 50.7216 127.408 49.6703 126.635 48.8628C125.842 48.0088 124.548 47.3332 122.753 46.8361C120.957 46.3389 118.361 46.0911 114.965 46.0927C114.101 46.0862 113.237 46.1425 112.381 46.2612C111.626 46.3719 110.939 46.5016 110.319 46.6502L110.317 51.4743ZM105.077 51.5115V47.7206C103.36 47.7359 101.653 47.4783 100.017 46.9575C98.5673 46.5019 97.2135 45.7838 96.0231 44.839C94.9295 43.9604 94.0366 42.8579 93.4042 41.6056C92.7729 40.3553 92.4485 38.9726 92.4577 37.5719C92.4577 35.119 93.1086 33.0543 94.4102 31.3777C95.7637 29.6498 97.492 28.252 99.4647 27.2895C101.664 26.2076 104.014 25.4625 106.434 25.0794C108.975 24.6481 111.551 24.4548 114.128 24.5021C116.101 24.543 118.061 24.8302 119.963 25.3569C121.743 25.8394 123.415 26.6595 124.886 27.7727C126.332 28.8882 127.497 30.3264 128.288 31.9724C129.13 33.682 129.551 35.7384 129.551 38.1418C129.546 38.9927 129.389 39.8359 129.088 40.6319C128.773 41.4774 128.357 42.2819 127.849 43.0278C127.354 43.7683 126.781 44.4536 126.14 45.0719C125.562 45.6403 124.905 46.1227 124.19 46.504C127.584 47.3299 129.957 48.5011 131.308 50.0174C132.642 51.4989 133.365 53.4306 133.332 55.4237C133.332 55.7541 133.277 56.3801 133.166 57.3018C133.014 58.3367 132.626 59.3227 132.032 60.1834C131.387 61.1745 130.366 62.0475 128.967 62.8023C127.568 63.5572 125.576 63.9189 122.993 63.8876C120.466 63.8876 117.672 63.2376 114.611 61.9376C111.55 60.6376 108.373 58.6613 105.079 56.0085C104.738 55.7322 104.415 55.4342 104.113 55.1165C103.771 54.8025 103.345 54.5958 102.886 54.5219V53.7786C103.178 53.7916 103.47 53.7457 103.744 53.6436C104.017 53.5414 104.268 53.3851 104.48 53.1839C104.691 52.9619 104.854 52.6989 104.958 52.4111C105.063 52.1234 105.108 51.8172 105.089 51.5115H105.077ZM110.317 31.5536V45.5278C110.912 45.4287 111.593 45.3296 112.361 45.2305C113.274 45.1232 114.192 45.0736 115.111 45.0818C116.365 45.061 117.617 45.179 118.845 45.4337C119.873 45.6699 120.883 45.8747 121.875 46.0481C122.577 45.6639 123.185 45.1312 123.659 44.4872C124.102 43.8751 124.447 43.1981 124.683 42.4803C124.917 41.7693 125.066 41.0333 125.129 40.2875C125.191 39.5442 125.223 38.8257 125.223 38.1319C125.223 35.8524 124.932 33.914 124.351 32.3168C123.858 30.8676 123.066 29.5381 122.027 28.4144C121.111 27.4443 119.986 26.6945 118.739 26.2216C117.533 25.7665 116.254 25.5331 114.965 25.5328C111.893 25.5328 109.266 25.8359 107.086 26.4421C104.906 27.0483 103.134 27.8908 101.771 28.9694C100.457 29.9858 99.4271 31.3238 98.7808 32.8544C98.1338 34.447 97.812 36.1529 97.8343 37.8717C97.8493 38.8887 98.0631 39.8928 98.4637 40.8276C98.8648 41.8151 99.4164 42.7345 100.099 43.5531C100.755 44.3485 101.541 45.0271 102.423 45.56C103.226 46.0618 104.152 46.3319 105.099 46.3405V34.0437C105.074 33.3252 104.826 32.8916 104.356 32.7429C104.116 32.6699 103.865 32.6454 103.616 32.671C103.367 32.6965 103.126 32.7715 102.906 32.8916V32.1483C103.628 31.814 104.367 31.5163 105.119 31.2563C105.96 30.9515 106.824 30.7153 107.703 30.5502C108.528 29.8762 109.403 29.2674 110.322 28.729C111.252 28.1839 112.014 27.7627 112.609 27.4654V28.2087C112.019 28.5365 111.506 28.9858 111.102 29.5269C110.615 30.0908 110.341 30.8083 110.329 31.5536H110.317ZM141.759 51.0283L143.246 48.1666L143.357 47.9436C143.605 47.3242 143.587 46.841 143.303 46.4941C143.167 46.3251 142.994 46.19 142.797 46.0997C142.6 46.0093 142.384 45.9662 142.168 45.9738L142.577 45.1933C143.298 45.2032 144.018 45.2595 144.732 45.3618C145.521 45.4594 146.294 45.6524 147.036 45.9366C147.986 45.6679 148.955 45.4757 149.935 45.3618C150.712 45.2628 151.494 45.2066 152.277 45.1933L151.905 45.9366C151.274 45.9767 150.663 46.1679 150.121 46.4941C149.414 46.8789 148.833 47.4596 148.449 48.1666L143.806 56.7146C142.418 59.2914 140.808 61.1002 138.974 62.1408C137.141 63.1814 134.985 63.7017 132.507 63.7017L132.879 62.9584C133.567 62.9526 134.239 62.7459 134.812 62.3638C135.451 61.945 135.975 61.3725 136.335 60.6988L139.271 55.285L134.96 48.1616C134.566 47.4683 133.987 46.898 133.288 46.514C132.75 46.1774 132.137 45.979 131.504 45.9366L131.095 45.1933C131.822 45.2051 132.548 45.2547 133.27 45.342C134.189 45.4425 135.1 45.6081 135.996 45.8375C136.871 46.0588 137.724 46.3641 138.54 46.7493C139.219 47.0305 139.787 47.5267 140.156 48.1616L141.759 51.0283ZM174.427 53.7786L174.948 54.5219C174.177 54.5064 173.407 54.4444 172.643 54.336C171.643 54.2057 170.65 54.0196 169.67 53.7786C168.964 54.0736 168.22 54.2671 167.46 54.3534C166.739 54.4554 166.013 54.5117 165.285 54.5219L164.802 53.7786C165.462 53.7786 165.871 53.5803 166.028 53.1839C166.185 52.7875 166.024 52.23 165.545 51.5115L164.058 49.2444L161.246 50.9218V51.4793C161.226 51.7842 161.269 52.0901 161.372 52.3778C161.475 52.6655 161.636 52.9289 161.846 53.1517C162.057 53.3525 162.307 53.5087 162.58 53.6109C162.854 53.713 163.145 53.7591 163.436 53.7463V54.5268C161.832 54.4861 160.239 54.2362 158.699 53.7835C157.852 54.0632 156.979 54.2558 156.092 54.3583C155.336 54.4583 154.575 54.5145 153.813 54.5268V53.7835C154.104 53.7963 154.396 53.7502 154.669 53.648C154.942 53.5459 155.192 53.3897 155.404 53.1889C155.613 52.9661 155.774 52.7026 155.877 52.4149C155.98 52.1272 156.023 51.8214 156.003 51.5164V27.8049C156.021 27.4908 155.965 27.1769 155.838 26.8891C155.711 26.6012 155.517 26.3478 155.272 26.1498C154.865 25.7969 154.349 25.5941 153.81 25.5749V24.8316C154.512 24.8423 155.213 24.8919 155.909 24.9803C156.74 25.0725 157.561 25.2383 158.362 25.4758C159.077 25.6813 159.758 25.9874 160.386 26.3851C160.956 26.7568 161.241 27.2276 161.241 27.7974V47.3712L164.066 45.9589C164.596 45.7235 165.161 45.573 165.738 45.513C166.457 45.4139 167.188 45.3461 167.931 45.3098C168.674 45.2735 169.38 45.2553 170.049 45.2553H171.536V45.9986C171.462 45.9986 171.288 46.011 171.016 46.0358C170.681 46.0731 170.35 46.1352 170.025 46.2216C169.628 46.3207 169.215 46.4446 168.786 46.5932C168.365 46.7362 167.961 46.923 167.579 47.1507L167.542 47.1879C167.74 47.3365 167.933 47.4918 168.119 47.6537C168.289 47.7937 168.434 47.9612 168.548 48.1492L170.741 51.4941C171.174 52.176 171.759 52.7485 172.45 53.1666C173.046 53.5467 173.733 53.7582 174.44 53.7786H174.427ZM182.108 51.6601C182.977 51.4151 183.79 51.0055 184.504 50.4535C184.756 50.2505 184.959 49.993 185.098 49.7004C185.237 49.4077 185.307 49.0875 185.304 48.7637C185.303 48.4326 185.284 48.1018 185.247 47.7726C185.213 47.4249 185.138 47.0824 185.025 46.7518C184.93 46.4625 184.785 46.1924 184.596 45.954C184.517 45.8528 184.415 45.7715 184.299 45.7164C184.183 45.6614 184.055 45.6341 183.927 45.6368C183.33 45.6285 182.753 45.8473 182.311 46.2488C181.854 46.6585 181.624 47.4456 181.623 48.6101C181.637 49.6484 181.81 50.6784 182.133 51.6651L182.108 51.6601ZM183.843 55.0793C182.802 55.0793 181.83 55.0546 180.926 55.005C180.124 54.9746 179.33 54.8311 178.568 54.5789C177.948 54.3749 177.396 54.0067 176.97 53.5134C176.573 53.0427 176.375 52.3687 176.375 51.5016C176.38 50.6568 176.584 49.8251 176.97 49.0734C177.371 48.2757 177.912 47.5565 178.568 46.95C179.26 46.319 180.059 45.8157 180.926 45.4634C181.852 45.0876 182.843 44.8982 183.843 44.9059C185.577 44.9059 186.798 45.1677 187.505 45.6914C187.852 45.9467 188.13 46.284 188.314 46.6732C188.499 47.0623 188.584 47.4911 188.563 47.9213C188.542 48.4675 188.339 48.991 187.985 49.4079C187.564 49.9369 187.062 50.3967 186.499 50.7706C185.866 51.1934 185.194 51.5543 184.492 51.8484C183.808 52.1491 183.091 52.3695 182.356 52.505C182.529 52.9545 182.767 53.3762 183.062 53.7563C183.158 53.8981 183.285 54.0164 183.433 54.1022C183.581 54.188 183.746 54.2392 183.917 54.2518C184.265 54.279 184.613 54.192 184.908 54.004C185.106 53.8389 185.292 53.4614 185.466 52.8717L187.361 53.0204C187.268 53.345 187.111 53.6475 186.898 53.9094C186.685 54.1714 186.421 54.3873 186.122 54.5442C185.431 54.9065 184.66 55.0905 183.88 55.0793H183.843ZM190.086 45.9664V45.2231H192.279V27.7553L197.52 25.5254V45.2231H199.787V45.9664H197.52V51.504C197.492 51.8053 197.531 52.1089 197.633 52.3937C197.735 52.6785 197.898 52.9377 198.11 53.1534C198.322 53.3691 198.579 53.536 198.862 53.6427C199.145 53.7493 199.448 53.7932 199.749 53.7711V54.5144C199.303 54.5144 198.667 54.502 197.829 54.4773C196.996 54.4524 196.167 54.3529 195.352 54.1799C194.584 54.029 193.852 53.7321 193.196 53.3053C192.901 53.118 192.661 52.8563 192.5 52.5465C192.339 52.2367 192.263 51.8899 192.279 51.5412V45.9664H190.086Z" fill="#EB3A5F"/>
<path fill-rule="evenodd" clip-rule="evenodd" d="M132.569 71.9819C132.014 73.6617 131.43 75.3763 131.33 77.1578C131.268 78.3966 132.17 80.7678 132.738 81.8035C133.327 82.8788 134.182 83.2901 134.594 84.3208C135.431 86.4045 134.594 88.5923 135.919 91.0725C137.406 93.8153 142.802 96.2509 145.845 96.1394C145.907 95.3961 145.396 96.179 145.463 95.2474C148.117 96.6003 148.422 97.1999 151.838 96.4689C151.06 95.5844 150.552 95.8644 150.007 94.3654L150.324 94.0879C151.068 93.3247 150.77 93.8971 151.068 93.0646C151.353 94.073 151.316 93.2479 150.736 94.3158C150.349 95.0319 150.518 93.8029 150.419 94.8733C153.206 97.8119 155.565 94.244 156.105 91.4045L154.779 92.4253C154.834 90.2499 156.776 89.2465 154.323 86.2534C153.523 88.0324 153.788 88.9789 151.239 89.4744C151.147 88.58 151.308 88.7683 151.791 88.015C150.267 87.9506 148.91 88.8029 148.379 89.8138C150.738 90.7058 151.439 89.6553 152.465 92.7127C151.377 92.7995 151.501 92.4873 150.562 92.9754C150.562 92.9754 150.508 93.0274 150.473 93.0274C150.51 92.6558 149.829 92.0685 152.101 92.5319C150.862 88.4685 146.385 91.7291 145.119 88.9689C147.48 88.6369 146.425 88.8376 148.479 87.9432C148.937 87.7729 149.403 87.6257 149.876 87.5022L151.259 86.8976C149.866 84.2886 146.928 84.8386 144.522 82.9754C142.906 81.7242 142.314 81.6498 140.272 82.5963C137.448 83.9045 138.456 83.3545 135.723 83.3396C138.721 90.9288 144.004 93.5205 145.243 95.2127C141.006 94.0086 133.617 81.9075 132.433 78.2876C132.255 77.745 132.378 76.6672 132.401 76.023C132.482 74.01 133.201 72.0749 134.455 70.4977C136.515 67.89 139.091 65.735 142.022 64.1672C144.366 62.8881 146.947 62.0999 149.606 61.8506C151.61 61.6466 153.63 61.6466 155.634 61.8506C164.975 62.911 171.638 66.137 179.916 69.8981C187.079 73.1489 196.571 77.3634 204.851 79.1944C205.872 79.4199 206.873 79.6107 207.852 79.7569C214.596 80.7727 220.151 79.7569 222.344 74.6825C226.189 65.7628 212.304 53.7807 202.445 53.6221C201.818 53.6221 200.426 53.6221 199.388 53.585C199.388 53.8674 199.576 53.8724 199.581 54.3283C211.447 53.6965 222.748 65.1707 219.611 73.2331C217.678 78.1885 212.383 79.1374 205.134 77.5567C197.133 75.8223 187.658 71.6375 180.604 68.4511C176.308 66.5136 172.2 64.5066 167.926 62.9407C165.34 61.9748 162.677 61.2288 159.965 60.7108C158.803 60.4953 157.361 60.2946 156.64 60.0295C155.919 59.7643 156.127 59.3357 155.538 58.694C153.868 56.8828 150.223 54.5265 148.513 56.0825C148.513 56.7713 149.698 57.1082 150.758 57.024C151.353 56.9769 151.749 57.3337 152.297 57.4105C154.242 57.688 155.743 59.7222 155.069 60.0864C153.213 60.2847 151.965 60.1732 150.228 60.3342C147.287 60.5806 144.416 61.3588 141.754 62.631C139.871 63.5586 138.092 64.6832 136.447 65.9858C134.504 67.522 133.568 69.8238 132.569 71.9819ZM138.818 93.2901C138.803 93.2455 138.788 93.4338 138.746 93.4115L138.818 93.2901Z" fill="#EB3A5F"/>
</svg>
