<svg width="30" height="30" viewBox="0 0 30 30" fill="none" xmlns="http://www.w3.org/2000/svg">
<path d="M29.0407 27.2951L22.4946 20.749C24.2369 18.6201 25.2829 15.9009 25.2829 12.9415C25.2829 6.1318 19.7446 0.6 12.9415 0.6C6.1318 0.6 0.6 6.13828 0.6 12.9415C0.6 19.7448 6.13815 25.2829 12.9415 25.2829C15.9009 25.2829 18.6201 24.2369 20.749 22.4946L27.2951 29.0407C27.5312 29.2767 27.8501 29.4062 28.1679 29.4062C28.4777 29.4062 28.8008 29.2883 29.0433 29.038C29.5198 28.5587 29.5189 27.7734 29.0407 27.2951ZM3.07044 12.9415C3.07044 7.49918 7.49887 3.07665 12.9352 3.07665C18.3775 3.07665 22.8 7.50508 22.8 12.9415C22.8 18.3781 18.3772 22.8125 12.9352 22.8125C7.49918 22.8125 3.07044 18.384 3.07044 12.9415Z" fill="white" stroke="white" stroke-width="0.8"/>
</svg>
