<svg xmlns="http://www.w3.org/2000/svg" width="22" height="16" viewBox="0 0 22 16"><g><g><g><path fill="#fff" d="M2.774 4.932c.258.181 1.035.721 2.33 1.619 1.295.898 2.288 1.589 2.977 2.074.076.053.237.168.483.346.246.178.45.322.614.432.163.11.36.233.59.37.232.136.45.238.654.306a1.8 1.8 0 0 0 .568.102h.023a1.8 1.8 0 0 0 .568-.102c.205-.068.423-.17.654-.307.23-.136.428-.259.59-.369.164-.11.368-.254.614-.432s.408-.293.483-.346L19.24 4.93a5.4 5.4 0 0 0 1.386-1.397c.372-.545.557-1.117.557-1.716 0-.5-.18-.928-.54-1.284A1.756 1.756 0 0 0 19.365 0H2.638c-.583 0-1.032.197-1.346.59C.977.986.82 1.478.82 2.069c0 .477.208.994.625 1.551.417.557.86.995 1.33 1.313z"/></g><g><path fill="#fff" d="M20.047 6.149c-2.485 1.681-4.371 2.988-5.659 3.92-.432.318-.782.566-1.051.744-.27.178-.627.36-1.074.546-.447.185-.863.278-1.25.278h-.023c-.386 0-.803-.093-1.25-.278a6.49 6.49 0 0 1-1.074-.546c-.268-.178-.619-.426-1.05-.744-1.023-.75-2.906-2.057-5.648-3.92A6.019 6.019 0 0 1 .82 5.16v9.022c0 .5.178.928.534 1.284a1.75 1.75 0 0 0 1.284.535h16.727c.5 0 .928-.178 1.284-.535a1.75 1.75 0 0 0 .534-1.284V5.16a6.268 6.268 0 0 1-1.136.989z"/></g></g></g></svg>