<svg xmlns="http://www.w3.org/2000/svg" width="28" height="28" viewBox="0 0 28 28"><defs><linearGradient id="5qsua" x1="10.97" x2="17.04" y1="9.18" y2="9.18" gradientUnits="userSpaceOnUse"><stop offset="0" stop-color="#fe5b3a"/><stop offset="1" stop-color="#8f43fe"/></linearGradient><clipPath id="5qsub"><path fill="#fff" d="M9.5 13.5v-9h9v9zm4.503-1.233a3.037 3.037 0 0 0 3.034-3.034A3.037 3.037 0 0 0 14.003 6.2a3.037 3.037 0 0 0-3.033 3.033 3.037 3.037 0 0 0 3.033 3.034zm0-5.2a2.17 2.17 0 0 1 2.167 2.166 2.17 2.17 0 0 1-2.167 2.167 2.17 2.17 0 0 1-2.166-2.167 2.17 2.17 0 0 1 2.166-2.166z"/></clipPath><clipPath id="5qsuc"><path fill="#fff" d="M9.5 13.5v-9h9v9zm4.503-1.233a3.037 3.037 0 0 0 3.034-3.034A3.037 3.037 0 0 0 14.003 6.2a3.037 3.037 0 0 0-3.033 3.033 3.037 3.037 0 0 0 3.033 3.034zm0-5.2a2.17 2.17 0 0 1 2.167 2.166 2.17 2.17 0 0 1-2.167 2.167 2.17 2.17 0 0 1-2.166-2.167 2.17 2.17 0 0 1 2.166-2.166z"/></clipPath><linearGradient id="5qsud" x1="5.61" x2="22.23" y1="12.65" y2="12.65" gradientUnits="userSpaceOnUse"><stop offset="0" stop-color="#fe5b3a"/><stop offset="1" stop-color="#8f43fe"/></linearGradient><clipPath id="5qsue"><path fill="#fff" d="M4.5 26.69V-.69h19v27.38zm9.42-1.962l6.648-9.601c2.493-3.324 2.133-8.788-.772-11.693A8.254 8.254 0 0 0 13.92 1c-2.22 0-4.306.865-5.876 2.434-2.905 2.904-3.265 8.368-.782 11.68zM8.657 4.047a7.396 7.396 0 0 1 5.263-2.18c1.988 0 3.857.774 5.263 2.18 2.622 2.621 2.945 7.556.682 10.573l-5.945 8.585-5.954-8.598c-2.254-3.004-1.93-7.939.69-10.56z"/></clipPath><clipPath id="5qsuf"><path fill="#fff" d="M4.5 26.69V-.69h19v27.38zm9.42-1.962l6.648-9.601c2.493-3.324 2.133-8.788-.772-11.693A8.254 8.254 0 0 0 13.92 1c-2.22 0-4.306.865-5.876 2.434-2.905 2.904-3.265 8.368-.782 11.68zM8.657 4.047a7.396 7.396 0 0 1 5.263-2.18c1.988 0 3.857.774 5.263 2.18 2.622 2.621 2.945 7.556.682 10.573l-5.945 8.585-5.954-8.598c-2.254-3.004-1.93-7.939.69-10.56z"/></clipPath><linearGradient id="5qsug" x1="1" x2="27" y1="23.25" y2="23.25" gradientUnits="userSpaceOnUse"><stop offset="0" stop-color="#fe5b3a"/><stop offset="1" stop-color="#8f43fe"/></linearGradient><clipPath id="5qsuh"><path fill="#fff" d="M-.5 28.309V18.69h29v9.618zm19.75-8.676a.433.433 0 0 0-.101.86c4.557.537 6.984 1.983 6.984 2.82 0 1.177-4.616 2.817-12.133 2.817-7.517 0-12.133-1.64-12.133-2.816 0-.838 2.427-2.284 6.984-2.82a.434.434 0 0 0-.102-.86C4.187 20.17 1 21.683 1 23.313c0 1.83 4.465 3.683 13 3.683 8.534 0 13-1.853 13-3.683 0-1.63-3.187-3.143-7.75-3.68z"/></clipPath><clipPath id="5qsui"><path fill="#fff" d="M-.5 28.309V18.69h29v9.618zm19.75-8.676a.433.433 0 0 0-.101.86c4.557.537 6.984 1.983 6.984 2.82 0 1.177-4.616 2.817-12.133 2.817-7.517 0-12.133-1.64-12.133-2.816 0-.838 2.427-2.284 6.984-2.82a.434.434 0 0 0-.102-.86C4.187 20.17 1 21.683 1 23.313c0 1.83 4.465 3.683 13 3.683 8.534 0 13-1.853 13-3.683 0-1.63-3.187-3.143-7.75-3.68z"/></clipPath></defs><g><g><g><path d="M10.97 9.233A3.037 3.037 0 0 1 14.003 6.2a3.037 3.037 0 0 1 3.034 3.033 3.037 3.037 0 0 1-3.034 3.034 3.037 3.037 0 0 1-3.033-3.034zm.867 0a2.17 2.17 0 0 0 2.166 2.167 2.17 2.17 0 0 0 2.167-2.167 2.17 2.17 0 0 0-2.167-2.166 2.17 2.17 0 0 0-2.166 2.166z"/><path fill="url(#5qsua)" d="M10.97 9.233A3.037 3.037 0 0 1 14.003 6.2a3.037 3.037 0 0 1 3.034 3.033 3.037 3.037 0 0 1-3.034 3.034 3.037 3.037 0 0 1-3.033-3.034zm.867 0a2.17 2.17 0 0 0 2.166 2.167 2.17 2.17 0 0 0 2.167-2.167 2.17 2.17 0 0 0-2.167-2.166 2.17 2.17 0 0 0-2.166 2.166z"/><path fill="none" stroke="#000" stroke-miterlimit="50" d="M10.97 9.233A3.037 3.037 0 0 1 14.003 6.2a3.037 3.037 0 0 1 3.034 3.033 3.037 3.037 0 0 1-3.034 3.034 3.037 3.037 0 0 1-3.033-3.034zm.867 0a2.17 2.17 0 0 0 2.166 2.167 2.17 2.17 0 0 0 2.167-2.167 2.17 2.17 0 0 0-2.167-2.166 2.17 2.17 0 0 0-2.166 2.166z" clip-path="url(&quot;#5qsub&quot;)"/><path fill="none" stroke="#000" stroke-miterlimit="50" d="M10.97 9.233A3.037 3.037 0 0 1 14.003 6.2a3.037 3.037 0 0 1 3.034 3.033 3.037 3.037 0 0 1-3.034 3.034 3.037 3.037 0 0 1-3.033-3.034zm.867 0a2.17 2.17 0 0 0 2.166 2.167 2.17 2.17 0 0 0 2.167-2.167 2.17 2.17 0 0 0-2.167-2.166 2.17 2.17 0 0 0-2.166 2.166z" clip-path="url(&quot;#5qsuc&quot;)"/></g><g><path d="M7.262 15.113c-2.483-3.31-2.123-8.775.782-11.679A8.256 8.256 0 0 1 13.92 1c2.22 0 4.306.865 5.876 2.434 2.905 2.905 3.265 8.369.772 11.693l-6.648 9.601zm.704-.506l5.954 8.598 5.945-8.585c2.263-3.017 1.94-7.952-.682-10.573a7.396 7.396 0 0 0-5.263-2.18 7.396 7.396 0 0 0-5.263 2.18c-2.621 2.621-2.945 7.556-.691 10.56z"/><path fill="url(#5qsud)" d="M7.262 15.113c-2.483-3.31-2.123-8.775.782-11.679A8.256 8.256 0 0 1 13.92 1c2.22 0 4.306.865 5.876 2.434 2.905 2.905 3.265 8.369.772 11.693l-6.648 9.601zm.704-.506l5.954 8.598 5.945-8.585c2.263-3.017 1.94-7.952-.682-10.573a7.396 7.396 0 0 0-5.263-2.18 7.396 7.396 0 0 0-5.263 2.18c-2.621 2.621-2.945 7.556-.691 10.56z"/><path fill="none" stroke="#000" stroke-miterlimit="50" d="M7.262 15.113c-2.483-3.31-2.123-8.775.782-11.679A8.256 8.256 0 0 1 13.92 1c2.22 0 4.306.865 5.876 2.434 2.905 2.905 3.265 8.369.772 11.693l-6.648 9.601zm.704-.506l5.954 8.598 5.945-8.585c2.263-3.017 1.94-7.952-.682-10.573a7.396 7.396 0 0 0-5.263-2.18 7.396 7.396 0 0 0-5.263 2.18c-2.621 2.621-2.945 7.556-.691 10.56z" clip-path="url(&quot;#5qsue&quot;)"/><path fill="none" stroke="#000" stroke-miterlimit="50" d="M7.262 15.113c-2.483-3.31-2.123-8.775.782-11.679A8.256 8.256 0 0 1 13.92 1c2.22 0 4.306.865 5.876 2.434 2.905 2.905 3.265 8.369.772 11.693l-6.648 9.601zm.704-.506l5.954 8.598 5.945-8.585c2.263-3.017 1.94-7.952-.682-10.573a7.396 7.396 0 0 0-5.263-2.18 7.396 7.396 0 0 0-5.263 2.18c-2.621 2.621-2.945 7.556-.691 10.56z" clip-path="url(&quot;#5qsuf&quot;)"/></g><g><path d="M19.25 19.633a.433.433 0 0 0-.101.86c4.557.537 6.984 1.983 6.984 2.82 0 1.177-4.616 2.817-12.133 2.817-7.517 0-12.133-1.64-12.133-2.816 0-.838 2.427-2.284 6.984-2.82a.434.434 0 0 0-.102-.86C4.187 20.17 1 21.683 1 23.313c0 1.83 4.465 3.683 13 3.683 8.534 0 13-1.853 13-3.683 0-1.63-3.187-3.143-7.75-3.68z"/><path fill="url(#5qsug)" d="M19.25 19.633a.433.433 0 0 0-.101.86c4.557.537 6.984 1.983 6.984 2.82 0 1.177-4.616 2.817-12.133 2.817-7.517 0-12.133-1.64-12.133-2.816 0-.838 2.427-2.284 6.984-2.82a.434.434 0 0 0-.102-.86C4.187 20.17 1 21.683 1 23.313c0 1.83 4.465 3.683 13 3.683 8.534 0 13-1.853 13-3.683 0-1.63-3.187-3.143-7.75-3.68z"/><path fill="none" stroke="#000" stroke-miterlimit="50" d="M19.25 19.633a.433.433 0 0 0-.101.86c4.557.537 6.984 1.983 6.984 2.82 0 1.177-4.616 2.817-12.133 2.817-7.517 0-12.133-1.64-12.133-2.816 0-.838 2.427-2.284 6.984-2.82a.434.434 0 0 0-.102-.86C4.187 20.17 1 21.683 1 23.313c0 1.83 4.465 3.683 13 3.683 8.534 0 13-1.853 13-3.683 0-1.63-3.187-3.143-7.75-3.68z" clip-path="url(&quot;#5qsuh&quot;)"/><path fill="none" stroke="#000" stroke-miterlimit="50" d="M19.25 19.633a.433.433 0 0 0-.101.86c4.557.537 6.984 1.983 6.984 2.82 0 1.177-4.616 2.817-12.133 2.817-7.517 0-12.133-1.64-12.133-2.816 0-.838 2.427-2.284 6.984-2.82a.434.434 0 0 0-.102-.86C4.187 20.17 1 21.683 1 23.313c0 1.83 4.465 3.683 13 3.683 8.534 0 13-1.853 13-3.683 0-1.63-3.187-3.143-7.75-3.68z" clip-path="url(&quot;#5qsui&quot;)"/></g></g></g></svg>