<svg width="40" height="27" viewBox="0 0 40 27" fill="none" xmlns="http://www.w3.org/2000/svg">
<path d="M1.21212 3.17647H38.7879C39.457 3.17647 40 2.46494 40 1.58824C40 0.711529 39.457 0 38.7879 0H1.21212C0.54303 0 0 0.711529 0 1.58824C0 2.46494 0.54303 3.17647 1.21212 3.17647Z" fill="black"/>
<path d="M1.21212 3.17647H38.7879C39.457 3.17647 40 2.46494 40 1.58824C40 0.711529 39.457 0 38.7879 0H1.21212C0.54303 0 0 0.711529 0 1.58824C0 2.46494 0.54303 3.17647 1.21212 3.17647Z" fill="url(#paint0_linear)"/>
<path d="M1.21212 15.0886H38.7879C39.457 15.0886 40 14.3771 40 13.5003C40 12.6236 39.457 11.9121 38.7879 11.9121H1.21212C0.54303 11.9121 0 12.6236 0 13.5003C0 14.3771 0.54303 15.0886 1.21212 15.0886Z" fill="black"/>
<path d="M1.21212 15.0886H38.7879C39.457 15.0886 40 14.3771 40 13.5003C40 12.6236 39.457 11.9121 38.7879 11.9121H1.21212C0.54303 11.9121 0 12.6236 0 13.5003C0 14.3771 0.54303 15.0886 1.21212 15.0886Z" fill="url(#paint1_linear)"/>
<path d="M1.21212 26.9997H38.7879C39.457 26.9997 40 26.2882 40 25.4115C40 24.5348 39.457 23.8232 38.7879 23.8232H1.21212C0.54303 23.8232 0 24.5348 0 25.4115C0 26.2882 0.54303 26.9997 1.21212 26.9997Z" fill="black"/>
<path d="M1.21212 26.9997H38.7879C39.457 26.9997 40 26.2882 40 25.4115C40 24.5348 39.457 23.8232 38.7879 23.8232H1.21212C0.54303 23.8232 0 24.5348 0 25.4115C0 26.2882 0.54303 26.9997 1.21212 26.9997Z" fill="url(#paint2_linear)"/>
<defs>
<linearGradient id="paint0_linear" x1="-2.29501e-07" y1="1.55938" x2="40" y2="1.55938" gradientUnits="userSpaceOnUse">
<stop stop-color="#FE5B3A"/>
<stop offset="1" stop-color="#8F43FE"/>
</linearGradient>
<linearGradient id="paint1_linear" x1="-2.29501e-07" y1="13.4715" x2="40" y2="13.4715" gradientUnits="userSpaceOnUse">
<stop stop-color="#FE5B3A"/>
<stop offset="1" stop-color="#8F43FE"/>
</linearGradient>
<linearGradient id="paint2_linear" x1="-2.29501e-07" y1="25.3826" x2="40" y2="25.3826" gradientUnits="userSpaceOnUse">
<stop stop-color="#FE5B3A"/>
<stop offset="1" stop-color="#8F43FE"/>
</linearGradient>
</defs>
</svg>
