<svg width="46" height="46" viewBox="0 0 46 46" fill="none" xmlns="http://www.w3.org/2000/svg">
<path d="M23 46C16.8566 46 11.0806 43.6076 6.73652 39.2635C2.39243 34.9194 -5.0956e-06 29.1434 -4.02145e-06 23C-2.9473e-06 16.8566 2.39244 11.0806 6.73653 6.73653C11.0806 2.39244 16.8566 2.9473e-06 23 4.02145e-06C29.1434 5.0956e-06 34.9194 2.39245 39.2635 6.73653C43.6076 11.0806 46 16.8566 46 23C46 29.1434 43.6076 34.9194 39.2635 39.2635C34.9194 43.6076 29.1434 46 23 46ZM32.3694 23L21.2159 11.8466C20.5142 11.1448 19.3764 11.1448 18.6747 11.8466V11.8466C17.9729 12.5483 17.9729 13.6861 18.6747 14.3878L27.2869 23L18.6747 31.6122C17.9729 32.3139 17.9729 33.4517 18.6747 34.1534V34.1534C19.3764 34.8552 20.5142 34.8552 21.2159 34.1534L32.3694 23Z" fill="url(#paint0_linear)"/>
<defs>
<linearGradient id="paint0_linear" x1="23" y1="4.02145e-06" x2="23" y2="46" gradientUnits="userSpaceOnUse">
<stop stop-color="#FAFD69"/>
<stop offset="1" stop-color="#EFD063"/>
</linearGradient>
</defs>
</svg>
