<svg width="26" height="37" viewBox="0 0 26 37" fill="none" xmlns="http://www.w3.org/2000/svg">
<mask id="path-1-outside-1" maskUnits="userSpaceOnUse" x="-0.554688" y="-0.179688" width="27" height="37" fill="black">
<rect fill="white" x="-0.554688" y="-0.179688" width="27" height="37"/>
<path d="M6.20212 24.034L2.40993 25.8569C1.21638 26.4328 0.445312 27.662 0.445312 28.9885V35.421C0.445312 35.7409 0.704535 36.0001 1.02446 36.0001H19.6538C19.9737 36.0001 20.2329 35.7409 20.2329 35.421V34.1467H24.5109C24.8309 34.1467 25.0901 33.8875 25.0901 33.5676V27.1313C25.0901 25.8071 24.319 24.5795 23.1247 24.0031L19.3321 22.1803C18.7464 21.9003 18.368 21.2976 18.368 20.6449V19.1469H24.9781C25.2326 19.1469 25.4573 18.9808 25.5318 18.7374C25.6064 18.4941 25.5133 18.2305 25.3024 18.088C23.2964 16.7319 23.3306 13.8105 23.3668 10.7178C23.4024 7.66196 23.4393 4.50209 21.4355 2.56349C20.1062 1.27756 18.0677 0.711982 15.1982 0.837351C12.3006 0.710922 10.2481 1.30093 8.9186 2.62158C5.20126 2.87347 2.91407 5.41698 2.56245 6.69652C2.3021 7.64669 2.41031 9.26688 2.60015 10.7255C2.38222 10.6763 2.17974 10.6659 1.99122 10.694C1.40208 10.7839 1.10364 11.1212 0.957158 11.3883C0.427403 12.3538 0.998257 13.9444 1.69391 15.5193C1.74972 15.646 1.79478 15.7472 1.82004 15.8111C2.0276 16.3483 2.67029 16.5928 3.94208 16.6056C4.26257 17.4029 4.67393 18.1296 5.16806 18.7706L5.2938 18.9337C5.85316 19.6197 6.48208 20.18 7.16737 20.6033V22.4981C7.16736 23.1508 6.78899 23.7535 6.20212 24.034ZM15.1721 1.99565C15.1895 1.9964 15.2068 1.9964 15.2242 1.99565C17.7698 1.88084 19.5382 2.33971 20.6301 3.39601C22.2752 4.98754 22.2413 7.89366 22.2085 10.7042C22.1772 13.3867 22.1451 16.1447 23.5359 17.9886H17.7889C17.4689 17.9886 17.2097 18.2478 17.2097 18.5678V20.6449C17.2097 21.7412 17.8467 22.7542 18.8314 23.2249L22.6221 25.0468C23.4177 25.4306 23.9318 26.2488 23.9318 27.1313V32.9884H20.2329V28.9885C20.2329 27.6611 19.46 26.4317 18.2638 25.8565L14.4712 24.0335C13.8855 23.7537 13.5071 23.151 13.5071 22.4981V20.6033C14.9059 19.7404 16.0345 18.3413 16.7322 16.6056C18.0015 16.5928 18.645 16.3494 18.8576 15.8125C18.885 15.7423 18.9317 15.6366 18.9898 15.5044C19.6796 13.9336 20.245 12.3478 19.7167 11.387C19.5701 11.1205 19.2718 10.7837 18.6797 10.6934C18.4023 10.6533 18.0869 10.6989 17.735 10.8307C18.4251 8.70714 18.9656 6.25896 18.3041 5.10009C17.6332 3.91955 16.1521 4.01136 15.2066 4.29943C14.9761 4.16416 14.7459 4.03971 14.516 3.92044C14.4499 3.88613 14.3838 3.85352 14.3178 3.82055C14.1413 3.73246 13.965 3.6492 13.7891 3.57059C13.7289 3.54368 13.6686 3.51533 13.6085 3.48955C13.3839 3.39326 13.1597 3.3039 12.936 3.22314C12.8846 3.20454 12.8333 3.18892 12.7819 3.17115C12.6043 3.10981 12.4271 3.05316 12.2503 3.00162C12.1775 2.98039 12.1048 2.95986 12.0321 2.9403C11.85 2.89133 11.6684 2.84767 11.4873 2.80918C11.4425 2.79969 11.3975 2.78788 11.3528 2.77902C11.1618 2.74115 10.9713 2.70842 10.7814 2.68226C11.8552 2.13742 13.3061 1.91213 15.1721 1.99565ZM8.02421 19.7621C7.35344 19.3956 6.73677 18.8705 6.20212 18.215L6.08542 18.0635C5.58677 17.4166 5.18352 16.665 4.88678 15.8294C4.80307 15.5932 4.56723 15.4382 4.32686 15.4443C3.33616 15.4686 2.96985 15.3549 2.86635 15.3101C2.83675 15.2401 2.79829 15.1528 2.75343 15.0512C1.83738 12.9776 1.82324 12.2177 1.97255 11.9454C1.9899 11.914 2.01855 11.8615 2.16391 11.8393C2.20708 11.8327 2.45311 11.8172 3.02321 12.1604C3.21607 12.2763 3.45926 12.2705 3.6459 12.1441C3.83254 12.0182 3.92926 11.7952 3.89381 11.5727C3.55051 9.42429 3.47246 7.75849 3.67946 7.00307C3.91795 6.13547 5.90764 3.89693 9.19213 3.76025C10.9965 3.68333 12.8953 4.24419 14.8388 5.42907C14.9929 5.52314 15.1819 5.53936 15.3499 5.4745C15.3648 5.46828 16.8719 4.92401 17.2976 5.6734C17.6107 6.22201 17.5276 7.98359 16.3661 11.2611C16.3499 11.2899 16.3338 11.3214 16.325 11.3439C16.2888 11.4338 16.2758 11.5313 16.2871 11.6276C16.3012 11.7475 16.3078 11.8708 16.315 11.9977C16.3267 12.2088 16.4528 12.397 16.6438 12.488C16.6915 12.5108 16.7414 12.5266 16.792 12.5356C16.8023 12.5374 16.8127 12.5357 16.823 12.5369C16.9655 12.5544 17.1117 12.5218 17.232 12.4352C17.8976 11.9551 18.3362 11.812 18.5087 11.8391C18.6557 11.8615 18.6846 11.914 18.7017 11.9453C18.9179 12.3383 18.658 13.3792 17.9291 15.0386C17.8824 15.1455 17.8422 15.2371 17.8121 15.3091C17.7084 15.354 17.3447 15.4675 16.3474 15.4443C16.1095 15.4401 15.8714 15.5934 15.7875 15.8294C15.7088 16.0511 15.6226 16.2669 15.5291 16.4763C14.8751 17.9421 13.8696 19.0948 12.6499 19.7623C12.4642 19.8639 12.3488 20.0586 12.3488 20.2703V22.4981C12.3488 23.5944 12.9858 24.6074 13.9705 25.0781L17.7619 26.9006C18.5594 27.2838 19.0746 28.1036 19.0746 28.9885V33.5676V34.8418H1.60361V28.9885C1.60361 28.1037 2.11772 27.284 2.91254 26.9006L6.70284 25.0787C7.68864 24.6074 8.32566 23.5944 8.32566 22.4981V20.2703C8.32566 20.0586 8.2101 19.8637 8.02421 19.7621Z"/>
</mask>
<path d="M6.20212 24.034L2.40993 25.8569C1.21638 26.4328 0.445312 27.662 0.445312 28.9885V35.421C0.445312 35.7409 0.704535 36.0001 1.02446 36.0001H19.6538C19.9737 36.0001 20.2329 35.7409 20.2329 35.421V34.1467H24.5109C24.8309 34.1467 25.0901 33.8875 25.0901 33.5676V27.1313C25.0901 25.8071 24.319 24.5795 23.1247 24.0031L19.3321 22.1803C18.7464 21.9003 18.368 21.2976 18.368 20.6449V19.1469H24.9781C25.2326 19.1469 25.4573 18.9808 25.5318 18.7374C25.6064 18.4941 25.5133 18.2305 25.3024 18.088C23.2964 16.7319 23.3306 13.8105 23.3668 10.7178C23.4024 7.66196 23.4393 4.50209 21.4355 2.56349C20.1062 1.27756 18.0677 0.711982 15.1982 0.837351C12.3006 0.710922 10.2481 1.30093 8.9186 2.62158C5.20126 2.87347 2.91407 5.41698 2.56245 6.69652C2.3021 7.64669 2.41031 9.26688 2.60015 10.7255C2.38222 10.6763 2.17974 10.6659 1.99122 10.694C1.40208 10.7839 1.10364 11.1212 0.957158 11.3883C0.427403 12.3538 0.998257 13.9444 1.69391 15.5193C1.74972 15.646 1.79478 15.7472 1.82004 15.8111C2.0276 16.3483 2.67029 16.5928 3.94208 16.6056C4.26257 17.4029 4.67393 18.1296 5.16806 18.7706L5.2938 18.9337C5.85316 19.6197 6.48208 20.18 7.16737 20.6033V22.4981C7.16736 23.1508 6.78899 23.7535 6.20212 24.034ZM15.1721 1.99565C15.1895 1.9964 15.2068 1.9964 15.2242 1.99565C17.7698 1.88084 19.5382 2.33971 20.6301 3.39601C22.2752 4.98754 22.2413 7.89366 22.2085 10.7042C22.1772 13.3867 22.1451 16.1447 23.5359 17.9886H17.7889C17.4689 17.9886 17.2097 18.2478 17.2097 18.5678V20.6449C17.2097 21.7412 17.8467 22.7542 18.8314 23.2249L22.6221 25.0468C23.4177 25.4306 23.9318 26.2488 23.9318 27.1313V32.9884H20.2329V28.9885C20.2329 27.6611 19.46 26.4317 18.2638 25.8565L14.4712 24.0335C13.8855 23.7537 13.5071 23.151 13.5071 22.4981V20.6033C14.9059 19.7404 16.0345 18.3413 16.7322 16.6056C18.0015 16.5928 18.645 16.3494 18.8576 15.8125C18.885 15.7423 18.9317 15.6366 18.9898 15.5044C19.6796 13.9336 20.245 12.3478 19.7167 11.387C19.5701 11.1205 19.2718 10.7837 18.6797 10.6934C18.4023 10.6533 18.0869 10.6989 17.735 10.8307C18.4251 8.70714 18.9656 6.25896 18.3041 5.10009C17.6332 3.91955 16.1521 4.01136 15.2066 4.29943C14.9761 4.16416 14.7459 4.03971 14.516 3.92044C14.4499 3.88613 14.3838 3.85352 14.3178 3.82055C14.1413 3.73246 13.965 3.6492 13.7891 3.57059C13.7289 3.54368 13.6686 3.51533 13.6085 3.48955C13.3839 3.39326 13.1597 3.3039 12.936 3.22314C12.8846 3.20454 12.8333 3.18892 12.7819 3.17115C12.6043 3.10981 12.4271 3.05316 12.2503 3.00162C12.1775 2.98039 12.1048 2.95986 12.0321 2.9403C11.85 2.89133 11.6684 2.84767 11.4873 2.80918C11.4425 2.79969 11.3975 2.78788 11.3528 2.77902C11.1618 2.74115 10.9713 2.70842 10.7814 2.68226C11.8552 2.13742 13.3061 1.91213 15.1721 1.99565ZM8.02421 19.7621C7.35344 19.3956 6.73677 18.8705 6.20212 18.215L6.08542 18.0635C5.58677 17.4166 5.18352 16.665 4.88678 15.8294C4.80307 15.5932 4.56723 15.4382 4.32686 15.4443C3.33616 15.4686 2.96985 15.3549 2.86635 15.3101C2.83675 15.2401 2.79829 15.1528 2.75343 15.0512C1.83738 12.9776 1.82324 12.2177 1.97255 11.9454C1.9899 11.914 2.01855 11.8615 2.16391 11.8393C2.20708 11.8327 2.45311 11.8172 3.02321 12.1604C3.21607 12.2763 3.45926 12.2705 3.6459 12.1441C3.83254 12.0182 3.92926 11.7952 3.89381 11.5727C3.55051 9.42429 3.47246 7.75849 3.67946 7.00307C3.91795 6.13547 5.90764 3.89693 9.19213 3.76025C10.9965 3.68333 12.8953 4.24419 14.8388 5.42907C14.9929 5.52314 15.1819 5.53936 15.3499 5.4745C15.3648 5.46828 16.8719 4.92401 17.2976 5.6734C17.6107 6.22201 17.5276 7.98359 16.3661 11.2611C16.3499 11.2899 16.3338 11.3214 16.325 11.3439C16.2888 11.4338 16.2758 11.5313 16.2871 11.6276C16.3012 11.7475 16.3078 11.8708 16.315 11.9977C16.3267 12.2088 16.4528 12.397 16.6438 12.488C16.6915 12.5108 16.7414 12.5266 16.792 12.5356C16.8023 12.5374 16.8127 12.5357 16.823 12.5369C16.9655 12.5544 17.1117 12.5218 17.232 12.4352C17.8976 11.9551 18.3362 11.812 18.5087 11.8391C18.6557 11.8615 18.6846 11.914 18.7017 11.9453C18.9179 12.3383 18.658 13.3792 17.9291 15.0386C17.8824 15.1455 17.8422 15.2371 17.8121 15.3091C17.7084 15.354 17.3447 15.4675 16.3474 15.4443C16.1095 15.4401 15.8714 15.5934 15.7875 15.8294C15.7088 16.0511 15.6226 16.2669 15.5291 16.4763C14.8751 17.9421 13.8696 19.0948 12.6499 19.7623C12.4642 19.8639 12.3488 20.0586 12.3488 20.2703V22.4981C12.3488 23.5944 12.9858 24.6074 13.9705 25.0781L17.7619 26.9006C18.5594 27.2838 19.0746 28.1036 19.0746 28.9885V33.5676V34.8418H1.60361V28.9885C1.60361 28.1037 2.11772 27.284 2.91254 26.9006L6.70284 25.0787C7.68864 24.6074 8.32566 23.5944 8.32566 22.4981V20.2703C8.32566 20.0586 8.2101 19.8637 8.02421 19.7621Z" fill="black"/>
<path d="M6.20212 24.034L2.40993 25.8569C1.21638 26.4328 0.445312 27.662 0.445312 28.9885V35.421C0.445312 35.7409 0.704535 36.0001 1.02446 36.0001H19.6538C19.9737 36.0001 20.2329 35.7409 20.2329 35.421V34.1467H24.5109C24.8309 34.1467 25.0901 33.8875 25.0901 33.5676V27.1313C25.0901 25.8071 24.319 24.5795 23.1247 24.0031L19.3321 22.1803C18.7464 21.9003 18.368 21.2976 18.368 20.6449V19.1469H24.9781C25.2326 19.1469 25.4573 18.9808 25.5318 18.7374C25.6064 18.4941 25.5133 18.2305 25.3024 18.088C23.2964 16.7319 23.3306 13.8105 23.3668 10.7178C23.4024 7.66196 23.4393 4.50209 21.4355 2.56349C20.1062 1.27756 18.0677 0.711982 15.1982 0.837351C12.3006 0.710922 10.2481 1.30093 8.9186 2.62158C5.20126 2.87347 2.91407 5.41698 2.56245 6.69652C2.3021 7.64669 2.41031 9.26688 2.60015 10.7255C2.38222 10.6763 2.17974 10.6659 1.99122 10.694C1.40208 10.7839 1.10364 11.1212 0.957158 11.3883C0.427403 12.3538 0.998257 13.9444 1.69391 15.5193C1.74972 15.646 1.79478 15.7472 1.82004 15.8111C2.0276 16.3483 2.67029 16.5928 3.94208 16.6056C4.26257 17.4029 4.67393 18.1296 5.16806 18.7706L5.2938 18.9337C5.85316 19.6197 6.48208 20.18 7.16737 20.6033V22.4981C7.16736 23.1508 6.78899 23.7535 6.20212 24.034ZM15.1721 1.99565C15.1895 1.9964 15.2068 1.9964 15.2242 1.99565C17.7698 1.88084 19.5382 2.33971 20.6301 3.39601C22.2752 4.98754 22.2413 7.89366 22.2085 10.7042C22.1772 13.3867 22.1451 16.1447 23.5359 17.9886H17.7889C17.4689 17.9886 17.2097 18.2478 17.2097 18.5678V20.6449C17.2097 21.7412 17.8467 22.7542 18.8314 23.2249L22.6221 25.0468C23.4177 25.4306 23.9318 26.2488 23.9318 27.1313V32.9884H20.2329V28.9885C20.2329 27.6611 19.46 26.4317 18.2638 25.8565L14.4712 24.0335C13.8855 23.7537 13.5071 23.151 13.5071 22.4981V20.6033C14.9059 19.7404 16.0345 18.3413 16.7322 16.6056C18.0015 16.5928 18.645 16.3494 18.8576 15.8125C18.885 15.7423 18.9317 15.6366 18.9898 15.5044C19.6796 13.9336 20.245 12.3478 19.7167 11.387C19.5701 11.1205 19.2718 10.7837 18.6797 10.6934C18.4023 10.6533 18.0869 10.6989 17.735 10.8307C18.4251 8.70714 18.9656 6.25896 18.3041 5.10009C17.6332 3.91955 16.1521 4.01136 15.2066 4.29943C14.9761 4.16416 14.7459 4.03971 14.516 3.92044C14.4499 3.88613 14.3838 3.85352 14.3178 3.82055C14.1413 3.73246 13.965 3.6492 13.7891 3.57059C13.7289 3.54368 13.6686 3.51533 13.6085 3.48955C13.3839 3.39326 13.1597 3.3039 12.936 3.22314C12.8846 3.20454 12.8333 3.18892 12.7819 3.17115C12.6043 3.10981 12.4271 3.05316 12.2503 3.00162C12.1775 2.98039 12.1048 2.95986 12.0321 2.9403C11.85 2.89133 11.6684 2.84767 11.4873 2.80918C11.4425 2.79969 11.3975 2.78788 11.3528 2.77902C11.1618 2.74115 10.9713 2.70842 10.7814 2.68226C11.8552 2.13742 13.3061 1.91213 15.1721 1.99565ZM8.02421 19.7621C7.35344 19.3956 6.73677 18.8705 6.20212 18.215L6.08542 18.0635C5.58677 17.4166 5.18352 16.665 4.88678 15.8294C4.80307 15.5932 4.56723 15.4382 4.32686 15.4443C3.33616 15.4686 2.96985 15.3549 2.86635 15.3101C2.83675 15.2401 2.79829 15.1528 2.75343 15.0512C1.83738 12.9776 1.82324 12.2177 1.97255 11.9454C1.9899 11.914 2.01855 11.8615 2.16391 11.8393C2.20708 11.8327 2.45311 11.8172 3.02321 12.1604C3.21607 12.2763 3.45926 12.2705 3.6459 12.1441C3.83254 12.0182 3.92926 11.7952 3.89381 11.5727C3.55051 9.42429 3.47246 7.75849 3.67946 7.00307C3.91795 6.13547 5.90764 3.89693 9.19213 3.76025C10.9965 3.68333 12.8953 4.24419 14.8388 5.42907C14.9929 5.52314 15.1819 5.53936 15.3499 5.4745C15.3648 5.46828 16.8719 4.92401 17.2976 5.6734C17.6107 6.22201 17.5276 7.98359 16.3661 11.2611C16.3499 11.2899 16.3338 11.3214 16.325 11.3439C16.2888 11.4338 16.2758 11.5313 16.2871 11.6276C16.3012 11.7475 16.3078 11.8708 16.315 11.9977C16.3267 12.2088 16.4528 12.397 16.6438 12.488C16.6915 12.5108 16.7414 12.5266 16.792 12.5356C16.8023 12.5374 16.8127 12.5357 16.823 12.5369C16.9655 12.5544 17.1117 12.5218 17.232 12.4352C17.8976 11.9551 18.3362 11.812 18.5087 11.8391C18.6557 11.8615 18.6846 11.914 18.7017 11.9453C18.9179 12.3383 18.658 13.3792 17.9291 15.0386C17.8824 15.1455 17.8422 15.2371 17.8121 15.3091C17.7084 15.354 17.3447 15.4675 16.3474 15.4443C16.1095 15.4401 15.8714 15.5934 15.7875 15.8294C15.7088 16.0511 15.6226 16.2669 15.5291 16.4763C14.8751 17.9421 13.8696 19.0948 12.6499 19.7623C12.4642 19.8639 12.3488 20.0586 12.3488 20.2703V22.4981C12.3488 23.5944 12.9858 24.6074 13.9705 25.0781L17.7619 26.9006C18.5594 27.2838 19.0746 28.1036 19.0746 28.9885V33.5676V34.8418H1.60361V28.9885C1.60361 28.1037 2.11772 27.284 2.91254 26.9006L6.70284 25.0787C7.68864 24.6074 8.32566 23.5944 8.32566 22.4981V20.2703C8.32566 20.0586 8.2101 19.8637 8.02421 19.7621Z" fill="url(#paint0_linear)"/>
<path d="M6.20212 24.034L2.40993 25.8569C1.21638 26.4328 0.445312 27.662 0.445312 28.9885V35.421C0.445312 35.7409 0.704535 36.0001 1.02446 36.0001H19.6538C19.9737 36.0001 20.2329 35.7409 20.2329 35.421V34.1467H24.5109C24.8309 34.1467 25.0901 33.8875 25.0901 33.5676V27.1313C25.0901 25.8071 24.319 24.5795 23.1247 24.0031L19.3321 22.1803C18.7464 21.9003 18.368 21.2976 18.368 20.6449V19.1469H24.9781C25.2326 19.1469 25.4573 18.9808 25.5318 18.7374C25.6064 18.4941 25.5133 18.2305 25.3024 18.088C23.2964 16.7319 23.3306 13.8105 23.3668 10.7178C23.4024 7.66196 23.4393 4.50209 21.4355 2.56349C20.1062 1.27756 18.0677 0.711982 15.1982 0.837351C12.3006 0.710922 10.2481 1.30093 8.9186 2.62158C5.20126 2.87347 2.91407 5.41698 2.56245 6.69652C2.3021 7.64669 2.41031 9.26688 2.60015 10.7255C2.38222 10.6763 2.17974 10.6659 1.99122 10.694C1.40208 10.7839 1.10364 11.1212 0.957158 11.3883C0.427403 12.3538 0.998257 13.9444 1.69391 15.5193C1.74972 15.646 1.79478 15.7472 1.82004 15.8111C2.0276 16.3483 2.67029 16.5928 3.94208 16.6056C4.26257 17.4029 4.67393 18.1296 5.16806 18.7706L5.2938 18.9337C5.85316 19.6197 6.48208 20.18 7.16737 20.6033V22.4981C7.16736 23.1508 6.78899 23.7535 6.20212 24.034ZM15.1721 1.99565C15.1895 1.9964 15.2068 1.9964 15.2242 1.99565C17.7698 1.88084 19.5382 2.33971 20.6301 3.39601C22.2752 4.98754 22.2413 7.89366 22.2085 10.7042C22.1772 13.3867 22.1451 16.1447 23.5359 17.9886H17.7889C17.4689 17.9886 17.2097 18.2478 17.2097 18.5678V20.6449C17.2097 21.7412 17.8467 22.7542 18.8314 23.2249L22.6221 25.0468C23.4177 25.4306 23.9318 26.2488 23.9318 27.1313V32.9884H20.2329V28.9885C20.2329 27.6611 19.46 26.4317 18.2638 25.8565L14.4712 24.0335C13.8855 23.7537 13.5071 23.151 13.5071 22.4981V20.6033C14.9059 19.7404 16.0345 18.3413 16.7322 16.6056C18.0015 16.5928 18.645 16.3494 18.8576 15.8125C18.885 15.7423 18.9317 15.6366 18.9898 15.5044C19.6796 13.9336 20.245 12.3478 19.7167 11.387C19.5701 11.1205 19.2718 10.7837 18.6797 10.6934C18.4023 10.6533 18.0869 10.6989 17.735 10.8307C18.4251 8.70714 18.9656 6.25896 18.3041 5.10009C17.6332 3.91955 16.1521 4.01136 15.2066 4.29943C14.9761 4.16416 14.7459 4.03971 14.516 3.92044C14.4499 3.88613 14.3838 3.85352 14.3178 3.82055C14.1413 3.73246 13.965 3.6492 13.7891 3.57059C13.7289 3.54368 13.6686 3.51533 13.6085 3.48955C13.3839 3.39326 13.1597 3.3039 12.936 3.22314C12.8846 3.20454 12.8333 3.18892 12.7819 3.17115C12.6043 3.10981 12.4271 3.05316 12.2503 3.00162C12.1775 2.98039 12.1048 2.95986 12.0321 2.9403C11.85 2.89133 11.6684 2.84767 11.4873 2.80918C11.4425 2.79969 11.3975 2.78788 11.3528 2.77902C11.1618 2.74115 10.9713 2.70842 10.7814 2.68226C11.8552 2.13742 13.3061 1.91213 15.1721 1.99565ZM8.02421 19.7621C7.35344 19.3956 6.73677 18.8705 6.20212 18.215L6.08542 18.0635C5.58677 17.4166 5.18352 16.665 4.88678 15.8294C4.80307 15.5932 4.56723 15.4382 4.32686 15.4443C3.33616 15.4686 2.96985 15.3549 2.86635 15.3101C2.83675 15.2401 2.79829 15.1528 2.75343 15.0512C1.83738 12.9776 1.82324 12.2177 1.97255 11.9454C1.9899 11.914 2.01855 11.8615 2.16391 11.8393C2.20708 11.8327 2.45311 11.8172 3.02321 12.1604C3.21607 12.2763 3.45926 12.2705 3.6459 12.1441C3.83254 12.0182 3.92926 11.7952 3.89381 11.5727C3.55051 9.42429 3.47246 7.75849 3.67946 7.00307C3.91795 6.13547 5.90764 3.89693 9.19213 3.76025C10.9965 3.68333 12.8953 4.24419 14.8388 5.42907C14.9929 5.52314 15.1819 5.53936 15.3499 5.4745C15.3648 5.46828 16.8719 4.92401 17.2976 5.6734C17.6107 6.22201 17.5276 7.98359 16.3661 11.2611C16.3499 11.2899 16.3338 11.3214 16.325 11.3439C16.2888 11.4338 16.2758 11.5313 16.2871 11.6276C16.3012 11.7475 16.3078 11.8708 16.315 11.9977C16.3267 12.2088 16.4528 12.397 16.6438 12.488C16.6915 12.5108 16.7414 12.5266 16.792 12.5356C16.8023 12.5374 16.8127 12.5357 16.823 12.5369C16.9655 12.5544 17.1117 12.5218 17.232 12.4352C17.8976 11.9551 18.3362 11.812 18.5087 11.8391C18.6557 11.8615 18.6846 11.914 18.7017 11.9453C18.9179 12.3383 18.658 13.3792 17.9291 15.0386C17.8824 15.1455 17.8422 15.2371 17.8121 15.3091C17.7084 15.354 17.3447 15.4675 16.3474 15.4443C16.1095 15.4401 15.8714 15.5934 15.7875 15.8294C15.7088 16.0511 15.6226 16.2669 15.5291 16.4763C14.8751 17.9421 13.8696 19.0948 12.6499 19.7623C12.4642 19.8639 12.3488 20.0586 12.3488 20.2703V22.4981C12.3488 23.5944 12.9858 24.6074 13.9705 25.0781L17.7619 26.9006C18.5594 27.2838 19.0746 28.1036 19.0746 28.9885V33.5676V34.8418H1.60361V28.9885C1.60361 28.1037 2.11772 27.284 2.91254 26.9006L6.70284 25.0787C7.68864 24.6074 8.32566 23.5944 8.32566 22.4981V20.2703C8.32566 20.0586 8.2101 19.8637 8.02421 19.7621Z" stroke="url(#paint1_linear)" stroke-width="0.684872" mask="url(#path-1-outside-1)"/>
<defs>
<linearGradient id="paint0_linear" x1="0.445312" y1="18.0907" x2="25.5573" y2="18.0907" gradientUnits="userSpaceOnUse">
<stop stop-color="#FE5B3A"/>
<stop offset="1" stop-color="#8F43FE"/>
</linearGradient>
<linearGradient id="paint1_linear" x1="0.445313" y1="18.4102" x2="25.5573" y2="18.4102" gradientUnits="userSpaceOnUse">
<stop stop-color="#FC5A3C"/>
<stop offset="1" stop-color="#8F43FC"/>
</linearGradient>
</defs>
</svg>
