<svg xmlns="http://www.w3.org/2000/svg" width="29" height="29" viewBox="0 0 29 29">
    <defs>
        <linearGradient id="fzb6a" x1="1" x2="25.12" y1="15.73" y2="15.73" gradientUnits="userSpaceOnUse">
            <stop offset="0" stop-color="#fe5b3a"/>
            <stop offset="1" stop-color="#8f43fe"/>
        </linearGradient>
        <clipPath id="fzb6b">
            <path fill="#fff"
                  d="M-.5 29.5v-27h27v27zm20.452-12.009c-.935 0-1.568.427-2.127.803-.458.308-.854.573-1.36.573-.881 0-2.13-.82-3.82-2.51-3.24-3.24-2.664-4.095-1.936-5.178.376-.56.802-1.194.802-2.128 0-.727-.86-2.117-1.958-3.164C8.466 4.849 7.258 3.89 5.79 3.89c-1.126 0-2.222.549-3.352 1.678A4.908 4.908 0 0 0 1 9.051c0 6.021 12.93 18.952 18.952 18.952a4.912 4.912 0 0 0 3.484-1.44c3.31-3.308.948-5.783-.32-7.113-1.048-1.098-2.438-1.959-3.164-1.959zm2.809 8.396a3.96 3.96 0 0 1-2.809 1.16c-2.5 0-6.843-2.732-11.062-6.96-4.212-4.221-6.935-8.553-6.935-11.036 0-1.06.413-2.058 1.16-2.808.94-.94 1.815-1.398 2.674-1.398 1.189 0 2.226.894 3.105 1.733 1.091 1.04 1.662 2.163 1.662 2.473 0 .643-.296 1.084-.64 1.594-1.02 1.517-1.47 2.863 2.053 6.387 1.93 1.93 3.317 2.79 4.497 2.79.797 0 1.379-.39 1.892-.736.51-.343.951-.64 1.594-.64.31 0 1.431.571 2.473 1.663 1.573 1.65 2.782 3.333.336 5.778z"/>
        </clipPath>
        <linearGradient id="fzb6c" x1="14.5" x2="22.2" y1="10.57" y2="10.57" gradientUnits="userSpaceOnUse">
            <stop offset="0" stop-color="#fe5b3a"/>
            <stop offset="1" stop-color="#8f43fe"/>
        </linearGradient>
        <clipPath id="fzb6d">
            <path fill="#fff"
                  d="M13.5 15.5v-10h10v10zm7.742-1.486c.019.263.23.477.494.477s.48-.214.464-.478a7.726 7.726 0 0 0-7.223-7.222.455.455 0 0 0-.477.463c0 .263.214.475.477.494a6.77 6.77 0 0 1 6.265 6.266z"/>
        </clipPath>
        <linearGradient id="fzb6e" x1="14.5" x2="28" y1="7.63" y2="7.63" gradientUnits="userSpaceOnUse">
            <stop offset="0" stop-color="#fe5b3a"/>
            <stop offset="1" stop-color="#8f43fe"/>
        </linearGradient>
        <clipPath id="fzb6f">
            <path fill="#fff"
                  d="M13.735 15.265V-.265h15.53v15.53zM14.977 1a.464.464 0 0 0-.477.47c0 .263.214.476.477.486 6.54.246 11.817 5.522 12.062 12.062.01.264.223.478.487.478a.465.465 0 0 0 .47-.478C27.748 6.951 22.044 1.247 14.976 1z"/>
        </clipPath>
    </defs>
    <g>
        <g>
            <g>
                <g>
                    <path d="M23.116 19.45c1.268 1.33 3.63 3.805.32 7.113a4.912 4.912 0 0 1-3.483 1.44C13.93 28.003 1 15.073 1 9.051c0-1.314.511-2.551 1.438-3.483C3.568 4.438 4.665 3.89 5.79 3.89c1.468 0 2.676.96 3.763 1.997 1.098 1.047 1.958 2.437 1.958 3.164 0 .934-.426 1.568-.802 2.128-.728 1.083-1.304 1.938 1.936 5.178 1.69 1.69 2.939 2.51 3.82 2.51.506 0 .902-.265 1.36-.573.559-.376 1.192-.803 2.127-.803.726 0 2.116.86 3.164 1.96zm-.691.66c-1.042-1.092-2.163-1.664-2.473-1.664-.643 0-1.084.297-1.594.64-.513.345-1.095.737-1.892.737-1.18 0-2.567-.861-4.497-2.79-3.523-3.525-3.073-4.87-2.053-6.388.344-.51.64-.95.64-1.594 0-.31-.57-1.433-1.662-2.473-.88-.839-1.916-1.733-3.105-1.733-.859 0-1.733.457-2.674 1.398a3.957 3.957 0 0 0-1.16 2.808c0 2.483 2.723 6.815 6.935 11.037 4.22 4.228 8.561 6.96 11.062 6.96a3.96 3.96 0 0 0 2.809-1.16c2.446-2.446 1.237-4.13-.336-5.779z"/>
                    <path fill="url(#fzb6a)"
                          d="M23.116 19.45c1.268 1.33 3.63 3.805.32 7.113a4.912 4.912 0 0 1-3.483 1.44C13.93 28.003 1 15.073 1 9.051c0-1.314.511-2.551 1.438-3.483C3.568 4.438 4.665 3.89 5.79 3.89c1.468 0 2.676.96 3.763 1.997 1.098 1.047 1.958 2.437 1.958 3.164 0 .934-.426 1.568-.802 2.128-.728 1.083-1.304 1.938 1.936 5.178 1.69 1.69 2.939 2.51 3.82 2.51.506 0 .902-.265 1.36-.573.559-.376 1.192-.803 2.127-.803.726 0 2.116.86 3.164 1.96zm-.691.66c-1.042-1.092-2.163-1.664-2.473-1.664-.643 0-1.084.297-1.594.64-.513.345-1.095.737-1.892.737-1.18 0-2.567-.861-4.497-2.79-3.523-3.525-3.073-4.87-2.053-6.388.344-.51.64-.95.64-1.594 0-.31-.57-1.433-1.662-2.473-.88-.839-1.916-1.733-3.105-1.733-.859 0-1.733.457-2.674 1.398a3.957 3.957 0 0 0-1.16 2.808c0 2.483 2.723 6.815 6.935 11.037 4.22 4.228 8.561 6.96 11.062 6.96a3.96 3.96 0 0 0 2.809-1.16c2.446-2.446 1.237-4.13-.336-5.779z"/>
                    <path fill="none" stroke="#000" stroke-miterlimit="50"
                          d="M23.116 19.45c1.268 1.33 3.63 3.805.32 7.113a4.912 4.912 0 0 1-3.483 1.44h0C13.93 28.003 1 15.073 1 9.051c0-1.314.511-2.551 1.438-3.483C3.568 4.438 4.665 3.89 5.79 3.89c1.468 0 2.676.96 3.763 1.997 1.098 1.047 1.958 2.437 1.958 3.164 0 .934-.426 1.568-.802 2.128-.728 1.083-1.304 1.938 1.936 5.178 1.69 1.69 2.939 2.51 3.82 2.51.506 0 .902-.265 1.36-.573.559-.376 1.192-.803 2.127-.803.726 0 2.116.86 3.164 1.96zm-.691.66c-1.042-1.092-2.163-1.664-2.473-1.664-.643 0-1.084.297-1.594.64-.513.345-1.095.737-1.892.737-1.18 0-2.567-.861-4.497-2.79-3.523-3.525-3.073-4.87-2.053-6.388.344-.51.64-.95.64-1.594 0-.31-.57-1.433-1.662-2.473-.88-.839-1.916-1.733-3.105-1.733-.859 0-1.733.457-2.674 1.398a3.957 3.957 0 0 0-1.16 2.808c0 2.483 2.723 6.815 6.935 11.037 4.22 4.228 8.561 6.96 11.062 6.96a3.96 3.96 0 0 0 2.809-1.16c2.446-2.446 1.237-4.13-.336-5.779z"
                          clip-path="url(&quot;#fzb6b&quot;)"/>
                </g>
                <g>
                    <path d="M21.242 14.014c.019.263.23.477.494.477s.48-.214.464-.478a7.726 7.726 0 0 0-7.223-7.222.455.455 0 0 0-.477.463c0 .263.214.475.477.494a6.77 6.77 0 0 1 6.265 6.266z"/>
                    <path fill="url(#fzb6c)"
                          d="M21.242 14.014c.019.263.23.477.494.477s.48-.214.464-.478a7.726 7.726 0 0 0-7.223-7.222.455.455 0 0 0-.477.463c0 .263.214.475.477.494a6.77 6.77 0 0 1 6.265 6.266z"/>
                    <path fill="none" stroke="#000" stroke-miterlimit="50"
                          d="M21.242 14.014c.019.263.23.477.494.477s.48-.214.464-.478a7.726 7.726 0 0 0-7.223-7.222.455.455 0 0 0-.477.463c0 .263.214.475.477.494a6.77 6.77 0 0 1 6.265 6.266z"
                          clip-path="url(&quot;#fzb6d&quot;)"/>
                </g>
                <g>
                    <path d="M14.977 1a.464.464 0 0 0-.477.47c0 .263.214.476.477.486 6.54.246 11.817 5.522 12.062 12.062.01.264.223.478.487.478a.465.465 0 0 0 .47-.478C27.748 6.951 22.044 1.247 14.976 1z"/>
                    <path fill="url(#fzb6e)"
                          d="M14.977 1a.464.464 0 0 0-.477.47c0 .263.214.476.477.486 6.54.246 11.817 5.522 12.062 12.062.01.264.223.478.487.478a.465.465 0 0 0 .47-.478C27.748 6.951 22.044 1.247 14.976 1z"/>
                    <path fill="none" stroke="#000" stroke-miterlimit="50"
                          d="M14.977 1a.464.464 0 0 0-.477.47c0 .263.214.476.477.486 6.54.246 11.817 5.522 12.062 12.062.01.264.223.478.487.478a.465.465 0 0 0 .47-.478C27.748 6.951 22.044 1.247 14.976 1z"
                          clip-path="url(&quot;#fzb6f&quot;)"/>
                </g>
            </g>
        </g>
    </g>
</svg>