<svg width="28" height="28" viewBox="0 0 28 28" fill="none" xmlns="http://www.w3.org/2000/svg">
<path d="M14.0001 12.5169C15.8109 12.5169 17.2835 11.0438 17.2835 9.23353C17.2835 7.42325 15.8109 5.9502 14.0001 5.9502C12.1894 5.9502 10.7168 7.42325 10.7168 9.23353C10.7168 11.0438 12.1894 12.5169 14.0001 12.5169ZM14.0001 7.31686C15.0568 7.31686 15.9168 8.1769 15.9168 9.23353C15.9168 10.2902 15.0568 11.1502 14.0001 11.1502C12.9435 11.1502 12.0835 10.2902 12.0835 9.23353C12.0835 8.1769 12.9435 7.31686 14.0001 7.31686Z" fill="black"/>
<path d="M14.0001 12.5169C15.8109 12.5169 17.2835 11.0438 17.2835 9.23353C17.2835 7.42325 15.8109 5.9502 14.0001 5.9502C12.1894 5.9502 10.7168 7.42325 10.7168 9.23353C10.7168 11.0438 12.1894 12.5169 14.0001 12.5169ZM14.0001 7.31686C15.0568 7.31686 15.9168 8.1769 15.9168 9.23353C15.9168 10.2902 15.0568 11.1502 14.0001 11.1502C12.9435 11.1502 12.0835 10.2902 12.0835 9.23353C12.0835 8.1769 12.9435 7.31686 14.0001 7.31686Z" fill="url(#paint0_linear)"/>
<path d="M14.0001 12.5169C15.8109 12.5169 17.2835 11.0438 17.2835 9.23353C17.2835 7.42325 15.8109 5.9502 14.0001 5.9502C12.1894 5.9502 10.7168 7.42325 10.7168 9.23353C10.7168 11.0438 12.1894 12.5169 14.0001 12.5169ZM14.0001 7.31686C15.0568 7.31686 15.9168 8.1769 15.9168 9.23353C15.9168 10.2902 15.0568 11.1502 14.0001 11.1502C12.9435 11.1502 12.0835 10.2902 12.0835 9.23353C12.0835 8.1769 12.9435 7.31686 14.0001 7.31686Z" stroke="black" stroke-width="0.5"/>
<path d="M14.0001 12.5169C15.8109 12.5169 17.2835 11.0438 17.2835 9.23353C17.2835 7.42325 15.8109 5.9502 14.0001 5.9502C12.1894 5.9502 10.7168 7.42325 10.7168 9.23353C10.7168 11.0438 12.1894 12.5169 14.0001 12.5169ZM14.0001 7.31686C15.0568 7.31686 15.9168 8.1769 15.9168 9.23353C15.9168 10.2902 15.0568 11.1502 14.0001 11.1502C12.9435 11.1502 12.0835 10.2902 12.0835 9.23353C12.0835 8.1769 12.9435 7.31686 14.0001 7.31686Z" stroke="url(#paint1_linear)" stroke-width="0.5"/>
<path d="M7.87057 3.25724C6.36755 4.76004 5.53249 6.91323 5.38649 9.10443C5.24059 11.2941 5.78097 13.5482 7.06274 15.2594L13.7178 24.8704L13.9233 25.1672L14.1289 24.8703L20.774 15.2728C22.0606 13.5553 22.6036 11.2981 22.4589 9.10664C22.3142 6.91372 21.4791 4.76049 19.9761 3.25768C18.3597 1.64083 16.2092 0.75 13.9233 0.75C11.6375 0.75 9.48698 1.64083 7.87057 3.25724ZM7.87057 3.25724L8.04733 3.43403M7.87057 3.25724L8.04733 3.43403M8.04733 3.43403C9.61686 1.8645 11.7038 1 13.9233 1C16.1429 1 18.2298 1.8645 19.7993 3.43447L7.2656 15.1132C4.78216 11.8021 5.1427 6.33823 8.04733 3.43403ZM8.83681 4.22357C10.1961 2.86468 12.0015 2.11667 13.9233 2.11667C15.8451 2.11667 17.6505 2.86467 19.0098 4.22356C20.2699 5.48338 20.9872 7.31105 21.1096 9.20101C21.232 11.0907 20.7579 13.0169 19.6682 14.4697L19.6681 14.4696L19.6627 14.4773L13.9233 22.7662L8.17443 14.4643L8.17458 14.4642L8.16888 14.4566C7.08415 13.0106 6.61236 11.0878 6.73598 9.19956C6.85962 7.31112 7.57697 5.48341 8.83681 4.22357ZM8.83681 4.22357L8.66006 4.04677M8.83681 4.22357L8.66006 4.04677M8.66006 4.04677C10.0662 2.64103 11.9352 1.86667 13.9233 1.86667C15.9115 1.86667 17.7804 2.64103 19.1866 4.04677L7.9689 14.6067C5.71556 11.6028 6.03883 6.668 8.66006 4.04677Z" fill="black"/>
<path d="M7.87057 3.25724C6.36755 4.76004 5.53249 6.91323 5.38649 9.10443C5.24059 11.2941 5.78097 13.5482 7.06274 15.2594L13.7178 24.8704L13.9233 25.1672L14.1289 24.8703L20.774 15.2728C22.0606 13.5553 22.6036 11.2981 22.4589 9.10664C22.3142 6.91372 21.4791 4.76049 19.9761 3.25768C18.3597 1.64083 16.2092 0.75 13.9233 0.75C11.6375 0.75 9.48698 1.64083 7.87057 3.25724ZM7.87057 3.25724L8.04733 3.43403M7.87057 3.25724L8.04733 3.43403M8.04733 3.43403C9.61686 1.8645 11.7038 1 13.9233 1C16.1429 1 18.2298 1.8645 19.7993 3.43447L7.2656 15.1132C4.78216 11.8021 5.1427 6.33823 8.04733 3.43403ZM8.83681 4.22357C10.1961 2.86468 12.0015 2.11667 13.9233 2.11667C15.8451 2.11667 17.6505 2.86467 19.0098 4.22356C20.2699 5.48338 20.9872 7.31105 21.1096 9.20101C21.232 11.0907 20.7579 13.0169 19.6682 14.4697L19.6681 14.4696L19.6627 14.4773L13.9233 22.7662L8.17443 14.4643L8.17458 14.4642L8.16888 14.4566C7.08415 13.0106 6.61236 11.0878 6.73598 9.19956C6.85962 7.31112 7.57697 5.48341 8.83681 4.22357ZM8.83681 4.22357L8.66006 4.04677M8.83681 4.22357L8.66006 4.04677M8.66006 4.04677C10.0662 2.64103 11.9352 1.86667 13.9233 1.86667C15.9115 1.86667 17.7804 2.64103 19.1866 4.04677L7.9689 14.6067C5.71556 11.6028 6.03883 6.668 8.66006 4.04677Z" fill="url(#paint2_linear)"/>
<path d="M7.87057 3.25724C6.36755 4.76004 5.53249 6.91323 5.38649 9.10443C5.24059 11.2941 5.78097 13.5482 7.06274 15.2594L13.7178 24.8704L13.9233 25.1672L14.1289 24.8703L20.774 15.2728C22.0606 13.5553 22.6036 11.2981 22.4589 9.10664C22.3142 6.91372 21.4791 4.76049 19.9761 3.25768C18.3597 1.64083 16.2092 0.75 13.9233 0.75C11.6375 0.75 9.48698 1.64083 7.87057 3.25724ZM7.87057 3.25724L8.04733 3.43403M7.87057 3.25724L8.04733 3.43403M8.04733 3.43403C9.61686 1.8645 11.7038 1 13.9233 1C16.1429 1 18.2298 1.8645 19.7993 3.43447L7.2656 15.1132C4.78216 11.8021 5.1427 6.33823 8.04733 3.43403ZM8.83681 4.22357C10.1961 2.86468 12.0015 2.11667 13.9233 2.11667C15.8451 2.11667 17.6505 2.86467 19.0098 4.22356C20.2699 5.48338 20.9872 7.31105 21.1096 9.20101C21.232 11.0907 20.7579 13.0169 19.6682 14.4697L19.6681 14.4696L19.6627 14.4773L13.9233 22.7662L8.17443 14.4643L8.17458 14.4642L8.16888 14.4566C7.08415 13.0106 6.61236 11.0878 6.73598 9.19956C6.85962 7.31112 7.57697 5.48341 8.83681 4.22357ZM8.83681 4.22357L8.66006 4.04677M8.83681 4.22357L8.66006 4.04677M8.66006 4.04677C10.0662 2.64103 11.9352 1.86667 13.9233 1.86667C15.9115 1.86667 17.7804 2.64103 19.1866 4.04677L7.9689 14.6067C5.71556 11.6028 6.03883 6.668 8.66006 4.04677Z" stroke="black" stroke-width="0.5"/>
<path d="M7.87057 3.25724C6.36755 4.76004 5.53249 6.91323 5.38649 9.10443C5.24059 11.2941 5.78097 13.5482 7.06274 15.2594L13.7178 24.8704L13.9233 25.1672L14.1289 24.8703L20.774 15.2728C22.0606 13.5553 22.6036 11.2981 22.4589 9.10664C22.3142 6.91372 21.4791 4.76049 19.9761 3.25768C18.3597 1.64083 16.2092 0.75 13.9233 0.75C11.6375 0.75 9.48698 1.64083 7.87057 3.25724ZM7.87057 3.25724L8.04733 3.43403M7.87057 3.25724L8.04733 3.43403M8.04733 3.43403C9.61686 1.8645 11.7038 1 13.9233 1C16.1429 1 18.2298 1.8645 19.7993 3.43447L7.2656 15.1132C4.78216 11.8021 5.1427 6.33823 8.04733 3.43403ZM8.83681 4.22357C10.1961 2.86468 12.0015 2.11667 13.9233 2.11667C15.8451 2.11667 17.6505 2.86467 19.0098 4.22356C20.2699 5.48338 20.9872 7.31105 21.1096 9.20101C21.232 11.0907 20.7579 13.0169 19.6682 14.4697L19.6681 14.4696L19.6627 14.4773L13.9233 22.7662L8.17443 14.4643L8.17458 14.4642L8.16888 14.4566C7.08415 13.0106 6.61236 11.0878 6.73598 9.19956C6.85962 7.31112 7.57697 5.48341 8.83681 4.22357ZM8.83681 4.22357L8.66006 4.04677M8.83681 4.22357L8.66006 4.04677M8.66006 4.04677C10.0662 2.64103 11.9352 1.86667 13.9233 1.86667C15.9115 1.86667 17.7804 2.64103 19.1866 4.04677L7.9689 14.6067C5.71556 11.6028 6.03883 6.668 8.66006 4.04677Z" stroke="url(#paint3_linear)" stroke-width="0.5"/>
<path d="M9.47857 19.9864L9.47861 19.9868C9.52228 20.3607 9.25502 20.7012 8.87982 20.7451M9.47857 19.9864L8.8507 20.4968M9.47857 19.9864C9.43445 19.6138 9.09712 19.3411 8.7192 19.388C6.42124 19.6587 4.45557 20.1764 3.05644 20.8409C2.35732 21.1729 1.78811 21.5469 1.39024 21.9549C0.992115 22.3631 0.75 22.8225 0.75 23.3165C0.75 23.8834 1.09572 24.4071 1.6772 24.8612C2.26146 25.3176 3.11716 25.732 4.22402 26.0829C6.44013 26.7853 9.71788 27.2498 14 27.2498C18.2821 27.2498 21.5599 26.7853 23.776 26.0829C24.8828 25.732 25.7385 25.3176 26.3228 24.8612C26.9043 24.4071 27.25 23.8834 27.25 23.3165C27.25 22.8225 27.0079 22.3631 26.6098 21.9549C26.2119 21.5469 25.6427 21.1729 24.9436 20.8409C23.5444 20.1764 21.5786 19.6587 19.2804 19.388C18.9036 19.3423 18.565 19.6126 18.5214 19.9868C18.4777 20.3612 18.745 20.7012 19.1201 20.7451M9.47857 19.9864L19.1493 20.4968M8.87982 20.7451C8.87978 20.7451 8.87974 20.7451 8.8797 20.7451L8.8507 20.4968M8.87982 20.7451C8.87985 20.7451 8.87989 20.7451 8.87993 20.7451L8.8507 20.4968M8.87982 20.7451C6.62028 21.0111 4.90052 21.5014 3.75303 22.0214C3.17828 22.2819 2.75598 22.5459 2.48184 22.786C2.19586 23.0365 2.11667 23.2202 2.11667 23.3165C2.11667 23.3792 2.14783 23.4765 2.26597 23.6085C2.38305 23.7393 2.56858 23.8844 2.83081 24.0365C3.35442 24.3403 4.14292 24.6487 5.17858 24.9243C7.24666 25.4746 10.2576 25.8832 14 25.8832C17.7424 25.8832 20.7533 25.4746 22.8214 24.9243C23.8571 24.6487 24.6456 24.3403 25.1692 24.0365C25.4314 23.8844 25.6169 23.7393 25.734 23.6085C25.8522 23.4765 25.8833 23.3792 25.8833 23.3165C25.8833 23.2202 25.8041 23.0365 25.5182 22.786C25.244 22.5459 24.8217 22.2819 24.247 22.0214C23.0995 21.5013 21.3797 21.0111 19.1201 20.7451M8.8507 20.4968C4.29377 21.0333 1.86667 22.4789 1.86667 23.3165C1.86667 24.4926 6.48253 26.1332 14 26.1332C21.5175 26.1332 26.1333 24.4926 26.1333 23.3165C26.1333 22.4789 23.7062 21.0333 19.1493 20.4968M19.1201 20.7451C19.1201 20.7451 19.1202 20.7451 19.1203 20.7451L19.1493 20.4968M19.1201 20.7451L19.1493 20.4968" fill="black"/>
<path d="M9.47857 19.9864L9.47861 19.9868C9.52228 20.3607 9.25502 20.7012 8.87982 20.7451M9.47857 19.9864L8.8507 20.4968M9.47857 19.9864C9.43445 19.6138 9.09712 19.3411 8.7192 19.388C6.42124 19.6587 4.45557 20.1764 3.05644 20.8409C2.35732 21.1729 1.78811 21.5469 1.39024 21.9549C0.992115 22.3631 0.75 22.8225 0.75 23.3165C0.75 23.8834 1.09572 24.4071 1.6772 24.8612C2.26146 25.3176 3.11716 25.732 4.22402 26.0829C6.44013 26.7853 9.71788 27.2498 14 27.2498C18.2821 27.2498 21.5599 26.7853 23.776 26.0829C24.8828 25.732 25.7385 25.3176 26.3228 24.8612C26.9043 24.4071 27.25 23.8834 27.25 23.3165C27.25 22.8225 27.0079 22.3631 26.6098 21.9549C26.2119 21.5469 25.6427 21.1729 24.9436 20.8409C23.5444 20.1764 21.5786 19.6587 19.2804 19.388C18.9036 19.3423 18.565 19.6126 18.5214 19.9868C18.4777 20.3612 18.745 20.7012 19.1201 20.7451M9.47857 19.9864L19.1493 20.4968M8.87982 20.7451C8.87978 20.7451 8.87974 20.7451 8.8797 20.7451L8.8507 20.4968M8.87982 20.7451C8.87985 20.7451 8.87989 20.7451 8.87993 20.7451L8.8507 20.4968M8.87982 20.7451C6.62028 21.0111 4.90052 21.5014 3.75303 22.0214C3.17828 22.2819 2.75598 22.5459 2.48184 22.786C2.19586 23.0365 2.11667 23.2202 2.11667 23.3165C2.11667 23.3792 2.14783 23.4765 2.26597 23.6085C2.38305 23.7393 2.56858 23.8844 2.83081 24.0365C3.35442 24.3403 4.14292 24.6487 5.17858 24.9243C7.24666 25.4746 10.2576 25.8832 14 25.8832C17.7424 25.8832 20.7533 25.4746 22.8214 24.9243C23.8571 24.6487 24.6456 24.3403 25.1692 24.0365C25.4314 23.8844 25.6169 23.7393 25.734 23.6085C25.8522 23.4765 25.8833 23.3792 25.8833 23.3165C25.8833 23.2202 25.8041 23.0365 25.5182 22.786C25.244 22.5459 24.8217 22.2819 24.247 22.0214C23.0995 21.5013 21.3797 21.0111 19.1201 20.7451M8.8507 20.4968C4.29377 21.0333 1.86667 22.4789 1.86667 23.3165C1.86667 24.4926 6.48253 26.1332 14 26.1332C21.5175 26.1332 26.1333 24.4926 26.1333 23.3165C26.1333 22.4789 23.7062 21.0333 19.1493 20.4968M19.1201 20.7451C19.1201 20.7451 19.1202 20.7451 19.1203 20.7451L19.1493 20.4968M19.1201 20.7451L19.1493 20.4968" fill="url(#paint4_linear)"/>
<path d="M9.47857 19.9864L9.47861 19.9868C9.52228 20.3607 9.25502 20.7012 8.87982 20.7451M9.47857 19.9864L8.8507 20.4968M9.47857 19.9864C9.43445 19.6138 9.09712 19.3411 8.7192 19.388C6.42124 19.6587 4.45557 20.1764 3.05644 20.8409C2.35732 21.1729 1.78811 21.5469 1.39024 21.9549C0.992115 22.3631 0.75 22.8225 0.75 23.3165C0.75 23.8834 1.09572 24.4071 1.6772 24.8612C2.26146 25.3176 3.11716 25.732 4.22402 26.0829C6.44013 26.7853 9.71788 27.2498 14 27.2498C18.2821 27.2498 21.5599 26.7853 23.776 26.0829C24.8828 25.732 25.7385 25.3176 26.3228 24.8612C26.9043 24.4071 27.25 23.8834 27.25 23.3165C27.25 22.8225 27.0079 22.3631 26.6098 21.9549C26.2119 21.5469 25.6427 21.1729 24.9436 20.8409C23.5444 20.1764 21.5786 19.6587 19.2804 19.388C18.9036 19.3423 18.565 19.6126 18.5214 19.9868C18.4777 20.3612 18.745 20.7012 19.1201 20.7451M9.47857 19.9864L19.1493 20.4968M8.87982 20.7451C8.87978 20.7451 8.87974 20.7451 8.8797 20.7451L8.8507 20.4968M8.87982 20.7451C8.87985 20.7451 8.87989 20.7451 8.87993 20.7451L8.8507 20.4968M8.87982 20.7451C6.62028 21.0111 4.90052 21.5014 3.75303 22.0214C3.17828 22.2819 2.75598 22.5459 2.48184 22.786C2.19586 23.0365 2.11667 23.2202 2.11667 23.3165C2.11667 23.3792 2.14783 23.4765 2.26597 23.6085C2.38305 23.7393 2.56858 23.8844 2.83081 24.0365C3.35442 24.3403 4.14292 24.6487 5.17858 24.9243C7.24666 25.4746 10.2576 25.8832 14 25.8832C17.7424 25.8832 20.7533 25.4746 22.8214 24.9243C23.8571 24.6487 24.6456 24.3403 25.1692 24.0365C25.4314 23.8844 25.6169 23.7393 25.734 23.6085C25.8522 23.4765 25.8833 23.3792 25.8833 23.3165C25.8833 23.2202 25.8041 23.0365 25.5182 22.786C25.244 22.5459 24.8217 22.2819 24.247 22.0214C23.0995 21.5013 21.3797 21.0111 19.1201 20.7451M8.8507 20.4968C4.29377 21.0333 1.86667 22.4789 1.86667 23.3165C1.86667 24.4926 6.48253 26.1332 14 26.1332C21.5175 26.1332 26.1333 24.4926 26.1333 23.3165C26.1333 22.4789 23.7062 21.0333 19.1493 20.4968M19.1201 20.7451C19.1201 20.7451 19.1202 20.7451 19.1203 20.7451L19.1493 20.4968M19.1201 20.7451L19.1493 20.4968" stroke="black" stroke-width="0.5"/>
<path d="M9.47857 19.9864L9.47861 19.9868C9.52228 20.3607 9.25502 20.7012 8.87982 20.7451M9.47857 19.9864L8.8507 20.4968M9.47857 19.9864C9.43445 19.6138 9.09712 19.3411 8.7192 19.388C6.42124 19.6587 4.45557 20.1764 3.05644 20.8409C2.35732 21.1729 1.78811 21.5469 1.39024 21.9549C0.992115 22.3631 0.75 22.8225 0.75 23.3165C0.75 23.8834 1.09572 24.4071 1.6772 24.8612C2.26146 25.3176 3.11716 25.732 4.22402 26.0829C6.44013 26.7853 9.71788 27.2498 14 27.2498C18.2821 27.2498 21.5599 26.7853 23.776 26.0829C24.8828 25.732 25.7385 25.3176 26.3228 24.8612C26.9043 24.4071 27.25 23.8834 27.25 23.3165C27.25 22.8225 27.0079 22.3631 26.6098 21.9549C26.2119 21.5469 25.6427 21.1729 24.9436 20.8409C23.5444 20.1764 21.5786 19.6587 19.2804 19.388C18.9036 19.3423 18.565 19.6126 18.5214 19.9868C18.4777 20.3612 18.745 20.7012 19.1201 20.7451M9.47857 19.9864L19.1493 20.4968M8.87982 20.7451C8.87978 20.7451 8.87974 20.7451 8.8797 20.7451L8.8507 20.4968M8.87982 20.7451C8.87985 20.7451 8.87989 20.7451 8.87993 20.7451L8.8507 20.4968M8.87982 20.7451C6.62028 21.0111 4.90052 21.5014 3.75303 22.0214C3.17828 22.2819 2.75598 22.5459 2.48184 22.786C2.19586 23.0365 2.11667 23.2202 2.11667 23.3165C2.11667 23.3792 2.14783 23.4765 2.26597 23.6085C2.38305 23.7393 2.56858 23.8844 2.83081 24.0365C3.35442 24.3403 4.14292 24.6487 5.17858 24.9243C7.24666 25.4746 10.2576 25.8832 14 25.8832C17.7424 25.8832 20.7533 25.4746 22.8214 24.9243C23.8571 24.6487 24.6456 24.3403 25.1692 24.0365C25.4314 23.8844 25.6169 23.7393 25.734 23.6085C25.8522 23.4765 25.8833 23.3792 25.8833 23.3165C25.8833 23.2202 25.8041 23.0365 25.5182 22.786C25.244 22.5459 24.8217 22.2819 24.247 22.0214C23.0995 21.5013 21.3797 21.0111 19.1201 20.7451M8.8507 20.4968C4.29377 21.0333 1.86667 22.4789 1.86667 23.3165C1.86667 24.4926 6.48253 26.1332 14 26.1332C21.5175 26.1332 26.1333 24.4926 26.1333 23.3165C26.1333 22.4789 23.7062 21.0333 19.1493 20.4968M19.1201 20.7451C19.1201 20.7451 19.1202 20.7451 19.1203 20.7451L19.1493 20.4968M19.1201 20.7451L19.1493 20.4968" stroke="url(#paint5_linear)" stroke-width="0.5"/>
<defs>
<linearGradient id="paint0_linear" x1="10.9668" y1="9.17842" x2="17.0335" y2="9.17842" gradientUnits="userSpaceOnUse">
<stop stop-color="#FE5B3A"/>
<stop offset="1" stop-color="#8F43FE"/>
</linearGradient>
<linearGradient id="paint1_linear" x1="10.9668" y1="9.23353" x2="17.0335" y2="9.23353" gradientUnits="userSpaceOnUse">
<stop stop-color="#FC5A3C"/>
<stop offset="1" stop-color="#8F43FC"/>
</linearGradient>
<linearGradient id="paint2_linear" x1="5.61328" y1="12.6485" x2="22.2317" y2="12.6485" gradientUnits="userSpaceOnUse">
<stop stop-color="#FE5B3A"/>
<stop offset="1" stop-color="#8F43FE"/>
</linearGradient>
<linearGradient id="paint3_linear" x1="5.61328" y1="12.864" x2="22.2317" y2="12.864" gradientUnits="userSpaceOnUse">
<stop stop-color="#FC5A3C"/>
<stop offset="1" stop-color="#8F43FC"/>
</linearGradient>
<linearGradient id="paint4_linear" x1="1" y1="23.2494" x2="27" y2="23.2494" gradientUnits="userSpaceOnUse">
<stop stop-color="#FE5B3A"/>
<stop offset="1" stop-color="#8F43FE"/>
</linearGradient>
<linearGradient id="paint5_linear" x1="1" y1="23.3163" x2="27" y2="23.3163" gradientUnits="userSpaceOnUse">
<stop stop-color="#FC5A3C"/>
<stop offset="1" stop-color="#8F43FC"/>
</linearGradient>
</defs>
</svg>
