<svg width="64" height="104" viewBox="0 0 64 104" fill="none" xmlns="http://www.w3.org/2000/svg">
<path d="M28.8193 89.13C27.5283 85.077 25.9503 80.641 24.1443 76.502C22.1134 71.8524 18.8796 67.8528 16.7207 64.209C16.7207 64.209 25.8617 65.209 31.7189 65.209C37.576 65.209 46.7171 64.209 46.7171 64.209C44.5585 67.8523 41.4883 71.5485 39.2943 76.5C37.1639 81.3078 35.9123 85.076 34.6193 89.128L31.7193 103.209L28.8193 89.13Z" fill="url(#paint0_linear)"/>
<path d="M1.49752 52.9507C2.97552 55.7707 11.8655 61.2647 17.4495 62.2917C21.1295 62.9687 29.7035 60.8097 30.5195 58.7647C27.7215 59.3457 14.6445 55.9147 9.75152 48.0977C5.41252 39.9607 8.95452 26.9127 10.8525 24.7767C8.67352 24.4647 2.52852 30.8217 1.28152 34.3497C-0.610482 39.7027 -0.277481 50.1477 1.43052 52.8347" fill="url(#paint1_linear)"/>
<path d="M31.8642 0.00274998C28.6832 -0.12625 19.4802 4.82475 15.7982 9.14775C13.3722 11.9967 10.9552 20.5017 12.3182 22.2297C13.2142 19.5157 22.7242 9.90675 31.9402 9.57775C41.1562 9.88875 50.6852 19.4798 51.5862 22.1918C52.9462 20.4608 50.5122 11.9607 48.0812 9.11575C44.3912 4.80075 35.1792 -0.13325 31.9982 0.00274998" fill="url(#paint2_linear)"/>
<path d="M62.535 52.7751C64.238 50.0851 64.551 39.6391 62.648 34.2901C61.394 30.7651 55.237 24.4181 53.058 24.7351C54.96 26.8681 58.527 39.9081 54.204 48.0541C49.326 55.8801 36.256 59.3361 33.457 58.7611C34.276 60.8051 42.854 62.9471 46.533 62.2631C52.115 61.2251 60.994 55.7141 62.467 52.8911" fill="url(#paint3_linear)"/>
<path d="M31.9889 57.9186C31.9809 57.9186 31.9719 57.9176 31.9639 57.9176C29.6879 58.0236 24.5829 57.2026 22.0509 55.2966C19.3779 53.2836 17.2029 47.5926 18.1979 43.8356C20.3819 48.1726 25.6379 51.1686 31.9819 51.5546C38.3249 51.1556 43.5749 48.1496 45.7509 43.8086C46.7539 47.5646 44.5899 53.2586 41.9209 55.2776C39.3929 57.1896 34.2899 58.0196 32.0139 57.9186C32.0049 57.9176 31.9969 57.9176 31.9889 57.9186Z" fill="url(#paint4_linear)"/>
<path d="M12.3178 23.924C12.3228 23.917 12.3268 23.91 12.3318 23.903C13.3788 21.879 16.6408 17.868 19.5588 16.629C22.6388 15.32 28.6548 16.282 31.4108 19.023C26.5628 18.746 21.3398 21.8 17.8338 27.101C15.0078 32.794 14.9858 38.844 17.6578 42.899C13.9038 41.89 10.0538 37.169 9.64083 33.848C9.24883 30.703 11.0818 25.868 12.3078 23.947C12.3098 23.939 12.3138 23.932 12.3178 23.924Z" fill="url(#paint5_linear)"/>
<path d="M51.5922 23.8859C51.5962 23.8939 51.6002 23.9009 51.6042 23.9079C52.8342 25.8259 54.6752 30.6569 54.2902 33.8029C53.8832 37.1249 50.0432 41.8529 46.2912 42.8699C48.9552 38.8099 48.9222 32.7599 46.0842 27.0729C42.5672 21.7789 37.3392 18.7349 32.4912 19.0219C35.2422 16.2759 41.2552 15.3019 44.3382 16.6049C47.2582 17.8389 50.5282 21.8429 51.5792 23.8649C51.5832 23.8719 51.5882 23.8789 51.5922 23.8859Z" fill="url(#paint6_linear)"/>
<path d="M17.2732 43.745C16.3602 45.912 16.9032 51.292 18.9562 53.683C15.5922 53.018 12.2742 49.91 10.8482 47.463C9.43717 45.007 8.39618 40.581 9.49618 37.334C10.5452 40.304 14.9392 43.456 17.2732 43.745Z" fill="url(#paint7_linear)"/>
<path d="M31.95 18.2677C30.53 16.3927 25.599 14.1737 22.502 14.7567C24.76 12.1757 29.111 10.8567 31.943 10.8447C34.775 10.8507 39.129 12.1617 41.391 14.7377C38.293 14.1617 33.367 16.3907 31.95 18.2677Z" fill="url(#paint8_linear)"/>
<path d="M46.6747 43.7161C49.0087 43.4231 53.3957 40.2631 54.4397 37.2891C55.5457 40.5341 54.5127 44.9621 53.1067 47.4211C51.6847 49.8711 48.3727 52.9851 45.0107 53.6571C47.0597 51.2631 47.5927 45.8821 46.6747 43.7161Z" fill="url(#paint9_linear)"/>
<path d="M19.1379 42.7129C22.5419 49.3759 29.4369 46.9289 31.3999 43.4729C28.4619 44.3839 24.8899 43.7409 22.9109 40.4819C21.0719 37.1429 22.2949 33.7249 24.5479 31.6319C20.5739 31.6119 15.0159 36.3699 19.0969 42.6419" fill="url(#paint10_linear)"/>
<path d="M31.9118 20.3977C24.4388 20.0137 23.1108 27.2087 25.1218 30.6367C25.8018 27.6377 28.1448 24.8647 31.9558 24.7797C35.7678 24.8567 38.1158 27.6247 38.8018 30.6227C40.8068 27.1907 39.4638 19.9987 31.9918 20.3967" fill="url(#paint11_linear)"/>
<path d="M44.8498 42.6173C48.9188 36.3373 43.3518 31.5893 39.3778 31.6173C41.6358 33.7053 42.8648 37.1213 41.0328 40.4643C39.0598 43.7263 35.4888 44.3763 32.5498 43.4713C34.5188 46.9233 41.4198 49.3573 44.8108 42.6873" fill="url(#paint12_linear)"/>
<path d="M31.975 44.0166C30.388 46.2116 28.152 48.2046 26.084 48.4176C27.952 49.4496 29.967 49.9646 31.981 49.9626C33.995 49.9606 36.009 49.4416 37.875 48.4056C35.806 48.1976 33.566 46.2096 31.975 44.0166Z" fill="url(#paint13_linear)"/>
<path d="M24.3623 30.8625C23.2543 28.3905 22.6463 25.4575 23.4973 23.5605C21.6693 24.6625 20.2163 26.1495 19.2103 27.8945C18.2053 29.6395 17.6473 31.6435 17.6113 33.7775C18.8263 32.0895 21.6683 31.1445 24.3623 30.8625Z" fill="url(#paint14_linear)"/>
<path d="M39.5605 30.8479C42.2555 31.1249 45.0985 32.0639 46.3175 33.7499C46.2775 31.6159 45.7165 29.6139 44.7075 27.8699C43.6985 26.1269 42.2425 24.6419 40.4125 23.5439C41.2655 25.4399 40.6635 28.3739 39.5605 30.8479Z" fill="url(#paint15_linear)"/>
<path d="M36.7706 35.6602C36.7696 35.5722 36.7696 35.4832 36.7706 35.3922C36.8106 31.2552 31.2456 29.7102 29.2516 33.3342C29.2246 33.3832 29.1986 33.4322 29.1736 33.4802C29.1186 33.5852 29.0616 33.6842 28.9986 33.7842C28.9696 33.8302 28.9406 33.8772 28.9116 33.9252C26.7766 37.4692 30.9056 41.5082 34.4636 39.3972C34.5416 39.3512 34.6186 39.3062 34.6956 39.2622C35.9926 38.5242 36.7826 37.1532 36.7706 35.6602Z" fill="url(#paint16_linear)"/>
<defs>
<linearGradient id="paint0_linear" x1="16.7207" y1="83.3547" x2="46.7171" y2="83.3547" gradientUnits="userSpaceOnUse">
<stop stop-color="#FE5B3A"/>
<stop offset="1" stop-color="#8F43FE"/>
</linearGradient>
<linearGradient id="paint1_linear" x1="-1.75107e-07" y1="43.25" x2="30.5195" y2="43.25" gradientUnits="userSpaceOnUse">
<stop stop-color="#FE5B3A"/>
<stop offset="1" stop-color="#8F43FE"/>
</linearGradient>
<linearGradient id="paint2_linear" x1="11.9238" y1="10.9129" x2="51.9773" y2="10.9129" gradientUnits="userSpaceOnUse">
<stop stop-color="#FE5B3A"/>
<stop offset="1" stop-color="#8F43FE"/>
</linearGradient>
<linearGradient id="paint3_linear" x1="33.457" y1="43.2161" x2="63.9485" y2="43.2161" gradientUnits="userSpaceOnUse">
<stop stop-color="#FE5B3A"/>
<stop offset="1" stop-color="#8F43FE"/>
</linearGradient>
<linearGradient id="paint4_linear" x1="17.9521" y1="50.7394" x2="46.0009" y2="50.7394" gradientUnits="userSpaceOnUse">
<stop stop-color="#FE5B3A"/>
<stop offset="1" stop-color="#8F43FE"/>
</linearGradient>
<linearGradient id="paint5_linear" x1="9.58691" y1="29.231" x2="31.4108" y2="29.231" gradientUnits="userSpaceOnUse">
<stop stop-color="#FE5B3A"/>
<stop offset="1" stop-color="#8F43FE"/>
</linearGradient>
<linearGradient id="paint6_linear" x1="32.4912" y1="29.2078" x2="54.3422" y2="29.2078" gradientUnits="userSpaceOnUse">
<stop stop-color="#FE5B3A"/>
<stop offset="1" stop-color="#8F43FE"/>
</linearGradient>
<linearGradient id="paint7_linear" x1="9.03613" y1="45.36" x2="18.9562" y2="45.36" gradientUnits="userSpaceOnUse">
<stop stop-color="#FE5B3A"/>
<stop offset="1" stop-color="#8F43FE"/>
</linearGradient>
<linearGradient id="paint8_linear" x1="22.502" y1="14.4888" x2="41.391" y2="14.4888" gradientUnits="userSpaceOnUse">
<stop stop-color="#FE5B3A"/>
<stop offset="1" stop-color="#8F43FE"/>
</linearGradient>
<linearGradient id="paint9_linear" x1="45.0107" y1="45.3244" x2="54.9055" y2="45.3244" gradientUnits="userSpaceOnUse">
<stop stop-color="#FE5B3A"/>
<stop offset="1" stop-color="#8F43FE"/>
</linearGradient>
<linearGradient id="paint10_linear" x1="17.668" y1="39.1338" x2="31.3999" y2="39.1338" gradientUnits="userSpaceOnUse">
<stop stop-color="#FE5B3A"/>
<stop offset="1" stop-color="#8F43FE"/>
</linearGradient>
<linearGradient id="paint11_linear" x1="24.2783" y1="25.4156" x2="39.6389" y2="25.4156" gradientUnits="userSpaceOnUse">
<stop stop-color="#FE5B3A"/>
<stop offset="1" stop-color="#8F43FE"/>
</linearGradient>
<linearGradient id="paint12_linear" x1="32.5498" y1="39.1197" x2="46.2705" y2="39.1196" gradientUnits="userSpaceOnUse">
<stop stop-color="#FE5B3A"/>
<stop offset="1" stop-color="#8F43FE"/>
</linearGradient>
<linearGradient id="paint13_linear" x1="26.084" y1="46.9356" x2="37.875" y2="46.9356" gradientUnits="userSpaceOnUse">
<stop stop-color="#FE5B3A"/>
<stop offset="1" stop-color="#8F43FE"/>
</linearGradient>
<linearGradient id="paint14_linear" x1="17.6113" y1="28.5762" x2="24.3623" y2="28.5762" gradientUnits="userSpaceOnUse">
<stop stop-color="#FE5B3A"/>
<stop offset="1" stop-color="#8F43FE"/>
</linearGradient>
<linearGradient id="paint15_linear" x1="39.5605" y1="28.5542" x2="46.3175" y2="28.5542" gradientUnits="userSpaceOnUse">
<stop stop-color="#FE5B3A"/>
<stop offset="1" stop-color="#8F43FE"/>
</linearGradient>
<linearGradient id="paint16_linear" x1="28.3262" y1="35.5611" x2="36.7708" y2="35.5611" gradientUnits="userSpaceOnUse">
<stop stop-color="#FE5B3A"/>
<stop offset="1" stop-color="#8F43FE"/>
</linearGradient>
</defs>
</svg>
