<svg width="46" height="46" viewBox="0 0 46 46" fill="none" xmlns="http://www.w3.org/2000/svg">
<path d="M23 -1.80397e-06C29.1434 -2.34105e-06 34.9194 2.39243 39.2635 6.73652C43.6076 11.0806 46 16.8566 46 23C46 29.1434 43.6076 34.9194 39.2635 39.2635C34.9194 43.6076 29.1434 46 23 46C16.8566 46 11.0806 43.6076 6.73653 39.2635C2.39244 34.9194 2.34105e-06 29.1434 1.80397e-06 23C1.2669e-06 16.8566 2.39244 11.0806 6.73653 6.73653C11.0806 2.39244 16.8566 -1.2669e-06 23 -1.80397e-06ZM13.6306 23L24.7841 34.1534C25.4858 34.8552 26.6236 34.8552 27.3253 34.1534C28.0271 33.4517 28.0271 32.3139 27.3253 31.6122L18.7131 23L27.3253 14.3878C28.0271 13.6861 28.0271 12.5483 27.3253 11.8466C26.6236 11.1448 25.4858 11.1448 24.7841 11.8466L13.6306 23Z" fill="white"/>
</svg>
