<svg xmlns="http://www.w3.org/2000/svg" width="109" height="24" viewBox="0 0 109 24"><defs><linearGradient id="12rka" x1="54.5" x2="54.5" y1="0" y2="24" gradientUnits="userSpaceOnUse"><stop offset="0" stop-color="#fafd69"/><stop offset="1" stop-color="#efd063"/></linearGradient></defs><g><g><g><path fill="url(#12rka)" d="M0 12C0 5.373 5.373 0 12 0h85c6.627 0 12 5.373 12 12s-5.373 12-12 12H12C5.373 24 0 18.627 0 12z"/></g><g><g><path fill="#332f38" d="M50 6.5a.5.5 0 0 1 1 0v13a.5.5 0 0 1-1 0z"/></g><g><path fill="#332f38" d="M54 6.5a.5.5 0 0 1 1 0v13a.5.5 0 0 1-1 0z"/></g><g><path fill="#332f38" d="M58 6.5a.5.5 0 0 1 1 0v13a.5.5 0 0 1-1 0z"/></g></g></g></g></svg>