<?xml version="1.0" encoding="utf-8"?><svg xmlns="http://www.w3.org/2000/svg" xmlns:xlink="http://www.w3.org/1999/xlink"><symbol viewBox="0 0 32 30" id="compare" xmlns="http://www.w3.org/2000/svg"><path d="M21.308 17.33H31.75a.25.25 0 01.25.25 5.134 5.134 0 01-1.512 3.637 5.134 5.134 0 01-3.637 1.513h-.65a5.134 5.134 0 01-3.637-1.513 5.134 5.134 0 01-1.512-3.636.25.25 0 01.25-.25h.006z"/><path fill-rule="evenodd" clip-rule="evenodd" d="M26.532 8.257l-3.818 9.511a.495.495 0 01-.65.275.495.495 0 01-.275-.65l4.28-10.667a.495.495 0 01.65-.275c.126.05.226.15.276.275l4.28 10.667c.1.256-.025.55-.275.65a.505.505 0 01-.65-.275l-3.818-9.51z"/><path d="M.256 17.33h10.442a.25.25 0 01.25.25 5.135 5.135 0 01-1.512 3.637 5.134 5.134 0 01-3.637 1.513h-.65a5.134 5.134 0 01-3.637-1.513A5.135 5.135 0 010 17.581a.25.25 0 01.25-.25h.006z"/><path fill-rule="evenodd" clip-rule="evenodd" d="M5.48 8.257l-3.818 9.511a.495.495 0 01-.65.275.495.495 0 01-.275-.65l4.28-10.667a.495.495 0 01.65-.275c.125.05.225.15.275.275l4.28 10.667c.1.256-.024.55-.274.65a.505.505 0 01-.65-.275L5.48 8.258z"/><path fill-rule="evenodd" clip-rule="evenodd" d="M5.743 7.339a.499.499 0 11-.525-.85c5.736-3.562 15.715-3.643 21.577 0a.504.504 0 01.162.687.504.504 0 01-.687.163c-5.405-3.356-14.985-3.437-20.521 0h-.006z"/><path d="M17.472 5.34v19.377H14.54V5.338a25.479 25.479 0 012.93 0zM11.28 25.21h9.46c.793 0 1.518.45 2.043 1.175.525.725.85 1.724.85 2.818 0 .137-.081.25-.181.25H8.58c-.1 0-.182-.113-.182-.25 0-1.1.325-2.1.85-2.818.525-.725 1.244-1.175 2.044-1.175h-.013z"/><path fill-rule="evenodd" clip-rule="evenodd" d="M17.472 3.333h-2.937v-.868c0-.807.662-1.469 1.468-1.469.806 0 1.469.662 1.469 1.469v.868z"/></symbol><symbol viewBox="0 0 33 28" id="heart" xmlns="http://www.w3.org/2000/svg"><path d="M22.615 0a9.686 9.686 0 00-6.461 2.48A9.685 9.685 0 009.692 0C4.348 0 0 4.348 0 9.692c0 9.901 15.017 17.852 15.655 18.186a1.075 1.075 0 00.998 0c.638-.334 15.655-8.285 15.655-18.186C32.308 4.348 27.96 0 22.615 0z"/></symbol><symbol viewBox="0 0 30 31" id="insta" xmlns="http://www.w3.org/2000/svg"><path d="M21.116.588H9.063C4.164.588.179 4.574.179 9.472v12.054c0 4.898 3.985 8.883 8.884 8.883h12.053c4.899 0 8.884-3.985 8.884-8.883V9.472C30 4.574 26.015.588 21.116.588zM27 21.526a5.884 5.884 0 01-5.884 5.883H9.063a5.884 5.884 0 01-5.884-5.883V9.472a5.884 5.884 0 015.884-5.884h12.053A5.884 5.884 0 0127 9.472v12.054z"/><path d="M15.09 7.786c-4.253 0-7.713 3.46-7.713 7.712 0 4.253 3.46 7.713 7.713 7.713s7.712-3.46 7.712-7.713c0-4.252-3.46-7.712-7.712-7.712zm0 12.425a4.713 4.713 0 110-9.425 4.713 4.713 0 010 9.425zM22.817 9.692a1.848 1.848 0 100-3.696 1.848 1.848 0 000 3.696z"/><defs><linearGradient id="cpaint0_linear" x1="15.09" y1="30.322" x2="15.09" y2=".82" gradientUnits="userSpaceOnUse"><stop stop-color="#E09B3D"/><stop offset=".3" stop-color="#C74C4D"/><stop offset=".6" stop-color="#C21975"/><stop offset="1" stop-color="#7024C4"/></linearGradient><linearGradient id="cpaint1_linear" x1="15.09" y1="30.322" x2="15.09" y2=".82" gradientUnits="userSpaceOnUse"><stop stop-color="#E09B3D"/><stop offset=".3" stop-color="#C74C4D"/><stop offset=".6" stop-color="#C21975"/><stop offset="1" stop-color="#7024C4"/></linearGradient><linearGradient id="cpaint2_linear" x1="22.817" y1="30.322" x2="22.817" y2=".82" gradientUnits="userSpaceOnUse"><stop stop-color="#E09B3D"/><stop offset=".3" stop-color="#C74C4D"/><stop offset=".6" stop-color="#C21975"/><stop offset="1" stop-color="#7024C4"/></linearGradient></defs></symbol><symbol viewBox="0 0 18 18" id="load" xmlns="http://www.w3.org/2000/svg"><path d="M17.508 7.934a.67.67 0 10-1.323.223 7.382 7.382 0 11-1.833-3.749l-2.97.99a.67.67 0 10.423 1.273L15.83 5.33a.67.67 0 00.458-.637V.67a.67.67 0 00-1.34 0v2.45a8.628 8.628 0 102.56 4.814z"/></symbol><symbol viewBox="0 0 223 97" id="logo" xmlns="http://www.w3.org/2000/svg"><path fill-rule="evenodd" clip-rule="evenodd" d="M174.856 79.4c-2.589-.448-3.922 2.089-7.547 1.447-1.591-.282-3.087.19-3.942-.822 1.39-.932.761.475 2.185-1.584.835-1.206 1.754-1.043 1.655-2.034-1.927.305-1.169 2.324-4.353 1.925l.218-1.258a.457.457 0 00.03-.164c-1.958-.154-.798 1.279-3.665 1.239l1.254-1.212-.823-.852c1.324-.934 1.475-2.23-.465-1.982.342.337.617.062 1.137.704-.402 1.095-.364.544-1.266 1.434.495.991.02.114.471.441l.542.332-1.486 1.251c1.667.523 1.85.248 3.094-.515.184.719-.062.743.285 1.576.285.691.454.495.719 1.417-.545.112-1.239-.394-1.735-.3.454 1.62 1.427 2.208-.213 3.823-.248-.966-.057-1.42-1.152-2.108-1.833-1.15-.788-.397-2.019-1.804-.855 1.036-.907 1.69-2.28 1.558 1.735-2.609.53-2.544 1.254-4.97.31-1.043.543-1.667 1.447-2.207 1.526-.91.114-.528.944-1.2 1.519-1.239 5.047-.517 6.504-1.107-1.44-.399-3.286-.077-4.757.233.518-1.561 2.581-2.347 4.063-2.746 10.773-2.894 8.632 4.163 11.264 8.318-.585.3-.644-.424-1.098-.852-2.413-2.272-5.877-5.506-9.47-4.956 4.349 1.75 3.333.248 7.785 3.997a67.598 67.598 0 005.991 4.561c2.183 1.504 5.625-.352 7.416-1.813 2.916-2.376 4.403-5.164 7.138-3.806.915.605 1.893.991 1.983 1.276-.714-.228-1.547-.374-2.268-.602-.247-.077-.951.084-1.362.567-.31.364-1.304 2.03-.942 2.584.171.263.33.603.273.796-.181.61-.597 1.055-.704 1.07-.208.03-.268-.778-.312-1.655a1.754 1.754 0 01.032-.495c.03-.134.136-.082.164-.283.069-.535.78-1.6 1.216-2.21.206-.285.496-.458.496-.538 0-.079-.332-.032-.474.02a6.787 6.787 0 00-1.139.706c-.55.372-1.081.858-1.626 1.314-1.734 1.449-3.508 3.22-5.52 3.979-1.898.718-3.64.837-6.591-1.093-1.211-.818-2.103-1.355-2.351-1.4zm43.924-14.511l-.064 2.755c.164-.213.248-.56.496-.642.247-.082.433.166.649.248l-1.081-2.361zm-49.69-1.179l-1.982-1.914c.047.266.248.568.139.798-.109.23-.416.206-.622.307l2.465.808z"/><path fill-rule="evenodd" clip-rule="evenodd" d="M184.876 72.116l-2.748-.216c.231-.14.582-.198.689-.426.107-.228-.121-.448-.183-.671l2.242 1.313zm27.151 8.011l-2.55 1.05c.141-.23.431-.44.421-.69-.01-.251-.31-.345-.466-.516l2.595.156zm-67.989-16.943l-1.162 1.464c0-.183.109-.401.023-.547-.087-.146-.298-.102-.446-.151l1.585-.766zM54.53 50.867l-.638-1.76c.151.102.285.306.456.306.171 0 .248-.201.364-.3l-.183 1.754zM48.826 38.65c-.169.414-.376.81-.62 1.185-.709 1.112-1.856 2.725-3.082 4.474-1.487 2.121-7.651 8.526-7.81 10.974-.094 1.457 2.104 3.826 2.639 4.609.535.783 2.356 3.159 2.725 2.192-1.501-2.046-1.486-4.276-1.449-5.612.037-1.335 2.136-6.006 4.906-9.886 2.77-3.88 4.212-4.995 5.203-9.365.292-1.299.139-1.712-.21-1.616-.618.164-1.822 1.809-2.302 3.045zm18.419-1.398c.155-.156.302-.322.438-.495l.57-1.839c-1.534-.4-1.88.744-3.427 1.036.117-1.486 1.787-2.812 1.024-3.887-2.726 1.325-2.082 2.086-2.75 4.42-.546-.744-.177-1.655.217-3.278-1.526.99-3.843-.067-5.32-.617 1.448.295 3.965 0 4.644-.297l1.72-.744c-3.259-1.348-7.93-.352-8.316-4.093 1.735 1.251 1.633 1.868 3.965 1.217 3.283-.922 1.593-.337 4.5-.248.847-2.478-4.146-6.702-4.612-10.042 2.121 4.34 5.203 4.777 5.947 6.737 2.477 4.99 4.254 5.827 5.916 7.23.632.532-.096 2.495-.44 3.337-.288.691-3.31 1.496-4.076 1.563z"/><path fill-rule="evenodd" clip-rule="evenodd" d="M76.99 38.392c.069.302.842 1.653.912 1.96.416 1.821.042 2.574-.92 2.834-1.878.513-.312.838-1.784.028 1.413-.179.124.106 1.581-.768l-1.645-4.844c-.198.317.04 2.309-.216 3.144-.33 1.075-1.182 1.02-1.682 1.276 0-1.264-.924-2.25-1.734-2.057-.204.047-.553.9-1.336 1.551-.372.31-3.543 2.287-6.672 2.669-1.735.21-8.519.379-14.217-1.982-4.592-1.893-7.186-5.778-7.468-8.672.796.226 1.577.5 2.339.822 1.333 3.016 3.364 5.632 7.695 6.819 2.689.743 7.93 1.608 11.839 1.348 2.785-.186 6.903-2.453 6.4-3.684-.265-.65-1.1-.662-1.685-.6-1.531.164-2.555 1.108-4.44.495-.773-.247-2.123-.825-2.921-1.858.456.295.959.513 1.486.644.835.233 1.633.337 2.08.248 1.345-.248 1.295-1.878 2.395-4.299-1.36-.468-1.13-.148-2.478.33.454-2.404 2.277-4.212 4.046-4.668.533 4.004 1.128 6.427.434 7.958 2.002-.262 2.914-1.486 3.02-1.873.23-.784.328-1.602.29-2.418 2.101 1.47 3.583 2.725 4.55 2.973.321.632-.214 1.135.13 2.624zm62.011 25.971c-8.548 5.429-14.925 2.292-21.382 12.025a6.84 6.84 0 01-5.203 2.973c-1.361.106-1.809.081-1.762 1.672 2.005 0 4.262-1.073 5.679-2.28l.287.358c0 .014-1.675 2.725-2.336 3.045-3.66 1.816-4.396-2.139-8.238.163-1.329.796-1.844-.344-3.563 1.113.686.73.919.084 2.19 1.452 1.697-.313.109-.687 1.159-.412-.099.523-.215.132-.991.79l2.116.667-.213.867-.473.496.084-.496c-1.734-.371-1.734-2.074-4.46-1.27-.126 1.04.642.022.716 1.486-2.185.9-1.635-1.546-4.11-.265l1.556 1.016c-.448.69-.297.463-1.125.661.89.88.634-.015 1.276 1.088l-1.536-.743c.332-.932.19-.402.882-1.098-.813-.466-1.224-.374-1.511-1.145 1.64-.939 1.808-.342 3.245.134-.641-1.819.248-2.23.58-3.593l-1.982 1.086c.448-2.156 1.021-2.8-.778-4.31.037 1.336.391 1.488-.76 2.479-1.629 1.37-.744.703-1.71 2.23-1.579-.434-.278-1.019-2.986-1.264.602 1.239 1.224.597 1.633 2.307.198.83.33 4.517 2.71 5.022 1.472.315 1.886-.315 2.56-1.14-.107.449.092.198-.191.672-.473.793-.706.495-1.43.79l-.47.275c1.766 1.123 4.955.454 6.769 0 2.49-.634 3.137-1.539 5.069-2.584-.322-.615.496-.181-.3-.496-1.03.602.015.248-1.293.355l1.863-.28.957-.674c.371-.719.743-1.326 1.486-1.663-.354.793-1.164 1.809-1.59 2.423l-.583.248c-2.073 2.376-6.796 3.731-10.185 3.469.944 1.529 3.268 1.952 4.955 2.084 3.303.247 8.196-1.841 9.041-4.225.322-.91.59-5.203.825-6.747-1.159.79-1.434 1.983-2.453 2.74.389-1.223 2.649-3.837 3.514-5.086.966-1.397 1.531-2.901 2.207-4.274 2.656-5.377 10.734-7.235 15.114-8.268.357-.084.416.163-.448 2.044.864-.543 1.387-1.427 1.509-1.534.277-.255 3.711-4.353 4.08-4.383zm-30.379 24.748c0-.03-.047.081-.067.059l.067-.06zm-1.117-.372c0-.035-.057.104-.077.074l.077-.074zm1.202-1.038c0-.042-.065.121-.09.089l.09-.09zm-.828-.335c0-.034-.057.094-.079.067l.079-.067zm-.211-.877c0-.032-.049.09-.069.064l.069-.064zm1.175-.743c0-.042-.067.119-.094.084l.094-.084zm-.83-.067c0-.032-.055.09-.077.064l.077-.064zm-.823-.473l1.172-.248c.315.743-.371.21-.376.116-.082-1.343-.174-.06.247-.158.051.003.1.02.142.05l-1.185.24zm-2.007-.248c0-.04-.067.104-.096.074l.096-.074zm1.187-.496c0-.034-.057.094-.079.067l.079-.067zm-.84-.054c-.23-.307.285-.037.29-.037 1.839-.268 1.202.218.887-.203l-1.177.24zm-.837-.325c0-.042-.067.117-.094.085l.094-.085zm.622-.565c0-.04-.057.122-.08.09l.08-.09zm-2.243-.156c0-.03-.047.082-.064.06l.064-.06zM86.853 9.175h.027c.05.399.729.701.768 1.17l.263.247-.052-.015.215.34.112.347c-.082.114-.084.067.057.131-.09.119-.092.072.05.131-.097.114-.105.067.032.137-.114.109-.127.064 0 .138-.1.112-.107.067.024.137-.106.119-.121.07 0 .156 0 .193-.133.632 0 .654-.017.151-.15.342-.052.409l-.14.743-.055.035-.038.267h-.054c-.441.67-.714 1.301-1.388 1.707v.047l-.564.315v-.054l-.823.124-.151-.132c.025-.669.632-1.365.58-1.982l.094-.478c.143-.141.173-.082.032-.181.295-.602-.216-1.588-.518-2.16.094-.137.084-.07-.104-.152.139-.183-.062-.215-.134-.366.11-.157 0-.147-.141-.196.458-.654-2.822-2.493-3.278-2.77l.28-.27c.124.086.074.096.154-.03.121.104.069.116.156 0l.602-.067c.136.131.081.156.173.022v-.014l.932.071.027.067h.297c.154.164.09.196.196.04v.025c.421.277.136.106.302.077h-.017c.151.071.273.23.367.091v.032c.646.3 1.328.645 1.769 1.207z"/><path fill-rule="evenodd" clip-rule="evenodd" d="M83.047 11.373l.248.29.397.637c-.06.09.128.22.173.377-.097.14-.025.116.087.2-.09.13-.102.08.032.151-.097.112-.102.067.037.13-.091.116-.087.066.07.12-.087.125-.092.075.059.14-.117.116-.126.069.017.14-.126.117-.136.065 0 .16 0 .173-.106.413 0 .495-.025.183-.173.347-.054.429l-.136.574-.459.684a.273.273 0 00-.302.22c-.121-.084-.178 0-.176.147l-.991.178c-.057-.163-.144-.272-.248-.119l.017.015-1.3-.892h-.03l-.206-1.239-.042.023.114-.682h-.213c-.119-.139-.064-.158-.161-.02-.206.023-.496-.15-.575-.034-1.204-.159-1.883-.729-2.943-1.177-.114-.419-.459-.778-.555-1.239l-.062.045c.17-.744.575-1.046 1.219-1.366.114.08.07.09.134-.034.114.096.064.091.126-.057l1.405-.179-.013-.04h.174c.121.12.07.14.158 0l.362.03c.146.067.186.209.293.055.165.06.096.18.208.02.114.126.143.215.247.07l.028.036h.247c.439.627 1.926 1.148 2.614 1.712zm2.238 22.581c.084.178.743.87.99.877l.157.27-.357.332c-.144-.099-.131-.03-.198.092a.648.648 0 00-.29.087c-.218.033-.43.1-.627.198l.027-.04c-.374.11-1.538.285-1.687.47l-1.596.105c-.133-.107-.079-.127-.166 0-.156-.032-.282-.159-.366-.037-.12-.114-.132-.159-.218-.035l-.843-.07-.034-.076-.729-.144v-.03l-.428-.044v-.023l-.35-.086v-.02l-1.048-.34a42.199 42.199 0 01-4.725-2.774c-.022-.298-1.566-1.43-1.866-1.653l-1.37-1.628h-.015l-.23-.553c.367 0 1.46.875 1.553.744.377.206.823.53 1.257.483.106.149.16.248.247.102l.63.178c.096.094.133.18.225.047.11.092.134.174.223.042.122.067.196.164.283.04l.037.054c.196.035.936.248 1.035.097.14.114.115.151.206.017.186.144.872.124.991.082v.017a5.353 5.353 0 001.735.154v-.025c.153.102.111.144.158 0 .144.124.087.151.179.02.086.129.138.166.22.047.126.11.129.164.216.035.18.025.077.168.195 0 .12.07.112.136.201 0 .11.104.139.213.248.07.136.09.114.143.206.012.104.101.133.17.222.042l.285.062c.1.128.144.225.248.076.146.248.285.065.285.065v.015l.57.116.017.052.583.154c.354.679 3.017 1.819 3.714 2.324zM64.549 10.443c-.156.149-.18.085-.02.196l.025-.012c-.04.183-.196.247-.047.356.064.382-.015.461.129.721-.087.114-.092.067.044.134-.096.114-.099.067.045.134-.097.117-.1.07.042.134-.102.121-.102.072.057.131-.087.097.139.622.186.833l.399.718c-.102.146-.045.12.104.198l.248.392c-.1.146-.038.09.089.188-.097.139-.05.107.094.188-.094.137-.037.134.124.194-.08.116-.04.136.126.19l.154.248.649 1.15c-.102.149-.067.05.09.19-.063.09-.1.127.11.192l.519 1.05c-.097.141-.023.117.096.196-.099.143-.02.099.084.193-.089.131-.096.077.055.149l.163.337.912 4.97c-.104.124-.114.072.015.161-.054.164-.163.094 0 .21 0 .16-.109.248.037.303l-.044.377-.067.802c-.094.11-.184.124-.037.223-.102.112-.194.124-.043.226-.079.126-.153.104 0 .205-.032.159-.163.347-.044.407-.092.109-.206.16-.065.247-.14.117-.168.142-.047.224-.198.188-.304 1.008-.423 1.337l-.432-.408c.102-.149 0-.134-.12-.199.09-.13.019-.104-.085-.185.104-.151 0-.149-.146-.191l-.075-.226-.322-.542h-.012l-.196-.426-.057-.015-.089-.181h.042l-.2-.387h-.025c-.199-.468-.645-1.553-1.034-1.734.1-.144-.03-.159-.146-.248H65.4c.097-.141.084-.064-.097-.203l.037.015-.448-.766c.097-.138.025-.143-.126-.203l-.31-.575c.099-.143.044-.121-.097-.19l-.248-.563-.084-.015a1.415 1.415 0 00-.322-.709c.074-.108.09-.096-.104-.193a1.19 1.19 0 00-.327-.708h.007l-.203-.335c0-.406.05-.183-.178-.513l-.141-.317-.065-.337.213-.369-.146-.03c-.587-1.447-.362-2.65-.723-3.91.116-.086.213-.133.072-.23.108-.109.198-.126.049-.23.07-.13.196-.184.057-.278.102-.126.285-.22.134-.325.518-.755 1.127-2.155 1.905-2.63v.027l.307.111-.012.126zm33.018 9.011c-.112.124-.117.07.024.156-.091.102-.138.13 0 .211-.079.11-.178.141-.02.208-.061.11-.153.161 0 .208-.084.12-.178.171-.032.248-.399.396-1.251 2.366-1.353 2.835-.334.106-.495.45-.758.765-.104-.062-.17-.06-.186.141-.111-.066-.23.062-.247.206-.14-.084-.127-.017-.194.119-.146-.09-.136 0-.193.146-.141-.087-.116 0-.188.12-.144-.088-.132 0-.189.118-.143-.09-.7.77-.537.87-.082.104-.161.128 0 .19-.102.15-.129.097 0 .176-.1.112-.134.137 0 .216.084.557-.042.93.116 1.516l-.062.85.045-.04c-.107.186-.146.124 0 .211l-.067.042.02.248c-.12.124-.164.146-.032.228-.127.116-.176.154-.045.235l-.067.357c-.114.09-.213.248-.09.325-.69.827-1.094 1.87-1.89 2.67-.128-.079-.111-.059-.185.134-.144-.089-.094-.091-.184.092-.158-.097-.119-.042-.2.129-.12-.072-.275.131-.449.225v-.047l-2.158.417c-.111-.107-.144-.166-.233-.02-.342-.1-.523-.198-.815-.092-.716-.681-2.478-1.209-3.367-1.764.104-.171-.203-.22-.372-.302-.099-.441-.173-.154-.315-.59.323-.166 1.881-.327 2.06-.743l.72-.38-.014.045.376-.247a.867.867 0 00.625-.417l.428-.399.295-.247c.344-.03 1.573-1.653 1.397-1.963l1.462-3.144.236-.09v-.054l.775-.369.469-.146v.04l.807-.402.704-.384v.045l.34-.248.247-.109v.02c.169.101.19-.146.382-.278V21.7c.153.094.166-.05.247-.176.144.087.154 0 .194-.178.109.067.248-.067.248-.208l.346-.342c.142.086.134 0 .199-.149.146.09.247-.2.339-.332.156.097.248-.248.344-.409.372-.022.352-.674.697-.835l.287.223c-.121.161-.134.107.013.161zm-10.521 5.663c.1 1.1-.718 1.665-1.328 2.477-.099-.123-.634.426-.669.546-.34.079-.716.436-1.043.636-.116-.08-.124.023-.21.11v-.016l-.555.228v-.027c-.335.166-4.136.65-4.136.65l-.247-.043h-.248c-.104-.064-.094-.131-.179 0-.118-.067-.106-.146-.19-.022-.09-.1-.122-.159-.199-.047l-.034-.042c-.496-.035-.845-.218-1.24-.201l-.016-.037-.248-.045-.184-.02a.664.664 0 00-.639-.18c-.305-.855-3.057-1.398-3.716-2.431h-.045l-.496-.691h-.037c-.438-.89-.622-1.695-.9-2.632h-.026c.079-.297.079-.18.025-.44h-.018v-.471c.11-.117.159-.12.047-.196l.025-.179.17-.126c.39.317 4.46 4.856 5.053 4.343l-.022.015c.874.667 2.686.766 3.498.248.057.04.139.131.154-.05.116.082.138.033.173-.121l.206-.072v-.05c.116.082.136-.022.17-.148.375-.154.722-.55 1.004-.828.097.067.196-.101.322-.18.122.081.12.042.166-.097.12.082.062.077.157-.067.116.102.126.042.178-.097.116.082.057.075.16-.069v.017c.13.09.08.102.15-.042l.376-.2c.151.052.161.163.248-.03l.111-.032c.097.086.058.094.12-.023.071.06.178-.091.344-.099.096.1.057.114.124 0 .096.094.06.104.121 0 .094.082.057.094.119 0l.57-.067.944.04c.131.136.077.163.166.037.094.156.124.124.188.032.104.142.117.137.188.032.112.114.107.13.176.025.347.223.997.223 1.172.682zm6.928-14.953c.054.233-.082.054.2.28.035.106.075.247.293.27 0 .089.032.317.248.302 0 0-.042.203.2.218l.166.263c-.066.096-.014.141.134.17-.086.125-.072.058.094.174-.084.122-.017.114.117.171-.084.121-.022.102.087.169-.082.119-.02.109.089.166-.08.114.047.166.121.282-.104.154.476 2.778.36 3.499-.067.111-.181.18-.063.262-.089.102-.23.169-.099.248l-.215.513-1.856 2.502-.495.372v.032c-.191.072-1.507.862-1.579 1.11l-1.05.496v-.02c-.877.421-1.675.508-2.651.525l-.39-.21.174-.318c.218-.096.278-.262.396-.47.233-.047.181 0 .337-.298.808-.042 2.156-3.055 2.287-3.95l.097-.07.19-.744c.087-.144.115-.092 0-.171a.494.494 0 00.107-.451l.057-.032-.052-.211h.027c.471-1.504.025-3.382-.562-4.787.159-.23 0 .055-.074-.168.084-.124.057-.065-.077-.166.072-.107-.129-.218-.226-.337.08-.114.03-.112-.094-.166.09-.132-.099-.169-.218-.248 0-.136-.391-.699-.632-.743 0-.169-.597-.67-.683-.598l-.248-.19c-.017-.127.054.017-.032-.191l.426-.065c.079.097.106.181.198.05.119.104.129.186.216.06.2.163.475.069.696.262l.101-.057.151.131.1-.074c.225.124 1.125.66 1.276.533l2.35 1.675z"/><path fill-rule="evenodd" clip-rule="evenodd" d="M87.326 18.576l.035.128c-.107.117-.116.067 0 .151-.104.11-.188.127-.047.223-.11.134-.166.13-.035.219-.334.408-2.002 2.286-1.997 2.78-.2 0-.342.31-.584.403l-.02.075-.38.22v-.034c-.156-.107-.106-.04-.2.101l-1.338.2c-.104-.138-.139-.202-.248-.056-.131-.169-.131-.131-.208-.018v.013c-.178-.124-.116-.164-.21-.027-.122-.132-.132-.124-.206-.015-.11-.1-.124-.176-.22-.038-.115-.116-.14-.2-.234-.066-.16-.038-.349-.176-.428-.06-.726-.262-1.722.248-2.364.6-.146-.1-.084-.023-.196.111-.104-.072-.223.104-.369.169l-.196.116-.743.426v-.057l-1.278.39.017.051-.58-.04c-.148-.1-.091-.126-.18 0l-1.487-1.045c.106-.156-.085-.168-.226-.248l-.99-1.546a4.214 4.214 0 00-.69-1.286h-.017a10.386 10.386 0 00-.699-1.905h.028c.054-.85-.233-1.886-.29-2.775.104-.1.168-.124.034-.216.045-.165.248-.44.134-.52.141-.134.164-.146.047-.225.09-.154.347-.387.213-.52.248-.34.905-.868.976-1.24l.23-.076.016-.057c.141.096.163-.027.193-.179l.382-.148c.233.16.939-.112 1.523.32l.018-.018c.224.548.479 1.083.763 1.603h-.02l.22.46h-.069l.263.472c-.08.116-.05.136.084.183-.092.131-.082.064.067.188h-.042l.215.456c-.076.114-.076.141.122.198.07.275.037.181.27.434.153.416 1.12 1.239 1.548 1.296.082.183 1.881.922 1.983.788.15.198.247.067.28.05.14.076.175.212.287.054.158.042.35.193.401.06.14.108.085.133.174 0 .16.051.344.2.433.069l.4.069v.022l2.462-.322c.124.084.077.1.144-.035.119.087.074.097.131-.042.11.092.06.097.141-.024.087.106.248-.12.466-.186.094.136.05.124.127-.03l.346-.116v.014l.342-.203c.134.092.067.087.186-.067.463-.032.83-.121 1.09.328z"/><path fill-rule="evenodd" clip-rule="evenodd" d="M85.292 2.44h.04l.696.814c0 .042-.032.2.218.247l.082.22.067.013c-.097.139.037.156.151.248l-.022-.017c-.102.148.015.148.168.2-.096.142-.027.077.067.181-.102.146 0 .136.124.193-.09.13-.02.085.087.174-.102.146 0 .156.141.17-.09.132-.1.078.045.16l-.179.113c-.277-.111-1.239-.478-1.296-.381-.146-.154-.27-.087-.409-.032-.356-.545-2.51.032-3.077.334V5.05l-.31.116c-.066 0-.247.03-.317.161-.114-.079-.062-.079-.148.045l-.664.307c-.114-.08-.147-.02-.181.132-.357 0-.315.079-.597.332v-.015c-.991.676-1.588 1.734-2.528 2.349v.022c-.143-.1-.166 0-.19.156l-1.343.277v.035l-.937-.057c-.094-.119-.136-.198-.225-.07-.137-.056-.171-.185-.268-.044-.21-.092-.495-.282-.637-.193-.354-.384-.495.022-.897.119-.116-.08-.118-.042-.18.106-.12-.081-.144-.015-.181.127-.342.054-.568.342-.818.639-.642.268-2.128 2.872-2.004 3.575l-.147.37c-.109.099-.16.123-.042.205l-.082.48c-.081.105-.14.112 0 .201-.111.104-.21.13-.064.23-.104.115-.161.11-.022.207h.017l-.062.359h.013l.024.99h.023c-.06.872.11 1.744.495 2.528l-.03.052c-.374-.188-.339-.22-.6-.518h-.024c-.052-.156-.28-.587-.496-.666l-.48-.788h-.022c-.05-.278.027-.116-.206-.377.08-.116.077-.109-.112-.186.154-.223.023.013-.047-.178.104-.151.018-.146-.136-.196.07-.101.067-.138-.084-.18.091-.134.077-.06-.092-.191h.037c0-.025 0-.085-.02-.077l-.136-.248c.057-.144-.057-.163-.143-.322.084-.124.091-.072-.043-.151.12-.11 0-.121-.111-.186a1.172 1.172 0 00-.21-.718c.207-.598-.469-3.375-.667-4.26.062-.069.248-.223.03-.223.094-.148.116-.091 0-.18l.047-.04.168-1.239c.268-.151.084-.29.084-.29l.052-.017c.057-.352.35-.744.332-1.056l1.17-1.536.414-.225v-.045c.138.097.156-.03.205-.159.248.018.082.065.342-.106l1.22-.287c.295.054.596.077.896.066.161.186 1.177.424 1.427.422l.02.037.548.109c.138.116.119.139.198.025a.248.248 0 00.347.034l-.015-.044.439.14c.215-.136.447-.244.69-.321v.015l.367-.218c.147.099.137-.047.233-.171.122.084.147 0 .191-.156.131.091.22-.114.327-.228.553-.28 2.158-2.26 2.508-2.991l.428-.24.146-.055c.107.102.057.097.127-.047l.324-.062c.102.084.057.082.124-.047.104.084.06.09.13-.032.106.087.061.094.128-.027.102.084.06.094.129 0l.63-.042c.155.014.247.128.329 0 .136.064.106.15.203 0 .106.133.146.213.248.074.086.186.15.096.203.022.119.285.277.067.277.067v.02l.858.248h-.015c.409.247.14.111.297.069.094.166.163.265.272.109l1.913 1.519z"/><path d="M64.365 31.542c.54.146.954.404 1.623.438a6.952 6.952 0 002.669-.304c-.112 1.199-1.318 1.412-1.809 2.084l-.565 1.575"/><path fill-rule="evenodd" clip-rule="evenodd" d="M67.245 38.62c.71-.189 1.253-.496 2.08-.726.828-.23 2.11-.134 2.885-.597.805-.496 1.504-1.777 2.413-1.505.129.99.379 1.959.743 2.887"/><path d="M67.245 38.62c.71-.189 1.253-.496 2.08-.726.828-.23 2.11-.134 2.885-.597.805-.496 1.504-1.777 2.413-1.505.129.99.379 1.959.743 2.887"/><path fill-rule="evenodd" clip-rule="evenodd" d="M26.633 48.179h-.037l-1.735 3.357c-.396.726-.52 1.37-.371 1.94.148.57.557.86 1.238.86l-.371.78a54.123 54.123 0 01-6.17-1.02c-1.734-.416-2.998-1.09-3.79-2.037-.199.55-.179.971.056 1.271.236.3.64.451 1.21.451l-.41.743a19.896 19.896 0 01-2.861-.247 38.989 38.989 0 01-2.726-.496c-.743.165-1.616.33-2.618.496a18.19 18.19 0 01-2.88.247l-.371-.743c.669 0 1.102-.198 1.3-.595.199-.396.087-.953-.334-1.672l-1.895-3.382a4.088 4.088 0 00-1.655-1.653 3.963 3.963 0 00-1.804-.577L0 45.159c.727.011 1.453.061 2.175.148.92.1 1.83.266 2.726.496.878.221 1.73.533 2.544.929.782.385 1.321.85 1.618 1.395l1.598 2.862 1.487-2.862.112-.223c.096-.21.147-.438.148-.669a4.485 4.485 0 00-1.412-.966 3.51 3.51 0 00-1.338-.335l-.409-.743c.733.01 1.465.06 2.193.148.915.102 1.822.267 2.713.496.876.224 1.728.532 2.545.92.68.28 1.248.776 1.618 1.412l1.598 2.861 1.486-2.861.112-.223c.272-.62.26-1.103-.037-1.45a1.448 1.448 0 00-1.152-.52l.408-.78c.722.01 1.442.066 2.156.168a9.81 9.81 0 012.304.575c.95-.27 1.919-.461 2.9-.575a21.396 21.396 0 012.34-.169l-.371.744a3.867 3.867 0 00-1.784.582 4.097 4.097 0 00-1.645 1.66zm5.277-2.205c0-4.658.88-8.245 2.639-10.76a12.425 12.425 0 017.024-4.998 5.947 5.947 0 014.515-5.204 7.14 7.14 0 011.58-.223 8.231 8.231 0 014.758 1.45c1.412.966 2.607 2.471 3.585 4.514.978 2.044 1.728 4.664 2.25 7.862.52 3.196.78 7.024.78 11.484a19.117 19.117 0 01-.716 5.24 13.582 13.582 0 01-2.099 4.386 10.103 10.103 0 01-3.468 2.99 10.302 10.302 0 01-4.867 1.09 16.178 16.178 0 01-6.54-1.283 14.443 14.443 0 01-5.038-3.622 16.48 16.48 0 01-3.26-5.622 21.972 21.972 0 01-1.143-7.312v.008zm9.911-12.034a10.81 10.81 0 01-.223-1.68c-1.487 1.321-2.602 3.182-3.345 5.582a27.599 27.599 0 00-1.115 8.152c.009 1.871.127 3.741.355 5.6a18.684 18.684 0 001.506 5.542 11.357 11.357 0 003.27 4.244c1.413 1.128 3.284 1.692 5.613 1.69A5.911 5.911 0 0050 62.624c.768-.297 1.486-.9 2.156-1.809.669-.908 1.226-2.205 1.672-3.89.446-1.69.669-3.92.669-6.69 0-3.376-.106-6.56-.317-9.551a49.5 49.5 0 00-1.115-7.86c-.534-2.242-1.252-4.016-2.156-5.319-.903-1.303-2.036-1.956-3.4-1.957a5.308 5.308 0 00-.99.111 2.725 2.725 0 00-1.133.545 3.824 3.824 0 00-1.003 1.276 5.975 5.975 0 00-.558 2.305 19.835 19.835 0 013.01-.224 4.35 4.35 0 012.25.54c.593.345 1.09.83 1.45 1.413.37.61.627 1.281.76 1.982.148.716.223 1.445.224 2.176.007.54-.068 1.08-.223 1.598l-2.478 1.412c.243-.64.43-1.298.558-1.97.147-.734.222-1.48.223-2.23.02-1-.19-1.992-.612-2.899-.41-.842-1.135-1.263-2.176-1.263-1.044 0-2.08.202-3.047.594.004.664.06 1.327.166 1.983.111.723.247 1.518.428 2.386l-2.537-1.343zm45.342 14.239h-.037l-1.747 3.357c-.397.726-.52 1.37-.372 1.94.149.57.558.86 1.227.86l-.372.78a54.126 54.126 0 01-6.17-1.02c-1.734-.416-2.997-1.09-3.79-2.037-.198.55-.181.971.054 1.271.236.3.64.451 1.21.451l-.41.743a19.896 19.896 0 01-2.861-.247 37.594 37.594 0 01-2.713-.496c-.744.165-1.617.33-2.62.496a18.19 18.19 0 01-2.878.247l-.372-.743c.67 0 1.103-.198 1.3-.595.2-.396.088-.953-.334-1.672l-1.895-3.382a4.088 4.088 0 00-1.655-1.653 3.963 3.963 0 00-1.801-.577l-.41-.743c.728.011 1.454.061 2.176.148.92.1 1.83.266 2.726.496a13.16 13.16 0 012.569.934c.781.385 1.32.85 1.618 1.395l1.598 2.862 1.487-2.862.111-.223c.096-.21.147-.438.149-.67a4.487 4.487 0 00-1.412-.965 3.512 3.512 0 00-1.338-.335l-.41-.743c.734.01 1.466.06 2.194.148.919.101 1.83.267 2.725.496a14.01 14.01 0 012.545.912 3.354 3.354 0 011.615 1.412l1.598 2.862 1.487-2.862.111-.223c.273-.62.26-1.102-.037-1.45a1.446 1.446 0 00-1.152-.52l.409-.78c.721.01 1.441.066 2.155.168.789.098 1.563.29 2.305.575.949-.269 1.919-.46 2.899-.575a21.369 21.369 0 012.341-.168l-.372.743a3.867 3.867 0 00-1.784.582 4.098 4.098 0 00-1.655 1.663h-.012zm23.154 3.295c0 2.18.292 3.998.875 5.451a8.334 8.334 0 002.527 3.494 10.635 10.635 0 003.996 1.932c1.729.433 3.497.688 5.278.761 1.264 0 2.242-.34 2.936-1.02a6.287 6.287 0 001.524-2.342 9.033 9.033 0 00.557-2.582c.05-.842.075-1.425.075-1.747 0-1.263-.043-2.458-.129-3.585a4.808 4.808 0 00-1.321-2.973c-.793-.854-2.087-1.53-3.882-2.027-1.796-.497-4.392-.745-7.788-.743a17.84 17.84 0 00-2.584.168c-.755.11-1.442.24-2.062.39l-.002 4.823zm-5.24.038V47.72a16.2 16.2 0 01-5.06-.763 12.41 12.41 0 01-3.994-2.119 9.834 9.834 0 01-2.619-3.233 8.82 8.82 0 01-.946-4.034c0-2.453.65-4.518 1.952-6.194a14.493 14.493 0 015.055-4.088 24.452 24.452 0 016.969-2.21 41.435 41.435 0 017.694-.578c1.973.041 3.933.328 5.835.855a14.404 14.404 0 014.923 2.416 11.71 11.71 0 013.402 4.2c.842 1.709 1.263 3.765 1.263 6.169a7.16 7.16 0 01-.463 2.49c-.315.845-.731 1.65-1.239 2.396a12.465 12.465 0 01-1.709 2.044 8.457 8.457 0 01-1.95 1.432c3.394.826 5.767 1.997 7.118 3.513a7.884 7.884 0 012.024 5.407c0 .33-.055.956-.166 1.878a6.817 6.817 0 01-1.134 2.881c-.645.992-1.666 1.864-3.065 2.62-1.399.754-3.391 1.116-5.974 1.085-2.527 0-5.321-.65-8.382-1.95-3.061-1.3-6.238-3.277-9.532-5.93a10.143 10.143 0 01-.966-.892 2.37 2.37 0 00-1.227-.594v-.743a2.18 2.18 0 001.594-.595 2.222 2.222 0 00.609-1.672h-.012zm5.24-19.958v13.974a54.77 54.77 0 012.044-.297 21.881 21.881 0 012.75-.15c1.254-.02 2.506.098 3.734.353 1.028.236 2.038.44 3.03.614a5.484 5.484 0 001.784-1.56 7.324 7.324 0 001.024-2.008 9.597 9.597 0 00.446-2.192 25.96 25.96 0 00.094-2.156c0-2.28-.291-4.218-.872-5.815a10.937 10.937 0 00-2.324-3.903 8.829 8.829 0 00-3.288-2.192 10.698 10.698 0 00-3.774-.69c-3.072 0-5.699.304-7.879.91-2.18.606-3.952 1.449-5.315 2.527a9.664 9.664 0 00-2.99 3.885 12.886 12.886 0 00-.947 5.018 7.796 7.796 0 00.63 2.956 10.32 10.32 0 001.635 2.725 9.138 9.138 0 002.324 2.007 5.137 5.137 0 002.676.78V34.044c-.025-.719-.273-1.152-.743-1.301a1.88 1.88 0 00-1.45.149v-.744a23.698 23.698 0 012.213-.892 16.548 16.548 0 012.584-.706c.825-.674 1.7-1.283 2.619-1.821.93-.545 1.692-.966 2.287-1.264v.744a4.775 4.775 0 00-1.507 1.318 3.18 3.18 0 00-.773 2.027h-.012zm31.442 19.474l1.487-2.861.111-.223c.248-.62.23-1.103-.054-1.45a1.397 1.397 0 00-1.135-.52l.409-.78c.721.01 1.441.066 2.155.168.789.097 1.562.29 2.304.575.95-.27 1.919-.461 2.899-.575a21.408 21.408 0 012.342-.169l-.372.744a3.943 3.943 0 00-1.784.557 4.172 4.172 0 00-1.672 1.673l-4.643 8.548c-1.388 2.576-2.998 4.385-4.832 5.426-1.833 1.04-3.989 1.56-6.467 1.56l.372-.743a3.539 3.539 0 001.933-.594 4.562 4.562 0 001.523-1.665l2.936-5.414-4.311-7.123a4.31 4.31 0 00-1.672-1.648 3.849 3.849 0 00-1.784-.577l-.409-.744c.727.012 1.453.062 2.175.149.919.1 1.83.266 2.726.495.875.222 1.728.527 2.544.912a3.353 3.353 0 011.616 1.413l1.603 2.866zm32.668 2.75l.521.744a19.151 19.151 0 01-2.305-.186c-1-.13-1.993-.316-2.973-.557a8.103 8.103 0 01-2.21.574c-.721.102-1.447.159-2.175.169l-.483-.743c.66 0 1.069-.199 1.226-.595.157-.396-.004-.954-.483-1.672l-1.487-2.268-2.812 1.678v.557a2.233 2.233 0 00.6 1.673 2.167 2.167 0 001.59.594v.78a18.46 18.46 0 01-4.737-.743c-.847.28-1.72.473-2.607.575-.756.1-1.517.157-2.279.169v-.744a2.173 2.173 0 001.591-.594 2.23 2.23 0 00.599-1.673V27.805a1.986 1.986 0 00-.731-1.655 2.36 2.36 0 00-1.462-.575v-.743c.702.01 1.403.06 2.099.148.831.093 1.652.258 2.453.496a7.818 7.818 0 012.024.91c.57.37.855.842.855 1.411v19.574l2.825-1.412a5.53 5.53 0 011.672-.446c.719-.1 1.45-.167 2.193-.203a43.493 43.493 0 012.118-.055h1.487V46a6.773 6.773 0 00-1.511.223c-.397.099-.81.223-1.239.371a6.32 6.32 0 00-1.207.558l-.037.037c.198.148.391.304.577.466.17.14.315.307.429.495l2.193 3.345a5.235 5.235 0 001.709 1.673c.596.38 1.283.591 1.99.612h-.013zm7.681-2.118a7.04 7.04 0 002.396-1.206 2.154 2.154 0 00.8-1.69 9.12 9.12 0 00-.057-.991 4.516 4.516 0 00-.222-1.021c-.095-.29-.24-.56-.429-.798a.827.827 0 00-.669-.317 2.354 2.354 0 00-1.616.612c-.457.41-.687 1.197-.688 2.361a10.27 10.27 0 00.51 3.055l-.025-.005zm1.735 3.42a52.99 52.99 0 01-2.917-.075 8.534 8.534 0 01-2.358-.426 3.595 3.595 0 01-1.598-1.066c-.397-.47-.595-1.144-.595-2.011a5.385 5.385 0 01.595-2.429 7.446 7.446 0 011.598-2.123 7.932 7.932 0 012.358-1.487 7.6 7.6 0 012.917-.557c1.734 0 2.955.262 3.662.785a2.61 2.61 0 011.058 2.23 2.44 2.44 0 01-.578 1.487 6.483 6.483 0 01-1.486 1.363 11.92 11.92 0 01-2.007 1.077 9.66 9.66 0 01-2.136.657c.173.45.411.871.706 1.251a1.137 1.137 0 00.855.496c.348.027.696-.06.991-.248.198-.165.384-.543.558-1.132l1.895.148a2.499 2.499 0 01-1.239 1.524 4.684 4.684 0 01-2.242.535h-.037zm6.243-9.114v-.743h2.193V27.755l5.241-2.23v19.698h2.267v.743h-2.267v5.538a2.07 2.07 0 00.59 1.65 2.087 2.087 0 001.639.617v.743a70.11 70.11 0 01-1.92-.037 13.934 13.934 0 01-2.477-.297 6.116 6.116 0 01-2.156-.875 1.98 1.98 0 01-.917-1.764v-5.575h-2.193z"/><path fill-rule="evenodd" clip-rule="evenodd" d="M132.569 71.982c-.555 1.68-1.139 3.394-1.239 5.176-.062 1.239.84 3.61 1.408 4.645.589 1.076 1.444 1.487 1.856 2.518.837 2.084 0 4.271 1.325 6.752 1.487 2.742 6.883 5.178 9.926 5.066.062-.743-.449.04-.382-.892 2.654 1.353 2.959 1.953 6.375 1.222-.778-.885-1.286-.605-1.831-2.104l.317-.277c.744-.763.446-.19.744-1.023.285 1.008.248.183-.332 1.25-.387.717-.218-.512-.317.558 2.787 2.939 5.146-.629 5.686-3.469l-1.326 1.021c.055-2.175 1.997-3.178-.456-6.172-.8 1.78-.535 2.726-3.084 3.221-.092-.894.069-.706.552-1.459-1.524-.064-2.881.788-3.412 1.799 2.359.892 3.06-.159 4.086 2.899-1.088.087-.964-.226-1.903.262 0 0-.054.052-.089.052.037-.371-.644-.959 1.628-.495-1.239-4.063-5.716-.803-6.982-3.563 2.361-.332 1.306-.131 3.36-1.026.458-.17.924-.317 1.397-.44l1.383-.605c-1.393-2.61-4.331-2.06-6.737-3.923-1.616-1.25-2.208-1.325-4.25-.379-2.824 1.308-1.816.758-4.549.744 2.998 7.589 8.281 10.18 9.52 11.873-4.237-1.204-11.626-13.305-12.81-16.925-.178-.543-.055-1.62-.032-2.265a9.49 9.49 0 012.054-5.525 24.173 24.173 0 017.567-6.33 19.666 19.666 0 017.584-2.317 29.763 29.763 0 016.028 0c9.341 1.06 16.004 4.286 24.282 8.047 7.163 3.25 16.655 7.465 24.935 9.296 1.021.226 2.022.417 3.001.563 6.744 1.016 12.299 0 14.492-5.075 3.845-8.92-10.04-20.901-19.899-21.06-.627 0-2.019 0-3.057-.037 0 .282.188.287.193.743 11.866-.632 23.167 10.843 20.03 18.905-1.933 4.956-7.228 5.904-14.477 4.324-8.001-1.735-17.476-5.92-24.53-9.106-4.296-1.937-8.404-3.944-12.678-5.51a49.054 49.054 0 00-7.961-2.23c-1.162-.216-2.604-.416-3.325-.681-.721-.266-.513-.694-1.102-1.336-1.67-1.811-5.315-4.168-7.025-2.611 0 .688 1.185 1.025 2.245.941.595-.047.991.31 1.539.386 1.945.278 3.446 2.312 2.772 2.676-1.856.199-3.104.087-4.841.248a24.37 24.37 0 00-8.474 2.297 29.667 29.667 0 00-5.307 3.355c-1.943 1.536-2.879 3.838-3.878 5.996zm6.249 21.308c-.015-.044-.03.144-.072.121l.072-.12z"/></symbol><symbol viewBox="0 0 30 30" id="loop" xmlns="http://www.w3.org/2000/svg"><path d="M29.04 27.295l-6.545-6.546a12.288 12.288 0 002.788-7.807C25.283 6.131 19.745.6 12.94.6 6.131.6.6 6.138.6 12.941c0 6.804 5.538 12.342 12.341 12.342 2.96 0 5.68-1.046 7.808-2.788l6.546 6.546c.236.236.555.365.873.365a1.24 1.24 0 00.873-2.111zM3.07 12.941c0-5.442 4.429-9.864 9.865-9.864 5.443 0 9.865 4.428 9.865 9.864 0 5.437-4.423 9.871-9.865 9.871-5.436 0-9.865-4.428-9.865-9.87z"/></symbol><symbol viewBox="0 0 0 0" id="sprite" xmlns="http://www.w3.org/2000/svg"/><symbol viewBox="0 0 30 30" id="telegram" xmlns="http://www.w3.org/2000/svg"><g clip-path="url(#hclip0)"><path d="M14.92 29.776c8.14 0 14.737-6.598 14.737-14.737C29.657 6.901 23.06.303 14.921.303 6.78.303.184 6.9.184 15.039c0 8.14 6.598 14.737 14.737 14.737z"/><path d="M29.658 15.039c0-.36-.014-.716-.039-1.068l-6.108-6.108-17.18 6.758 6.573 6.574.086.31.112-.112-.112.112 7.272 7.272c5.498-2.14 9.396-7.483 9.396-13.739z"/><path d="M13.49 17.186l6.66 5.028 3.362-14.35L6.33 14.62l5.228 1.732 9.54-6.4-7.61 7.233z"/><path d="M11.559 16.353l1.431 5.152.5-4.32 7.61-7.232-9.541 6.4z"/><path d="M15.654 18.82l-2.664 2.686.5-4.32 2.164 1.634z"/></g><defs><clipPath id="hclip0"><path transform="translate(.184 .302)" d="M0 0h29.474v29.474H0z"/></clipPath></defs></symbol><symbol viewBox="0 0 34 35" id="whatsapp" xmlns="http://www.w3.org/2000/svg"><g clip-path="url(#iclip0)"><path d="M0 34.539l2.287-8.52C.8 23.375 0 20.437 0 17.382 0 8.098 7.432.46 16.522.46c9.09 0 16.636 7.638 16.636 16.922 0 9.283-7.546 17.157-16.636 17.157-2.859 0-5.603-.94-8.061-2.35L0 34.539z"/><path d="M8.918 29.132l.515.294c2.115 1.352 4.573 2.174 7.146 2.174 7.489 0 13.72-6.404 13.72-14.219 0-7.815-6.231-13.984-13.777-13.984-7.547 0-13.664 6.228-13.664 13.984 0 2.703.744 5.347 2.116 7.58l.343.529-1.315 4.935 4.916-1.293z"/><path d="M12.12 9.508l-1.086-.058c-.343 0-.686.117-.915.352-.514.47-1.372 1.352-1.6 2.527-.4 1.763.228 3.878 1.714 5.993 1.487 2.115 4.345 5.523 9.376 6.992 1.6.47 2.859.176 3.888-.47a3.47 3.47 0 001.486-2.233l.171-.822a.597.597 0 00-.285-.647l-3.602-1.704a.536.536 0 00-.686.177l-1.43 1.88a.436.436 0 01-.457.117c-.971-.352-4.23-1.762-6.002-5.288-.058-.176-.058-.352.057-.47l1.372-1.586c.114-.176.171-.412.114-.588l-1.658-3.819c-.057-.176-.228-.353-.457-.353z"/></g><defs><clipPath id="iclip0"><path transform="translate(0 .46)" d="M0 0h33.158v34.079H0z"/></clipPath></defs></symbol></svg>