<svg width="85" height="85" viewBox="0 0 85 85" fill="none" xmlns="http://www.w3.org/2000/svg">
<g filter="url(#filter0_d)">
<path d="M35.2754 7.54911C39.2131 3.43457 45.7869 3.43457 49.7246 7.54911L50.2958 8.1459C52.446 10.3927 55.5191 11.5112 58.6105 11.1722L59.4316 11.0822C65.0928 10.4613 70.1287 14.687 70.5004 20.37L70.5543 21.1943C70.7572 24.2975 72.3924 27.1297 74.9785 28.8571L75.6654 29.316C80.4012 32.4794 81.5427 38.9534 78.1744 43.5457L77.6859 44.2118C75.8466 46.7195 75.2787 49.9402 76.1494 52.9257L76.3807 53.7187C77.9751 59.1861 74.6882 64.8793 69.156 66.2322L68.3536 66.4284C65.3328 67.1671 62.8275 69.2693 61.5754 72.116L61.2428 72.8721C58.9499 78.0853 52.7724 80.3337 47.665 77.8141L46.9242 77.4486C44.1352 76.0727 40.8648 76.0727 38.0758 77.4486L37.335 77.8141C32.2276 80.3337 26.0501 78.0853 23.7572 72.8721L23.4246 72.116C22.1725 69.2693 19.6672 67.1671 16.6464 66.4284L15.844 66.2322C10.3118 64.8793 7.02487 59.1861 8.61933 53.7187L8.85059 52.9257C9.72126 49.9402 9.15337 46.7195 7.31409 44.2118L6.82555 43.5457C3.45729 38.9534 4.59884 32.4794 9.33464 29.316L10.0215 28.8571C12.6076 27.1297 14.2428 24.2975 14.4457 21.1943L14.4996 20.37C14.8713 14.687 19.9072 10.4613 25.5684 11.0822L26.3895 11.1722C29.4809 11.5112 32.554 10.3927 34.7042 8.1459L35.2754 7.54911Z" fill="url(#paint0_linear)"/>
</g>
<path opacity="0.5" d="M35.786 10.7387C39.4454 6.91498 45.5546 6.91498 49.214 10.7387C51.4273 13.0514 54.5905 14.2027 57.7725 13.8538C63.0336 13.2768 67.7136 17.2038 68.059 22.4851C68.2679 25.6794 69.951 28.5947 72.6129 30.3727C77.014 33.3125 78.0748 39.3289 74.9446 43.5967C73.0514 46.178 72.4669 49.4931 73.3631 52.5661C74.8448 57.6471 71.7902 62.9379 66.6491 64.1951C63.5396 64.9556 60.9609 67.1193 59.6721 70.0495C57.5412 74.8942 51.8004 76.9837 47.0539 74.6422C44.1831 73.226 40.8169 73.226 37.9461 74.6422C33.1996 76.9837 27.4588 74.8942 25.3279 70.0495C24.0391 67.1193 21.4604 64.9556 18.3509 64.1951C13.2098 62.9379 10.1552 57.6471 11.6369 52.5661C12.5331 49.4931 11.9486 46.178 10.0554 43.5967C6.92517 39.3289 7.98603 33.3125 12.3871 30.3727C15.049 28.5947 16.7321 25.6794 16.941 22.4851C17.2864 17.2038 21.9664 13.2768 27.2275 13.8538C30.4095 14.2027 33.5727 13.0514 35.786 10.7387Z" stroke="#654A83"/>
<path d="M22.7766 30.328H30.0886V31.976H24.6486V34.312H27.4646C28.542 34.312 29.39 34.6373 30.0086 35.288C30.638 35.928 30.9526 36.7173 30.9526 37.656C30.9526 38.6053 30.638 39.4 30.0086 40.04C29.39 40.68 28.542 41 27.4646 41H22.7766V30.328ZM27.2086 35.96H24.6486V39.352H27.2086C27.742 39.352 28.1793 39.1973 28.5206 38.888C28.862 38.5787 29.0326 38.168 29.0326 37.656C29.0326 37.144 28.862 36.7333 28.5206 36.424C28.1793 36.1147 27.742 35.96 27.2086 35.96ZM32.127 44.024L32.383 42.52C32.575 42.6053 32.7883 42.648 33.023 42.648C33.567 42.648 33.935 42.424 34.127 41.976L34.511 41.096L31.343 33.272H33.135L35.391 39.064L37.647 33.272H39.455L35.727 42.392C35.2683 43.5333 34.383 44.1147 33.071 44.136C32.719 44.136 32.4043 44.0987 32.127 44.024ZM47.7419 41H45.6299L43.2619 37.816L42.1899 38.92V41H40.5099V33.272H42.1899V37L45.5979 33.272H47.6779L44.4619 36.776L47.7419 41ZM52.4216 41.192C51.2483 41.192 50.2776 40.8187 49.5096 40.072C48.7523 39.3147 48.3736 38.3333 48.3736 37.128C48.3736 35.9973 48.7416 35.0427 49.4776 34.264C50.2243 33.4747 51.163 33.08 52.2936 33.08C53.435 33.08 54.3523 33.4747 55.0456 34.264C55.7496 35.0533 56.1016 36.0613 56.1016 37.288V37.688H50.1336C50.1976 38.296 50.4483 38.8027 50.8856 39.208C51.323 39.6133 51.8936 39.816 52.5976 39.816C52.9923 39.816 53.387 39.7413 53.7816 39.592C54.187 39.4427 54.523 39.2347 54.7896 38.968L55.5576 40.072C54.779 40.8187 53.7336 41.192 52.4216 41.192ZM54.4696 36.504C54.4483 35.9707 54.251 35.496 53.8776 35.08C53.515 34.664 52.987 34.456 52.2936 34.456C51.6323 34.456 51.115 34.664 50.7416 35.08C50.3683 35.4853 50.1603 35.96 50.1176 36.504H54.4696ZM60.8479 41H59.1679V34.744H56.9599V33.272H63.0719V34.744H60.8479V41ZM29.1864 58.968V55.608C29.5491 55.5227 29.8211 55.3147 30.0024 54.984C30.1944 54.6427 30.3491 53.992 30.4664 53.032L30.9304 49.272H36.8984V55.528H37.7464V58.968H36.0664V57H30.8664V58.968H29.1864ZM32.4184 50.744L32.1464 53.224C32.0398 54.248 31.6984 55.016 31.1224 55.528H35.2184V50.744H32.4184ZM40.8071 57H39.1271V49.272H40.8071V52.312H44.3591V49.272H46.0391V57H44.3591V53.784H40.8071V57ZM49.8688 57H47.9488L49.8528 54.12C49.3195 54.0027 48.8821 53.736 48.5408 53.32C48.2101 52.904 48.0448 52.376 48.0448 51.736C48.0448 51.0427 48.2688 50.4613 48.7168 49.992C49.1755 49.512 49.8048 49.272 50.6048 49.272H55.0208V57H53.3408V54.2H51.5648L49.8688 57ZM50.8128 52.728H53.3408V50.744H50.8128C50.4928 50.744 50.2368 50.84 50.0448 51.032C49.8528 51.2133 49.7568 51.448 49.7568 51.736C49.7568 52.0347 49.8475 52.2747 50.0288 52.456C50.2208 52.6373 50.4821 52.728 50.8128 52.728Z" fill="#654A83"/>
<defs>
<filter id="filter0_d" x="4.88818" y="4.46289" width="75.2236" height="76.3855" filterUnits="userSpaceOnUse" color-interpolation-filters="sRGB">
<feFlood flood-opacity="0" result="BackgroundImageFix"/>
<feColorMatrix in="SourceAlpha" type="matrix" values="0 0 0 0 0 0 0 0 0 0 0 0 0 0 0 0 0 0 127 0"/>
<feOffset dy="2"/>
<feColorMatrix type="matrix" values="0 0 0 0 0.725 0 0 0 0 0.621242 0 0 0 0 0.220521 0 0 0 1 0"/>
<feBlend mode="normal" in2="BackgroundImageFix" result="effect1_dropShadow"/>
<feBlend mode="normal" in="SourceGraphic" in2="effect1_dropShadow" result="shape"/>
</filter>
<linearGradient id="paint0_linear" x1="42.5" y1="0" x2="42.5" y2="85" gradientUnits="userSpaceOnUse">
<stop stop-color="#FAFD69"/>
<stop offset="1" stop-color="#EFD063"/>
</linearGradient>
</defs>
</svg>
