<svg width="30" height="30" viewBox="0 0 30 30" fill="none" xmlns="http://www.w3.org/2000/svg">
<g clip-path="url(#clip0)">
<path d="M14.9208 29.7761C23.0596 29.7761 29.6574 23.1782 29.6574 15.0394C29.6574 6.90057 23.0596 0.302734 14.9208 0.302734C6.78191 0.302734 0.184082 6.90057 0.184082 15.0394C0.184082 23.1782 6.78191 29.7761 14.9208 29.7761Z" fill="#41B4E6"/>
<path d="M29.6578 15.0385C29.6578 14.6794 29.6443 14.3235 29.6191 13.9708L23.5114 7.86328L6.33057 14.6214L12.9041 21.195L12.9903 21.5054L13.1019 21.3928L13.1024 21.3933L12.9903 21.5054L20.2618 28.7769C25.7605 26.6378 29.6578 21.2935 29.6578 15.0385Z" fill="#0091C8"/>
<path d="M13.4899 17.1855L20.1497 22.2137L23.5115 7.86328L6.33057 14.6214L11.5585 16.3531L21.0996 9.95315L13.4899 17.1855Z" fill="white"/>
<path d="M11.5586 16.3531L12.9904 21.5054L13.4899 17.1855L21.0997 9.95312L11.5586 16.3531Z" fill="#D2D2D7"/>
<path d="M15.6542 18.8197L12.9902 21.5055L13.4897 17.1855L15.6542 18.8197Z" fill="#B9B9BE"/>
</g>
<defs>
<clipPath id="clip0">
<rect width="29.4737" height="29.4737" fill="white" transform="translate(0.184082 0.301758)"/>
</clipPath>
</defs>
</svg>
