<svg xmlns="http://www.w3.org/2000/svg" width="24" height="24" viewBox="0 0 24 24"><g><g><path fill="#fff" d="M24.002 12.001c0 6.628-5.373 12.002-12.001 12.002C5.373 24.003 0 18.629 0 12 0 5.373 5.373 0 12.001 0c6.628 0 12.001 5.373 12.001 12.001zm-11.17 1.453V4.98a.83.83 0 0 0-1.66 0v7.164l-3.419-1.612a.83.83 0 0 0-.708 1.502l4.602 2.17c.005.003.01.003.014.005.04.018.082.031.124.043.015.004.029.01.043.013.046.01.094.013.142.015.01 0 .02.004.03.004a.83.83 0 0 0 .302-.059l.029-.01a.83.83 0 0 0 .124-.068l.029-.02a.796.796 0 0 0 .087-.073l.027-.025a.825.825 0 0 0 .087-.106l.005-.006a.833.833 0 0 0 .062-.11l.005-.014c.013-.028.021-.057.03-.086.009-.025.018-.048.023-.073.005-.023.007-.047.01-.07.004-.032.01-.064.01-.095l.001-.015z"/></g></g></svg>