<svg width="34" height="35" viewBox="0 0 34 35" fill="none" xmlns="http://www.w3.org/2000/svg">
<g clip-path="url(#clip0)">
<path d="M0 34.5389L2.28673 26.0192C0.800388 23.3751 0 20.4373 0 17.3819C0 8.09837 7.43197 0.459961 16.5218 0.459961C25.6116 0.459961 33.1579 8.09837 33.1579 17.3819C33.1579 26.6654 25.6116 34.5389 16.5218 34.5389C13.6633 34.5389 10.9192 33.5988 8.46096 32.1887L0 34.5389Z" fill="#EDEDED"/>
<path d="M8.91826 29.1324L9.43279 29.4262C11.548 30.7776 14.0063 31.6002 16.5789 31.6002C24.068 31.6002 30.2994 25.1957 30.2994 17.3811C30.2994 9.56639 24.068 3.39697 16.5217 3.39697C8.97545 3.39697 2.8584 9.62516 2.8584 17.3811C2.8584 20.0839 3.6016 22.7279 4.97364 24.9607L5.31668 25.4895L4.00183 30.4251L8.91826 29.1324Z" fill="#55CD6C"/>
<path d="M12.12 9.50848L11.0338 9.44971C10.6908 9.44971 10.3478 9.56725 10.1191 9.80228C9.60458 10.2723 8.74707 11.1537 8.5184 12.3288C8.11823 14.0916 8.74707 16.2068 10.2335 18.322C11.7199 20.4372 14.5783 23.8451 19.6091 25.314C21.2098 25.7841 22.4676 25.4903 23.4966 24.844C24.297 24.3152 24.8115 23.4926 24.983 22.6112L25.1545 21.7886C25.2117 21.5536 25.0973 21.2598 24.8687 21.1423L21.267 19.4384C21.0384 19.3208 20.7525 19.3796 20.581 19.6146L19.1518 21.4948C19.0374 21.6124 18.8659 21.6711 18.6944 21.6124C17.7226 21.2598 14.464 19.8496 12.6917 16.3243C12.6345 16.148 12.6345 15.9717 12.7489 15.8542L14.1209 14.2678C14.2353 14.0916 14.2924 13.8565 14.2353 13.6802L12.5774 9.86105C12.5201 9.68473 12.3487 9.50848 12.12 9.50848Z" fill="#FEFEFE"/>
</g>
<defs>
<clipPath id="clip0">
<rect width="33.1579" height="34.0789" fill="white" transform="translate(0 0.459961)"/>
</clipPath>
</defs>
</svg>
