<svg width="47" height="44" viewBox="0 0 47 44" fill="none" xmlns="http://www.w3.org/2000/svg">
<path d="M45.5969 13.0498L23.8294 0.177928C23.4296 -0.0593095 22.9319 -0.0593095 22.5322 0.177928L0.763796 13.0498C0.158268 13.4081 -0.0423909 14.1895 0.315818 14.7949C0.676236 15.4039 1.45928 15.5989 2.06097 15.2429L2.50482 14.9803V42.0424C2.50482 42.6287 2.98006 43.1041 3.56649 43.1041H42.7943C43.3807 43.1041 43.8559 42.6287 43.8559 42.0424V14.9803L44.2997 15.2428C44.9076 15.6011 45.6857 15.4012 46.0448 14.7948C46.4031 14.1895 46.2024 13.4081 45.5969 13.0498ZM22.3314 3.25626V11.8106H7.86519L22.3314 3.25626ZM8.48992 40.9807H4.62806V32.766H8.48992V40.9807ZM8.48992 31.4922H4.62806V23.4235H8.48992V31.4922ZM8.48992 22.1495H4.62806V13.934H8.48992V22.1495ZM14.0504 40.9807H9.76386V32.766H14.0504V40.9807ZM14.0504 31.4922H9.76386V23.4235H14.0504V31.4922ZM14.0504 21.16V22.1495H9.76386V13.934H14.0504V21.16ZM22.5323 40.9807H15.3245V21.7969H22.5323V40.9807ZM22.5438 20.5229H15.3244V13.934H22.5438V20.5229ZM24.0301 3.25626L38.4958 11.8106H24.0301V3.25626ZM31.037 40.9807H23.8177V21.7969H31.037V40.9807ZM31.037 20.5229H23.8177V13.934H31.037V20.5229ZM36.5967 40.9807H32.3111V32.766H36.5967V40.9807ZM36.5967 31.4922H32.3111V23.4235H36.5967V31.4922ZM36.5967 22.1495H32.3111V21.16V13.934H36.5967V22.1495ZM41.7326 40.9807H37.8708V32.766H41.7326V40.9807ZM41.7326 31.4922H37.8708V23.4235H41.7326V31.4922ZM41.7326 22.1495H37.8708V13.934H41.7326V22.1495Z" fill="url(#paint0_linear)"/>
<defs>
<linearGradient id="paint0_linear" x1="0.138183" y1="21.1605" x2="46.2225" y2="21.1605" gradientUnits="userSpaceOnUse">
<stop stop-color="#FE5B3A"/>
<stop offset="1" stop-color="#8F43FE"/>
</linearGradient>
</defs>
</svg>
