<svg width="57" height="30" viewBox="0 0 57 30" fill="none" xmlns="http://www.w3.org/2000/svg">
<path d="M56.9752 13.9897L50.7823 3.43234H38.0681V0H7.3015V3.42629H2.73729V5.24234H7.3015V9.84302H5.3693V11.6591H7.3015V15.4788H0V17.2949H7.3015V25.0252H13.7793C13.985 26.407 14.6927 27.6702 15.7731 28.5837C16.8534 29.4972 18.2342 30 19.6626 30C21.0911 30 22.4719 29.4972 23.5522 28.5837C24.6326 27.6702 25.3403 26.407 25.546 25.0252H40.0499C40.2555 26.407 40.9633 27.6702 42.0436 28.5837C43.124 29.4972 44.5047 30 45.9332 30C47.3617 30 48.7424 29.4972 49.8228 28.5837C50.9031 27.6702 51.6108 26.407 51.8165 25.0252H57L56.9752 13.9897ZM54.4423 13.3177H42.8429V8.19041H51.4387L54.4423 13.3177ZM19.675 28.1246C18.8654 28.1246 18.074 27.89 17.4008 27.4503C16.7276 27.0106 16.2029 26.3857 15.8931 25.6545C15.5833 24.9234 15.5022 24.1188 15.6601 23.3426C15.8181 22.5664 16.208 21.8535 16.7805 21.2939C17.353 20.7343 18.0824 20.3532 18.8764 20.1988C19.6705 20.0444 20.4936 20.1236 21.2416 20.4265C21.9896 20.7293 22.6289 21.2422 23.0787 21.9002C23.5285 22.5582 23.7686 23.3319 23.7686 24.1233C23.7669 25.184 23.3351 26.2008 22.5678 26.9509C21.8005 27.7009 20.7602 28.123 19.675 28.1246ZM25.546 23.2092C25.3403 21.8274 24.6326 20.5642 23.5522 19.6507C22.4719 18.7372 21.0911 18.2344 19.6626 18.2344C18.2342 18.2344 16.8534 18.7372 15.7731 19.6507C14.6927 20.5642 13.985 21.8274 13.7793 23.2092H9.13461V21.2236H11.0544V19.4076H9.15939V17.3009H24.2578V15.4849H9.15939V11.6651H17.7243V9.84907H9.15939V5.2484H13.6864V3.43234H9.15939V1.81605H36.2102V3.42629H25.2177V5.24234H36.2102V15.4849H31.0515V17.3009H36.2102V23.2092H25.546ZM45.9208 28.1246C45.1112 28.1246 44.3197 27.89 43.6465 27.4503C42.9734 27.0106 42.4487 26.3857 42.1389 25.6545C41.829 24.9234 41.748 24.1188 41.9059 23.3426C42.0639 22.5664 42.4537 21.8535 43.0262 21.2939C43.5987 20.7343 44.3281 20.3532 45.1222 20.1988C45.9163 20.0444 46.7393 20.1236 47.4873 20.4265C48.2353 20.7293 48.8746 21.2422 49.3245 21.9002C49.7743 22.5582 50.0143 23.3319 50.0143 24.1233C50.0127 25.184 49.5809 26.2008 48.8136 26.9509C48.0462 27.7009 47.006 28.123 45.9208 28.1246ZM51.7917 23.2092C51.5861 21.8274 50.8783 20.5642 49.798 19.6507C48.7176 18.7372 47.3369 18.2344 45.9084 18.2344C44.4799 18.2344 43.0992 18.7372 42.0188 19.6507C40.9385 20.5642 40.2307 21.8274 40.0251 23.2092H38.0434V5.24234H49.6985L50.3797 6.37435H40.985V15.1338H55.1173V19.4076H53.2223V21.2236H55.1173V23.2031L51.7917 23.2092Z" fill="url(#paint0_linear)"/>
<defs>
<linearGradient id="paint0_linear" x1="-3.27039e-07" y1="14.7275" x2="57" y2="14.7275" gradientUnits="userSpaceOnUse">
<stop stop-color="#FE5B3A"/>
<stop offset="1" stop-color="#8F43FE"/>
</linearGradient>
</defs>
</svg>
