<svg width="119" height="119" viewBox="0 0 119 119" fill="none" xmlns="http://www.w3.org/2000/svg">
<g filter="url(#filter0_d)">
<path d="M49.3855 10.5688C54.8983 4.8084 64.1017 4.8084 69.6145 10.5688L70.4141 11.4043C73.4244 14.5498 77.7268 16.1157 82.0547 15.6411L83.2043 15.515C91.13 14.6459 98.1802 20.5617 98.7005 28.518L98.776 29.6719C99.0601 34.0165 101.349 37.9816 104.97 40.4L105.932 41.0424C112.562 45.4711 114.16 54.5347 109.444 60.964L108.76 61.8965C106.185 65.4073 105.39 69.9163 106.609 74.096L106.933 75.2062C109.165 82.8606 104.563 90.831 96.8185 92.725L95.6951 92.9997C91.4659 94.034 87.9585 96.977 86.2056 100.962L85.74 102.021C82.5298 109.319 73.8814 112.467 66.731 108.94L65.6938 108.428C61.7893 106.502 57.2107 106.502 53.3062 108.428L52.269 108.94C45.1186 112.467 36.4702 109.319 33.26 102.021L32.7944 100.962C31.0415 96.977 27.5341 94.034 23.3049 92.9997L22.1815 92.725C14.4366 90.831 9.83482 82.8606 12.0671 75.2062L12.3908 74.096C13.6098 69.9163 12.8147 65.4073 10.2397 61.8965L9.55577 60.964C4.84021 54.5347 6.43837 45.4711 13.0685 41.0424L14.0301 40.4C17.6506 37.9816 19.9399 34.0165 20.224 29.672L20.2995 28.518C20.8198 20.5617 27.87 14.6459 35.7957 15.515L36.9453 15.6411C41.2732 16.1157 45.5756 14.5498 48.5859 11.4043L49.3855 10.5688Z" fill="url(#paint0_linear)"/>
</g>
<path opacity="0.5" d="M49.9561 14.8961C55.158 9.4606 63.8424 9.4606 69.0443 14.8961C72.0999 18.0889 76.4669 19.6784 80.8599 19.1967C88.3387 18.3765 94.9914 23.9588 95.4824 31.4663C95.7708 35.8762 98.0944 39.9009 101.769 42.3557C108.026 46.5347 109.534 55.0872 105.084 61.1539C102.47 64.7175 101.663 69.2942 102.901 73.5368C105.007 80.7595 100.665 88.2805 93.3564 90.0677C89.0636 91.1175 85.5035 94.1047 83.7242 98.1501C80.6951 105.037 72.5344 108.007 65.7872 104.679C61.8239 102.723 57.1765 102.723 53.2132 104.679C46.466 108.007 38.3053 105.037 35.2762 98.1501C33.4969 94.1047 29.9368 91.1175 25.644 90.0677C18.3357 88.2805 13.9935 80.7595 16.0999 73.5368C17.3371 69.2942 16.5301 64.7175 13.9164 61.1539C9.46679 55.0872 10.9748 46.5347 17.2311 42.3557C20.906 39.9009 23.2296 35.8762 23.518 31.4663C24.009 23.9588 30.6617 18.3765 38.1405 19.1967C42.5334 19.6784 46.9005 18.0889 49.9561 14.8961Z" stroke="#654A83"/>
<path d="M33.547 42.5262H43.601V44.7922H36.121V48.0042H39.993C41.4743 48.0042 42.6403 48.4515 43.491 49.3462C44.3563 50.2262 44.789 51.3115 44.789 52.6022C44.789 53.9075 44.3563 55.0002 43.491 55.8802C42.6403 56.7602 41.4743 57.2002 39.993 57.2002H33.547V42.5262ZM39.641 50.2702H36.121V54.9342H39.641C40.3743 54.9342 40.9756 54.7215 41.445 54.2962C41.9143 53.8709 42.149 53.3062 42.149 52.6022C42.149 51.8982 41.9143 51.3335 41.445 50.9082C40.9756 50.4829 40.3743 50.2702 39.641 50.2702ZM46.4037 61.3582L46.7557 59.2902C47.0197 59.4075 47.3131 59.4662 47.6357 59.4662C48.3837 59.4662 48.8897 59.1582 49.1537 58.5422L49.6817 57.3322L45.3257 46.5742H47.7897L50.8917 54.5382L53.9937 46.5742H56.4797L51.3537 59.1142C50.7231 60.6835 49.5057 61.4829 47.7017 61.5122C47.2177 61.5122 46.7851 61.4609 46.4037 61.3582ZM67.8742 57.2002H64.9702L61.7142 52.8222L60.2402 54.3402V57.2002H57.9302V46.5742H60.2402V51.7002L64.9262 46.5742H67.7862L63.3642 51.3922L67.8742 57.2002ZM74.3088 57.4642C72.6955 57.4642 71.3608 56.9509 70.3048 55.9242C69.2635 54.8829 68.7428 53.5335 68.7428 51.8762C68.7428 50.3215 69.2488 49.0089 70.2608 47.9382C71.2875 46.8529 72.5782 46.3102 74.1328 46.3102C75.7022 46.3102 76.9635 46.8529 77.9168 47.9382C78.8848 49.0235 79.3688 50.4095 79.3688 52.0962V52.6462H71.1628C71.2508 53.4822 71.5955 54.1789 72.1968 54.7362C72.7982 55.2935 73.5828 55.5722 74.5508 55.5722C75.0935 55.5722 75.6362 55.4695 76.1788 55.2642C76.7362 55.0589 77.1982 54.7729 77.5648 54.4062L78.6208 55.9242C77.5502 56.9509 76.1128 57.4642 74.3088 57.4642ZM77.1248 51.0182C77.0955 50.2849 76.8242 49.6322 76.3108 49.0602C75.8122 48.4882 75.0862 48.2022 74.1328 48.2022C73.2235 48.2022 72.5122 48.4882 71.9988 49.0602C71.4855 49.6175 71.1995 50.2702 71.1408 51.0182H77.1248ZM85.8949 57.2002H83.5849V48.5982H80.5489V46.5742H88.9529V48.5982H85.8949V57.2002ZM42.3605 81.9062V77.2862C42.8591 77.1689 43.2331 76.8829 43.4825 76.4282C43.7465 75.9589 43.9591 75.0642 44.1205 73.7442L44.7585 68.5742H52.9645V77.1762H54.1305V81.9062H51.8205V79.2002H44.6705V81.9062H42.3605ZM46.8045 70.5982L46.4305 74.0082C46.2838 75.4162 45.8145 76.4722 45.0225 77.1762H50.6545V70.5982H46.8045ZM58.3388 79.2002H56.0288V68.5742H58.3388V72.7542H63.2228V68.5742H65.5328V79.2002H63.2228V74.7782H58.3388V79.2002ZM70.7987 79.2002H68.1587L70.7767 75.2402C70.0434 75.0789 69.4421 74.7122 68.9727 74.1402C68.5181 73.5682 68.2907 72.8422 68.2907 71.9622C68.2907 71.0089 68.5987 70.2095 69.2147 69.5642C69.8454 68.9042 70.7107 68.5742 71.8107 68.5742H77.8827V79.2002H75.5727V75.3502H73.1307L70.7987 79.2002ZM72.0967 73.3262H75.5727V70.5982H72.0967C71.6567 70.5982 71.3047 70.7302 71.0407 70.9942C70.7767 71.2435 70.6447 71.5662 70.6447 71.9622C70.6447 72.3729 70.7694 72.7029 71.0187 72.9522C71.2827 73.2015 71.6421 73.3262 72.0967 73.3262Z" fill="#654A83"/>
<defs>
<filter id="filter0_d" x="6.84351" y="6.24854" width="105.313" height="106.94" filterUnits="userSpaceOnUse" color-interpolation-filters="sRGB">
<feFlood flood-opacity="0" result="BackgroundImageFix"/>
<feColorMatrix in="SourceAlpha" type="matrix" values="0 0 0 0 0 0 0 0 0 0 0 0 0 0 0 0 0 0 127 0"/>
<feOffset dy="2.8"/>
<feColorMatrix type="matrix" values="0 0 0 0 0.725 0 0 0 0 0.621242 0 0 0 0 0.220521 0 0 0 1 0"/>
<feBlend mode="normal" in2="BackgroundImageFix" result="effect1_dropShadow"/>
<feBlend mode="normal" in="SourceGraphic" in2="effect1_dropShadow" result="shape"/>
</filter>
<linearGradient id="paint0_linear" x1="59.5" y1="0" x2="59.5" y2="119" gradientUnits="userSpaceOnUse">
<stop stop-color="#FAFD69"/>
<stop offset="1" stop-color="#EFD063"/>
</linearGradient>
</defs>
</svg>
