<svg xmlns="http://www.w3.org/2000/svg" width="66" height="61" viewBox="0 0 66 61"><defs><linearGradient id="7xsva" x1=".74" x2="66.1" y1="29.97" y2="29.97" gradientUnits="userSpaceOnUse"><stop offset="0" stop-color="#fe5b3a"/><stop offset="1" stop-color="#8f43fe"/></linearGradient></defs><g><g><path fill="url(#7xsva)" d="M65.209 18.467a1.807 1.807 0 0 1-1.84 3.11l-.63-.372v38.379c0 .831-.673 1.505-1.505 1.505H5.602a1.506 1.506 0 0 1-1.506-1.505v-38.38l-.63.373a1.807 1.807 0 0 1-1.839-3.11L32.5.212a1.803 1.803 0 0 1 1.84 0zm-53.51-1.758h20.515V4.578zm.885 29.72H7.107v11.65h5.477zm0-13.25H7.107v11.443h5.477zm0-13.458H7.107v11.651h5.477zm7.886 26.707h-6.079v11.65h6.079zm0-13.25h-6.079v11.444h6.079zm0-13.457h-6.079v11.651h6.079zm12.029 11.151H22.277v27.206h10.222zm.016-11.151H22.277v9.344h10.238zm2.108-3.012h20.515L34.623 4.578zm9.937 14.163H34.322v27.206H44.56zm0-11.151H34.322v9.344H44.56zm7.885 26.707h-6.078v11.65h6.078zm0-13.25h-6.078v11.444h6.078zm0-13.457h-6.078v11.651h6.078zm7.283 26.707h-5.476v11.65h5.476zm0-13.25h-5.476v11.444h5.476zm0-13.457h-5.476v11.651h5.476z"/></g></g></svg>