<svg xmlns="http://www.w3.org/2000/svg" width="82" height="43" viewBox="0 0 82 43"><defs><linearGradient id="7xb3a" x1=".45" x2="81.29" y1="20.78" y2="20.78" gradientUnits="userSpaceOnUse"><stop offset="0" stop-color="#fe5b3a"/><stop offset="1" stop-color="#8f43fe"/></linearGradient></defs><g><g><path fill="url(#7xb3a)" d="M81.286 35.38h-7.35a8.192 8.192 0 0 1-2.828 5.047 8.546 8.546 0 0 1-5.516 2.008 8.546 8.546 0 0 1-5.516-2.008 8.192 8.192 0 0 1-2.828-5.047h-20.57a8.192 8.192 0 0 1-2.827 5.047 8.546 8.546 0 0 1-5.516 2.008 8.546 8.546 0 0 1-5.516-2.008 8.192 8.192 0 0 1-2.827-5.047h-9.187V24.417H.45v-2.575h10.355v-5.417h-2.74v-2.576h2.74V7.325H4.332V4.749h6.473V-.11h43.632v4.868h18.031l8.783 14.972zM73.4 11.505H61.209v7.272h16.45zM32.455 38.111a5.62 5.62 0 0 0 1.703-4.01c0-1.122-.34-2.22-.978-3.153a5.779 5.779 0 0 0-2.606-2.09 5.93 5.93 0 0 0-3.354-.323 5.849 5.849 0 0 0-2.972 1.554 5.636 5.636 0 0 0-1.59 2.905 5.556 5.556 0 0 0 .331 3.279 5.704 5.704 0 0 0 2.139 2.547 5.901 5.901 0 0 0 7.327-.709zm19.348-5.306v-8.38h-7.316V21.85h7.316V7.325h-15.59V4.749h15.59V2.466H13.44v2.292h6.42v2.575h-6.42v6.525h12.146v2.575H13.44v5.417h21.412v2.576H13.44v2.988h2.687v2.575h-2.722v2.816h6.587a8.193 8.193 0 0 1 2.827-5.047 8.546 8.546 0 0 1 5.516-2.008c2.026 0 3.984.713 5.516 2.008a8.192 8.192 0 0 1 2.828 5.047zm17.874 5.306a5.62 5.62 0 0 0 1.702-4.01c0-1.122-.34-2.22-.978-3.153a5.779 5.779 0 0 0-2.605-2.09 5.93 5.93 0 0 0-3.354-.323 5.848 5.848 0 0 0-2.973 1.554 5.636 5.636 0 0 0-1.589 2.905 5.556 5.556 0 0 0 .33 3.279 5.704 5.704 0 0 0 2.139 2.547 5.901 5.901 0 0 0 7.328-.709zm8.94-5.315V29.99h-2.688v-2.575h2.687v-6.062H58.574V8.93h13.324l-.966-1.605h-16.53v25.48h2.81a8.192 8.192 0 0 1 2.828-5.047 8.546 8.546 0 0 1 5.516-2.008c2.026 0 3.984.713 5.517 2.008a8.193 8.193 0 0 1 2.827 5.047z"/></g></g></svg>