<svg xmlns="http://www.w3.org/2000/svg" width="66" height="78" viewBox="0 0 66 78"><defs><linearGradient id="g6yya" x1=".11" x2="65.38" y1="38.46" y2="38.46" gradientUnits="userSpaceOnUse"><stop offset="0" stop-color="#fe5b3a"/><stop offset="1" stop-color="#8f43fe"/></linearGradient></defs><g><g><path d="M7.595 4.38c3.025 0 5.973.544 8.843 1.707.232.078.388.156.62.233 1.009.388 1.396.155 1.396-.93 0-.544-.077-1.087-.155-1.63-.077-.388-.232-.853-.31-1.24-.078-.466 0-.932.31-1.32.155-.232.388-.387.62-.31.311 0 .466.233.544.466.077.077.077.232.077.387.233 1.474 1.164 2.483 2.017 3.646l.078.078c.465.465.853.543 1.396.233.155-.078.388-.233.543-.31a9.866 9.866 0 0 1 4.654-1.63c.155 0 .31 0 .466-.077 1.396-.31 2.56 0 3.8.698 1.474.93 2.793 2.094 3.724 3.646.62 1.008 1.008 1.24 2.094.387 1.164-.93 2.56-1.55 3.956-1.939 3.258-.775 6.05.078 8.223 2.715.388.466.698 1.009.776 1.707 0 .31.155.62.232 1.008.078.233.388.31.62.233.234-.155.466-.233.621-.466 2.638-2.404 5.896-3.645 9.309-4.344.698-.155 1.396-.155 2.172-.232.232 0 .543 0 .775.155.156-.078.388.077.388.233 0 .155-.155.387-.31.543-.388.232-.776.387-1.163.543-1.63.775-3.103 1.784-4.5 2.87-.465.388-.853.853-1.24 1.24-.156.156-.233.389-.078.544.077.077.31.155.465.077.31-.077.543-.155.853-.232.854-.31 1.63-.62 2.483-.931.31-.078.62-.233 1.008-.233.155 0 .466.155.543.31.078.156.078.466-.077.543-.233.31-.466.543-.776.854-1.241 1.24-2.405 2.482-3.646 3.723l-.698.93c-.233.389-.233.777.077 1.164.078.078.156.233.233.31 1.474 1.475 1.63 3.259 1.241 5.198a10.33 10.33 0 0 1-.388 1.474c-.31.93-.698 1.861-.93 2.792-.156.543-.466 1.086-.854 1.552-.775 1.086-1.629 2.094-2.404 3.102-1.552 1.862-3.103 3.724-4.577 5.586-2.948 3.723-5.352 7.834-7.757 11.945l-2.56 4.655c-1.008 1.784-.93 1.861.155 3.568 1.242 1.784 2.172 3.646 2.56 5.74.078.388.078.776.078 1.163 0 .543-.233.776-.776.854h-.155c-.931.232-1.086.62-.543 1.396.388.543.776 1.008 1.086 1.551.233.466.465.931.62 1.397.156.465-.077.93-.31 1.008-.388.078-.62-.155-.853-.465l-1.63-2.328c-.232-.31-.387-.543-.62-.775a.94.94 0 0 0-1.163-.155c-.31.232-.388.543-.233 1.008.078.31.233.543.388.776.465 1.008.776 2.017 1.086 3.103.078.387.155.853-.078 1.24-.155.233-.465.311-.62.156-.233-.233-.466-.543-.543-.853-.233-.543-.388-1.164-.62-1.707-.311-.776-.621-1.474-.932-2.25-.31-.62-.853-.93-1.551-.853-.543.078-1.008.078-1.551.155-.466.078-.776.31-.776.854v.775c.078 1.319.078 2.715.078 4.034 0 .465-.078.93-.156 1.396 0 .155-.077.31-.155.466-.077.077-.232.155-.31.155-.155 0-.388-.078-.388-.233-.155-.543-.31-1.086-.31-1.629-.078-1.241 0-2.482-.078-3.723 0-.466-.077-.931-.077-1.397 0-.232-.155-.387-.233-.543-.155-.232-.543-.232-.62 0-.078.388-.233.699-.233 1.086 0 1.009-.155 1.94-.466 2.87-.077.388-.31.699-.465 1.009-.155.233-.543.155-.62-.078-.078-.31-.156-.698-.156-1.008.078-.62.155-1.164.233-1.784.077-.698.155-1.319.077-2.017-.077-.853-1.086-1.551-1.861-1.319-.233.078-.388.31-.543.466-.155.232-.155.543-.233.853-.233.776-.388 1.551-.62 2.327-.233.62-.621.931-1.009.776-.465-.233-.388-.698-.388-1.086.078-.776.233-1.63.388-2.405.388-2.094.078-2.017-1.241-2.87a15.063 15.063 0 0 1-2.25-1.629c-.698-.62-.775-.93-.387-1.784.387-.853.93-1.707 1.396-2.56.31-.543.62-1.008.93-1.474.544-.775.544-1.551 0-2.327-2.171-3.413-3.878-7.059-5.662-10.704-2.637-5.508-5.74-10.783-9.153-15.825a4.18 4.18 0 0 1-.543-1.008c-.233-.543-.543-.93-1.009-1.241a9.869 9.869 0 0 1-1.473-1.009 7.932 7.932 0 0 0-3.491-1.551c-.31-.078-.698-.078-1.009-.233-.31-.155-.698-.31-.93-.62-.466-.466-.31-1.164.31-1.474.31-.155.62-.233 1.008-.31 1.319-.233 2.638-.388 3.956-.31h.543c.931.077 1.241-.389 1.32-1.164 0-.31.077-.62.077-.854 0-1.55.387-3.025.853-4.499.698-2.094 2.094-3.645 4.111-4.576.388-.155.853-.388 1.241-.543.31-.155.388-.543.155-.853l-.543-.543C10.465 7.484 7.284 6.087 3.64 5.7c-.31 0-.621-.078-.776-.388-.078-.233.077-.62.465-.776.31-.155.698-.31 1.086-.31 1.164.31 2.172.232 3.18.155zM30.4 60.232c1.63 0 2.56-.155 3.724-.62 1.008-.388 1.939-.854 2.87-1.319 1.086-.543 1.784-1.396 2.25-2.482 2.249-4.965 5.119-9.541 8.144-14.04 1.784-2.638 3.879-5.12 5.973-7.602.31-.388.698-.776 1.008-1.164.156-.232.233-.465.388-.62.078-.155-.077-.466-.31-.466h-1.008c-2.172.233-4.267.543-6.361 1.164-1.784.465-3.49.93-5.352 1.163-1.086.155-2.095.233-3.103.466-2.017.465-4.034.543-6.05.388-2.018-.233-3.957-.466-5.974-.621-2.25-.155-4.499-.155-6.748-.155-.62 0-1.164-.078-1.707-.388a2.615 2.615 0 0 0-1.318-.388c-1.242-.077-2.405-.465-3.569-1.008-.31-.155-.62-.233-.93-.31-.31-.078-.621.232-.466.543.233.465.465.93.698 1.318 2.87 4.654 5.663 9.309 8.067 14.273.31.62.621 1.241.931 1.784 1.164 2.25 2.405 4.5 3.336 6.904.233.62.62 1.086 1.163 1.474 1.319 1.163 2.87 1.861 4.344 1.706zm3.18 8.145c1.474.078 2.948-.077 4.422-.62.853-.31 1.63-.699 2.482-1.086.233-.078.466-.233.698-.388.466-.31.621-.698.466-1.241-.078-.31-.155-.543-.233-.854-.465-1.396-1.163-2.637-1.862-3.878-.542-1.009-1.008-1.474-2.327-.543-.93.62-1.861 1.163-2.947 1.396-2.638.776-5.275.93-7.68-.776-.077-.077-.155-.077-.232-.155-.621-.31-1.009-.31-1.397.31-.62.931-1.24 1.94-1.861 2.87-.466.699-.31 1.087.387 1.63.156.077.31.155.388.31 2.87 1.94 6.128 3.103 9.697 3.025zM9.225 22.765v2.56c-.078 1.163.31 2.172 1.008 3.102.543.699 1.164 1.397 1.94 1.785.93.465 1.783.93 2.792 1.318 1.474.62 3.103.543 4.654.155.233-.077.465-.155.698-.31.233-.155.31-.543.078-.698a4.98 4.98 0 0 0-1.009-.776c-2.792-1.861-4.964-4.344-6.748-7.136-1.009-1.629-1.63-3.413-1.552-5.43 0-.31 0-.698-.077-1.008 0-.156-.155-.31-.31-.388-.156 0-.388.077-.466.155a1.85 1.85 0 0 0-.465.853c-.156.543-.233 1.086-.31 1.63-.311 1.473-.156 2.947-.233 4.188zm26.373 10.627c4.887 0 8.145-4.189 8.223-8.3 0-.543-.155-1.086-.388-1.551-.465-1.086-1.319-1.862-2.094-2.715-.155-.155-.543-.31-.776-.31-.388.077-.388.465-.465.775 0 .155 0 .31-.078.543-.155.698-.233 1.396-.465 2.094-.31 1.009-.699 2.017-1.087 3.026-.077.31-.232.543-.387.775-1.009 1.474-2.017 3.026-3.336 4.344-.155.155-.233.233-.31.388-.388.543-.233.931.465 1.009.233 0 .466-.078.698-.078zm.621-21.332c0-.62-.078-1.163-.388-1.706-.233-.466-.698-.543-1.008-.155-.233.232-.31.465-.543.698-.466.62-.854 1.24-1.397 1.784-1.396 1.396-3.025 2.327-5.042 2.404-.232 0-.465.078-.698.156-.232.077-.388.31-.31.62 0 .155.078.233.155.388.466.853.853 1.707 1.086 2.715 0 .078.078.155.078.233.155.31.465.388.775.31.156-.078.233-.078.31-.155 1.475-1.086 3.026-1.862 4.732-2.482.699-.233 1.164-.699 1.474-1.32.466-1.163.698-2.326.776-3.49zm10.627 12.567c.078.698.155 1.318.31 2.016.155 1.009.698 1.784 1.63 2.327a9.426 9.426 0 0 0 2.56 1.087c.775.155 1.628.077 2.404-.078.077 0 .155-.078.233-.078.543-.232.62-.775.155-1.086-.233-.155-.466-.31-.776-.465-1.784-1.008-2.948-2.482-3.568-4.421-.233-.854-.543-1.785-.776-2.638-.155-.543-.62-.62-.93-.155-.156.233-.389.465-.466.698-.62.776-.853 1.707-.776 2.793zm-21.254-5.585c-.078-.078-.078-.31-.155-.31-.155 0-.388 0-.543.154-.388.31-.698.699-1.086 1.009-1.009.93-2.25 1.318-3.646 1.086a6.55 6.55 0 0 1-1.319-.388c-.31-.078-.62-.31-.93-.388-.466-.155-.854.078-.854.62.078 1.242.388 2.483.931 3.646.31.621.776.776 1.474.621 2.327-.62 4.189-1.94 5.507-4.034.31-.62.543-1.24.62-2.016zm.776 5.43c0-.233-.078-.699-.156-1.164-.077-.31-.465-.465-.698-.233-.232.233-.543.466-.775.698-1.242 1.241-2.638 2.095-4.344 2.56-.388.078-.698.233-1.086.388-.466.233-.62.62-.155 1.008 1.008.931 2.171 1.63 3.49 1.94.853.155 1.552-.156 2.095-.776 1.086-1.319 1.629-2.715 1.629-4.422zM15.739 13.998c.078-.465-.31-.853-.775-.698-.543.155-1.009.388-1.552.62-.62.311-.93.777-1.008 1.475v1.551c-.078 2.56 1.008 4.654 2.637 6.516.155.233.388.543.698.388.388-.155.233-.466.233-.776 0-.155-.077-.31-.077-.465-.156-1.319-.388-2.56-.31-3.879.154-1.629.154-3.18.154-4.732zm36.769 2.87h.62c.62.078 1.086-.155 1.319-.775.077-.155.077-.233.155-.388.543-1.319 1.319-2.482 2.327-3.413.62-.62 1.319-1.241 1.94-1.862.232-.232.387-.465.62-.62.078-.155 0-.388-.155-.388-.233 0-.543 0-.776.077-2.792.931-5.042 2.56-6.904 4.81-.387.465-.543 1.008-.698 1.629-.077.543.155.853.62.853.311.078.621.078.932.078zM11.473 6.088c-.62 0-.93.078-.853.233.077.233.31.388.465.543l.466.233c1.706.93 3.335 2.017 4.732 3.413.387.388.853.62 1.473.698.698.078 1.397.233 2.095.31.155 0 .232.078.388.078.62.077.93-.466.62-1.009a2.359 2.359 0 0 0-.388-.543c-.31-.31-.698-.62-1.086-.93-2.172-1.63-4.654-2.483-7.291-3.103-.233.077-.466.077-.62.077zM26.832 14c.62-.077 1.164-.077 1.784-.232.31-.078.62-.233.853-.466.155-.077.155-.388-.077-.388-.388-.155-.776-.31-1.164-.387-1.396-.31-2.482-1.164-3.18-2.327-.31-.466-.543-1.086-.853-1.552-.155-.233-.31-.543-.466-.776-.155-.155-.388-.232-.543 0-.155.156-.388.388-.465.621-.388.776-.388 1.551-.31 2.327.155.931.543 1.63 1.318 2.25.931.698 1.94.93 3.103.93zm9.076 7.68c0-1.396-1.319-2.405-2.405-1.862-1.474.698-2.405 1.784-3.025 3.258a2.788 2.788 0 0 0-.155.853c0 1.474 1.24 2.172 2.56 1.474.077-.077.155-.077.232-.155.931-.776 1.784-1.551 2.405-2.56.233-.388.31-.775.388-1.008zm-18.772-6.05c.077.465.077.93.155 1.318.155.854.62 1.474 1.396 1.862.31.155.698.31 1.086.388 1.707.543 3.568-.62 3.956-2.405v-.155a.334.334 0 0 0-.31-.31c-.233.155-.543.232-.776.387-1.862 1.242-3.878-.31-3.723-2.094v-.853c0-.31-.155-.466-.388-.543-.31-.078-.543.077-.698.232-.155.233-.388.466-.465.776-.156.543-.156 1.009-.233 1.396zm10.627 12.643c0 .156.077.388.155.621a7.102 7.102 0 0 0 1.862 2.715c.387.31.853.62 1.24.853.311.155.621.233 1.01.078.93-.466 1.628-1.164 2.171-2.095.155-.232 0-.62-.31-.698-.155-.077-.233-.077-.388-.077-1.474-.156-2.793-.854-4.111-1.552l-.931-.465c-.31-.233-.698.077-.698.62zm25.986-4.499c1.086.078 2.172-.31 3.18-.853.233-.078.388-.31.62-.465.156-.233.234-.466.078-.698-.155-.233-.388-.388-.62-.31-.31 0-.543.154-.853.232-.544.233-1.009.31-1.63.31-1.24-.077-1.861-.465-2.171-1.706-.156-.31-.156-.62-.31-.854-.156-.465-.544-.62-1.01-.465-.542.155-.852.465-.852 1.086 0 .233 0 .543.077.776.388 2.016.931 2.947 3.49 2.947zm-9.852-3.49c.233-.078.388 0 .543-.078 1.784-.776 3.413-1.784 4.422-3.568.155-.31.31-.62.388-.93.077-.156 0-.466-.078-.544-.155-.155-.388-.078-.543.078-.155.077-.31.232-.388.31-1.474 1.319-3.18 2.25-5.12 2.637-.465-.077-1.008-.077-1.085.466-.078.465.31.698.543.93.155.156.388.31.62.466l.698.233zm-2.172-9.386c-.077-.543-.155-1.164-.31-1.784-.155-.466-.543-.699-1.008-.543-1.009.31-1.94.93-2.482 1.784-.466.698-.388 1.861.155 2.327.465.388 1.008.62 1.551.853.93.31 1.629-.155 1.862-1.008.155-.466.155-1.009.232-1.63zm2.017-3.49c-.155.077-.465.077-.775.154-.621.233-.776.543-.621 1.164.155.698.388 1.396.543 2.094.078.31 0 .698.078 1.009.077.62.387.775.93.62.388-.155.776-.31 1.164-.543.465-.233.698-.62.698-1.163 0-.931-.233-1.862-.698-2.638-.233-.465-.62-.62-1.319-.698zm-12.954 3.878c.62 0 1.319 0 1.784-.466.776-.698 1.241-1.551 1.552-2.56.077-.155-.078-.465-.233-.543a.663.663 0 0 0-.543 0c-.155.078-.31.233-.465.388-.699.62-1.552.776-2.483.543-.388-.077-.853-.233-1.24-.31-.389-.078-.621.233-.621.62 0 1.242 1.163 2.328 2.25 2.328zm-3.025 22.03c.388 0 .853-.078 1.008-.31.233-.233-.077-.544-.233-.776-.155-.156-.31-.388-.542-.543-.31-.31-.621-.621-.699-1.009 0-.155-.077-.31-.155-.465-.232-.466-.775-.543-1.008-.155-.62.853-1.552 1.318-2.405 1.861-.388.233-1.008.388-.93.854.154.62.775.387 1.318.465h.388a5.198 5.198 0 0 1 1.551 0c.466 0 1.009.155 1.474.155.078-.077.155-.077.233-.077zM39.01 17.102c.699-.077 1.242-.155 1.862-.155 1.086-.077 1.63-.776 2.095-1.629.155-.233-.078-.543-.388-.465-.388.077-.854.155-1.241.31a2.054 2.054 0 0 1-1.785-.155c-.155-.078-.387-.155-.543-.31-1.473-.931-1.706-.233-2.094.93 0 .156-.078.233-.078.388-.077.466.156.776.621.931.543.078 1.164.078 1.551.155zm4.344 15.514c.31-.077.466-.077.699-.155 1.008-.232 2.016-.543 3.025-.853.232-.078.465-.155.698-.31a.505.505 0 0 0 .155-.698c-.078-.078-.155-.233-.233-.31-.62-.466-1.24-1.087-1.629-1.785-.077-.077-.155-.155-.232-.31-.233-.155-.543-.155-.699.077-.155.156-.232.388-.31.543-.388.621-.775 1.32-1.163 1.94-.233.31-.466.62-.62.93-.156.31-.156.544-.156.621.155.155.31.233.465.31zm6.129-21.72c0-1.008-1.32-2.404-2.25-2.56-.31-.077-.62.234-.543.544.078.543.233 1.086.31 1.629a3.85 3.85 0 0 1-.388 2.792c-.155.31-.388.699-.543 1.009-.077.077 0 .233.078.31a.236.236 0 0 0 .31 0c1.319-.776 2.25-1.94 2.87-3.258.156-.155.156-.31.156-.465zm8.455 14.274c0-.621-.233-.854-.698-.776-.233 0-.388.078-.621.155-.93.388-1.94.543-2.948.62-.155 0-.31 0-.465.078-.31.078-.466.388-.233.698.078.078.155.233.233.31.853.699 1.784 1.164 2.715 1.552.465.155.853 0 1.086-.388.465-.776.776-1.551.93-2.25zm-24.125 3.025c.155 0 .466 0 .776-.078 1.707-.31 2.327-1.318 1.94-3.025v-.155c-.078-.388-.466-.543-.776-.31-.156.077-.31.155-.388.31-.931 1.008-2.017 1.862-3.336 2.094-.077 0-.233.155-.233.233 0 .078.078.233.156.31.465.466 1.086.543 1.861.62zm-6.36-18.54c-.156-.93-.388-2.171-.621-3.49 0-.155-.078-.233-.155-.31-.155-.078-.233-.233-.388-.233-.853-.155-1.629.62-1.396 1.396a8.076 8.076 0 0 0 1.474 2.793c.155.155.387.31.62.465.155.155.466 0 .466-.62zm3.335-1.939c.698 0 1.164-.232 1.551-.698.466-.543.156-1.318-.542-1.396-.31 0-.621 0-.854.078-.543.077-1.008.077-1.474-.31l-.465-.233c-.31-.078-.543-.156-.853.077-.233.233-.233.543-.155.776.155.233.31.543.465.698.776.698 1.551.93 2.327 1.008zm8.067 13.342a15.345 15.345 0 0 0-.232-1.163c-.233-.698-.776-1.009-1.474-.931-.388 0-.62.31-.466.698 0 .078 0 .078.078.155.465.698.698 1.552.93 2.327 0 .156.078.233.156.388.077.155.233.31.388.31s.31-.155.388-.232c0-.698.077-1.164.232-1.552zm-33.432 3.18c-.388.078-.854.156-1.241.234-.078 0-.233.155-.233.232 0 .078.077.31.155.31.853.466 1.707.931 2.56 1.32.155.077.31.077.465 0 .078 0 .233-.078.31-.234.31-.62 0-1.473-.62-1.706-.465-.078-.93-.078-1.396-.155zm51.04-6.205c.233-.155.544-.155.621-.31.62-.698 1.164-1.474 1.707-2.172.077-.078.077-.31 0-.31-.155-.078-.31-.156-.466-.156-.853.233-1.629.699-2.327 1.242-.155.077-.232.232-.31.387-.155.31-.233.621 0 .854.233.232.543.31.776.465zM28.229 24.24v1.24c.078.466.466.777 1.009.854.232 0 .388-.233.388-.388 0-.077 0-.155-.078-.232-.466-.931-.543-1.94-.31-2.948.077-.155 0-.388-.156-.62-.077-.156-.465 0-.62.31-.155.31-.233.62-.31.93.077.233.077.544.077.854zM19.696 6.863c.155.31.232.698.387 1.086.155.31.621.465.854.31.31-.077.465-.388.465-.698 0-.155.078-.31 0-.465-.155-.543-.543-.931-1.086-1.164-.233-.077-.388 0-.543.233 0 .155 0 .388-.077.698zm1.473 6.904c-.543-.078-.853.155-.93.62-.078.543.31 1.164.853 1.241.465.078 1.008-.31 1.086-.853 0-.543-.388-.93-1.009-1.008z"/><path fill="url(#g6yya)" d="M7.595 4.38c3.025 0 5.973.544 8.843 1.707.232.078.388.156.62.233 1.009.388 1.396.155 1.396-.93 0-.544-.077-1.087-.155-1.63-.077-.388-.232-.853-.31-1.24-.078-.466 0-.932.31-1.32.155-.232.388-.387.62-.31.311 0 .466.233.544.466.077.077.077.232.077.387.233 1.474 1.164 2.483 2.017 3.646l.078.078c.465.465.853.543 1.396.233.155-.078.388-.233.543-.31a9.866 9.866 0 0 1 4.654-1.63c.155 0 .31 0 .466-.077 1.396-.31 2.56 0 3.8.698 1.474.93 2.793 2.094 3.724 3.646.62 1.008 1.008 1.24 2.094.387 1.164-.93 2.56-1.55 3.956-1.939 3.258-.775 6.05.078 8.223 2.715.388.466.698 1.009.776 1.707 0 .31.155.62.232 1.008.078.233.388.31.62.233.234-.155.466-.233.621-.466 2.638-2.404 5.896-3.645 9.309-4.344.698-.155 1.396-.155 2.172-.232.232 0 .543 0 .775.155.156-.078.388.077.388.233 0 .155-.155.387-.31.543-.388.232-.776.387-1.163.543-1.63.775-3.103 1.784-4.5 2.87-.465.388-.853.853-1.24 1.24-.156.156-.233.389-.078.544.077.077.31.155.465.077.31-.077.543-.155.853-.232.854-.31 1.63-.62 2.483-.931.31-.078.62-.233 1.008-.233.155 0 .466.155.543.31.078.156.078.466-.077.543-.233.31-.466.543-.776.854-1.241 1.24-2.405 2.482-3.646 3.723l-.698.93c-.233.389-.233.777.077 1.164.078.078.156.233.233.31 1.474 1.475 1.63 3.259 1.241 5.198a10.33 10.33 0 0 1-.388 1.474c-.31.93-.698 1.861-.93 2.792-.156.543-.466 1.086-.854 1.552-.775 1.086-1.629 2.094-2.404 3.102-1.552 1.862-3.103 3.724-4.577 5.586-2.948 3.723-5.352 7.834-7.757 11.945l-2.56 4.655c-1.008 1.784-.93 1.861.155 3.568 1.242 1.784 2.172 3.646 2.56 5.74.078.388.078.776.078 1.163 0 .543-.233.776-.776.854h-.155c-.931.232-1.086.62-.543 1.396.388.543.776 1.008 1.086 1.551.233.466.465.931.62 1.397.156.465-.077.93-.31 1.008-.388.078-.62-.155-.853-.465l-1.63-2.328c-.232-.31-.387-.543-.62-.775a.94.94 0 0 0-1.163-.155c-.31.232-.388.543-.233 1.008.078.31.233.543.388.776.465 1.008.776 2.017 1.086 3.103.078.387.155.853-.078 1.24-.155.233-.465.311-.62.156-.233-.233-.466-.543-.543-.853-.233-.543-.388-1.164-.62-1.707-.311-.776-.621-1.474-.932-2.25-.31-.62-.853-.93-1.551-.853-.543.078-1.008.078-1.551.155-.466.078-.776.31-.776.854v.775c.078 1.319.078 2.715.078 4.034 0 .465-.078.93-.156 1.396 0 .155-.077.31-.155.466-.077.077-.232.155-.31.155-.155 0-.388-.078-.388-.233-.155-.543-.31-1.086-.31-1.629-.078-1.241 0-2.482-.078-3.723 0-.466-.077-.931-.077-1.397 0-.232-.155-.387-.233-.543-.155-.232-.543-.232-.62 0-.078.388-.233.699-.233 1.086 0 1.009-.155 1.94-.466 2.87-.077.388-.31.699-.465 1.009-.155.233-.543.155-.62-.078-.078-.31-.156-.698-.156-1.008.078-.62.155-1.164.233-1.784.077-.698.155-1.319.077-2.017-.077-.853-1.086-1.551-1.861-1.319-.233.078-.388.31-.543.466-.155.232-.155.543-.233.853-.233.776-.388 1.551-.62 2.327-.233.62-.621.931-1.009.776-.465-.233-.388-.698-.388-1.086.078-.776.233-1.63.388-2.405.388-2.094.078-2.017-1.241-2.87a15.063 15.063 0 0 1-2.25-1.629c-.698-.62-.775-.93-.387-1.784.387-.853.93-1.707 1.396-2.56.31-.543.62-1.008.93-1.474.544-.775.544-1.551 0-2.327-2.171-3.413-3.878-7.059-5.662-10.704-2.637-5.508-5.74-10.783-9.153-15.825a4.18 4.18 0 0 1-.543-1.008c-.233-.543-.543-.93-1.009-1.241a9.869 9.869 0 0 1-1.473-1.009 7.932 7.932 0 0 0-3.491-1.551c-.31-.078-.698-.078-1.009-.233-.31-.155-.698-.31-.93-.62-.466-.466-.31-1.164.31-1.474.31-.155.62-.233 1.008-.31 1.319-.233 2.638-.388 3.956-.31h.543c.931.077 1.241-.389 1.32-1.164 0-.31.077-.62.077-.854 0-1.55.387-3.025.853-4.499.698-2.094 2.094-3.645 4.111-4.576.388-.155.853-.388 1.241-.543.31-.155.388-.543.155-.853l-.543-.543C10.465 7.484 7.284 6.087 3.64 5.7c-.31 0-.621-.078-.776-.388-.078-.233.077-.62.465-.776.31-.155.698-.31 1.086-.31 1.164.31 2.172.232 3.18.155zM30.4 60.232c1.63 0 2.56-.155 3.724-.62 1.008-.388 1.939-.854 2.87-1.319 1.086-.543 1.784-1.396 2.25-2.482 2.249-4.965 5.119-9.541 8.144-14.04 1.784-2.638 3.879-5.12 5.973-7.602.31-.388.698-.776 1.008-1.164.156-.232.233-.465.388-.62.078-.155-.077-.466-.31-.466h-1.008c-2.172.233-4.267.543-6.361 1.164-1.784.465-3.49.93-5.352 1.163-1.086.155-2.095.233-3.103.466-2.017.465-4.034.543-6.05.388-2.018-.233-3.957-.466-5.974-.621-2.25-.155-4.499-.155-6.748-.155-.62 0-1.164-.078-1.707-.388a2.615 2.615 0 0 0-1.318-.388c-1.242-.077-2.405-.465-3.569-1.008-.31-.155-.62-.233-.93-.31-.31-.078-.621.232-.466.543.233.465.465.93.698 1.318 2.87 4.654 5.663 9.309 8.067 14.273.31.62.621 1.241.931 1.784 1.164 2.25 2.405 4.5 3.336 6.904.233.62.62 1.086 1.163 1.474 1.319 1.163 2.87 1.861 4.344 1.706zm3.18 8.145c1.474.078 2.948-.077 4.422-.62.853-.31 1.63-.699 2.482-1.086.233-.078.466-.233.698-.388.466-.31.621-.698.466-1.241-.078-.31-.155-.543-.233-.854-.465-1.396-1.163-2.637-1.862-3.878-.542-1.009-1.008-1.474-2.327-.543-.93.62-1.861 1.163-2.947 1.396-2.638.776-5.275.93-7.68-.776-.077-.077-.155-.077-.232-.155-.621-.31-1.009-.31-1.397.31-.62.931-1.24 1.94-1.861 2.87-.466.699-.31 1.087.387 1.63.156.077.31.155.388.31 2.87 1.94 6.128 3.103 9.697 3.025zM9.225 22.765v2.56c-.078 1.163.31 2.172 1.008 3.102.543.699 1.164 1.397 1.94 1.785.93.465 1.783.93 2.792 1.318 1.474.62 3.103.543 4.654.155.233-.077.465-.155.698-.31.233-.155.31-.543.078-.698a4.98 4.98 0 0 0-1.009-.776c-2.792-1.861-4.964-4.344-6.748-7.136-1.009-1.629-1.63-3.413-1.552-5.43 0-.31 0-.698-.077-1.008 0-.156-.155-.31-.31-.388-.156 0-.388.077-.466.155a1.85 1.85 0 0 0-.465.853c-.156.543-.233 1.086-.31 1.63-.311 1.473-.156 2.947-.233 4.188zm26.373 10.627c4.887 0 8.145-4.189 8.223-8.3 0-.543-.155-1.086-.388-1.551-.465-1.086-1.319-1.862-2.094-2.715-.155-.155-.543-.31-.776-.31-.388.077-.388.465-.465.775 0 .155 0 .31-.078.543-.155.698-.233 1.396-.465 2.094-.31 1.009-.699 2.017-1.087 3.026-.077.31-.232.543-.387.775-1.009 1.474-2.017 3.026-3.336 4.344-.155.155-.233.233-.31.388-.388.543-.233.931.465 1.009.233 0 .466-.078.698-.078zm.621-21.332c0-.62-.078-1.163-.388-1.706-.233-.466-.698-.543-1.008-.155-.233.232-.31.465-.543.698-.466.62-.854 1.24-1.397 1.784-1.396 1.396-3.025 2.327-5.042 2.404-.232 0-.465.078-.698.156-.232.077-.388.31-.31.62 0 .155.078.233.155.388.466.853.853 1.707 1.086 2.715 0 .078.078.155.078.233.155.31.465.388.775.31.156-.078.233-.078.31-.155 1.475-1.086 3.026-1.862 4.732-2.482.699-.233 1.164-.699 1.474-1.32.466-1.163.698-2.326.776-3.49zm10.627 12.567c.078.698.155 1.318.31 2.016.155 1.009.698 1.784 1.63 2.327a9.426 9.426 0 0 0 2.56 1.087c.775.155 1.628.077 2.404-.078.077 0 .155-.078.233-.078.543-.232.62-.775.155-1.086-.233-.155-.466-.31-.776-.465-1.784-1.008-2.948-2.482-3.568-4.421-.233-.854-.543-1.785-.776-2.638-.155-.543-.62-.62-.93-.155-.156.233-.389.465-.466.698-.62.776-.853 1.707-.776 2.793zm-21.254-5.585c-.078-.078-.078-.31-.155-.31-.155 0-.388 0-.543.154-.388.31-.698.699-1.086 1.009-1.009.93-2.25 1.318-3.646 1.086a6.55 6.55 0 0 1-1.319-.388c-.31-.078-.62-.31-.93-.388-.466-.155-.854.078-.854.62.078 1.242.388 2.483.931 3.646.31.621.776.776 1.474.621 2.327-.62 4.189-1.94 5.507-4.034.31-.62.543-1.24.62-2.016zm.776 5.43c0-.233-.078-.699-.156-1.164-.077-.31-.465-.465-.698-.233-.232.233-.543.466-.775.698-1.242 1.241-2.638 2.095-4.344 2.56-.388.078-.698.233-1.086.388-.466.233-.62.62-.155 1.008 1.008.931 2.171 1.63 3.49 1.94.853.155 1.552-.156 2.095-.776 1.086-1.319 1.629-2.715 1.629-4.422zM15.739 13.998c.078-.465-.31-.853-.775-.698-.543.155-1.009.388-1.552.62-.62.311-.93.777-1.008 1.475v1.551c-.078 2.56 1.008 4.654 2.637 6.516.155.233.388.543.698.388.388-.155.233-.466.233-.776 0-.155-.077-.31-.077-.465-.156-1.319-.388-2.56-.31-3.879.154-1.629.154-3.18.154-4.732zm36.769 2.87h.62c.62.078 1.086-.155 1.319-.775.077-.155.077-.233.155-.388.543-1.319 1.319-2.482 2.327-3.413.62-.62 1.319-1.241 1.94-1.862.232-.232.387-.465.62-.62.078-.155 0-.388-.155-.388-.233 0-.543 0-.776.077-2.792.931-5.042 2.56-6.904 4.81-.387.465-.543 1.008-.698 1.629-.077.543.155.853.62.853.311.078.621.078.932.078zM11.473 6.088c-.62 0-.93.078-.853.233.077.233.31.388.465.543l.466.233c1.706.93 3.335 2.017 4.732 3.413.387.388.853.62 1.473.698.698.078 1.397.233 2.095.31.155 0 .232.078.388.078.62.077.93-.466.62-1.009a2.359 2.359 0 0 0-.388-.543c-.31-.31-.698-.62-1.086-.93-2.172-1.63-4.654-2.483-7.291-3.103-.233.077-.466.077-.62.077zM26.832 14c.62-.077 1.164-.077 1.784-.232.31-.078.62-.233.853-.466.155-.077.155-.388-.077-.388-.388-.155-.776-.31-1.164-.387-1.396-.31-2.482-1.164-3.18-2.327-.31-.466-.543-1.086-.853-1.552-.155-.233-.31-.543-.466-.776-.155-.155-.388-.232-.543 0-.155.156-.388.388-.465.621-.388.776-.388 1.551-.31 2.327.155.931.543 1.63 1.318 2.25.931.698 1.94.93 3.103.93zm9.076 7.68c0-1.396-1.319-2.405-2.405-1.862-1.474.698-2.405 1.784-3.025 3.258a2.788 2.788 0 0 0-.155.853c0 1.474 1.24 2.172 2.56 1.474.077-.077.155-.077.232-.155.931-.776 1.784-1.551 2.405-2.56.233-.388.31-.775.388-1.008zm-18.772-6.05c.077.465.077.93.155 1.318.155.854.62 1.474 1.396 1.862.31.155.698.31 1.086.388 1.707.543 3.568-.62 3.956-2.405v-.155a.334.334 0 0 0-.31-.31c-.233.155-.543.232-.776.387-1.862 1.242-3.878-.31-3.723-2.094v-.853c0-.31-.155-.466-.388-.543-.31-.078-.543.077-.698.232-.155.233-.388.466-.465.776-.156.543-.156 1.009-.233 1.396zm10.627 12.643c0 .156.077.388.155.621a7.102 7.102 0 0 0 1.862 2.715c.387.31.853.62 1.24.853.311.155.621.233 1.01.078.93-.466 1.628-1.164 2.171-2.095.155-.232 0-.62-.31-.698-.155-.077-.233-.077-.388-.077-1.474-.156-2.793-.854-4.111-1.552l-.931-.465c-.31-.233-.698.077-.698.62zm25.986-4.499c1.086.078 2.172-.31 3.18-.853.233-.078.388-.31.62-.465.156-.233.234-.466.078-.698-.155-.233-.388-.388-.62-.31-.31 0-.543.154-.853.232-.544.233-1.009.31-1.63.31-1.24-.077-1.861-.465-2.171-1.706-.156-.31-.156-.62-.31-.854-.156-.465-.544-.62-1.01-.465-.542.155-.852.465-.852 1.086 0 .233 0 .543.077.776.388 2.016.931 2.947 3.49 2.947zm-9.852-3.49c.233-.078.388 0 .543-.078 1.784-.776 3.413-1.784 4.422-3.568.155-.31.31-.62.388-.93.077-.156 0-.466-.078-.544-.155-.155-.388-.078-.543.078-.155.077-.31.232-.388.31-1.474 1.319-3.18 2.25-5.12 2.637-.465-.077-1.008-.077-1.085.466-.078.465.31.698.543.93.155.156.388.31.62.466l.698.233zm-2.172-9.386c-.077-.543-.155-1.164-.31-1.784-.155-.466-.543-.699-1.008-.543-1.009.31-1.94.93-2.482 1.784-.466.698-.388 1.861.155 2.327.465.388 1.008.62 1.551.853.93.31 1.629-.155 1.862-1.008.155-.466.155-1.009.232-1.63zm2.017-3.49c-.155.077-.465.077-.775.154-.621.233-.776.543-.621 1.164.155.698.388 1.396.543 2.094.078.31 0 .698.078 1.009.077.62.387.775.93.62.388-.155.776-.31 1.164-.543.465-.233.698-.62.698-1.163 0-.931-.233-1.862-.698-2.638-.233-.465-.62-.62-1.319-.698zm-12.954 3.878c.62 0 1.319 0 1.784-.466.776-.698 1.241-1.551 1.552-2.56.077-.155-.078-.465-.233-.543a.663.663 0 0 0-.543 0c-.155.078-.31.233-.465.388-.699.62-1.552.776-2.483.543-.388-.077-.853-.233-1.24-.31-.389-.078-.621.233-.621.62 0 1.242 1.163 2.328 2.25 2.328zm-3.025 22.03c.388 0 .853-.078 1.008-.31.233-.233-.077-.544-.233-.776-.155-.156-.31-.388-.542-.543-.31-.31-.621-.621-.699-1.009 0-.155-.077-.31-.155-.465-.232-.466-.775-.543-1.008-.155-.62.853-1.552 1.318-2.405 1.861-.388.233-1.008.388-.93.854.154.62.775.387 1.318.465h.388a5.198 5.198 0 0 1 1.551 0c.466 0 1.009.155 1.474.155.078-.077.155-.077.233-.077zM39.01 17.102c.699-.077 1.242-.155 1.862-.155 1.086-.077 1.63-.776 2.095-1.629.155-.233-.078-.543-.388-.465-.388.077-.854.155-1.241.31a2.054 2.054 0 0 1-1.785-.155c-.155-.078-.387-.155-.543-.31-1.473-.931-1.706-.233-2.094.93 0 .156-.078.233-.078.388-.077.466.156.776.621.931.543.078 1.164.078 1.551.155zm4.344 15.514c.31-.077.466-.077.699-.155 1.008-.232 2.016-.543 3.025-.853.232-.078.465-.155.698-.31a.505.505 0 0 0 .155-.698c-.078-.078-.155-.233-.233-.31-.62-.466-1.24-1.087-1.629-1.785-.077-.077-.155-.155-.232-.31-.233-.155-.543-.155-.699.077-.155.156-.232.388-.31.543-.388.621-.775 1.32-1.163 1.94-.233.31-.466.62-.62.93-.156.31-.156.544-.156.621.155.155.31.233.465.31zm6.129-21.72c0-1.008-1.32-2.404-2.25-2.56-.31-.077-.62.234-.543.544.078.543.233 1.086.31 1.629a3.85 3.85 0 0 1-.388 2.792c-.155.31-.388.699-.543 1.009-.077.077 0 .233.078.31a.236.236 0 0 0 .31 0c1.319-.776 2.25-1.94 2.87-3.258.156-.155.156-.31.156-.465zm8.455 14.274c0-.621-.233-.854-.698-.776-.233 0-.388.078-.621.155-.93.388-1.94.543-2.948.62-.155 0-.31 0-.465.078-.31.078-.466.388-.233.698.078.078.155.233.233.31.853.699 1.784 1.164 2.715 1.552.465.155.853 0 1.086-.388.465-.776.776-1.551.93-2.25zm-24.125 3.025c.155 0 .466 0 .776-.078 1.707-.31 2.327-1.318 1.94-3.025v-.155c-.078-.388-.466-.543-.776-.31-.156.077-.31.155-.388.31-.931 1.008-2.017 1.862-3.336 2.094-.077 0-.233.155-.233.233 0 .078.078.233.156.31.465.466 1.086.543 1.861.62zm-6.36-18.54c-.156-.93-.388-2.171-.621-3.49 0-.155-.078-.233-.155-.31-.155-.078-.233-.233-.388-.233-.853-.155-1.629.62-1.396 1.396a8.076 8.076 0 0 0 1.474 2.793c.155.155.387.31.62.465.155.155.466 0 .466-.62zm3.335-1.939c.698 0 1.164-.232 1.551-.698.466-.543.156-1.318-.542-1.396-.31 0-.621 0-.854.078-.543.077-1.008.077-1.474-.31l-.465-.233c-.31-.078-.543-.156-.853.077-.233.233-.233.543-.155.776.155.233.31.543.465.698.776.698 1.551.93 2.327 1.008zm8.067 13.342a15.345 15.345 0 0 0-.232-1.163c-.233-.698-.776-1.009-1.474-.931-.388 0-.62.31-.466.698 0 .078 0 .078.078.155.465.698.698 1.552.93 2.327 0 .156.078.233.156.388.077.155.233.31.388.31s.31-.155.388-.232c0-.698.077-1.164.232-1.552zm-33.432 3.18c-.388.078-.854.156-1.241.234-.078 0-.233.155-.233.232 0 .078.077.31.155.31.853.466 1.707.931 2.56 1.32.155.077.31.077.465 0 .078 0 .233-.078.31-.234.31-.62 0-1.473-.62-1.706-.465-.078-.93-.078-1.396-.155zm51.04-6.205c.233-.155.544-.155.621-.31.62-.698 1.164-1.474 1.707-2.172.077-.078.077-.31 0-.31-.155-.078-.31-.156-.466-.156-.853.233-1.629.699-2.327 1.242-.155.077-.232.232-.31.387-.155.31-.233.621 0 .854.233.232.543.31.776.465zM28.229 24.24v1.24c.078.466.466.777 1.009.854.232 0 .388-.233.388-.388 0-.077 0-.155-.078-.232-.466-.931-.543-1.94-.31-2.948.077-.155 0-.388-.156-.62-.077-.156-.465 0-.62.31-.155.31-.233.62-.31.93.077.233.077.544.077.854zM19.696 6.863c.155.31.232.698.387 1.086.155.31.621.465.854.31.31-.077.465-.388.465-.698 0-.155.078-.31 0-.465-.155-.543-.543-.931-1.086-1.164-.233-.077-.388 0-.543.233 0 .155 0 .388-.077.698zm1.473 6.904c-.543-.078-.853.155-.93.62-.078.543.31 1.164.853 1.241.465.078 1.008-.31 1.086-.853 0-.543-.388-.93-1.009-1.008z"/></g></g></svg>