<svg xmlns="http://www.w3.org/2000/svg" width="120" height="55" viewBox="0 0 120 55">
    <g>
        <g clip-path="url(#clip-110:1174)" opacity=".4">
            <path fill="#fff"
                  d="M82.624 42.442c-.086-2.327 2.124-4.563 2.963-5.07.726-.466 1.557-.76 2.387-.38.645.251.787 1.055.731 1.691 1.527-1.025 4.52 2.478 2.054 4.758a1.43 1.43 0 0 1 .632 2.028c-.515.995-4.277 1.968-6.137.865-.645-.376-.372-1.094 0-1.6a6.917 6.917 0 0 1 1.808-1.609c.043 0 1.115-.757.514-.8-.592.148-1.17.347-1.73.592-.895.377-3.183 1.48-3.222-.475zM84.328 54.5c-.713-.718-1.95-3.036-.865-3.84 1.086-.805 2.444.246 3.222 1.18-.03-.467-.45-1.574-1.414-2.872a.765.765 0 0 1-.07-1.012c.2-.26 2.103-1.228 5.005.376 1.077.632.722 2.28-.07 3.08 3.054 1.894-1.362 5.57-3.14 3.46-.553-.636-1.124 1.094-2.668-.372zm-9.346-8.244v-.005l.022-.008v-3.23c1.326.51 2.369 1.77 2.984 2.737a.385.385 0 0 1-.433.463 4.018 4.018 0 0 0-2.573.043zm0-.005a3.024 3.024 0 0 0-.74.369c.256.012.51.041.762.086v.009c1.154.216 2.828.804 3.092 1.985.07.298-1.324 1.82-3.092 1.985v-.008h-.632a1.651 1.651 0 0 1-1.431-1.691c-.818.467-1.661-.17-1.925-1.1-.407-1.422.623-2.52 1.877-3.027-1.03-.631-.39-2.11.904-2.123.413.02.82.106 1.207.255v.021a4.004 4.004 0 0 0-.022-.008zm.022-4.77v-.004a1.695 1.695 0 0 1-.333-.718 1.415 1.415 0 0 1 .333-1.142v.005a1.845 1.845 0 0 1 1.496-.55c-1.16-2.11.497-3.083 1.086-3.252 1.21-.376 2.305.593 2.508 1.73a1.436 1.436 0 0 1 1.228-.757c.545.04 2.479 1.86-.683 5.912a.229.229 0 0 1-.225.04 4.252 4.252 0 0 1-1.479-2.617c-.398.553-.978 2.491-.545 3.763.03.082-.173.337-.26.294a9.381 9.381 0 0 1-3.126-2.703zm9.873 6.337a3.208 3.208 0 0 1-3.819 2.616c-4.325-.843-2.75-5.363-1.167-6.336 2.703-1.687 5.467 1.055 4.986 3.72zm-3.083-2.197c-.74-.044-1.514.545-1.337 1.349.152.623.844 1.488 1.501 1.055 1.89-1.224.165-2.365-.164-2.404zm-.909-18.585a1.085 1.085 0 0 1 .554-.865c.835-.402 1.648.147 2.24.865.197.24.375.494.532.761a2.96 2.96 0 0 0-.082-.76 8.432 8.432 0 0 0-.76-2.111.705.705 0 0 1 .09-.93c.207-.212 2.123-.805 4.532 1.18.571.424.537 1.185.212 1.86-.17.37-.432.69-.76.93 2.508 2.197-2.133 4.9-3.43 2.703-.407-.718-1.207.8-2.375-.8-.394-.554-.917-1.903-.753-2.833zm-5.449 6.397a1.633 1.633 0 0 1-.432-.208v-7.054a5.687 5.687 0 0 1 2.88-.359.182.182 0 0 1 .07.294c-.31.271-.581.584-.805.93-.995 1.48-.926 3.21-.463 3.758.342-.847.402-2.746 1.873-3.758.3-.228.647-.387 1.016-.467.1-.039.09.078.147.169.056.09.117.212.173.298.61 1.099 1.198 2.28.818 3.547-.822 2.664-4.248 3.213-5.277 2.85zM92.528 49.59c7.301-5.238 13.062-1.306 14.654.043 2.088 1.77 3.52 4.178 5.812 5.7a.162.162 0 0 1 .079.156.172.172 0 0 1-.032.084.168.168 0 0 1-.073.055c-3.192 1.479-14.307 6.08-20.491-5.7-.065-.126-.065-.126.051-.338zm12.024 2.491c-2.413-3.676-9.956-2.24-11.254-2.184.013.043.048.043.048.043 5.795.675 8.78 5.7 10.237 4.347.536-.506 1.401-1.522.969-2.197zm-1.146-21.672c2.379-.593 4.865-.424 7.236-1.099a.16.16 0 0 1 .174.069.159.159 0 0 1-.01.186c-1.332 1.561-1.916 3.637-2.941 5.367-1.051 1.8-2.565 3.166-4.239 4.395-1.574 1.094-3.425 2.279-5.384 2.534-1.748.208-3.52-.26-5.25.208-.04.039-.079.039-.109 0-.052.043-.164.043-.164-.04-.29-1.336.778-2.871 1.475-3.93a26.78 26.78 0 0 1 3.139-4.179 12.647 12.647 0 0 1 6.073-3.511zm-2.383 7.737a1.572 1.572 0 0 0-.07-1.74 1.57 1.57 0 0 0-.449-.414c-1.432-.843-4.589 1.73-6.955 5.406 3.728-1.954 6.055-1.267 7.469-3.252zm-86.341-.862c.062.202.075.416.035.624-.056.506-.584 2.029-1.69 2.535-.948.423-.97-.93-.97-1.436a4.574 4.574 0 0 0-.108-.93c-.151-.242-.263.432-.263.432-.042.425-.157.84-.342 1.224-.143.299-.415.55-.731.338-.93-.576-1.324-2.522-.96-3.028a.753.753 0 0 1 1.081-.169c.502-1.647 2.794-1.016 2.664-.082a.813.813 0 0 1 .96-.043c.15.15.261.333.324.535zm-4.817 3.172a.39.39 0 0 1-.48.211 2.93 2.93 0 0 0-1.661 0c.614.126 1.405.498 1.271 1.224-.134.727-1.487.645-1.98.433-1.034-.337-.347-1.012-.779-1.138-1.38-.337-.653-3.209.908-2.24.2-.55.887-1.055 1.41-.718 1.401 1.012 1.388 2.115 1.31 2.227zm-3.135 6.25a1.42 1.42 0 0 1-.689-.494c-.324-.506-.562-2.387.736-3.252.666-.463 1.487-.251 2.201-.082.043 0 .117 0 .117.039.021 1.435-1.35 1.86-1.808 2.197.441.207 1.713-.17 2.3-1.393a.108.108 0 0 1 .121-.025.108.108 0 0 1 .036.025c.38.848.41 2.028-.178 2.785-.523.718-1.41.887-1.99.212a1.419 1.419 0 0 1-.846-.013zm4.79-.204a.866.866 0 0 1-.505-.337c-.57-.891-.09-2.12.087-2.163.77-.225 1.596.865 1.816 1.298a1.92 1.92 0 0 0-.55-1.648.19.19 0 0 1 .118-.294c.774.086 1.903.402 2.335 1.267.29.614-.25 1.202-.761.865.043.7-.238 1.44-1.008 1.566-.497.086-.969-.17-.93-.632a.865.865 0 0 1-.602.078zm4.454-6.334a.717.717 0 0 1-.14.357 1.043 1.043 0 0 1 1.366.8c.034.294-.026 1.267-1.263 1.228.25.463.186 1.055-.39 1.224-.306.108-1.314-.104-2.352-.865-.043-.039.017-.169.07-.169a2.829 2.829 0 0 0 1.625-1.098c-.51.15-1.06.104-1.54-.126-.034 0-.034-.043-.034-.086 1.185-2.405 2.461-1.899 2.595-1.643a.718.718 0 0 1 .063.378zM9.64 42.96a1.637 1.637 0 0 1 .359-2.366c1.12-.8 3.019-.125 2.85 1.48-.1.964-1.855 2.694-3.21.886zm1.747-.51a.575.575 0 0 0 .316-.892c-.087-.16-.995-.705-1.142.433-.039.424.497.55.826.463zm63.617 13.896a2.626 2.626 0 0 1-.1-2.79.537.537 0 0 1 .1-.169zM65.5 37.55c1.61.848.04 5.156-3.148 4.144a1.43 1.43 0 0 1-.88 1.414c-.182.076-.38.113-.578.108-1.163.039-3.819-2.781-3.758-4.944.017-.722.778-.847 1.388-.76.8.137 1.57.41 2.28.804.043.043 1.223.588.96.082a7.954 7.954 0 0 0-1.354-1.224c-.779-.593-2.863-2.072-1.133-3.084 2.002-1.224 5.008-.38 5.873.126.744.423 1.414.968 1.497 1.903.064.674-.558 1.18-1.147 1.431zm-14.99 6.423c.311-.8-1.51-.42-.938-2.491.272-.97 1.7-3.162 2.928-2.617 1.228.545.964 2.236.532 3.378.402-.255 1.163-1.185 1.83-2.664a.774.774 0 0 1 .843-.55c.35.04 2.08 1.267 2.08 4.602-.004 1.228-1.622 1.691-2.72 1.397-.156 3.594-5.537 1.522-4.555-1.055zm-7.218-8.205c-.433-1.69.83-2.92 2.5-2.958 1.88-.082 3.702 1.267 4.623 2.833.078.125-.065.25-.177.25-2.595-.462-4.576 1.143-4.758 2.072 1.09-.302 3.226-2.08 5.475-.432a.165.165 0 0 1-.047.255c-.523 1.306-1.125 2.829-2.552 3.421-2.78 1.094-5.532-1.397-5.964-2.495-.445-1.164.056-2.215.9-2.946zm19.742-6.042c.22.126.404.306.533.524.238.462-.406 3.04-5.488 2.279a.229.229 0 0 1-.147-.212 4.196 4.196 0 0 1 1.557-2.535c-.683-.082-2.651.338-3.555 1.35-.065.086-.368 0-.368-.082a9.116 9.116 0 0 1 .804-4.014c.117-.254.281-.483.485-.675.917-.674 1.847-.19 2.34.675.017.043.056.043.056.087.022-.048.052-.048.073-.087 1.26-1.899 2.85-.93 3.283-.55.151.164.276.35.372.55a2.128 2.128 0 0 1-.666 2.496c.253.001.502.068.721.194zm-6.53 2.82c2.768 1.566 1.696 5.303-.834 6.168a3.184 3.184 0 0 1-4.144-2.09c-1.37-4.182 3.357-5.025 4.978-4.078zm-2.434 3.685c1.998 1.068 2.136-1.003 1.998-1.298-.312-.674-1.194-1.055-1.804-.505-.489.419-.887 1.435-.195 1.803zm19.57-9.195c.406-.359.865-.65 1.363-.865v7.076a2.625 2.625 0 0 1-1.199-2.197c-1.466-.636-1.608-2.284-.679-3.547.147-.169.338-.298.515-.467zM40.702 41.43c1.081 2.344 4.247 8.399 9.117 12.291.095.087.078.256-.06.256-.364.043-2.604.506-2.626.294-.177-1.9-4.515-3.759-5.588-4.265a.112.112 0 0 1-.05-.166.113.113 0 0 1 .05-.042c.51-.263 1.177-.133 1.687-.432.748-.376-4.736-9.584-5.216-10.851a32.5 32.5 0 0 0-1.297-2.911c-1.544-1.734-3.52-3.131-5.8-3.339-2.478-.208-6.51 1.016-5.986 4.394.471 3.038 5.116 5.613 5.03.315a.675.675 0 0 1-1.35.022c-.069-2.785 3.859-.713 3.391 1.393-.722 3.257-5.107 4.018-7.023 1.228-2.046-2.992-.407-7.767 3.576-8.022 3.197-.208 5.71 1.055 7.69 3.127-1.34-2.496-3.321-5.45-5.86-7.686A15.211 15.211 0 0 0 27.13 24.8c-.073-.043-.086-.212 0-.212 1.289.169 3.196 1.18 4.935 2.448 1.739 1.267 3.33 2.872 4.018 4.264a10.866 10.866 0 0 1-.523-2.447c-.005-.126.186-.17.255-.087 1.358 1.985 3.87 10.475 4.887 12.664zm28.83-11.622c-1.102 1.397-2.677 2.492-3.46 4.14-.064.13-.31.168-.31-.04a1.805 1.805 0 0 1 .077-.804 5.52 5.52 0 0 1 .134-.718 4.076 4.076 0 0 1-.03-.506 5.39 5.39 0 0 1 0-1.06 18.621 18.621 0 0 0-.727-3.801 9.594 9.594 0 0 0-1.67-3.17c-.06-.078-.034-.208.053-.208.38-.191.67-.526.804-.93.043-.086.234-.125.277 0 .454 1.453.921 2.89 1.297 4.325.06.255.139.467.195.718.217.862.377 1.738.48 2.62.009.083.048.209.048.295.421-.687.917-1.325 1.479-1.903a13.4 13.4 0 0 1 2.08-1.73 9.251 9.251 0 0 1 2.513-1.18c.086 0 .182.082.138.168-.16.337-.315.675-.501 1.012-.157.292-.35.562-.576.805-.722.674-1.643 1.18-2.3 1.967zm5.476-22.58v-.005a.456.456 0 0 1 .009.009V4.23a.14.14 0 0 0-.01-.014V1.778a3.46 3.46 0 0 1 1.631.255c1.268.55 1.76 2.197 1.63 2.664a.688.688 0 0 1-.574.506c.986 2.236-1.76 3.292-2.686 2.025zm6.937 11.275c.286-2.15 2.656-3.84 3.52-4.178.745-.298 1.549-.467 2.258 0 .545.394.545 1.142.398 1.691 1.57-.675 3.754 2.997 1.138 4.688a1.327 1.327 0 0 1 .264 1.942c-.658.882-4.243 1.168-5.779-.13-.519-.462-.164-1.05.269-1.431a6.71 6.71 0 0 1 1.907-1.228c.039 0 1.146-.507.601-.632-.561.047-1.119.131-1.67.251-.89.208-3.165.887-2.906-.973zm-5.211 2.712a4.47 4.47 0 0 0-1.73-.433V17.91A6.63 6.63 0 0 1 77.2 20.87c.056.112-.212.462-.467.346zm-1.73 3.542V21.59c.878.42 1.769 1.098 1.812 1.985.008.208-.766.865-1.812 1.18zm.004-8.594v-.718c.208-.843 1.012-1.18 1.877-1.012-.735-2.115.938-2.703 1.51-2.79 1.163-.177 2.028.883 2.028 1.986a1.413 1.413 0 0 1 1.241-.506c.493.13 1.985 2.067-1.557 5.32a.195.195 0 0 1-.216 0 3.893 3.893 0 0 1-.952-2.596c-.45.463-1.288 2.107-1.09 3.378.01.078-.216.247-.285.208a7.857 7.857 0 0 1-2.556-3.27zm8.178 7.664a2.945 2.945 0 0 1-3.922 1.773c-3.837-1.436-1.67-5.363-.07-5.999 2.73-1.098 4.849 1.86 3.992 4.226zm-2.49-2.496c-.671-.168-1.476.26-1.432 1.017.03.592.54 1.479 1.21 1.18 1.93-.8.528-2.11.226-2.197zm9.186-12.265c4.787-2.79 9.441-2.41 11.007-2.029 2.569.593 4.031 3.084 4.463 5.532.013.086-.052.13-.117.169-1.314.506-2.59 1.397-4.009 1.608-1.194.148-2.435-.315-3.46-.865-1.207-.635-5.212-4.774-7.625-4.056-.493.168-.355-.338-.26-.36zm9.536-.528c-1.163-1.016-4.775-.593-7.668.385 4.697.545 7.573 2.573 8.261 1.475.402-.632-.095-1.427-.58-1.86zM90.106-.419c.65-.463 1.242.125 1.415.761.315 1.142-1 2.327-1.674 3.028-.593.674-1.406 1.392-1.66 2.279-.295-3.914 1.457-5.73 1.92-6.068zm16.327.125c-.886 2.327-7.062 1.44-7.097 1.397M84.938 12.232c1.237-1.415 2.124-2.894 3.244-4.325a18.467 18.467 0 0 1 4.018-3.59 31.393 31.393 0 0 1 3.607-2.11c.731-.338 1.89-.93 2.482-.593.07.043.035.125-.056.168A46.014 46.014 0 0 0 91.4 6.726a14.19 14.19 0 0 0-2.544 2.91c-.553.887-.873 1.839-1.453 2.704a.07.07 0 0 1-.073.039h-.095a13.284 13.284 0 0 0-2.232 0c-.1 0-.147-.082-.065-.147zm27.494 1.21a.75.75 0 0 1 .504-.32.746.746 0 0 1 .577.152c.502-1.648 2.794-1.016 2.665-.087a.802.802 0 0 1 .96-.038 1.301 1.301 0 0 1 .354 1.18c-.056.506-.584 2.029-1.691 2.535-.947.376-.969-.891-.969-1.397a3.935 3.935 0 0 0-.108-.93c-.151-.299-.263.376-.263.376a3.677 3.677 0 0 1-.342 1.228c-.143.295-.415.55-.731.338-.93-.593-1.324-2.535-.956-3.036zm.212 3.413a.388.388 0 0 1-.48.208 2.929 2.929 0 0 0-1.661 0c.614.13 1.406.501 1.272 1.224-.134.722-1.488.635-1.981.467-1.034-.377-.346-1.051-.779-1.181-1.379-.337-.653-3.21.909-2.236.199-.55.886-1.055 1.41-.718 1.401 1.012 1.384 2.11 1.31 2.236zm-3.137 6.235a1.414 1.414 0 0 1-.686-.5c-.325-.506-.563-2.387.735-3.252.666-.424 1.488-.256 2.201-.087.044 0 .117 0 .117.087.022 1.444-1.349 1.825-1.808 2.162.441.212 1.713-.169 2.301-1.393a.118.118 0 0 1 .156 0 2.867 2.867 0 0 1-.177 2.79c-.524.718-1.41.887-1.99.212-.278.08-.575.074-.849-.019zm7.337-1.2c.043.7-.238 1.435-1.008 1.565-.498.082-.969-.169-.93-.636a.867.867 0 0 1-1.112-.298c-.57-.896-.09-2.12.087-2.163.77-.225 1.596.865 1.816 1.298a1.908 1.908 0 0 0-.549-1.644.182.182 0 0 1-.032-.086.18.18 0 0 1 .012-.092.194.194 0 0 1 .137-.116c.774.082 1.903.398 2.335 1.263.295.649-.246 1.241-.756.908zm1.872-2.946a.792.792 0 0 1-.075 1.028.796.796 0 0 1-.314.196c-.307.108-1.315-.1-2.353-.865-.043-.039.018-.169.069-.169a2.815 2.815 0 0 0 1.627-1.094 2.163 2.163 0 0 1-1.54-.13c-.035 0-.035-.043-.035-.086 1.185-2.41 2.461-1.899 2.595-1.644a.71.71 0 0 1-.073.718 1.043 1.043 0 0 1 1.195.392c.086.124.145.265.172.413.043.294-.031 1.263-1.268 1.241zm-6.301.407a1.648 1.648 0 0 1-.334-1.261 1.647 1.647 0 0 1 .693-1.105c1.12-.805 3.019-.126 2.85 1.475-.095.973-1.851 2.703-3.209.89zm.921-.965c-.052.433.497.54.826.445a.575.575 0 0 0 .383-.363.59.59 0 0 0-.071-.523c-.087-.16-.995-.71-1.142.432zM73.728-.12a1.073 1.073 0 0 1-1.276.766 1.05 1.05 0 0 1-.766-1.272 1.05 1.05 0 0 1 2.037.506zm1.276 4.33a.164.164 0 0 1 .004.007v3.007c-.039-.041-.093-.085-.121-.12a1.6 1.6 0 0 1-1.298.674c-.562 0-3.377-2.154-.657-5.238.039-.043.078 0 .1.04.637 1.163 1.662 1.367 1.93 1.589l.042.062zm-.16-2.43h.16v2.43a.247.247 0 0 0-.041-.041c-.927-1.447-.282-2.347-.12-2.39zM70.15.852c-.376.644-.493 1.349-.84 1.941.316-.082.637-.139.961-.168.298-.087.588-.212.89-.294.394-.044.697.168.697.506-.013 2.828-1.53 3.628-2.707 2.997a2.382 2.382 0 0 0-.895-.38l-.74-.126a1.488 1.488 0 0 1-.865-.632 1.76 1.76 0 0 1 .073-1.647c-.462 0-.89-.169-.964-.718a1.852 1.852 0 0 1 .54-1.61c.437-.376 2.375-.8 3.79 0 .047.044.103.087.06.13zm-9.44 8.625a3.676 3.676 0 1 1-2.263-1.662c.944.232 1.758.83 2.263 1.662zm-1.747 1.398a1.5 1.5 0 1 0-1.762 1.97 1.493 1.493 0 0 0 1.808-1.099 1.5 1.5 0 0 0-.046-.871zm.46-2.883a.16.16 0 0 1-.187-.094.16.16 0 0 1-.011-.075c.108-.718-.865-2.067-.433-3.59-.934.463-1.172 1.562-1.323 2.449-.117.8-.779.93-1.298.462-2.69-2.322-2.85-5.7-2.335-6.331.887-1.06 1.635.077 2.595.207.61.087.9-.8 1.237-1.18.575-.636 1.436-1.026 2.266-.593 1.709.8 1.484 2.53 1.112 4.052 1.483-.211 3.412.338 3.144 2.24-.286 2.107-3.313 1.813-4.766 2.453zm10.35 4.182c-.095.087-.843.55-.8.718.077.188.117.39.117.593-.12 2.266-3.442 2.097-4.835 1.297-.692-.38-2.085-1.18-2.085-2.11-.008-.848.922-1.185 1.64-1.354a5.247 5.247 0 0 1 2.793.255c-.744-.93-2.205-1.137-3.304-1.098a2.08 2.08 0 0 1-2.162-1.436.113.113 0 0 1 .026-.126v-.043a9.38 9.38 0 0 1 2.997-2.037c.783-.294 2.292-.8 2.85.169a1.648 1.648 0 0 1 .1 1.436 2.56 2.56 0 0 1 2.413.432c.986.865 1.245 2.37.25 3.304zm-4.59 6.935a.995.995 0 0 1-.517.236c1.479 3.335-2.872 4.814-4.01 2.703-.484.537-1.029.97-1.829.97s-4.81-3.08-.939-7.475c.057-.038.109 0 .139.087.957 1.718 2.505 1.962 2.788 2.269-1.366-2.075-.433-3.364-.206-3.45.87-.111 1.755.02 2.556.38 1.808.801 2.509 3.124 2.322 3.798a.995.995 0 0 1-.303.482zm-11.27-5.931c-.535.843-.7 1.876-1.192 2.741.073-.125 1.172-.211 1.366-.25.41-.167.836-.295 1.271-.38.55-.126.982.168.982.674-.017 4.014-2.18 5.134-3.853 4.269a4.57 4.57 0 0 0-1.272-.55 8.741 8.741 0 0 1-1.064-.19 1.886 1.886 0 0 1-1.232-.865 2.544 2.544 0 0 1 .103-2.365c-.67 0-1.271-.208-1.38-1.013a2.662 2.662 0 0 1 .77-2.279c.64-.55 3.387-1.142 5.398 0 .09.043.165.126.104.208zm.87-5.333c-1.103 1.099-2.534.337-3.46-.592.057 1.479.281 2.785 1.678 3.546a.156.156 0 0 1 .09.174.155.155 0 0 1-.15.124c-1.285.061-2.327.589-3.538.926-.852.255-1.721.38-2.509-.125-1.193-.701-.843-2.431-.069-3.296-2.608-1.099-.155-5.199 2.297-4.433.562-1.18 1.98-1.735 3.11-.805 1.224 1.03 2.119 2.803 2.551 4.325.057.048.078.126 0 .156zm.087 19.19c.575 1.618-.1 3.464-.766 4.645-.082.169-.545.169-.623-.169-.32-1.267-.856-2.11-1.985-2.66.441.8 1.233 3.335.078 4.347-.264.255-2.742-.38-3.538-2.28a1.648 1.648 0 0 1 .787-2.066c-.674-.424-.67-1.181-.276-1.817.07-.143.167-.272.285-.38 1.077-1.103 2.539-.74 3.594.125.026-1.18 1.622-1.35 2.249-.212.083.148.148.304.195.467zm18.935-9.597c.422.088.827.246 1.198.467v2.872c-.483-.001-.961.1-1.402.298.482.124.952.293 1.402.506v3.166a3.3 3.3 0 0 1-1.92.043 1.549 1.549 0 0 1-1.043-1.777c-.83.307-1.505-.368-1.596-1.298-.147-1.397.969-2.24 2.206-2.49-.852-.723-.035-1.99 1.155-1.787zm1.198-1.254a1.298 1.298 0 0 1-.083-.424c.014-.102.041-.2.082-.294zm-37.286-.727a10.857 10.857 0 0 1 1.258 4.476c.143 1.436.208 3.123-.376 4.52-.385.947-1.055 1.73-1.488 2.595a4.602 4.602 0 0 0-.38.973c-.009.04-.026.04-.048.04.009.086-.039.129-.1.086a2.551 2.551 0 0 1-1.297-1.099c-.32-.489-.55-.973-.753-1.354A20.916 20.916 0 0 1 33 22.02a9.741 9.741 0 0 1 0-5.363c.536-1.769 1.609-3.373 2.041-5.19.022-.086.2-.086.234 0 .52 1.462 1.67 2.647 2.444 3.992zm-.515 5.748a1.176 1.176 0 0 0-1.635-.506c-1.055.592-.631 3.464.757 6.336.056.13.1.208.156.337.004-.13.03-.207.03-.337.212-2.958 1.401-4.226.692-5.83zm-23.515-6.293c-.078-.082.052-.208.173-.169 1.847.762 3.68.468 5.536.506 1.458.044 3.002.26 4.17 1.272 2.387 2.067 2.153 5.147 2.875 7.642.026.087.018.299-.116.299-2.643.463-6.717-.593-8.62-2.703-1.886-2.076-2.457-4.671-4.018-6.847zm7.253 4.182c-.67.04-1.237 3.04 5.069 4.857-.009-.043-2.703-5.064-5.06-4.857zM25.05-1.029a1.036 1.036 0 0 1 1.518-.13c.89-2.236 3.992-1.094 3.706.17a1.19 1.19 0 0 1 1.337.042 1.794 1.794 0 0 1 .35 1.691c-.138.701-1.046 2.747-2.634 3.296-1.362.467-1.21-1.354-1.185-2.028a5.909 5.909 0 0 0-.039-1.298c-.177-.38-.41.506-.41.55a4.39 4.39 0 0 1-.61 1.604c-.23.39-.64.77-1.051.432-1.198-.916-1.544-3.671-.982-4.329zm-.1 4.814a.549.549 0 0 1-.692.212c-1.12-.338-1.968-.338-2.292-.212.835.26 1.881.886 1.617 1.86-.263.973-2.127.674-2.79.38-1.387-.631-.367-1.479-.955-1.69-1.864-.632-.528-4.52 1.514-2.96.35-.778 1.358-1.457 2.041-.864 1.834 1.522 1.687 3.04 1.557 3.274zm-4.554 3.04c.969-.506 2.085-.125 3.054.169.065 0 .155 0 .155.086-.13 1.964-2.076 2.366-2.755 2.83.597.34 2.396-.044 3.352-1.644a.12.12 0 0 1 .108-.067.12.12 0 0 1 .108.067c.429 1.223.338 2.828-.566 3.84-.805.887-2.054 1.012-2.772 0-.827.104-1.64-.104-2.072-.865-.394-.722-.498-3.425 1.388-4.416zm7.02 5.39a1.185 1.185 0 0 1-1.506-.507c-.687-1.306.117-2.954.364-2.997 1.094-.169 2.11 1.436 2.37 2.029a2.648 2.648 0 0 0-.571-2.323c-.138-.177.074-.433.19-.433 1.064.212 2.59.805 3.088 2.072.338.844-.488 1.644-1.154 1.138-.022.973-.493 1.946-1.575 2.028-.683.09-1.328-.337-1.206-1.008zm5.73-4.94c.29.718.134 1.484-.683 1.691-.437.13-1.808-.298-3.162-1.436-.056-.047.044-.255.117-.255a3.797 3.797 0 0 0 2.379-1.354 3.05 3.05 0 0 1-2.12-.298.134.134 0 0 1-.034-.169c1.903-3.166 3.611-2.322 3.771-1.985a1.047 1.047 0 0 1-.186 1.012 1.466 1.466 0 0 1 1.804 1.228c.03.463-.19 1.813-1.886 1.566zm-8.784-.156a2.257 2.257 0 0 1 .766-3.209c1.635-1.012 4.208.13 3.775 2.366-.242 1.332-2.871 3.568-4.54.843zm1.38-1.202c-.117.593.627.792 1.094.744a.835.835 0 0 0 .536-1.228c-.1-.208-1.297-1.095-1.63.467zM10.479-.506c.143 1.774.89 3.378 1.12 5.108a9.147 9.147 0 0 1-.791 4.987 20.814 20.814 0 0 1-1.977 3.166c-.519.722-1.276 1.86-2.249 1.985-.082 0-.047-.082-.082-.082s-.035-.043-.035-.087c-.12-1.262-.904-2.318-1.202-3.546-.333-1.393-.026-2.91.324-4.265.33-1.437.956-2.789 1.839-3.97.9-1.137 2.14-2.072 2.837-3.334.047-.1.212-.1.216.038zM6.78 14.026v-.006c0 .002-.003.004-.004.006zm0-.006C8.635 11.487 9.54 8.75 8.62 7.984a1.16 1.16 0 0 0-1.587.212c-.947 1.435.09 2.827-.25 5.824zM-4.23 12.33a1.124 1.124 0 0 1 .748-1.393C-2.34 10.601-.61 12.967.37 15.964c-2.244-2.02-3.974-1.976-4.602-3.633z"/>
        </g>
    </g>
</svg>