<svg xmlns="http://www.w3.org/2000/svg" width="326" height="388" viewBox="0 0 326 388"><defs><clipPath id="n4oda"><path fill="#fff" d="M1 33.336c0-10.93 7.982-20.182 18.82-21.59C51.503 7.636 116.576 0 163 0c46.424 0 111.497 7.635 143.18 11.747C317.018 13.154 325 22.407 325 33.336v321.328c0 10.929-7.982 20.182-18.82 21.589C274.497 380.365 209.424 388 163 388c-46.424 0-111.497-7.635-143.18-11.747C8.982 374.846 1 365.593 1 354.664z"/></clipPath></defs><g><g><path fill="#fff" d="M1 33.336c0-10.93 7.982-20.182 18.82-21.59C51.503 7.636 116.576 0 163 0c46.424 0 111.497 7.635 143.18 11.747C317.018 13.154 325 22.407 325 33.336v321.328c0 10.929-7.982 20.182-18.82 21.589C274.497 380.365 209.424 388 163 388c-46.424 0-111.497-7.635-143.18-11.747C8.982 374.846 1 365.593 1 354.664z"/><path fill="none" stroke="#d7d7d7" stroke-miterlimit="50" stroke-width="2" d="M1 33.336c0-10.93 7.982-20.182 18.82-21.59C51.503 7.636 116.576 0 163 0c46.424 0 111.497 7.635 143.18 11.747C317.018 13.154 325 22.407 325 33.336v321.328c0 10.929-7.982 20.182-18.82 21.589C274.497 380.365 209.424 388 163 388c-46.424 0-111.497-7.635-143.18-11.747C8.982 374.846 1 365.593 1 354.664z" clip-path="url(&quot;#n4oda&quot;)"/></g></g></svg>