<svg width="47" height="54" viewBox="0 0 47 54" fill="none" xmlns="http://www.w3.org/2000/svg">
<path d="M5.27762 2.47559C7.4108 2.47559 9.48928 2.85846 11.5131 3.67892C11.6772 3.73361 11.7865 3.78831 11.9506 3.84301C12.6617 4.11649 12.9352 3.9524 12.9352 3.18664C12.9352 2.80377 12.8805 2.42089 12.8258 2.03801C12.7711 1.76453 12.6617 1.43635 12.607 1.16286C12.5523 0.834681 12.607 0.5065 12.8258 0.233016C12.9352 0.0689251 13.0993 -0.0404686 13.2634 0.0142283C13.4821 0.0142283 13.5915 0.178319 13.6462 0.342409C13.7009 0.397106 13.7009 0.5065 13.7009 0.615893C13.865 1.65513 14.5214 2.36619 15.1231 3.18664L15.1778 3.24134C15.5059 3.56952 15.7794 3.62422 16.1623 3.40543C16.2717 3.35073 16.4358 3.24134 16.5452 3.18664C17.5297 2.53028 18.6236 2.1474 19.827 2.03801C19.9364 2.03801 20.0458 2.03801 20.1552 1.98331C21.1397 1.76453 21.9602 1.98331 22.8353 2.47559C23.8745 3.13195 24.8044 3.9524 25.4608 5.04634C25.8983 5.7574 26.1718 5.92149 26.9376 5.31982C27.758 4.66346 28.7426 4.22588 29.7271 3.9524C32.0244 3.40543 33.9935 4.0071 35.525 5.86679C35.7985 6.19497 36.0172 6.57785 36.0719 7.07012C36.0719 7.28891 36.1813 7.50769 36.236 7.78118C36.2907 7.94527 36.5095 7.99997 36.6736 7.94527C36.8377 7.83588 37.0018 7.78118 37.1112 7.61709C38.9709 5.92149 41.2681 5.04634 43.6748 4.55407C44.1671 4.44467 44.6593 4.44467 45.2063 4.38997C45.3704 4.38997 45.5892 4.38997 45.7533 4.49937C45.8627 4.44467 46.0268 4.55407 46.0268 4.66346C46.0268 4.77285 45.9174 4.93694 45.808 5.04634C45.5345 5.21043 45.261 5.31982 44.9875 5.42921C43.8389 5.97618 42.7997 6.68724 41.8151 7.453C41.4869 7.72648 41.2134 8.05466 40.94 8.32815C40.8306 8.43754 40.7759 8.60163 40.8853 8.71102C40.94 8.76572 41.104 8.82042 41.2134 8.76572C41.4322 8.71102 41.5963 8.65633 41.8151 8.60163C42.4168 8.38284 42.9637 8.16406 43.5654 7.94527C43.7842 7.89057 44.003 7.78118 44.2765 7.78118C44.3859 7.78118 44.6046 7.89057 44.6593 7.99997C44.714 8.10936 44.714 8.32815 44.6046 8.38284C44.4406 8.60163 44.2765 8.76572 44.0577 8.98451C43.1825 9.85966 42.3621 10.7348 41.4869 11.61C41.3228 11.8287 41.1587 12.0475 40.9947 12.2663C40.8306 12.5398 40.8306 12.8133 41.0494 13.0868C41.104 13.1415 41.1587 13.2509 41.2134 13.3056C42.2527 14.3448 42.3621 15.6028 42.0886 16.9702C42.0339 17.2984 41.9245 17.6813 41.8151 18.0095C41.5963 18.6658 41.3228 19.3222 41.1587 19.9786C41.0494 20.3614 40.8306 20.7443 40.5571 21.0725C40.0101 21.8383 39.4084 22.5493 38.8615 23.2604C37.7675 24.5731 36.6736 25.8858 35.6344 27.1986C33.5559 29.824 31.8603 32.7229 30.1647 35.6219C29.563 36.7158 28.9614 37.8097 28.3597 38.9037C27.6486 40.1617 27.7033 40.2164 28.4691 41.4197C29.3442 42.6778 30.0006 43.9905 30.2741 45.4673C30.3288 45.7408 30.3288 46.0143 30.3288 46.2877C30.3288 46.6706 30.1647 46.8347 29.7818 46.8894C29.7271 46.8894 29.7271 46.8894 29.6724 46.8894C29.016 47.0535 28.9067 47.327 29.2895 47.874C29.563 48.2568 29.8365 48.585 30.0553 48.9679C30.2194 49.2961 30.3835 49.6243 30.4929 49.9524C30.6023 50.2806 30.4382 50.6088 30.2741 50.6635C30.0006 50.7182 29.8365 50.5541 29.6724 50.3353C29.2895 49.7883 28.9067 49.2414 28.5238 48.6944C28.3597 48.4756 28.2503 48.3115 28.0862 48.1474C27.8674 47.9286 27.5392 47.874 27.2658 48.038C27.047 48.2021 26.9923 48.4209 27.1017 48.7491C27.1564 48.9679 27.2658 49.132 27.3751 49.2961C27.7033 50.0071 27.9221 50.7182 28.1409 51.4839C28.1956 51.7574 28.2503 52.0856 28.0862 52.3591C27.9768 52.5232 27.758 52.5779 27.6486 52.4685C27.4845 52.3044 27.3204 52.0856 27.2658 51.8668C27.1017 51.4839 26.9923 51.0464 26.8282 50.6635C26.6094 50.1165 26.3906 49.6243 26.1718 49.0773C25.953 48.6397 25.5701 48.4209 25.0779 48.4756C24.695 48.5303 24.3668 48.5303 23.9839 48.585C23.6558 48.6397 23.437 48.8038 23.437 49.1867C23.437 49.3508 23.437 49.5696 23.437 49.7336C23.4917 50.6635 23.4917 51.648 23.4917 52.5779C23.4917 52.9061 23.437 53.2342 23.3823 53.5624C23.3823 53.6718 23.3276 53.7812 23.2729 53.8906C23.2182 53.9453 23.1088 54 23.0541 54C22.9447 54 22.7806 53.9453 22.7806 53.8359C22.6712 53.453 22.5618 53.0702 22.5618 52.6873C22.5071 51.8121 22.5618 50.937 22.5071 50.0618C22.5071 49.7336 22.4524 49.4055 22.4524 49.0773C22.4524 48.9132 22.343 48.8038 22.2883 48.6944C22.1789 48.5303 21.9055 48.5303 21.8508 48.6944C21.7961 48.9679 21.6867 49.1867 21.6867 49.4602C21.6867 50.1712 21.5773 50.8276 21.3585 51.4839C21.3038 51.7574 21.1397 51.9762 21.0303 52.195C20.9209 52.3591 20.6474 52.3044 20.5927 52.1403C20.538 51.9215 20.4833 51.648 20.4833 51.4292C20.538 50.9917 20.5927 50.6088 20.6474 50.1712C20.7021 49.6789 20.7568 49.2414 20.7021 48.7491C20.6474 48.1474 19.9364 47.6552 19.3894 47.8193C19.2253 47.874 19.1159 48.038 19.0065 48.1474C18.8971 48.3115 18.8971 48.5303 18.8424 48.7491C18.6783 49.2961 18.569 49.843 18.4049 50.39C18.2408 50.8276 17.9673 51.0464 17.6938 50.937C17.3656 50.7729 17.4203 50.4447 17.4203 50.1712C17.475 49.6243 17.5844 49.0226 17.6938 48.4756C17.9673 46.9988 17.7485 47.0535 16.8187 46.4518C16.2717 46.1237 15.7247 45.7408 15.2324 45.3032C14.7402 44.8656 14.6855 44.6468 14.959 44.0452C15.2324 43.4435 15.6153 42.8418 15.9435 42.2402C16.1623 41.8573 16.3811 41.5291 16.5999 41.2009C16.9827 40.654 16.9827 40.107 16.5999 39.56C15.0684 37.1534 13.865 34.5826 12.607 32.0119C10.7473 28.1284 8.55943 24.409 6.15277 20.8537C5.98868 20.6349 5.87929 20.4161 5.7699 20.1427C5.60581 19.7598 5.38702 19.4863 5.05884 19.2675C4.67596 19.0487 4.34778 18.8299 4.0196 18.5565C3.30854 18.0095 2.48809 17.6266 1.55824 17.4625C1.33945 17.4078 1.06597 17.4078 0.847181 17.2984C0.628393 17.189 0.354909 17.0796 0.190819 16.8609C-0.137362 16.5327 -0.0279681 16.0404 0.409607 15.8216C0.628394 15.7122 0.847181 15.6575 1.12066 15.6028C2.05051 15.4387 2.98036 15.3293 3.9102 15.384C4.0196 15.384 4.12899 15.384 4.29308 15.384C4.94944 15.4387 5.16823 15.1106 5.22293 14.5636C5.22293 14.3448 5.27762 14.126 5.27762 13.9619C5.27762 12.868 5.55111 11.8287 5.87929 10.7895C6.37156 9.31269 7.3561 8.21875 8.77822 7.56239C9.05171 7.453 9.37989 7.28891 9.65337 7.17951C9.87216 7.07012 9.92686 6.79664 9.76276 6.57785C9.65337 6.46845 9.48928 6.30436 9.37989 6.19497C7.30141 4.66346 5.05884 3.67892 2.48809 3.40543C2.2693 3.40543 2.05051 3.35073 1.94112 3.13195C1.88642 2.96786 1.99581 2.69437 2.2693 2.58498C2.48809 2.47559 2.76157 2.36619 3.03505 2.36619C3.85551 2.58498 4.56657 2.53028 5.27762 2.47559ZM21.3585 41.8573C22.5071 41.8573 23.1635 41.7479 23.9839 41.4197C24.695 41.1462 25.3514 40.8181 26.0077 40.4899C26.7735 40.107 27.2658 39.5053 27.5939 38.7396C29.1801 35.239 31.2039 32.0119 33.3371 28.8395C34.5951 26.9798 36.0719 25.2295 37.5488 23.4792C37.7675 23.2057 38.041 22.9322 38.2598 22.6587C38.3692 22.4946 38.4239 22.3305 38.5333 22.2211C38.588 22.1117 38.4786 21.893 38.3145 21.893C38.0957 21.893 37.8222 21.893 37.6035 21.893C36.0719 22.057 34.5951 22.2758 33.1183 22.7134C31.8603 23.0416 30.657 23.3698 29.3442 23.5339C28.5785 23.6433 27.8674 23.698 27.1564 23.862C25.7342 24.1902 24.3121 24.2449 22.89 24.1355C21.4679 23.9714 20.1005 23.8073 18.6783 23.698C17.0921 23.5886 15.5059 23.5886 13.9197 23.5886C13.4821 23.5886 13.0993 23.5339 12.7164 23.3151C12.4429 23.151 12.1147 23.0416 11.7865 23.0416C10.9114 22.9869 10.0909 22.7134 9.27049 22.3305C9.05171 22.2211 8.83292 22.1664 8.61413 22.1117C8.39534 22.0571 8.17656 22.2758 8.28595 22.4946C8.45004 22.8228 8.61413 23.151 8.77822 23.4245C10.802 26.7063 12.7711 29.9881 14.4667 33.4887C14.6855 33.9263 14.9043 34.3638 15.1231 34.7467C15.9435 36.3329 16.8187 37.9191 17.475 39.6147C17.6391 40.0523 17.9126 40.3805 18.2955 40.654C19.2253 41.4744 20.3193 41.9667 21.3585 41.8573ZM23.6011 47.6005C24.6403 47.6552 25.6795 47.5458 26.7188 47.1629C27.3204 46.9441 27.8674 46.6706 28.4691 46.3971C28.6332 46.3424 28.7973 46.233 28.9614 46.1237C29.2895 45.9049 29.3989 45.6314 29.2895 45.2485C29.2348 45.0297 29.1801 44.8656 29.1254 44.6468C28.7973 43.6623 28.305 42.7871 27.8127 41.912C27.4298 41.2009 27.1017 40.8728 26.1718 41.5291C25.5155 41.9667 24.8591 42.3496 24.0933 42.5137C22.2336 43.0606 20.3739 43.17 18.6783 41.9667C18.6237 41.912 18.569 41.912 18.5143 41.8573C18.0767 41.6385 17.8032 41.6385 17.5297 42.0761C17.0921 42.7324 16.6546 43.4435 16.217 44.0999C15.8888 44.5921 15.9982 44.8656 16.4905 45.2485C16.5999 45.3032 16.7093 45.3579 16.764 45.4673C18.7877 46.8347 21.085 47.6552 23.6011 47.6005ZM6.42626 15.4387C6.42626 16.1498 6.42626 16.6968 6.42626 17.2437C6.37156 18.0642 6.64505 18.7752 7.13732 19.4316C7.52019 19.9239 7.95777 20.4161 8.50474 20.6896C9.1611 21.0178 9.76276 21.346 10.4738 21.6195C11.5131 22.057 12.6617 22.0024 13.7556 21.7289C13.9197 21.6742 14.0838 21.6195 14.2479 21.5101C14.412 21.4007 14.4667 21.1272 14.3026 21.0178C14.0838 20.799 13.865 20.6349 13.5915 20.4708C11.6225 19.1581 10.0909 17.4078 8.83292 15.4387C8.12186 14.2901 7.68429 13.0321 7.73898 11.61C7.73898 11.3912 7.73898 11.1177 7.68429 10.8989C7.68429 10.7895 7.57489 10.6801 7.4655 10.6254C7.3561 10.6254 7.19201 10.6801 7.13732 10.7348C6.97323 10.8989 6.86383 11.1177 6.80914 11.3365C6.69974 11.7193 6.64505 12.1022 6.59035 12.4851C6.37156 13.5243 6.48096 14.5636 6.42626 15.4387ZM25.0232 22.9322C28.4691 22.9322 30.7663 19.9786 30.821 17.0796C30.821 16.6968 30.7117 16.3139 30.5476 15.9857C30.2194 15.2199 29.6177 14.673 29.0707 14.0713C28.9614 13.9619 28.6879 13.8525 28.5238 13.8525C28.2503 13.9072 28.2503 14.1807 28.1956 14.3995C28.1956 14.5089 28.1956 14.6183 28.1409 14.7824C28.0315 15.2746 27.9768 15.7669 27.8127 16.2592C27.5939 16.9702 27.3204 17.6813 27.047 18.3924C26.9923 18.6112 26.8829 18.7752 26.7735 18.9393C26.0624 19.9786 25.3514 21.0725 24.4215 22.0024C24.3121 22.1117 24.2574 22.1664 24.2027 22.2758C23.9292 22.6587 24.0386 22.9322 24.5309 22.9869C24.695 22.9869 24.8591 22.9322 25.0232 22.9322ZM25.4608 7.89057C25.4608 7.453 25.4061 7.07012 25.1873 6.68724C25.0232 6.35906 24.695 6.30436 24.4762 6.57785C24.3121 6.74194 24.2574 6.90603 24.0933 7.07012C23.7652 7.50769 23.4917 7.94527 23.1088 8.32815C22.1242 9.31269 20.9756 9.96905 19.5535 10.0237C19.3894 10.0237 19.2253 10.0784 19.0612 10.1331C18.8971 10.1878 18.7877 10.3519 18.8424 10.5707C18.8424 10.6801 18.8971 10.7348 18.9518 10.8442C19.28 11.4459 19.5535 12.0475 19.7176 12.7586C19.7176 12.8133 19.7723 12.868 19.7723 12.9227C19.8817 13.1415 20.1005 13.1962 20.3193 13.1415C20.4286 13.0868 20.4833 13.0868 20.538 13.0321C21.5773 12.2663 22.6712 11.7193 23.8745 11.2818C24.3668 11.1177 24.695 10.7895 24.9138 10.3519C25.242 9.53148 25.4061 8.71102 25.4608 7.89057ZM32.9542 16.7515C33.0089 17.2437 33.0636 17.6813 33.173 18.1736C33.2824 18.8846 33.6653 19.4316 34.3216 19.8145C34.8686 20.1427 35.4703 20.4161 36.1266 20.5802C36.6736 20.6896 37.2753 20.6349 37.8222 20.5255C37.8769 20.5255 37.9316 20.4708 37.9863 20.4708C38.3692 20.3068 38.4239 19.9239 38.0957 19.7051C37.9316 19.5957 37.7675 19.4863 37.5488 19.3769C36.2907 18.6658 35.4703 17.6266 35.0327 16.2592C34.8686 15.6575 34.6498 15.0012 34.4857 14.3995C34.3763 14.0166 34.0482 13.9619 33.8294 14.2901C33.72 14.4542 33.5559 14.6183 33.5012 14.7824C33.0636 15.3293 32.8995 15.9857 32.9542 16.7515ZM17.9673 12.8133C17.9126 12.7586 17.9126 12.5945 17.8579 12.5945C17.7485 12.5945 17.5844 12.5945 17.475 12.7039C17.2015 12.9227 16.9827 13.1962 16.7093 13.415C15.9982 14.0713 15.1231 14.3448 14.1385 14.1807C13.8103 14.126 13.4822 14.0166 13.2087 13.9072C12.9899 13.8525 12.7711 13.6884 12.5523 13.6337C12.2241 13.5243 11.9506 13.6884 11.9506 14.0713C12.0053 14.9465 12.2241 15.8216 12.607 16.6421C12.8258 17.0796 13.154 17.189 13.6462 17.0796C15.2871 16.6421 16.5999 15.7122 17.5297 14.2354C17.7485 13.7978 17.9126 13.3603 17.9673 12.8133ZM18.5143 16.6421C18.5143 16.478 18.4596 16.1498 18.4049 15.8216C18.3502 15.6028 18.0767 15.4934 17.9126 15.6575C17.7485 15.8216 17.5297 15.9857 17.3656 16.1498C16.4905 17.0249 15.5059 17.6266 14.3026 17.9548C14.0291 18.0095 13.8103 18.1189 13.5368 18.2283C13.2087 18.3924 13.0993 18.6658 13.4275 18.9393C14.1385 19.5957 14.959 20.088 15.8888 20.3068C16.4905 20.4161 16.9827 20.1974 17.3656 19.7598C18.1314 18.8299 18.5143 17.8454 18.5143 16.6421ZM11.0208 9.25799C11.0755 8.92981 10.802 8.65633 10.4738 8.76572C10.0909 8.87511 9.76276 9.03921 9.37989 9.2033C8.94231 9.42208 8.72353 9.75026 8.66883 10.2425C8.66883 10.6254 8.66883 10.9536 8.66883 11.3365C8.61413 13.1415 9.37989 14.6183 10.5285 15.931C10.6379 16.0951 10.802 16.3139 11.0208 16.2045C11.2943 16.0951 11.1849 15.8763 11.1849 15.6575C11.1849 15.5481 11.1302 15.4387 11.1302 15.3293C11.0208 14.3995 10.8567 13.5243 10.9114 12.5945C11.0208 11.4459 11.0208 10.3519 11.0208 9.25799ZM36.9471 11.2818C37.1112 11.2818 37.2206 11.2818 37.3847 11.2818C37.8222 11.3365 38.1504 11.1724 38.3145 10.7348C38.3692 10.6254 38.3692 10.5707 38.4239 10.4613C38.8068 9.53148 39.3538 8.71102 40.0648 8.05466C40.5024 7.61709 40.9947 7.17951 41.4322 6.74194C41.5963 6.57785 41.7057 6.41376 41.8698 6.30436C41.9245 6.19497 41.8698 6.03088 41.7604 6.03088C41.5963 6.03088 41.3775 6.03088 41.2134 6.08558C39.2444 6.74194 37.6581 7.89057 36.3454 9.47678C36.0719 9.80496 35.9625 10.1878 35.8532 10.6254C35.7985 11.0083 35.9625 11.2271 36.2907 11.2271C36.5095 11.2818 36.7283 11.2818 36.9471 11.2818ZM8.01247 3.67892C7.57489 3.67892 7.3561 3.73361 7.4108 3.84301C7.4655 4.0071 7.62959 4.11649 7.73898 4.22588C7.84838 4.28058 7.95777 4.33528 8.06716 4.38997C9.27049 5.04634 10.4191 5.81209 11.4037 6.79664C11.6772 7.07012 12.0053 7.23421 12.4429 7.28891C12.9352 7.3436 13.4275 7.453 13.9197 7.50769C14.0291 7.50769 14.0838 7.56239 14.1932 7.56239C14.6308 7.61709 14.8496 7.23421 14.6308 6.85133C14.5761 6.74194 14.4667 6.57785 14.3573 6.46845C14.1385 6.24967 13.865 6.03088 13.5915 5.81209C12.06 4.66346 10.3097 4.06179 8.45004 3.62422C8.28595 3.67892 8.12186 3.67892 8.01247 3.67892ZM18.8424 9.25799C19.28 9.2033 19.6629 9.2033 20.1005 9.0939C20.3193 9.0392 20.538 8.92981 20.7021 8.76572C20.8115 8.71102 20.8115 8.49224 20.6474 8.49224C20.3739 8.38284 20.1005 8.27345 19.827 8.21875C18.8424 7.99997 18.0767 7.3983 17.5844 6.57785C17.3656 6.24967 17.2015 5.81209 16.9827 5.48391C16.8734 5.31982 16.764 5.10103 16.6546 4.93694C16.5452 4.82755 16.3811 4.77285 16.2717 4.93694C16.1623 5.04634 15.9982 5.21043 15.9435 5.37452C15.67 5.92149 15.67 6.46845 15.7247 7.01542C15.8341 7.67178 16.1076 8.16406 16.6546 8.60163C17.3109 9.0939 18.022 9.25799 18.8424 9.25799ZM25.242 14.673C25.242 13.6884 24.3121 12.9774 23.5464 13.3603C22.5071 13.8525 21.8508 14.6183 21.4132 15.6575C21.3585 15.8216 21.3038 16.0404 21.3038 16.2592C21.3038 17.2984 22.1789 17.7907 23.1088 17.2984C23.1635 17.2437 23.2182 17.2437 23.2729 17.189C23.9292 16.6421 24.5309 16.0951 24.9685 15.384C25.1326 15.1106 25.1873 14.8371 25.242 14.673ZM12.0053 10.4066C12.06 10.7348 12.06 11.063 12.1147 11.3365C12.2241 11.9381 12.5523 12.3757 13.0993 12.6492C13.3181 12.7586 13.5915 12.868 13.865 12.9227C15.0684 13.3056 16.3811 12.4851 16.6546 11.2271C16.6546 11.1724 16.6546 11.1724 16.6546 11.1177C16.6546 11.0083 16.5452 10.8989 16.4358 10.8989C16.2717 11.0083 16.0529 11.063 15.8888 11.1724C14.5761 12.0475 13.154 10.9536 13.2634 9.69557C13.2634 9.47678 13.2634 9.25799 13.2634 9.0939C13.2634 8.87511 13.154 8.76572 12.9899 8.71102C12.7711 8.65633 12.607 8.76572 12.4976 8.87511C12.3882 9.0392 12.2241 9.2033 12.1694 9.42208C12.06 9.80496 12.06 10.1331 12.0053 10.4066ZM19.4988 19.3222C19.4988 19.4316 19.5535 19.5957 19.6082 19.7598C19.8817 20.4708 20.3193 21.1272 20.9209 21.6742C21.1944 21.893 21.5226 22.1117 21.7961 22.2758C22.0149 22.3852 22.2336 22.4399 22.5071 22.3305C23.1635 22.0024 23.6558 21.5101 24.0386 20.8537C24.148 20.6896 24.0386 20.4161 23.8199 20.3614C23.7105 20.3068 23.6558 20.3068 23.5464 20.3068C22.5071 20.1974 21.5773 19.7051 20.6474 19.2128C20.4286 19.1034 20.2099 18.994 19.9911 18.8846C19.7723 18.7205 19.4988 18.9393 19.4988 19.3222ZM37.8222 16.1498C38.588 16.2045 39.3538 15.931 40.0648 15.5481C40.2289 15.4934 40.3383 15.3293 40.5024 15.2199C40.6118 15.0559 40.6665 14.8918 40.5571 14.7277C40.4477 14.5636 40.2836 14.4542 40.1195 14.5089C39.9007 14.5089 39.7366 14.6183 39.5178 14.673C39.135 14.8371 38.8068 14.8918 38.3692 14.8918C37.4941 14.8371 37.0565 14.5636 36.8377 13.6884C36.7283 13.4696 36.7283 13.2509 36.6189 13.0868C36.5095 12.7586 36.236 12.6492 35.9079 12.7586C35.525 12.868 35.3062 13.0868 35.3062 13.5243C35.3062 13.6884 35.3062 13.9072 35.3609 14.0713C35.6344 15.4934 36.0172 16.1498 37.8222 16.1498ZM30.8757 13.6884C31.0398 13.6337 31.1492 13.6884 31.2586 13.6337C32.5166 13.0868 33.6653 12.3757 34.3763 11.1177C34.4857 10.8989 34.5951 10.6801 34.6498 10.4613C34.7045 10.3519 34.6498 10.1331 34.5951 10.0784C34.4857 9.96905 34.3216 10.0237 34.2122 10.1331C34.1029 10.1878 33.9935 10.2972 33.9388 10.3519C32.8995 11.2818 31.6962 11.9381 30.3288 12.2116C30.0006 12.1569 29.6177 12.1569 29.563 12.5398C29.5083 12.868 29.7818 13.0321 29.9459 13.1962C30.0553 13.3056 30.2194 13.415 30.3835 13.5243C30.5476 13.579 30.7117 13.6337 30.8757 13.6884ZM29.3442 7.07012C29.2895 6.68724 29.2348 6.24967 29.1254 5.81209C29.016 5.48391 28.7426 5.31982 28.4144 5.42921C27.7033 5.648 27.047 6.08558 26.6641 6.68724C26.3359 7.17951 26.3906 7.99997 26.7735 8.32815C27.1017 8.60163 27.4845 8.76572 27.8674 8.92981C28.5238 9.1486 29.0161 8.82042 29.1801 8.21875C29.2895 7.89057 29.2895 7.50769 29.3442 7.07012ZM30.7663 4.60876C30.657 4.66346 30.4382 4.66346 30.2194 4.71816C29.7818 4.88225 29.6724 5.10103 29.7818 5.53861C29.8912 6.03088 30.0553 6.52315 30.1647 7.01542C30.2194 7.23421 30.1647 7.50769 30.2194 7.72648C30.2741 8.16406 30.4929 8.27345 30.8757 8.16406C31.1492 8.05466 31.4227 7.94527 31.6962 7.78118C32.0244 7.61709 32.1885 7.3436 32.1885 6.96073C32.1885 6.30436 32.0244 5.648 31.6962 5.10103C31.5321 4.77285 31.2586 4.66346 30.7663 4.60876ZM21.632 7.3436C22.0696 7.3436 22.5618 7.3436 22.89 7.01542C23.437 6.52315 23.7652 5.92149 23.9839 5.21043C24.0386 5.10103 23.9292 4.88225 23.8199 4.82755C23.7105 4.77285 23.5464 4.77285 23.437 4.82755C23.3276 4.88225 23.2182 4.99164 23.1088 5.10103C22.6165 5.53861 22.0149 5.648 21.3585 5.48391C21.085 5.42921 20.7568 5.31982 20.4833 5.26512C20.2099 5.21043 20.0458 5.42921 20.0458 5.7027C20.0458 6.57785 20.8662 7.3436 21.632 7.3436ZM19.4988 22.8775C19.7723 22.8775 20.1005 22.8228 20.2099 22.6587C20.3739 22.4946 20.1552 22.2758 20.0458 22.1117C19.9364 22.0024 19.827 21.8383 19.6629 21.7289C19.4441 21.5101 19.2253 21.2913 19.1706 21.0178C19.1706 20.9084 19.1159 20.799 19.0612 20.6896C18.8971 20.3614 18.5143 20.3068 18.3502 20.5802C17.9126 21.1819 17.2562 21.5101 16.6546 21.893C16.3811 22.057 15.9435 22.1664 15.9982 22.4946C16.1076 22.9322 16.5452 22.7681 16.928 22.8228C17.0374 22.8228 17.0921 22.8228 17.2015 22.8228C17.5844 22.7681 17.9126 22.7681 18.2955 22.8228C18.6237 22.8228 19.0065 22.9322 19.3347 22.9322C19.3894 22.8775 19.4441 22.8775 19.4988 22.8775ZM27.4298 11.4459C27.9221 11.3912 28.305 11.3365 28.7426 11.3365C29.5083 11.2818 29.8912 10.7895 30.2194 10.1878C30.3288 10.0237 30.1647 9.80496 29.9459 9.85966C29.6724 9.91435 29.3442 9.96905 29.0707 10.0784C28.6332 10.2425 28.1956 10.1878 27.8127 9.96905C27.7033 9.91435 27.5392 9.85966 27.4298 9.75026C26.3906 9.0939 26.2265 9.58617 25.953 10.4066C25.953 10.516 25.8983 10.5707 25.8983 10.6801C25.8436 11.0083 26.0077 11.2271 26.3359 11.3365C26.7188 11.3912 27.1564 11.3912 27.4298 11.4459ZM30.4929 22.3852C30.7117 22.3305 30.821 22.3305 30.9851 22.2758C31.6962 22.1117 32.4073 21.893 33.1183 21.6742C33.2824 21.6195 33.4465 21.5648 33.6106 21.4554C33.7747 21.346 33.8294 21.1272 33.72 20.9631C33.6653 20.9084 33.6106 20.799 33.5559 20.7443C33.1183 20.4161 32.6807 19.9786 32.4073 19.4863C32.3526 19.4316 32.2979 19.3769 32.2432 19.2675C32.0791 19.1581 31.8603 19.1581 31.7509 19.3222C31.6415 19.4316 31.5868 19.5957 31.5321 19.7051C31.2586 20.1427 30.9851 20.6349 30.7117 21.0725C30.5476 21.2913 30.3835 21.5101 30.2741 21.7289C30.1647 21.9477 30.1647 22.1117 30.1647 22.1664C30.2741 22.2758 30.3835 22.3305 30.4929 22.3852ZM34.8139 7.07012C34.8139 6.35906 33.8841 5.37452 33.2277 5.26512C33.0089 5.21043 32.7901 5.42921 32.8448 5.648C32.8995 6.03088 33.0089 6.41376 33.0636 6.79664C33.2277 7.50769 33.1183 8.16405 32.7901 8.76572C32.6807 8.98451 32.5166 9.25799 32.4073 9.47678C32.3526 9.53148 32.4073 9.64087 32.4619 9.69557C32.5166 9.75026 32.626 9.75026 32.6807 9.69557C33.6106 9.1486 34.2669 8.32815 34.7045 7.3983C34.8139 7.28891 34.8139 7.17951 34.8139 7.07012ZM40.7759 17.1343C40.7759 16.6968 40.6118 16.5327 40.2836 16.5874C40.1195 16.5874 40.0101 16.6421 39.846 16.6968C39.1897 16.9702 38.4786 17.0796 37.7675 17.1343C37.6581 17.1343 37.5488 17.1343 37.4394 17.189C37.2206 17.2437 37.1112 17.4625 37.2753 17.6813C37.33 17.736 37.3847 17.8454 37.4394 17.9001C38.041 18.3924 38.6974 18.7205 39.3538 18.994C39.6819 19.1034 39.9554 18.994 40.1195 18.7205C40.4477 18.1736 40.6665 17.6266 40.7759 17.1343ZM23.7652 19.2675C23.8745 19.2675 24.0933 19.2675 24.3121 19.2128C25.5155 18.994 25.953 18.283 25.6795 17.0796C25.6795 17.0249 25.6795 17.0249 25.6795 16.9702C25.6248 16.6968 25.3514 16.5874 25.1326 16.7515C25.0232 16.8062 24.9138 16.8609 24.8591 16.9702C24.2027 17.6813 23.437 18.283 22.5071 18.4471C22.4524 18.4471 22.343 18.5565 22.343 18.6111C22.343 18.6658 22.3977 18.7752 22.4524 18.8299C22.7806 19.1581 23.2182 19.2128 23.7652 19.2675ZM19.28 6.19497C19.1706 5.53861 19.0065 4.66346 18.8424 3.73361C18.8424 3.62422 18.7877 3.56952 18.733 3.51483C18.6236 3.46013 18.569 3.35073 18.4596 3.35073C17.8579 3.24134 17.3109 3.78831 17.475 4.33528C17.6938 5.04634 18.022 5.7027 18.5143 6.30436C18.6237 6.41376 18.7877 6.52315 18.9518 6.63254C19.0612 6.74194 19.28 6.63254 19.28 6.19497ZM21.632 4.82755C22.1242 4.82755 22.4524 4.66346 22.7259 4.33528C23.0541 3.9524 22.8353 3.40543 22.343 3.35073C22.1242 3.35073 21.9055 3.35073 21.7414 3.40543C21.3585 3.46013 21.0303 3.46013 20.7021 3.18664C20.5927 3.13195 20.4833 3.07725 20.3739 3.02255C20.1552 2.96786 19.9911 2.91316 19.7723 3.07725C19.6082 3.24134 19.6082 3.46013 19.6629 3.62422C19.7723 3.78831 19.8817 4.0071 19.9911 4.11649C20.538 4.60876 21.085 4.77285 21.632 4.82755ZM27.3204 14.2354C27.2658 13.9072 27.2111 13.6337 27.1564 13.415C26.9923 12.9227 26.6094 12.7039 26.1171 12.7586C25.8436 12.7586 25.6795 12.9774 25.7889 13.2509C25.7889 13.3056 25.7889 13.3056 25.8436 13.3603C26.1718 13.8525 26.3359 14.4542 26.5 15.0012C26.5 15.1106 26.5547 15.1652 26.6094 15.2746C26.6641 15.384 26.7735 15.4934 26.8829 15.4934C26.9923 15.4934 27.1017 15.384 27.1564 15.3293C27.1564 14.8371 27.2111 14.5089 27.3204 14.2354ZM3.74611 16.478C3.47263 16.5327 3.14445 16.5874 2.87096 16.6421C2.81627 16.6421 2.70687 16.7515 2.70687 16.8062C2.70687 16.8609 2.76157 17.0249 2.81627 17.0249C3.41793 17.3531 4.0196 17.6813 4.62126 17.9548C4.73066 18.0095 4.84005 18.0095 4.94944 17.9548C5.00414 17.9548 5.11353 17.9001 5.16823 17.7907C5.38702 17.3531 5.16823 16.7515 4.73066 16.5874C4.40248 16.5327 4.07429 16.5327 3.74611 16.478ZM39.7366 12.1022C39.9007 11.9928 40.1195 11.9928 40.1742 11.8834C40.6118 11.3912 40.9947 10.8442 41.3775 10.3519C41.4322 10.2972 41.4322 10.1331 41.3775 10.1331C41.2681 10.0784 41.1587 10.0237 41.0494 10.0237C40.4477 10.1878 39.9007 10.516 39.4084 10.8989C39.2991 10.9536 39.2444 11.063 39.1897 11.1724C39.0803 11.3912 39.0256 11.61 39.1897 11.774C39.3538 11.9381 39.5725 11.9928 39.7366 12.1022ZM19.827 16.478C19.827 16.7515 19.827 17.0796 19.827 17.3531C19.8817 17.6813 20.1552 17.9001 20.538 17.9548C20.7021 17.9548 20.8115 17.7907 20.8115 17.6813C20.8115 17.6266 20.8115 17.5719 20.7568 17.5172C20.4286 16.8609 20.374 16.1498 20.538 15.4387C20.5927 15.3293 20.538 15.1652 20.4286 15.0012C20.374 14.8918 20.1005 15.0012 19.9911 15.2199C19.8817 15.4387 19.827 15.6575 19.7723 15.8763C19.827 16.0404 19.827 16.2592 19.827 16.478ZM13.8103 4.22588C13.9197 4.44467 13.9744 4.71816 14.0838 4.99164C14.1932 5.21043 14.5214 5.31982 14.6855 5.21043C14.9043 5.15573 15.0137 4.93694 15.0137 4.71816C15.0137 4.60876 15.0684 4.49937 15.0137 4.38997C14.9043 4.0071 14.6308 3.73361 14.2479 3.56952C14.0838 3.51483 13.9744 3.56952 13.865 3.73361C13.865 3.84301 13.865 4.0071 13.8103 4.22588ZM14.8496 9.0939C14.4667 9.0392 14.2479 9.2033 14.1932 9.53148C14.1385 9.91435 14.412 10.3519 14.7949 10.4066C15.1231 10.4613 15.5059 10.1878 15.5606 9.80496C15.5606 9.42208 15.2871 9.1486 14.8496 9.0939Z" fill="black"/>
<path d="M5.27762 2.47559C7.4108 2.47559 9.48928 2.85846 11.5131 3.67892C11.6772 3.73361 11.7865 3.78831 11.9506 3.84301C12.6617 4.11649 12.9352 3.9524 12.9352 3.18664C12.9352 2.80377 12.8805 2.42089 12.8258 2.03801C12.7711 1.76453 12.6617 1.43635 12.607 1.16286C12.5523 0.834681 12.607 0.5065 12.8258 0.233016C12.9352 0.0689251 13.0993 -0.0404686 13.2634 0.0142283C13.4821 0.0142283 13.5915 0.178319 13.6462 0.342409C13.7009 0.397106 13.7009 0.5065 13.7009 0.615893C13.865 1.65513 14.5214 2.36619 15.1231 3.18664L15.1778 3.24134C15.5059 3.56952 15.7794 3.62422 16.1623 3.40543C16.2717 3.35073 16.4358 3.24134 16.5452 3.18664C17.5297 2.53028 18.6236 2.1474 19.827 2.03801C19.9364 2.03801 20.0458 2.03801 20.1552 1.98331C21.1397 1.76453 21.9602 1.98331 22.8353 2.47559C23.8745 3.13195 24.8044 3.9524 25.4608 5.04634C25.8983 5.7574 26.1718 5.92149 26.9376 5.31982C27.758 4.66346 28.7426 4.22588 29.7271 3.9524C32.0244 3.40543 33.9935 4.0071 35.525 5.86679C35.7985 6.19497 36.0172 6.57785 36.0719 7.07012C36.0719 7.28891 36.1813 7.50769 36.236 7.78118C36.2907 7.94527 36.5095 7.99997 36.6736 7.94527C36.8377 7.83588 37.0018 7.78118 37.1112 7.61709C38.9709 5.92149 41.2681 5.04634 43.6748 4.55407C44.1671 4.44467 44.6593 4.44467 45.2063 4.38997C45.3704 4.38997 45.5892 4.38997 45.7533 4.49937C45.8627 4.44467 46.0268 4.55407 46.0268 4.66346C46.0268 4.77285 45.9174 4.93694 45.808 5.04634C45.5345 5.21043 45.261 5.31982 44.9875 5.42921C43.8389 5.97618 42.7997 6.68724 41.8151 7.453C41.4869 7.72648 41.2134 8.05466 40.94 8.32815C40.8306 8.43754 40.7759 8.60163 40.8853 8.71102C40.94 8.76572 41.104 8.82042 41.2134 8.76572C41.4322 8.71102 41.5963 8.65633 41.8151 8.60163C42.4168 8.38284 42.9637 8.16406 43.5654 7.94527C43.7842 7.89057 44.003 7.78118 44.2765 7.78118C44.3859 7.78118 44.6046 7.89057 44.6593 7.99997C44.714 8.10936 44.714 8.32815 44.6046 8.38284C44.4406 8.60163 44.2765 8.76572 44.0577 8.98451C43.1825 9.85966 42.3621 10.7348 41.4869 11.61C41.3228 11.8287 41.1587 12.0475 40.9947 12.2663C40.8306 12.5398 40.8306 12.8133 41.0494 13.0868C41.104 13.1415 41.1587 13.2509 41.2134 13.3056C42.2527 14.3448 42.3621 15.6028 42.0886 16.9702C42.0339 17.2984 41.9245 17.6813 41.8151 18.0095C41.5963 18.6658 41.3228 19.3222 41.1587 19.9786C41.0494 20.3614 40.8306 20.7443 40.5571 21.0725C40.0101 21.8383 39.4084 22.5493 38.8615 23.2604C37.7675 24.5731 36.6736 25.8858 35.6344 27.1986C33.5559 29.824 31.8603 32.7229 30.1647 35.6219C29.563 36.7158 28.9614 37.8097 28.3597 38.9037C27.6486 40.1617 27.7033 40.2164 28.4691 41.4197C29.3442 42.6778 30.0006 43.9905 30.2741 45.4673C30.3288 45.7408 30.3288 46.0143 30.3288 46.2877C30.3288 46.6706 30.1647 46.8347 29.7818 46.8894C29.7271 46.8894 29.7271 46.8894 29.6724 46.8894C29.016 47.0535 28.9067 47.327 29.2895 47.874C29.563 48.2568 29.8365 48.585 30.0553 48.9679C30.2194 49.2961 30.3835 49.6243 30.4929 49.9524C30.6023 50.2806 30.4382 50.6088 30.2741 50.6635C30.0006 50.7182 29.8365 50.5541 29.6724 50.3353C29.2895 49.7883 28.9067 49.2414 28.5238 48.6944C28.3597 48.4756 28.2503 48.3115 28.0862 48.1474C27.8674 47.9286 27.5392 47.874 27.2658 48.038C27.047 48.2021 26.9923 48.4209 27.1017 48.7491C27.1564 48.9679 27.2658 49.132 27.3751 49.2961C27.7033 50.0071 27.9221 50.7182 28.1409 51.4839C28.1956 51.7574 28.2503 52.0856 28.0862 52.3591C27.9768 52.5232 27.758 52.5779 27.6486 52.4685C27.4845 52.3044 27.3204 52.0856 27.2658 51.8668C27.1017 51.4839 26.9923 51.0464 26.8282 50.6635C26.6094 50.1165 26.3906 49.6243 26.1718 49.0773C25.953 48.6397 25.5701 48.4209 25.0779 48.4756C24.695 48.5303 24.3668 48.5303 23.9839 48.585C23.6558 48.6397 23.437 48.8038 23.437 49.1867C23.437 49.3508 23.437 49.5696 23.437 49.7336C23.4917 50.6635 23.4917 51.648 23.4917 52.5779C23.4917 52.9061 23.437 53.2342 23.3823 53.5624C23.3823 53.6718 23.3276 53.7812 23.2729 53.8906C23.2182 53.9453 23.1088 54 23.0541 54C22.9447 54 22.7806 53.9453 22.7806 53.8359C22.6712 53.453 22.5618 53.0702 22.5618 52.6873C22.5071 51.8121 22.5618 50.937 22.5071 50.0618C22.5071 49.7336 22.4524 49.4055 22.4524 49.0773C22.4524 48.9132 22.343 48.8038 22.2883 48.6944C22.1789 48.5303 21.9055 48.5303 21.8508 48.6944C21.7961 48.9679 21.6867 49.1867 21.6867 49.4602C21.6867 50.1712 21.5773 50.8276 21.3585 51.4839C21.3038 51.7574 21.1397 51.9762 21.0303 52.195C20.9209 52.3591 20.6474 52.3044 20.5927 52.1403C20.538 51.9215 20.4833 51.648 20.4833 51.4292C20.538 50.9917 20.5927 50.6088 20.6474 50.1712C20.7021 49.6789 20.7568 49.2414 20.7021 48.7491C20.6474 48.1474 19.9364 47.6552 19.3894 47.8193C19.2253 47.874 19.1159 48.038 19.0065 48.1474C18.8971 48.3115 18.8971 48.5303 18.8424 48.7491C18.6783 49.2961 18.569 49.843 18.4049 50.39C18.2408 50.8276 17.9673 51.0464 17.6938 50.937C17.3656 50.7729 17.4203 50.4447 17.4203 50.1712C17.475 49.6243 17.5844 49.0226 17.6938 48.4756C17.9673 46.9988 17.7485 47.0535 16.8187 46.4518C16.2717 46.1237 15.7247 45.7408 15.2324 45.3032C14.7402 44.8656 14.6855 44.6468 14.959 44.0452C15.2324 43.4435 15.6153 42.8418 15.9435 42.2402C16.1623 41.8573 16.3811 41.5291 16.5999 41.2009C16.9827 40.654 16.9827 40.107 16.5999 39.56C15.0684 37.1534 13.865 34.5826 12.607 32.0119C10.7473 28.1284 8.55943 24.409 6.15277 20.8537C5.98868 20.6349 5.87929 20.4161 5.7699 20.1427C5.60581 19.7598 5.38702 19.4863 5.05884 19.2675C4.67596 19.0487 4.34778 18.8299 4.0196 18.5565C3.30854 18.0095 2.48809 17.6266 1.55824 17.4625C1.33945 17.4078 1.06597 17.4078 0.847181 17.2984C0.628393 17.189 0.354909 17.0796 0.190819 16.8609C-0.137362 16.5327 -0.0279681 16.0404 0.409607 15.8216C0.628394 15.7122 0.847181 15.6575 1.12066 15.6028C2.05051 15.4387 2.98036 15.3293 3.9102 15.384C4.0196 15.384 4.12899 15.384 4.29308 15.384C4.94944 15.4387 5.16823 15.1106 5.22293 14.5636C5.22293 14.3448 5.27762 14.126 5.27762 13.9619C5.27762 12.868 5.55111 11.8287 5.87929 10.7895C6.37156 9.31269 7.3561 8.21875 8.77822 7.56239C9.05171 7.453 9.37989 7.28891 9.65337 7.17951C9.87216 7.07012 9.92686 6.79664 9.76276 6.57785C9.65337 6.46845 9.48928 6.30436 9.37989 6.19497C7.30141 4.66346 5.05884 3.67892 2.48809 3.40543C2.2693 3.40543 2.05051 3.35073 1.94112 3.13195C1.88642 2.96786 1.99581 2.69437 2.2693 2.58498C2.48809 2.47559 2.76157 2.36619 3.03505 2.36619C3.85551 2.58498 4.56657 2.53028 5.27762 2.47559ZM21.3585 41.8573C22.5071 41.8573 23.1635 41.7479 23.9839 41.4197C24.695 41.1462 25.3514 40.8181 26.0077 40.4899C26.7735 40.107 27.2658 39.5053 27.5939 38.7396C29.1801 35.239 31.2039 32.0119 33.3371 28.8395C34.5951 26.9798 36.0719 25.2295 37.5488 23.4792C37.7675 23.2057 38.041 22.9322 38.2598 22.6587C38.3692 22.4946 38.4239 22.3305 38.5333 22.2211C38.588 22.1117 38.4786 21.893 38.3145 21.893C38.0957 21.893 37.8222 21.893 37.6035 21.893C36.0719 22.057 34.5951 22.2758 33.1183 22.7134C31.8603 23.0416 30.657 23.3698 29.3442 23.5339C28.5785 23.6433 27.8674 23.698 27.1564 23.862C25.7342 24.1902 24.3121 24.2449 22.89 24.1355C21.4679 23.9714 20.1005 23.8073 18.6783 23.698C17.0921 23.5886 15.5059 23.5886 13.9197 23.5886C13.4821 23.5886 13.0993 23.5339 12.7164 23.3151C12.4429 23.151 12.1147 23.0416 11.7865 23.0416C10.9114 22.9869 10.0909 22.7134 9.27049 22.3305C9.05171 22.2211 8.83292 22.1664 8.61413 22.1117C8.39534 22.0571 8.17656 22.2758 8.28595 22.4946C8.45004 22.8228 8.61413 23.151 8.77822 23.4245C10.802 26.7063 12.7711 29.9881 14.4667 33.4887C14.6855 33.9263 14.9043 34.3638 15.1231 34.7467C15.9435 36.3329 16.8187 37.9191 17.475 39.6147C17.6391 40.0523 17.9126 40.3805 18.2955 40.654C19.2253 41.4744 20.3193 41.9667 21.3585 41.8573ZM23.6011 47.6005C24.6403 47.6552 25.6795 47.5458 26.7188 47.1629C27.3204 46.9441 27.8674 46.6706 28.4691 46.3971C28.6332 46.3424 28.7973 46.233 28.9614 46.1237C29.2895 45.9049 29.3989 45.6314 29.2895 45.2485C29.2348 45.0297 29.1801 44.8656 29.1254 44.6468C28.7973 43.6623 28.305 42.7871 27.8127 41.912C27.4298 41.2009 27.1017 40.8728 26.1718 41.5291C25.5155 41.9667 24.8591 42.3496 24.0933 42.5137C22.2336 43.0606 20.3739 43.17 18.6783 41.9667C18.6237 41.912 18.569 41.912 18.5143 41.8573C18.0767 41.6385 17.8032 41.6385 17.5297 42.0761C17.0921 42.7324 16.6546 43.4435 16.217 44.0999C15.8888 44.5921 15.9982 44.8656 16.4905 45.2485C16.5999 45.3032 16.7093 45.3579 16.764 45.4673C18.7877 46.8347 21.085 47.6552 23.6011 47.6005ZM6.42626 15.4387C6.42626 16.1498 6.42626 16.6968 6.42626 17.2437C6.37156 18.0642 6.64505 18.7752 7.13732 19.4316C7.52019 19.9239 7.95777 20.4161 8.50474 20.6896C9.1611 21.0178 9.76276 21.346 10.4738 21.6195C11.5131 22.057 12.6617 22.0024 13.7556 21.7289C13.9197 21.6742 14.0838 21.6195 14.2479 21.5101C14.412 21.4007 14.4667 21.1272 14.3026 21.0178C14.0838 20.799 13.865 20.6349 13.5915 20.4708C11.6225 19.1581 10.0909 17.4078 8.83292 15.4387C8.12186 14.2901 7.68429 13.0321 7.73898 11.61C7.73898 11.3912 7.73898 11.1177 7.68429 10.8989C7.68429 10.7895 7.57489 10.6801 7.4655 10.6254C7.3561 10.6254 7.19201 10.6801 7.13732 10.7348C6.97323 10.8989 6.86383 11.1177 6.80914 11.3365C6.69974 11.7193 6.64505 12.1022 6.59035 12.4851C6.37156 13.5243 6.48096 14.5636 6.42626 15.4387ZM25.0232 22.9322C28.4691 22.9322 30.7663 19.9786 30.821 17.0796C30.821 16.6968 30.7117 16.3139 30.5476 15.9857C30.2194 15.2199 29.6177 14.673 29.0707 14.0713C28.9614 13.9619 28.6879 13.8525 28.5238 13.8525C28.2503 13.9072 28.2503 14.1807 28.1956 14.3995C28.1956 14.5089 28.1956 14.6183 28.1409 14.7824C28.0315 15.2746 27.9768 15.7669 27.8127 16.2592C27.5939 16.9702 27.3204 17.6813 27.047 18.3924C26.9923 18.6112 26.8829 18.7752 26.7735 18.9393C26.0624 19.9786 25.3514 21.0725 24.4215 22.0024C24.3121 22.1117 24.2574 22.1664 24.2027 22.2758C23.9292 22.6587 24.0386 22.9322 24.5309 22.9869C24.695 22.9869 24.8591 22.9322 25.0232 22.9322ZM25.4608 7.89057C25.4608 7.453 25.4061 7.07012 25.1873 6.68724C25.0232 6.35906 24.695 6.30436 24.4762 6.57785C24.3121 6.74194 24.2574 6.90603 24.0933 7.07012C23.7652 7.50769 23.4917 7.94527 23.1088 8.32815C22.1242 9.31269 20.9756 9.96905 19.5535 10.0237C19.3894 10.0237 19.2253 10.0784 19.0612 10.1331C18.8971 10.1878 18.7877 10.3519 18.8424 10.5707C18.8424 10.6801 18.8971 10.7348 18.9518 10.8442C19.28 11.4459 19.5535 12.0475 19.7176 12.7586C19.7176 12.8133 19.7723 12.868 19.7723 12.9227C19.8817 13.1415 20.1005 13.1962 20.3193 13.1415C20.4286 13.0868 20.4833 13.0868 20.538 13.0321C21.5773 12.2663 22.6712 11.7193 23.8745 11.2818C24.3668 11.1177 24.695 10.7895 24.9138 10.3519C25.242 9.53148 25.4061 8.71102 25.4608 7.89057ZM32.9542 16.7515C33.0089 17.2437 33.0636 17.6813 33.173 18.1736C33.2824 18.8846 33.6653 19.4316 34.3216 19.8145C34.8686 20.1427 35.4703 20.4161 36.1266 20.5802C36.6736 20.6896 37.2753 20.6349 37.8222 20.5255C37.8769 20.5255 37.9316 20.4708 37.9863 20.4708C38.3692 20.3068 38.4239 19.9239 38.0957 19.7051C37.9316 19.5957 37.7675 19.4863 37.5488 19.3769C36.2907 18.6658 35.4703 17.6266 35.0327 16.2592C34.8686 15.6575 34.6498 15.0012 34.4857 14.3995C34.3763 14.0166 34.0482 13.9619 33.8294 14.2901C33.72 14.4542 33.5559 14.6183 33.5012 14.7824C33.0636 15.3293 32.8995 15.9857 32.9542 16.7515ZM17.9673 12.8133C17.9126 12.7586 17.9126 12.5945 17.8579 12.5945C17.7485 12.5945 17.5844 12.5945 17.475 12.7039C17.2015 12.9227 16.9827 13.1962 16.7093 13.415C15.9982 14.0713 15.1231 14.3448 14.1385 14.1807C13.8103 14.126 13.4822 14.0166 13.2087 13.9072C12.9899 13.8525 12.7711 13.6884 12.5523 13.6337C12.2241 13.5243 11.9506 13.6884 11.9506 14.0713C12.0053 14.9465 12.2241 15.8216 12.607 16.6421C12.8258 17.0796 13.154 17.189 13.6462 17.0796C15.2871 16.6421 16.5999 15.7122 17.5297 14.2354C17.7485 13.7978 17.9126 13.3603 17.9673 12.8133ZM18.5143 16.6421C18.5143 16.478 18.4596 16.1498 18.4049 15.8216C18.3502 15.6028 18.0767 15.4934 17.9126 15.6575C17.7485 15.8216 17.5297 15.9857 17.3656 16.1498C16.4905 17.0249 15.5059 17.6266 14.3026 17.9548C14.0291 18.0095 13.8103 18.1189 13.5368 18.2283C13.2087 18.3924 13.0993 18.6658 13.4275 18.9393C14.1385 19.5957 14.959 20.088 15.8888 20.3068C16.4905 20.4161 16.9827 20.1974 17.3656 19.7598C18.1314 18.8299 18.5143 17.8454 18.5143 16.6421ZM11.0208 9.25799C11.0755 8.92981 10.802 8.65633 10.4738 8.76572C10.0909 8.87511 9.76276 9.03921 9.37989 9.2033C8.94231 9.42208 8.72353 9.75026 8.66883 10.2425C8.66883 10.6254 8.66883 10.9536 8.66883 11.3365C8.61413 13.1415 9.37989 14.6183 10.5285 15.931C10.6379 16.0951 10.802 16.3139 11.0208 16.2045C11.2943 16.0951 11.1849 15.8763 11.1849 15.6575C11.1849 15.5481 11.1302 15.4387 11.1302 15.3293C11.0208 14.3995 10.8567 13.5243 10.9114 12.5945C11.0208 11.4459 11.0208 10.3519 11.0208 9.25799ZM36.9471 11.2818C37.1112 11.2818 37.2206 11.2818 37.3847 11.2818C37.8222 11.3365 38.1504 11.1724 38.3145 10.7348C38.3692 10.6254 38.3692 10.5707 38.4239 10.4613C38.8068 9.53148 39.3538 8.71102 40.0648 8.05466C40.5024 7.61709 40.9947 7.17951 41.4322 6.74194C41.5963 6.57785 41.7057 6.41376 41.8698 6.30436C41.9245 6.19497 41.8698 6.03088 41.7604 6.03088C41.5963 6.03088 41.3775 6.03088 41.2134 6.08558C39.2444 6.74194 37.6581 7.89057 36.3454 9.47678C36.0719 9.80496 35.9625 10.1878 35.8532 10.6254C35.7985 11.0083 35.9625 11.2271 36.2907 11.2271C36.5095 11.2818 36.7283 11.2818 36.9471 11.2818ZM8.01247 3.67892C7.57489 3.67892 7.3561 3.73361 7.4108 3.84301C7.4655 4.0071 7.62959 4.11649 7.73898 4.22588C7.84838 4.28058 7.95777 4.33528 8.06716 4.38997C9.27049 5.04634 10.4191 5.81209 11.4037 6.79664C11.6772 7.07012 12.0053 7.23421 12.4429 7.28891C12.9352 7.3436 13.4275 7.453 13.9197 7.50769C14.0291 7.50769 14.0838 7.56239 14.1932 7.56239C14.6308 7.61709 14.8496 7.23421 14.6308 6.85133C14.5761 6.74194 14.4667 6.57785 14.3573 6.46845C14.1385 6.24967 13.865 6.03088 13.5915 5.81209C12.06 4.66346 10.3097 4.06179 8.45004 3.62422C8.28595 3.67892 8.12186 3.67892 8.01247 3.67892ZM18.8424 9.25799C19.28 9.2033 19.6629 9.2033 20.1005 9.0939C20.3193 9.0392 20.538 8.92981 20.7021 8.76572C20.8115 8.71102 20.8115 8.49224 20.6474 8.49224C20.3739 8.38284 20.1005 8.27345 19.827 8.21875C18.8424 7.99997 18.0767 7.3983 17.5844 6.57785C17.3656 6.24967 17.2015 5.81209 16.9827 5.48391C16.8734 5.31982 16.764 5.10103 16.6546 4.93694C16.5452 4.82755 16.3811 4.77285 16.2717 4.93694C16.1623 5.04634 15.9982 5.21043 15.9435 5.37452C15.67 5.92149 15.67 6.46845 15.7247 7.01542C15.8341 7.67178 16.1076 8.16406 16.6546 8.60163C17.3109 9.0939 18.022 9.25799 18.8424 9.25799ZM25.242 14.673C25.242 13.6884 24.3121 12.9774 23.5464 13.3603C22.5071 13.8525 21.8508 14.6183 21.4132 15.6575C21.3585 15.8216 21.3038 16.0404 21.3038 16.2592C21.3038 17.2984 22.1789 17.7907 23.1088 17.2984C23.1635 17.2437 23.2182 17.2437 23.2729 17.189C23.9292 16.6421 24.5309 16.0951 24.9685 15.384C25.1326 15.1106 25.1873 14.8371 25.242 14.673ZM12.0053 10.4066C12.06 10.7348 12.06 11.063 12.1147 11.3365C12.2241 11.9381 12.5523 12.3757 13.0993 12.6492C13.3181 12.7586 13.5915 12.868 13.865 12.9227C15.0684 13.3056 16.3811 12.4851 16.6546 11.2271C16.6546 11.1724 16.6546 11.1724 16.6546 11.1177C16.6546 11.0083 16.5452 10.8989 16.4358 10.8989C16.2717 11.0083 16.0529 11.063 15.8888 11.1724C14.5761 12.0475 13.154 10.9536 13.2634 9.69557C13.2634 9.47678 13.2634 9.25799 13.2634 9.0939C13.2634 8.87511 13.154 8.76572 12.9899 8.71102C12.7711 8.65633 12.607 8.76572 12.4976 8.87511C12.3882 9.0392 12.2241 9.2033 12.1694 9.42208C12.06 9.80496 12.06 10.1331 12.0053 10.4066ZM19.4988 19.3222C19.4988 19.4316 19.5535 19.5957 19.6082 19.7598C19.8817 20.4708 20.3193 21.1272 20.9209 21.6742C21.1944 21.893 21.5226 22.1117 21.7961 22.2758C22.0149 22.3852 22.2336 22.4399 22.5071 22.3305C23.1635 22.0024 23.6558 21.5101 24.0386 20.8537C24.148 20.6896 24.0386 20.4161 23.8199 20.3614C23.7105 20.3068 23.6558 20.3068 23.5464 20.3068C22.5071 20.1974 21.5773 19.7051 20.6474 19.2128C20.4286 19.1034 20.2099 18.994 19.9911 18.8846C19.7723 18.7205 19.4988 18.9393 19.4988 19.3222ZM37.8222 16.1498C38.588 16.2045 39.3538 15.931 40.0648 15.5481C40.2289 15.4934 40.3383 15.3293 40.5024 15.2199C40.6118 15.0559 40.6665 14.8918 40.5571 14.7277C40.4477 14.5636 40.2836 14.4542 40.1195 14.5089C39.9007 14.5089 39.7366 14.6183 39.5178 14.673C39.135 14.8371 38.8068 14.8918 38.3692 14.8918C37.4941 14.8371 37.0565 14.5636 36.8377 13.6884C36.7283 13.4696 36.7283 13.2509 36.6189 13.0868C36.5095 12.7586 36.236 12.6492 35.9079 12.7586C35.525 12.868 35.3062 13.0868 35.3062 13.5243C35.3062 13.6884 35.3062 13.9072 35.3609 14.0713C35.6344 15.4934 36.0172 16.1498 37.8222 16.1498ZM30.8757 13.6884C31.0398 13.6337 31.1492 13.6884 31.2586 13.6337C32.5166 13.0868 33.6653 12.3757 34.3763 11.1177C34.4857 10.8989 34.5951 10.6801 34.6498 10.4613C34.7045 10.3519 34.6498 10.1331 34.5951 10.0784C34.4857 9.96905 34.3216 10.0237 34.2122 10.1331C34.1029 10.1878 33.9935 10.2972 33.9388 10.3519C32.8995 11.2818 31.6962 11.9381 30.3288 12.2116C30.0006 12.1569 29.6177 12.1569 29.563 12.5398C29.5083 12.868 29.7818 13.0321 29.9459 13.1962C30.0553 13.3056 30.2194 13.415 30.3835 13.5243C30.5476 13.579 30.7117 13.6337 30.8757 13.6884ZM29.3442 7.07012C29.2895 6.68724 29.2348 6.24967 29.1254 5.81209C29.016 5.48391 28.7426 5.31982 28.4144 5.42921C27.7033 5.648 27.047 6.08558 26.6641 6.68724C26.3359 7.17951 26.3906 7.99997 26.7735 8.32815C27.1017 8.60163 27.4845 8.76572 27.8674 8.92981C28.5238 9.1486 29.0161 8.82042 29.1801 8.21875C29.2895 7.89057 29.2895 7.50769 29.3442 7.07012ZM30.7663 4.60876C30.657 4.66346 30.4382 4.66346 30.2194 4.71816C29.7818 4.88225 29.6724 5.10103 29.7818 5.53861C29.8912 6.03088 30.0553 6.52315 30.1647 7.01542C30.2194 7.23421 30.1647 7.50769 30.2194 7.72648C30.2741 8.16406 30.4929 8.27345 30.8757 8.16406C31.1492 8.05466 31.4227 7.94527 31.6962 7.78118C32.0244 7.61709 32.1885 7.3436 32.1885 6.96073C32.1885 6.30436 32.0244 5.648 31.6962 5.10103C31.5321 4.77285 31.2586 4.66346 30.7663 4.60876ZM21.632 7.3436C22.0696 7.3436 22.5618 7.3436 22.89 7.01542C23.437 6.52315 23.7652 5.92149 23.9839 5.21043C24.0386 5.10103 23.9292 4.88225 23.8199 4.82755C23.7105 4.77285 23.5464 4.77285 23.437 4.82755C23.3276 4.88225 23.2182 4.99164 23.1088 5.10103C22.6165 5.53861 22.0149 5.648 21.3585 5.48391C21.085 5.42921 20.7568 5.31982 20.4833 5.26512C20.2099 5.21043 20.0458 5.42921 20.0458 5.7027C20.0458 6.57785 20.8662 7.3436 21.632 7.3436ZM19.4988 22.8775C19.7723 22.8775 20.1005 22.8228 20.2099 22.6587C20.3739 22.4946 20.1552 22.2758 20.0458 22.1117C19.9364 22.0024 19.827 21.8383 19.6629 21.7289C19.4441 21.5101 19.2253 21.2913 19.1706 21.0178C19.1706 20.9084 19.1159 20.799 19.0612 20.6896C18.8971 20.3614 18.5143 20.3068 18.3502 20.5802C17.9126 21.1819 17.2562 21.5101 16.6546 21.893C16.3811 22.057 15.9435 22.1664 15.9982 22.4946C16.1076 22.9322 16.5452 22.7681 16.928 22.8228C17.0374 22.8228 17.0921 22.8228 17.2015 22.8228C17.5844 22.7681 17.9126 22.7681 18.2955 22.8228C18.6237 22.8228 19.0065 22.9322 19.3347 22.9322C19.3894 22.8775 19.4441 22.8775 19.4988 22.8775ZM27.4298 11.4459C27.9221 11.3912 28.305 11.3365 28.7426 11.3365C29.5083 11.2818 29.8912 10.7895 30.2194 10.1878C30.3288 10.0237 30.1647 9.80496 29.9459 9.85966C29.6724 9.91435 29.3442 9.96905 29.0707 10.0784C28.6332 10.2425 28.1956 10.1878 27.8127 9.96905C27.7033 9.91435 27.5392 9.85966 27.4298 9.75026C26.3906 9.0939 26.2265 9.58617 25.953 10.4066C25.953 10.516 25.8983 10.5707 25.8983 10.6801C25.8436 11.0083 26.0077 11.2271 26.3359 11.3365C26.7188 11.3912 27.1564 11.3912 27.4298 11.4459ZM30.4929 22.3852C30.7117 22.3305 30.821 22.3305 30.9851 22.2758C31.6962 22.1117 32.4073 21.893 33.1183 21.6742C33.2824 21.6195 33.4465 21.5648 33.6106 21.4554C33.7747 21.346 33.8294 21.1272 33.72 20.9631C33.6653 20.9084 33.6106 20.799 33.5559 20.7443C33.1183 20.4161 32.6807 19.9786 32.4073 19.4863C32.3526 19.4316 32.2979 19.3769 32.2432 19.2675C32.0791 19.1581 31.8603 19.1581 31.7509 19.3222C31.6415 19.4316 31.5868 19.5957 31.5321 19.7051C31.2586 20.1427 30.9851 20.6349 30.7117 21.0725C30.5476 21.2913 30.3835 21.5101 30.2741 21.7289C30.1647 21.9477 30.1647 22.1117 30.1647 22.1664C30.2741 22.2758 30.3835 22.3305 30.4929 22.3852ZM34.8139 7.07012C34.8139 6.35906 33.8841 5.37452 33.2277 5.26512C33.0089 5.21043 32.7901 5.42921 32.8448 5.648C32.8995 6.03088 33.0089 6.41376 33.0636 6.79664C33.2277 7.50769 33.1183 8.16405 32.7901 8.76572C32.6807 8.98451 32.5166 9.25799 32.4073 9.47678C32.3526 9.53148 32.4073 9.64087 32.4619 9.69557C32.5166 9.75026 32.626 9.75026 32.6807 9.69557C33.6106 9.1486 34.2669 8.32815 34.7045 7.3983C34.8139 7.28891 34.8139 7.17951 34.8139 7.07012ZM40.7759 17.1343C40.7759 16.6968 40.6118 16.5327 40.2836 16.5874C40.1195 16.5874 40.0101 16.6421 39.846 16.6968C39.1897 16.9702 38.4786 17.0796 37.7675 17.1343C37.6581 17.1343 37.5488 17.1343 37.4394 17.189C37.2206 17.2437 37.1112 17.4625 37.2753 17.6813C37.33 17.736 37.3847 17.8454 37.4394 17.9001C38.041 18.3924 38.6974 18.7205 39.3538 18.994C39.6819 19.1034 39.9554 18.994 40.1195 18.7205C40.4477 18.1736 40.6665 17.6266 40.7759 17.1343ZM23.7652 19.2675C23.8745 19.2675 24.0933 19.2675 24.3121 19.2128C25.5155 18.994 25.953 18.283 25.6795 17.0796C25.6795 17.0249 25.6795 17.0249 25.6795 16.9702C25.6248 16.6968 25.3514 16.5874 25.1326 16.7515C25.0232 16.8062 24.9138 16.8609 24.8591 16.9702C24.2027 17.6813 23.437 18.283 22.5071 18.4471C22.4524 18.4471 22.343 18.5565 22.343 18.6111C22.343 18.6658 22.3977 18.7752 22.4524 18.8299C22.7806 19.1581 23.2182 19.2128 23.7652 19.2675ZM19.28 6.19497C19.1706 5.53861 19.0065 4.66346 18.8424 3.73361C18.8424 3.62422 18.7877 3.56952 18.733 3.51483C18.6236 3.46013 18.569 3.35073 18.4596 3.35073C17.8579 3.24134 17.3109 3.78831 17.475 4.33528C17.6938 5.04634 18.022 5.7027 18.5143 6.30436C18.6237 6.41376 18.7877 6.52315 18.9518 6.63254C19.0612 6.74194 19.28 6.63254 19.28 6.19497ZM21.632 4.82755C22.1242 4.82755 22.4524 4.66346 22.7259 4.33528C23.0541 3.9524 22.8353 3.40543 22.343 3.35073C22.1242 3.35073 21.9055 3.35073 21.7414 3.40543C21.3585 3.46013 21.0303 3.46013 20.7021 3.18664C20.5927 3.13195 20.4833 3.07725 20.3739 3.02255C20.1552 2.96786 19.9911 2.91316 19.7723 3.07725C19.6082 3.24134 19.6082 3.46013 19.6629 3.62422C19.7723 3.78831 19.8817 4.0071 19.9911 4.11649C20.538 4.60876 21.085 4.77285 21.632 4.82755ZM27.3204 14.2354C27.2658 13.9072 27.2111 13.6337 27.1564 13.415C26.9923 12.9227 26.6094 12.7039 26.1171 12.7586C25.8436 12.7586 25.6795 12.9774 25.7889 13.2509C25.7889 13.3056 25.7889 13.3056 25.8436 13.3603C26.1718 13.8525 26.3359 14.4542 26.5 15.0012C26.5 15.1106 26.5547 15.1652 26.6094 15.2746C26.6641 15.384 26.7735 15.4934 26.8829 15.4934C26.9923 15.4934 27.1017 15.384 27.1564 15.3293C27.1564 14.8371 27.2111 14.5089 27.3204 14.2354ZM3.74611 16.478C3.47263 16.5327 3.14445 16.5874 2.87096 16.6421C2.81627 16.6421 2.70687 16.7515 2.70687 16.8062C2.70687 16.8609 2.76157 17.0249 2.81627 17.0249C3.41793 17.3531 4.0196 17.6813 4.62126 17.9548C4.73066 18.0095 4.84005 18.0095 4.94944 17.9548C5.00414 17.9548 5.11353 17.9001 5.16823 17.7907C5.38702 17.3531 5.16823 16.7515 4.73066 16.5874C4.40248 16.5327 4.07429 16.5327 3.74611 16.478ZM39.7366 12.1022C39.9007 11.9928 40.1195 11.9928 40.1742 11.8834C40.6118 11.3912 40.9947 10.8442 41.3775 10.3519C41.4322 10.2972 41.4322 10.1331 41.3775 10.1331C41.2681 10.0784 41.1587 10.0237 41.0494 10.0237C40.4477 10.1878 39.9007 10.516 39.4084 10.8989C39.2991 10.9536 39.2444 11.063 39.1897 11.1724C39.0803 11.3912 39.0256 11.61 39.1897 11.774C39.3538 11.9381 39.5725 11.9928 39.7366 12.1022ZM19.827 16.478C19.827 16.7515 19.827 17.0796 19.827 17.3531C19.8817 17.6813 20.1552 17.9001 20.538 17.9548C20.7021 17.9548 20.8115 17.7907 20.8115 17.6813C20.8115 17.6266 20.8115 17.5719 20.7568 17.5172C20.4286 16.8609 20.374 16.1498 20.538 15.4387C20.5927 15.3293 20.538 15.1652 20.4286 15.0012C20.374 14.8918 20.1005 15.0012 19.9911 15.2199C19.8817 15.4387 19.827 15.6575 19.7723 15.8763C19.827 16.0404 19.827 16.2592 19.827 16.478ZM13.8103 4.22588C13.9197 4.44467 13.9744 4.71816 14.0838 4.99164C14.1932 5.21043 14.5214 5.31982 14.6855 5.21043C14.9043 5.15573 15.0137 4.93694 15.0137 4.71816C15.0137 4.60876 15.0684 4.49937 15.0137 4.38997C14.9043 4.0071 14.6308 3.73361 14.2479 3.56952C14.0838 3.51483 13.9744 3.56952 13.865 3.73361C13.865 3.84301 13.865 4.0071 13.8103 4.22588ZM14.8496 9.0939C14.4667 9.0392 14.2479 9.2033 14.1932 9.53148C14.1385 9.91435 14.412 10.3519 14.7949 10.4066C15.1231 10.4613 15.5059 10.1878 15.5606 9.80496C15.5606 9.42208 15.2871 9.1486 14.8496 9.0939Z" fill="url(#paint0_linear)"/>
<defs>
<linearGradient id="paint0_linear" x1="-2.6408e-07" y1="26.5095" x2="46.0268" y2="26.5095" gradientUnits="userSpaceOnUse">
<stop stop-color="#FE5B3A"/>
<stop offset="1" stop-color="#8F43FE"/>
</linearGradient>
</defs>
</svg>
